<?xml version="1.0" encoding="UTF-8" standalone="no"?>
<!DOCTYPE svg PUBLIC "-//W3C//DTD SVG 1.1//EN" "http://www.w3.org/Graphics/SVG/1.1/DTD/svg11.dtd">
<svg width="100%" height="100%" viewBox="0 0 100 100" version="1.1" xmlns="http://www.w3.org/2000/svg" xmlns:xlink="http://www.w3.org/1999/xlink" xml:space="preserve" xmlns:serif="http://www.serif.com/" style="fill-rule:evenodd;clip-rule:evenodd;stroke-linejoin:round;stroke-miterlimit:2;">
    <rect id="Page-1" serif:id="Page 1" x="0" y="0" width="100" height="100" style="fill:none;"/>
    <g id="Page-11" serif:id="Page 1">
        <g id="Drawing">
            <g transform="matrix(1,0,0,1,29.0284,35.3035)">
                <path d="M0,37.892C-3.397,32.71 -5.47,26.875 -6.447,20.77C-7.345,15.163 -7.789,8.805 -4.304,3.975C-0.951,-0.67 4.669,-3.273 9.89,-5.195C15.978,-7.435 22.399,-9.239 28.947,-8.826C34.273,-8.489 39.587,-6.483 43.223,-2.478C47.19,1.893 48.747,7.998 49.225,13.739C49.752,20.062 49.894,26.933 48.278,33.112C46.885,38.434 43.736,43.331 38.331,45.184C35.232,46.246 31.934,46.606 28.686,46.877C25.297,47.161 21.879,47.248 18.489,46.932C15.355,46.64 12.135,45.936 9.269,44.609C6.133,43.159 3.473,41.017 0.841,38.816C-0.194,37.95 -1.68,37.802 -2.694,38.816C-3.584,39.706 -3.735,41.481 -2.694,42.352C0.033,44.632 2.798,46.956 5.991,48.563C8.924,50.038 12.079,51.019 15.318,51.531C22.022,52.591 29.054,52.215 35.717,51.003C39.105,50.386 42.42,49.234 45.178,47.128C47.698,45.202 49.704,42.647 51.101,39.803C54.341,33.204 54.591,25.659 54.452,18.445C54.317,11.434 53.392,4.19 49.758,-1.949C46.374,-7.664 40.808,-11.512 34.375,-13.035C27.343,-14.699 20.032,-13.671 13.205,-11.587C6.72,-9.608 0.052,-7.051 -5.092,-2.501C-7.901,-0.017 -10.166,3.186 -11.212,6.812C-12.289,10.546 -12.145,14.587 -11.754,18.415C-10.958,26.205 -8.632,33.834 -4.317,40.416C-2.56,43.096 1.771,40.594 0,37.892" style="fill:rgb(35,31,32);fill-rule:nonzero;"/>
            </g>
            <g transform="matrix(1,0,0,1,38.1855,12.6073)">
                <path d="M0,13.237C-0.223,13.086 -0.446,12.934 -0.661,12.772C-0.435,12.942 -1.025,12.47 -1.096,12.408C-1.534,12.03 -1.952,11.628 -2.349,11.207C-3.233,10.272 -3.63,9.741 -4.326,8.634C-5.633,6.558 -6.367,4.808 -7.057,2.542C-7.219,2.011 -7.381,1.476 -7.497,0.933C-7.531,0.771 -7.575,0.259 -7.549,0.684C-7.565,0.417 -7.573,0.155 -7.558,-0.112C-7.537,-0.51 -7.588,0.29 -7.544,-0.09C-7.511,-0.373 -7.549,-0.001 -7.614,0.021C-7.656,0.035 -7.308,-0.284 -7.58,-0.062C-7.662,0.005 -7.731,0.09 -7.82,0.158C-8.028,0.317 -8.231,0.102 -7.86,0.21C-8.321,0.076 -7.22,0.498 -7.599,0.312C-7.357,0.431 -7.131,0.581 -6.905,0.727C-6.604,0.922 -6.819,0.755 -6.558,1C-6.327,1.216 -6.099,1.431 -5.884,1.663C-5.792,1.763 -5.703,1.866 -5.613,1.967C-5.583,2.002 -5.35,2.293 -5.496,2.102C-4.77,3.049 -4.204,4.127 -3.691,5.2C-2.361,7.98 -1.309,10.77 0.723,13.145C1.601,14.172 3.356,14.047 4.258,13.145C5.276,12.128 5.138,10.639 4.258,9.609C2.477,7.528 1.528,4.361 0.194,1.811C-1.226,-0.905 -3.524,-3.895 -6.677,-4.628C-8.602,-5.075 -10.672,-4.483 -11.77,-2.763C-12.649,-1.386 -12.663,0.252 -12.403,1.809C-11.932,4.626 -10.701,7.506 -9.33,9.992C-7.665,13.012 -5.382,15.617 -2.524,17.554C-1.405,18.312 0.247,17.768 0.897,16.657C1.618,15.425 1.121,13.997 0,13.237" style="fill:rgb(35,31,32);fill-rule:nonzero;"/>
            </g>
            <g transform="matrix(1,0,0,1,43.2183,5.9618)">
                <path d="M0,18.261C-0.166,15.056 -0.086,11.617 1.197,8.672C2.148,6.49 3.893,4.38 6.056,3.515C7.522,2.929 9.108,2.844 10.667,2.848C11.953,2.851 13.597,2.884 14.591,3.621C15.258,4.116 15.734,5.12 15.842,5.813C16.04,7.088 15.763,8.111 15.083,9.279C13.354,12.248 9.966,13.747 6.997,15.164C5.779,15.745 5.459,17.488 6.1,18.584C6.829,19.83 8.298,20.065 9.521,19.481C13.245,17.703 16.969,15.678 19.231,12.081C21.318,8.763 21.526,4.32 19.075,1.133C16.342,-2.419 11.299,-2.5 7.23,-1.908C3.202,-1.322 -0.108,1.114 -2.249,4.532C-4.794,8.595 -5.242,13.581 -5,18.261C-4.93,19.61 -3.901,20.761 -2.5,20.761C-1.2,20.761 0.07,19.616 0,18.261" style="fill:rgb(35,31,32);fill-rule:nonzero;"/>
            </g>
            <g transform="matrix(1,0,0,1,47.9122,13.2957)">
                <path d="M0,11.41C0.685,9.47 1.35,7.521 2.057,5.589C2.122,5.412 2.188,5.235 2.256,5.059C2.295,4.959 2.335,4.858 2.376,4.758C2.478,4.508 2.457,4.558 2.311,4.908C2.32,4.91 2.827,3.854 2.882,3.758C2.987,3.575 3.098,3.394 3.216,3.219C3.275,3.132 3.335,3.046 3.397,2.962C3.163,3.258 3.13,3.304 3.298,3.098C3.589,2.788 3.874,2.494 4.211,2.232C4.68,1.868 4.943,1.026 4.943,0.465C4.943,-0.148 4.671,-0.881 4.211,-1.303C3.735,-1.74 3.109,-2.065 2.443,-2.035C1.736,-2.004 1.23,-1.733 0.676,-1.303C-1.005,0.002 -1.92,2.019 -2.651,3.957C-3.415,5.982 -4.101,8.04 -4.821,10.081C-5.257,11.316 -4.328,12.871 -3.075,13.156C-1.676,13.475 -0.466,12.732 0,11.41" style="fill:rgb(35,31,32);fill-rule:nonzero;"/>
            </g>
            <g transform="matrix(1,0,0,1,36.4353,52.3235)">
                <path d="M0,5C3.217,5 3.223,0 0,0C-3.217,0 -3.223,5 0,5" style="fill:rgb(35,31,32);fill-rule:nonzero;"/>
            </g>
            <g transform="matrix(1,0,0,1,56.9833,48.6278)">
                <path d="M0,5C3.217,5 3.223,0 0,0C-3.217,0 -3.223,5 0,5" style="fill:rgb(35,31,32);fill-rule:nonzero;"/>
            </g>
            <g transform="matrix(1,0,0,1,41.4774,62.1364)">
                <path d="M0,-16.472C0.253,-10.761 1.101,-5.07 2.545,0.462C2.886,1.768 4.331,2.562 5.62,2.208C6.941,1.845 7.708,0.444 7.366,-0.867C6.006,-6.081 5.237,-11.13 5,-16.472C4.942,-17.777 3.892,-19.034 2.5,-18.972C1.195,-18.914 -0.062,-17.871 0,-16.472" style="fill:rgb(35,31,32);fill-rule:nonzero;"/>
            </g>
            <g transform="matrix(1,0,0,1,33.4736,60.5361)">
                <path d="M0,8.188C2.574,10.921 6.237,12.031 9.795,12.835C13.642,13.704 17.588,14.209 21.504,13.514C29.023,12.179 33.077,5.655 36.276,-0.626C37.733,-3.488 33.421,-6.021 31.959,-3.15C29.419,1.836 26.557,7.384 20.585,8.614C17.548,9.24 14.318,8.724 11.334,8.06C8.562,7.443 5.555,6.796 3.536,4.652C1.325,2.305 -2.206,5.846 0,8.188" style="fill:rgb(35,31,32);fill-rule:nonzero;"/>
            </g>
            <g transform="matrix(1,0,0,1,82.671,58.5058)">
                <path d="M0,-11.949C1.389,-12.284 2.763,-12.634 4.199,-12.625C4.33,-12.624 5.156,-12.571 4.86,-12.61C5.132,-12.574 5.403,-12.507 5.666,-12.435C5.646,-12.44 6.437,-12.176 6.098,-12.314C6.42,-12.183 6.763,-11.992 7.037,-11.778C6.755,-11.998 7.347,-11.454 7.34,-11.463C7.164,-11.661 7.589,-11.083 7.604,-11.057C7.813,-10.68 7.983,-10.036 8.08,-9.435C8.025,-9.772 8.138,-8.863 8.133,-8.926C8.157,-8.639 8.173,-8.35 8.183,-8.062C8.206,-7.382 8.174,-6.711 8.133,-6.033C8.013,-4.028 7.1,-1.961 5.618,-0.544C5.146,-0.094 4.053,0.453 3.349,0.638C3.242,0.666 2.327,0.792 2.766,0.762C2.515,0.779 2.263,0.768 2.012,0.78C1.4,0.81 2.276,0.891 1.679,0.753C1.346,0.676 1.027,0.585 0.706,0.467C-0.563,0.003 -2.033,0.988 -2.37,2.213C-2.753,3.607 -1.896,4.823 -0.624,5.289C1.865,6.2 4.64,5.763 6.947,4.557C9.396,3.276 11.102,1.057 12.123,-1.466C13.101,-3.882 13.366,-6.638 13.107,-9.22C12.802,-12.25 11.646,-15.167 8.744,-16.572C5.49,-18.149 2.054,-17.586 -1.329,-16.77C-2.642,-16.454 -3.425,-14.967 -3.075,-13.695C-2.707,-12.355 -1.317,-11.631 0,-11.949" style="fill:rgb(35,31,32);fill-rule:nonzero;"/>
            </g>
            <g transform="matrix(1,0,0,1,18.6954,76.4756)">
                <path d="M0,-19.709C-1.502,-19.715 -3.004,-19.721 -4.507,-19.727C-6.251,-19.734 -8.06,-19.887 -9.394,-18.535C-10.442,-17.472 -10.996,-15.763 -11.391,-14.359C-11.757,-13.061 -11.979,-11.704 -12.079,-10.361C-12.284,-7.628 -11.658,-4.88 -9.886,-2.746C-8.276,-0.806 -5.611,0.178 -3.133,0.147C0.157,0.107 2.945,-1.605 4.865,-4.204C5.645,-5.259 5.074,-7.04 3.968,-7.624C2.662,-8.314 1.38,-7.854 0.547,-6.727C0.779,-7.041 0.435,-6.603 0.35,-6.51C0.193,-6.339 0.027,-6.174 -0.146,-6.018C-0.246,-5.927 -0.688,-5.62 -0.367,-5.826C-0.629,-5.657 -0.883,-5.484 -1.159,-5.335C-1.357,-5.229 -1.737,-5.095 -1.305,-5.243C-1.49,-5.179 -1.672,-5.108 -1.861,-5.053C-2.049,-4.997 -2.24,-4.95 -2.432,-4.91C-2.528,-4.891 -2.626,-4.877 -2.722,-4.858C-3.068,-4.788 -2.29,-4.872 -2.642,-4.876C-3.031,-4.881 -3.429,-4.879 -3.819,-4.878C-4.103,-4.876 -3.667,-4.849 -3.64,-4.845C-3.736,-4.862 -3.832,-4.877 -3.928,-4.895C-4.15,-4.939 -4.371,-4.992 -4.588,-5.058C-4.712,-5.095 -4.833,-5.139 -4.955,-5.18C-5.017,-5.201 -5.287,-5.343 -5.014,-5.2C-4.729,-5.053 -5.238,-5.33 -5.317,-5.375C-5.484,-5.471 -5.639,-5.582 -5.801,-5.686C-6.035,-5.836 -5.692,-5.609 -5.674,-5.59C-5.761,-5.683 -5.867,-5.761 -5.958,-5.851C-6.097,-5.987 -6.227,-6.131 -6.35,-6.281C-6.084,-5.958 -6.369,-6.341 -6.452,-6.481C-6.562,-6.664 -6.652,-6.856 -6.75,-7.046C-6.535,-6.632 -6.785,-7.174 -6.837,-7.345C-6.91,-7.585 -6.971,-7.828 -7.021,-8.074C-7.06,-8.268 -7.086,-8.709 -7.061,-8.268C-7.088,-8.747 -7.125,-9.218 -7.113,-9.698C-7.107,-9.919 -7.096,-10.14 -7.079,-10.361C-7.071,-10.472 -7.06,-10.582 -7.051,-10.692C-7.048,-10.731 -7.013,-11.1 -7.045,-10.799C-7.076,-10.5 -7.036,-10.862 -7.029,-10.903C-7.011,-11.011 -6.994,-11.119 -6.975,-11.227C-6.926,-11.507 -6.871,-11.787 -6.81,-12.065C-6.695,-12.591 -6.557,-13.111 -6.389,-13.623C-6.312,-13.859 -6.228,-14.092 -6.138,-14.323C-6.033,-14.593 -6.128,-14.346 -6.15,-14.297C-6.082,-14.447 -6.011,-14.597 -5.936,-14.744C-5.89,-14.835 -5.791,-14.959 -5.769,-15.058C-5.724,-15.253 -5.824,-15.021 -5.949,-14.941C-6.016,-14.898 -6.653,-14.74 -6.655,-14.721C-6.653,-14.737 -6.234,-14.733 -6.197,-14.733C-5.54,-14.739 -4.882,-14.728 -4.225,-14.726C-2.817,-14.72 -1.408,-14.715 0,-14.709C1.308,-14.704 2.56,-15.863 2.5,-17.209C2.439,-18.568 1.402,-19.704 0,-19.709" style="fill:rgb(35,31,32);fill-rule:nonzero;"/>
            </g>
            <g transform="matrix(1,0,0,1,20.7264,92.5761)">
                <path d="M0,-18.306C-0.336,-11.996 -0.001,-5.709 0.882,0.545C1.054,1.758 2.535,2.5 3.625,2.336C4.866,2.149 5.756,1.152 5.793,-0.119C5.914,-4.249 6.394,-8.333 7.254,-12.374C6.229,-11.792 5.203,-11.21 4.178,-10.628C3.71,-10.775 3.385,-11.048 3.203,-11.445C3.251,-11.257 3.295,-11.068 3.333,-10.878C3.438,-10.411 3.537,-9.942 3.64,-9.475L4.253,-6.667C4.663,-4.795 5.072,-2.923 5.481,-1.051C5.744,0.15 7.063,0.914 8.224,0.739C9.548,0.54 10.236,-0.443 10.392,-1.716C10.581,-3.268 10.771,-4.82 10.96,-6.372C11.048,-7.088 11.135,-7.804 11.223,-8.52C11.267,-8.879 11.31,-9.237 11.354,-9.595C11.383,-9.834 11.412,-10.072 11.442,-10.311C11.429,-10.064 11.312,-9.854 11.088,-9.679C10.721,-9.465 10.353,-9.251 9.985,-9.036C9.894,-9.025 9.803,-9.014 9.711,-9.004C9.291,-9.117 8.87,-9.231 8.449,-9.345C8.245,-9.547 8.241,-9.539 8.438,-9.323C8.581,-9.143 8.723,-8.962 8.865,-8.781C9.053,-8.542 9.238,-8.301 9.422,-8.058C9.943,-7.372 10.456,-6.678 10.959,-5.979C11.875,-4.705 12.669,-3.131 13.8,-2.039C15.271,-0.618 17.563,-0.796 18.904,-2.289C19.463,-2.911 19.842,-3.697 20.005,-4.514C20.1,-4.994 20.093,-5.488 20.18,-5.967C20.153,-5.741 20.169,-5.777 20.227,-6.076C20.19,-5.984 20.141,-5.9 20.08,-5.823C21.007,-6.804 21.054,-8.385 20.08,-9.358C19.144,-10.295 17.475,-10.343 16.545,-9.358C15.537,-8.292 15.318,-7.107 15.153,-5.702C15.144,-5.614 15.135,-5.526 15.126,-5.438C15.156,-5.688 15.137,-5.666 15.068,-5.372C15.508,-5.834 14.564,-5.585 16.123,-5.732C15.499,-5.673 17.231,-6.026 17.243,-5.67C17.238,-5.825 16.753,-6.395 16.663,-6.526C15.215,-8.644 13.698,-10.731 12.08,-12.723C11.108,-13.921 9.449,-14.419 8.059,-13.606C6.602,-12.754 6.535,-11.079 6.354,-9.595C6.033,-6.969 5.712,-4.342 5.392,-1.716C7.029,-1.938 8.665,-2.159 10.302,-2.381C9.791,-4.72 9.279,-7.06 8.768,-9.4C8.281,-11.629 8.134,-14.712 5.508,-15.449C4.264,-15.798 2.713,-15.023 2.432,-13.703C1.483,-9.237 0.927,-4.684 0.793,-0.119C2.43,-0.341 4.067,-0.563 5.704,-0.784C4.886,-6.578 4.689,-12.466 5,-18.306C5.072,-19.656 3.8,-20.806 2.5,-20.806C1.087,-20.806 0.072,-19.66 0,-18.306" style="fill:rgb(35,31,32);fill-rule:nonzero;"/>
            </g>
            <g transform="matrix(1,0,0,1,72.0705,60.9185)">
                <path d="M0,20.097C0.804,22.04 2.059,24.384 3.98,25.456C5.13,26.097 6.585,25.981 7.564,25.074C8.376,24.321 8.636,23.294 8.855,22.248C9.82,17.649 9.913,12.936 9.969,8.255C8.416,8.676 6.863,9.097 5.31,9.517C7.511,13.986 9.785,18.359 12.913,22.261C13.523,23.022 14.824,23.139 15.644,22.778C16.624,22.347 17.068,21.53 17.181,20.493C18.049,12.491 17.767,4.462 16.481,-3.48C16.153,-5.513 12.746,-6 11.912,-4.077C9.244,2.076 7.624,8.496 7.109,15.188C7.005,16.536 8.332,17.688 9.609,17.688C11.048,17.688 12.005,16.54 12.109,15.188C12.551,9.447 13.937,3.734 16.229,-1.554L11.66,-2.151C12.871,5.33 12.998,12.963 12.181,20.493C13.603,19.904 15.026,19.315 16.449,18.726C13.614,15.19 11.619,11.037 9.628,6.994C8.493,4.689 4.997,5.901 4.969,8.255C4.94,10.65 4.912,13.046 4.749,15.435C4.677,16.482 4.589,17.53 4.446,18.57C4.36,19.2 4.25,19.828 4.128,20.451C4.067,20.764 4.002,21.075 3.933,21.386C3.746,21.951 3.778,22.002 4.028,21.538C4.396,21.324 4.764,21.109 5.131,20.895C5.042,20.921 4.953,20.947 4.864,20.973L6.193,20.973C6.608,21.099 6.352,21.007 6.164,20.774C5.994,20.565 5.802,20.382 5.64,20.165C5.327,19.746 5.022,19.252 4.821,18.768C4.306,17.521 3.163,16.632 1.746,17.022C0.568,17.346 -0.519,18.842 0,20.097" style="fill:rgb(35,31,32);fill-rule:nonzero;"/>
            </g>
            <g transform="matrix(1,0,0,1,29.5534,49.3932)">
                <path d="M0,-23.624C-2.727,-19.989 -5.361,-16.273 -7.612,-12.32C-9.927,-8.256 -12.038,-3.994 -11.273,0.801C-10.914,3.051 -7.742,3.062 -6.704,1.398C-2.105,-5.97 0.903,-14.573 7.349,-20.634L3.081,-22.402C2.624,-18.486 2.082,-14.582 1.46,-10.69C1.14,-8.687 2.548,-7.316 4.535,-7.614C6.634,-7.93 8.104,-10.653 9.246,-12.202C10.417,-13.789 11.556,-15.4 12.892,-16.857C13.309,-17.313 13.849,-18.063 14.477,-18.251C14.509,-18.261 14.705,-18.213 14.9,-18.14C14.658,-18.231 15.509,-17.817 15.417,-17.869C16.913,-17.027 18.279,-15.931 20.031,-15.673C21.048,-15.523 22.001,-15.689 22.659,-16.569C23.228,-17.33 23.419,-18.506 22.854,-19.345C21.041,-22.042 18.849,-24.288 16.233,-26.209C15.812,-24.656 15.392,-23.103 14.971,-21.55C16.081,-21.409 17.178,-20.839 18.189,-20.397C19.446,-19.848 20.702,-19.299 21.958,-18.75C24.471,-17.652 26.983,-16.553 29.495,-15.455C32.054,-14.337 34.477,-17.139 32.525,-19.382C31.14,-20.973 29.754,-22.564 28.369,-24.156C27.558,-22.763 26.748,-21.37 25.937,-19.977C30.518,-18.349 35.099,-16.721 39.681,-15.093C41.966,-14.281 44.045,-17.703 42.113,-19.271C40.828,-20.315 39.597,-21.414 38.415,-22.573C37.826,-21.15 37.236,-19.727 36.647,-18.305C38.719,-18.063 40.696,-17.339 42.498,-16.311C45.298,-14.714 47.82,-19.033 45.022,-20.628C42.404,-22.121 39.629,-22.956 36.647,-23.305C34.422,-23.565 33.448,-20.44 34.879,-19.037C36.061,-17.878 37.292,-16.779 38.578,-15.736L41.01,-19.914C36.429,-21.542 31.847,-23.171 27.266,-24.799C26.234,-25.165 24.972,-24.555 24.443,-23.65C23.856,-22.647 24.099,-21.464 24.834,-20.62C26.219,-19.029 27.604,-17.437 28.989,-15.846C29.999,-17.155 31.009,-18.464 32.019,-19.773C29.211,-21 26.403,-22.227 23.595,-23.455C20.789,-24.681 18.037,-26.16 14.971,-26.55C13.903,-26.686 12.825,-25.677 12.56,-24.715C12.246,-23.572 12.806,-22.555 13.709,-21.892C15.597,-20.506 17.233,-18.762 18.537,-16.822C19.478,-18.046 20.419,-19.27 21.36,-20.494C19.781,-20.727 18.566,-21.948 17.107,-22.603C15.152,-23.48 13.062,-23.445 11.275,-22.159C9.465,-20.856 8.083,-18.95 6.749,-17.189C6.044,-16.259 5.364,-15.31 4.668,-14.373C4.36,-13.959 4.051,-13.546 3.73,-13.142C3.548,-12.914 3.364,-12.688 3.177,-12.465C2.867,-12.14 2.877,-12.131 3.206,-12.436C4.231,-11.411 5.256,-10.386 6.281,-9.36C6.974,-13.694 7.573,-18.042 8.081,-22.402C8.348,-24.689 5.244,-25.515 3.813,-24.169C-2.977,-17.785 -6.182,-8.879 -11.021,-1.125L-6.452,-0.528C-7.026,-4.127 -4.34,-8.066 -2.597,-10.994C-0.507,-14.505 1.867,-17.834 4.317,-21.1C5.128,-22.181 4.492,-23.894 3.42,-24.521C2.142,-25.268 0.813,-24.707 0,-23.624" style="fill:rgb(35,31,32);fill-rule:nonzero;"/>
            </g>
        </g>
    </g>
</svg>
