<?xml version="1.0" encoding="UTF-8" standalone="no"?>
<!DOCTYPE svg PUBLIC "-//W3C//DTD SVG 1.1//EN" "http://www.w3.org/Graphics/SVG/1.1/DTD/svg11.dtd">
<svg width="100%" height="100%" viewBox="0 0 100 100" version="1.1" xmlns="http://www.w3.org/2000/svg" xmlns:xlink="http://www.w3.org/1999/xlink" xml:space="preserve" xmlns:serif="http://www.serif.com/" style="fill-rule:evenodd;clip-rule:evenodd;stroke-linejoin:round;stroke-miterlimit:2;">
    <g transform="matrix(1,0,0,1,-112.5,-112.5)">
        <g id="Page-10" serif:id="Page 10" transform="matrix(1,0,0,1,112.5,112.5)">
            <rect x="0" y="0" width="100" height="100" style="fill:none;"/>
            <clipPath id="_clip1">
                <rect x="0" y="0" width="100" height="100"/>
            </clipPath>
            <g clip-path="url(#_clip1)">
                <g id="Drawing">
                    <g transform="matrix(1,0,0,1,33.993,63.3488)">
                        <path d="M0,-43.351C0.025,-43.715 0.783,-44.263 1.014,-44.499C1.621,-45.117 2.237,-45.727 2.867,-46.321C4.18,-47.558 5.548,-48.723 7.076,-49.688C10.152,-51.63 13.656,-52.428 17.251,-52.689C23.743,-53.159 31.086,-53.062 35.961,-48.123C40.82,-43.199 43.052,-35.777 43.599,-29.034C44.219,-21.399 42.885,-13.807 40.811,-6.481C39.693,-2.534 38.391,1.486 36.343,5.061C35.503,6.53 34.473,7.943 32.922,8.716C31.295,9.527 29.382,9.619 27.601,9.744C26.254,9.838 25.101,10.825 25.101,12.244C25.101,13.524 26.247,14.839 27.601,14.744C31.843,14.447 35.976,13.713 38.818,10.238C41.454,7.016 43.003,2.929 44.335,-0.972C47.189,-9.331 49.087,-18.396 48.709,-27.262C48.355,-35.562 45.948,-44.205 40.456,-50.611C34.836,-57.168 26.304,-58.19 18.156,-57.745C13.242,-57.478 8.361,-56.518 4.192,-53.773C2.273,-52.509 0.512,-51 -1.139,-49.407C-2.935,-47.673 -4.819,-45.991 -5,-43.351C-5.092,-42.002 -3.785,-40.851 -2.5,-40.851C-1.07,-40.851 -0.093,-41.998 0,-43.351" style="fill:rgb(35,31,32);fill-rule:nonzero;"/>
                    </g>
                    <g transform="matrix(1,0,0,1,61.9334,18.1249)">
                        <path d="M0,55.127C-8.79,55.069 -18.058,52.433 -23.95,45.55C-27.285,41.653 -29.483,36.582 -31.557,31.935C-32.626,29.54 -33.542,27.006 -33.943,24.405C-34.358,21.705 -34.132,18.895 -33.646,16.22C-33.103,13.226 -32.353,10.238 -31.503,7.315C-30.782,4.833 -29.849,2.447 -27.896,0.674C-25.508,-1.493 -29.052,-5.021 -31.432,-2.862C-35.642,0.959 -36.794,7.212 -37.982,12.514C-39.382,18.765 -39.591,24.854 -37.335,30.931C-36.267,33.808 -34.911,36.572 -33.556,39.321C-32.272,41.925 -30.926,44.515 -29.219,46.871C-26.154,51.1 -22.077,54.41 -17.306,56.545C-11.86,58.982 -5.955,60.088 0,60.127C3.218,60.148 3.222,55.148 0,55.127" style="fill:rgb(35,31,32);fill-rule:nonzero;"/>
                    </g>
                    <g transform="matrix(1,0,0,1,30.3124,52.739)">
                        <path d="M0,-31.019C-0.188,-25.801 -1.592,-20.72 -1.95,-15.514C-2.322,-10.102 -1.909,-4.678 -1.498,0.718C-1.396,2.065 -0.423,3.218 1.002,3.218C2.275,3.218 3.605,2.072 3.502,0.718C3.091,-4.678 2.678,-10.102 3.05,-15.514C3.408,-20.72 4.812,-25.795 5,-31.019C5.116,-34.237 0.116,-34.232 0,-31.019" style="fill:rgb(35,31,32);fill-rule:nonzero;"/>
                    </g>
                    <g transform="matrix(-0.975301,0.22088,0.22088,0.975301,45.4207,45.7821)">
                        <path d="M3.319,-30.781C5.903,-20.909 8.421,-10.92 8.315,-0.642C8.281,2.575 3.286,2.347 3.319,-0.873C3.42,-10.691 0.911,-20.249 -1.557,-29.677C-2.373,-32.792 2.505,-33.892 3.319,-30.781" style="fill:rgb(35,31,32);fill-rule:nonzero;"/>
                    </g>
                    <g transform="matrix(1,0,0,1,33.0235,67.8752)">
                        <path d="M0,-55.367C-11.285,-45.626 -14.878,-30.349 -15.695,-16.077C-15.96,-11.459 -15.976,-6.832 -15.991,-2.208C-16.002,1.009 -11.002,1.014 -10.991,-2.208C-10.935,-19.437 -10.63,-39.604 3.536,-51.831C4.558,-52.714 4.441,-54.462 3.536,-55.367C2.521,-56.381 1.025,-56.252 0,-55.367" style="fill:rgb(35,31,32);fill-rule:nonzero;"/>
                    </g>
                    <g transform="matrix(1,0,0,1,63.9733,40.0446)">
                        <path d="M0,-24.609C8.041,-17.606 13.364,-8.052 15.13,2.46C15.354,3.792 16.999,4.537 18.206,4.206C19.618,3.818 20.176,2.467 19.952,1.131C18.059,-10.128 12.143,-20.649 3.536,-28.145C2.518,-29.031 1.001,-29.146 0,-28.145C-0.905,-27.239 -1.022,-25.499 0,-24.609" style="fill:rgb(35,31,32);fill-rule:nonzero;"/>
                    </g>
                    <g transform="matrix(-0.909528,0.415642,0.415642,0.909528,85.9657,47.8412)">
                        <path d="M7.041,-35.126C5.32,-22.606 6.857,-9.782 11.589,1.943C12.789,4.918 8.248,7.012 7.041,4.021C1.986,-8.505 0.225,-22.238 2.066,-35.627C2.502,-38.806 7.481,-38.326 7.041,-35.126" style="fill:rgb(35,31,32);fill-rule:nonzero;"/>
                    </g>
                    <g transform="matrix(1,0,0,1,70.4268,53.1083)">
                        <path d="M0,-39.508C3.85,-37.851 6.84,-35.031 9.573,-31.916C12.544,-28.528 15.283,-24.93 17.845,-21.224C23.024,-13.729 27.473,-5.692 30.989,2.715C31.509,3.96 32.643,4.851 34.064,4.461C35.238,4.138 36.334,2.639 35.81,1.386C30.057,-12.371 22.188,-25.69 12.015,-36.666C9.313,-39.581 6.202,-42.242 2.524,-43.825C1.284,-44.359 -0.157,-44.193 -0.897,-42.928C-1.513,-41.874 -1.247,-40.045 0,-39.508" style="fill:rgb(35,31,32);fill-rule:nonzero;"/>
                    </g>
                    <g transform="matrix(1,0,0,1,79.8457,56.0653)">
                        <path d="M0,-22.248C6.557,-14.951 10.732,-5.825 12.187,3.861C12.387,5.198 14.072,5.934 15.262,5.607C16.692,5.214 17.209,3.873 17.008,2.532C15.427,-7.998 10.642,-17.875 3.536,-25.784C1.38,-28.182 -2.146,-24.637 0,-22.248" style="fill:rgb(35,31,32);fill-rule:nonzero;"/>
                    </g>
                    <g transform="matrix(1,0,0,1,74.7536,34.1471)">
                        <path d="M0,-13.625C4.395,-8.582 8.158,-2.997 11.266,3C11.887,4.199 13.563,4.554 14.686,3.897C15.902,3.186 16.206,1.68 15.583,0.477C12.296,-5.866 8.229,-11.776 3.536,-17.161C2.648,-18.179 0.909,-18.069 0,-17.161C-1.01,-16.15 -0.89,-14.646 0,-13.625" style="fill:rgb(35,31,32);fill-rule:nonzero;"/>
                    </g>
                    <g transform="matrix(1,0,0,1,43.5007,30.814)">
                        <path d="M0,-20.374C-5.435,-15.672 -9.391,-9.338 -11.322,-2.422C-11.685,-1.122 -10.874,0.296 -9.576,0.653C-8.265,1.013 -6.865,0.212 -6.501,-1.093C-4.787,-7.23 -1.368,-12.596 3.536,-16.838C4.557,-17.722 4.442,-19.468 3.536,-20.374C2.522,-21.387 1.024,-21.26 0,-20.374" style="fill:rgb(35,31,32);fill-rule:nonzero;"/>
                    </g>
                    <g transform="matrix(1,0,0,1,48.0009,14.8356)">
                        <path d="M0,-1.696C8.299,-2.144 18.262,-2.641 24.08,4.481C24.934,5.528 26.728,5.368 27.615,4.481C28.65,3.447 28.472,1.995 27.615,0.946C20.942,-7.224 9.593,-7.213 0,-6.696C-3.2,-6.523 -3.221,-1.522 0,-1.696" style="fill:rgb(35,31,32);fill-rule:nonzero;"/>
                    </g>
                    <g transform="matrix(1,0,0,1,43.3437,30.7022)">
                        <path d="M0,4.776C0.454,5.184 0.784,5.371 1.349,5.575C1.409,5.597 1.467,5.614 1.53,5.626C1.791,5.675 2.073,5.727 2.341,5.727C2.604,5.728 2.876,5.674 3.132,5.63C3.195,5.619 3.254,5.604 3.315,5.584C3.881,5.392 4.238,5.176 4.684,4.778C4.928,4.552 5.1,4.284 5.201,3.974C5.357,3.676 5.429,3.355 5.416,3.011C5.386,2.789 5.357,2.567 5.327,2.346C5.208,1.922 4.994,1.555 4.684,1.243C4.632,1.186 4.578,1.137 4.519,1.089C4.316,0.923 4.109,0.742 3.881,0.61C3.65,0.476 3.389,0.383 3.142,0.287C3.072,0.259 3.001,0.234 2.927,0.217C2.661,0.155 2.377,0.126 2.106,0.101C2.038,0.095 1.971,0.091 1.903,0.094C1.623,0.108 1.334,0.151 1.059,0.206C0.985,0.22 0.913,0.243 0.842,0.27C0.517,0.348 0.234,0.497 -0.008,0.718C-0.28,0.894 -0.495,1.128 -0.652,1.419L-0.904,2.017C-1.023,2.46 -1.023,2.903 -0.904,3.346C-0.897,3.384 -0.887,3.414 -0.874,3.451C-0.806,3.648 -0.703,3.916 -0.596,4.095C-0.505,4.246 -0.296,4.516 -0.173,4.643C-0.082,4.738 0.023,4.805 0.132,4.889C0.499,5.173 0.597,5.235 1.108,5.411C1.364,5.499 1.654,5.518 1.92,5.541C2.19,5.563 2.476,5.502 2.738,5.454C3.006,5.405 3.27,5.272 3.503,5.153C3.814,4.995 4.11,4.764 4.33,4.49C4.553,4.213 4.779,3.948 4.925,3.624C5.085,3.267 5.249,2.901 5.357,2.523C5.524,1.934 5.605,1.303 5.604,0.691C5.617,0.347 5.545,0.026 5.389,-0.272C5.288,-0.582 5.116,-0.85 4.872,-1.076C4.395,-1.514 3.77,-1.837 3.104,-1.809C2.204,-1.77 1.265,-1.431 0.67,-0.72C0.227,-0.19 0.089,0.056 -0.159,0.704C-0.294,1.054 -0.33,1.454 -0.34,1.823C-0.358,2.425 -0.217,3.053 0,3.615C0.27,4.312 0.52,5.007 1.084,5.531C1.901,6.289 3.032,6.613 4.119,6.303C4.597,6.167 4.903,5.985 5.272,5.7C5.64,5.415 5.933,5.127 6.171,4.705C6.606,3.929 6.771,2.932 6.475,2.074C6.363,1.751 6.24,1.419 6.037,1.141C5.641,0.599 5.408,0.362 4.855,-0.03C4.55,-0.246 4.166,-0.391 3.824,-0.51C3.731,-0.543 3.636,-0.565 3.539,-0.583C3.228,-0.64 2.903,-0.688 2.585,-0.703C1.916,-0.732 1.235,-0.584 0.582,-0.443C0.257,-0.366 -0.027,-0.217 -0.268,0.004C-0.54,0.18 -0.755,0.414 -0.912,0.706C-1.095,0.993 -1.194,1.302 -1.209,1.635C-1.283,1.967 -1.268,2.3 -1.164,2.632C-0.968,3.237 -0.593,3.821 -0.015,4.126L0.582,4.378C1.025,4.497 1.468,4.497 1.911,4.378C2.162,4.324 2.412,4.272 2.666,4.238C2.445,4.268 2.223,4.297 2.002,4.327C2.274,4.293 2.544,4.283 2.817,4.319C2.595,4.289 2.374,4.259 2.152,4.23C2.299,4.253 2.44,4.288 2.578,4.343C2.379,4.259 2.18,4.175 1.981,4.091C2.119,4.15 2.247,4.224 2.367,4.314C2.198,4.184 2.03,4.054 1.861,3.923C1.953,3.997 2.036,4.078 2.11,4.17C1.98,4.002 1.85,3.833 1.72,3.664C1.781,3.745 1.832,3.829 1.874,3.921L1.622,3.324C1.661,3.418 1.687,3.512 1.701,3.612C1.671,3.391 1.641,3.169 1.612,2.948C1.618,3.017 1.619,3.083 1.612,3.151C1.642,2.93 1.671,2.708 1.701,2.487C1.691,2.551 1.674,2.612 1.652,2.673C1.736,2.474 1.82,2.275 1.904,2.076C1.867,2.161 1.822,2.237 1.765,2.31C1.896,2.142 2.026,1.973 2.156,1.804C2.106,1.865 2.051,1.919 1.989,1.969C2.158,1.838 2.327,1.708 2.495,1.578C2.433,1.624 2.368,1.663 2.298,1.696L2.895,1.444C2.825,1.473 2.756,1.493 2.681,1.505C2.903,1.475 3.125,1.445 3.346,1.415C3.285,1.422 3.226,1.421 3.165,1.414C3.387,1.444 3.609,1.473 3.83,1.503C3.781,1.494 3.736,1.481 3.69,1.463L4.287,1.715C4.237,1.692 4.194,1.666 4.149,1.634C4.318,1.764 4.487,1.894 4.655,2.024C4.608,1.985 4.566,1.943 4.526,1.896C4.656,2.064 4.786,2.233 4.917,2.401C4.82,2.276 4.753,2.137 4.692,1.993L4.944,2.59C4.791,2.22 4.64,1.844 4.585,1.445C4.614,1.667 4.644,1.889 4.674,2.11C4.657,1.961 4.654,1.814 4.672,1.664C4.642,1.886 4.613,2.107 4.583,2.329C4.601,2.212 4.633,2.102 4.679,1.992C4.595,2.192 4.511,2.391 4.427,2.59C4.47,2.496 4.521,2.409 4.583,2.326C4.453,2.495 4.323,2.663 4.192,2.832C4.246,2.764 4.305,2.704 4.371,2.648C4.203,2.779 4.034,2.909 3.865,3.039C3.933,2.987 4.002,2.945 4.08,2.91L3.482,3.162C3.549,3.137 3.614,3.119 3.683,3.108C3.462,3.138 3.24,3.168 3.019,3.198C3.047,3.194 3.076,3.192 3.104,3.191C2.271,2.358 1.437,1.525 0.604,0.691C0.604,0.884 0.593,1.075 0.569,1.266C0.599,1.045 0.628,0.823 0.658,0.602C0.608,0.965 0.513,1.316 0.373,1.656C0.457,1.457 0.541,1.257 0.625,1.058C0.564,1.2 0.495,1.335 0.404,1.46L0.795,0.954C0.739,1.026 0.678,1.089 0.607,1.146L1.113,0.755C1.064,0.791 1.014,0.82 0.959,0.846L1.556,0.594C1.507,0.612 1.46,0.625 1.409,0.632C1.631,0.603 1.852,0.573 2.074,0.543C2.021,0.547 1.972,0.546 1.92,0.541C2.141,0.571 2.363,0.6 2.585,0.63C2.533,0.621 2.486,0.608 2.438,0.59L3.035,0.842C2.989,0.821 2.948,0.797 2.908,0.767C3.077,0.897 3.245,1.027 3.414,1.158C3.386,1.133 3.363,1.109 3.34,1.08C3.471,1.249 3.601,1.417 3.731,1.586C3.717,1.567 3.705,1.546 3.695,1.525L3.947,2.122C3.933,2.086 3.924,2.055 3.918,2.017C3.336,3.042 2.754,4.067 2.172,5.092C2.272,5.053 2.371,5.028 2.477,5.013C2.256,5.042 2.034,5.072 1.813,5.102C1.919,5.091 2.022,5.092 2.129,5.103C1.907,5.074 1.686,5.044 1.464,5.014C1.585,5.032 1.7,5.063 1.813,5.108L1.216,4.856C1.314,4.9 1.403,4.952 1.489,5.015C1.32,4.885 1.152,4.754 0.983,4.624C1.043,4.672 1.097,4.722 1.148,4.778L1.148,1.243C1.128,1.262 1.106,1.28 1.084,1.297C1.253,1.167 1.421,1.036 1.59,0.906C1.532,0.947 1.473,0.98 1.408,1.007C1.607,0.923 1.806,0.839 2.005,0.755C1.939,0.78 1.873,0.797 1.803,0.808C2.024,0.778 2.246,0.749 2.467,0.719C2.383,0.728 2.301,0.728 2.216,0.718C2.437,0.748 2.659,0.778 2.88,0.808C2.81,0.796 2.744,0.779 2.678,0.754C2.877,0.838 3.076,0.922 3.275,1.006C3.21,0.978 3.151,0.945 3.094,0.904C3.262,1.034 3.431,1.165 3.6,1.295C3.577,1.278 3.556,1.26 3.536,1.24C3.042,0.797 2.444,0.508 1.768,0.508C1.424,0.495 1.102,0.567 0.805,0.724C0.495,0.824 0.226,0.997 0,1.24C-0.437,1.717 -0.762,2.342 -0.732,3.008C-0.703,3.651 -0.494,4.332 0,4.776" style="fill:rgb(35,31,32);fill-rule:nonzero;"/>
                    </g>
                    <g transform="matrix(1,0,0,1,62.3996,36.2721)">
                        <path d="M0,-7.478C-0.287,-7.356 -0.544,-7.14 -0.758,-6.917C-0.925,-6.743 -1.086,-6.523 -1.221,-6.324C-1.258,-6.27 -1.288,-6.215 -1.316,-6.156C-1.448,-5.875 -1.592,-5.582 -1.646,-5.273C-1.743,-4.711 -1.762,-4.487 -1.693,-3.975C-1.66,-3.73 -1.642,-3.53 -1.556,-3.306C-1.434,-2.991 -1.306,-2.643 -1.106,-2.36C-0.815,-1.946 -0.498,-1.561 -0.134,-1.212C0.098,-0.99 0.363,-0.8 0.621,-0.61C0.735,-0.526 0.855,-0.454 0.984,-0.394C1.25,-0.27 1.554,-0.115 1.856,-0.055C2.387,0.05 2.931,0.102 3.461,-0.062C3.584,-0.1 3.677,-0.148 3.811,-0.204C3.892,-0.239 4.067,-0.3 4.174,-0.361C4.196,-0.374 4.215,-0.389 4.235,-0.403C4.391,-0.51 4.638,-0.686 4.77,-0.819C5.142,-1.192 5.41,-1.639 5.553,-2.146C5.7,-2.667 5.684,-3.191 5.562,-3.713C5.548,-3.771 5.533,-3.823 5.511,-3.878C5.416,-4.124 5.328,-4.391 5.181,-4.613C4.863,-5.093 4.54,-5.421 4.055,-5.731C3.545,-6.058 3.027,-6.135 2.442,-6.196C1.879,-6.254 1.293,-6.119 0.753,-5.961C0.329,-5.842 -0.038,-5.628 -0.35,-5.318C-0.594,-5.092 -0.766,-4.823 -0.867,-4.513C-1.024,-4.215 -1.096,-3.894 -1.083,-3.55C-1.081,-3.099 -0.967,-2.678 -0.741,-2.288C-0.675,-2.151 -0.598,-2.022 -0.509,-1.898C-0.306,-1.62 -0.098,-1.326 0.153,-1.086C0.508,-0.748 0.926,-0.424 1.378,-0.222C2.031,0.069 2.723,0.341 3.459,0.28C4.07,0.23 4.287,0.183 4.838,-0.095C5.073,-0.214 5.289,-0.387 5.474,-0.572C5.507,-0.604 5.534,-0.637 5.563,-0.672C5.7,-0.84 5.862,-1.034 5.979,-1.215C6.028,-1.291 6.071,-1.371 6.108,-1.453C6.248,-1.756 6.395,-2.068 6.487,-2.392C6.586,-2.744 6.624,-3.123 6.653,-3.483C6.665,-3.626 6.66,-3.767 6.643,-3.909C6.602,-4.254 6.579,-4.624 6.453,-4.956C6.33,-5.279 6.211,-5.613 6.005,-5.894C5.613,-6.428 5.446,-6.616 4.895,-6.999C4.344,-7.383 3.696,-7.498 3.047,-7.558C2.711,-7.589 2.358,-7.518 2.033,-7.46C1.712,-7.403 1.396,-7.246 1.112,-7.106C0.826,-6.964 0.559,-6.754 0.343,-6.521C-0.088,-6.056 -0.255,-5.724 -0.471,-5.131C-0.575,-4.799 -0.59,-4.467 -0.516,-4.134C-0.501,-3.802 -0.402,-3.492 -0.219,-3.205C-0.062,-2.913 0.153,-2.68 0.425,-2.503C0.666,-2.282 0.95,-2.133 1.275,-2.056C1.915,-1.91 2.633,-1.942 3.201,-2.308C3.37,-2.438 3.539,-2.568 3.707,-2.699C4.017,-3.011 4.231,-3.378 4.35,-3.802C4.358,-3.824 4.366,-3.845 4.375,-3.867L4.123,-3.269C4.152,-3.331 4.186,-3.387 4.226,-3.441C4.096,-3.273 3.966,-3.104 3.835,-2.935C3.878,-2.987 3.923,-3.032 3.974,-3.074C3.806,-2.944 3.637,-2.814 3.468,-2.683C3.54,-2.737 3.615,-2.781 3.697,-2.817L3.1,-2.565C3.196,-2.603 3.294,-2.628 3.396,-2.644C3.175,-2.614 2.953,-2.584 2.732,-2.554C2.849,-2.568 2.965,-2.568 3.082,-2.554L2.417,-2.644C2.534,-2.626 2.646,-2.596 2.756,-2.55L2.159,-2.802C2.244,-2.764 2.324,-2.717 2.399,-2.661C2.23,-2.791 2.062,-2.921 1.893,-3.052C1.963,-2.996 2.022,-2.934 2.078,-2.865L1.688,-3.371C1.759,-3.276 1.818,-3.177 1.867,-3.069L1.615,-3.667C1.672,-3.53 1.71,-3.391 1.732,-3.244C1.702,-3.466 1.673,-3.687 1.643,-3.909C1.666,-3.729 1.664,-3.55 1.641,-3.37C1.671,-3.592 1.701,-3.813 1.73,-4.035C1.702,-3.837 1.65,-3.648 1.575,-3.463C1.66,-3.662 1.743,-3.861 1.828,-4.06C1.774,-3.935 1.714,-3.814 1.636,-3.702C1.767,-3.871 1.897,-4.039 2.027,-4.208C1.99,-4.16 1.952,-4.118 1.905,-4.079L2.411,-4.47C2.372,-4.442 2.336,-4.422 2.292,-4.403L2.889,-4.655C2.858,-4.644 2.827,-4.636 2.795,-4.631C3.016,-4.661 3.238,-4.69 3.459,-4.72C3.375,-4.71 3.296,-4.713 3.212,-4.722C3.434,-4.692 3.655,-4.662 3.877,-4.633C3.679,-4.662 3.489,-4.716 3.305,-4.792L3.902,-4.54C3.706,-4.625 3.524,-4.733 3.355,-4.864L3.861,-4.473C3.706,-4.597 3.568,-4.736 3.445,-4.892L3.836,-4.386C3.735,-4.52 3.649,-4.661 3.576,-4.812C3.078,-3.588 2.58,-2.364 2.082,-1.14C2.278,-1.197 2.473,-1.25 2.675,-1.28C2.453,-1.251 2.232,-1.221 2.01,-1.191C2.155,-1.209 2.297,-1.214 2.442,-1.196C2.22,-1.225 1.999,-1.255 1.777,-1.285C1.862,-1.27 1.943,-1.25 2.023,-1.218C1.824,-1.302 1.625,-1.386 1.426,-1.47C1.487,-1.442 1.542,-1.408 1.596,-1.367C1.427,-1.498 1.259,-1.628 1.09,-1.758C1.142,-1.715 1.188,-1.668 1.231,-1.615C1.1,-1.784 0.97,-1.953 0.84,-2.121C0.88,-2.067 0.913,-2.012 0.942,-1.952L0.69,-2.549C0.715,-2.489 0.733,-2.429 0.744,-2.365C0.714,-2.587 0.684,-2.808 0.654,-3.03C0.66,-2.98 0.661,-2.933 0.657,-2.883C0.686,-3.104 0.716,-3.326 0.746,-3.547C0.738,-3.498 0.725,-3.453 0.706,-3.407L0.958,-4.004C0.94,-3.969 0.921,-3.939 0.898,-3.907C1.028,-4.076 1.159,-4.244 1.289,-4.413C1.262,-4.382 1.236,-4.356 1.206,-4.329C1.374,-4.46 1.543,-4.59 1.712,-4.72C1.672,-4.691 1.632,-4.667 1.586,-4.648C1.785,-4.732 1.984,-4.816 2.183,-4.9C2.148,-4.888 2.116,-4.879 2.079,-4.872C2.301,-4.902 2.523,-4.932 2.744,-4.961C2.681,-4.953 2.622,-4.954 2.559,-4.96C2.78,-4.93 3.002,-4.9 3.223,-4.871C3.128,-4.885 3.039,-4.911 2.949,-4.947L3.547,-4.695C3.382,-4.765 3.233,-4.859 3.091,-4.968C3.259,-4.838 3.428,-4.707 3.597,-4.577C3.332,-4.788 3.088,-5.042 2.88,-5.308C3.01,-5.139 3.141,-4.971 3.271,-4.802C3.17,-4.937 3.082,-5.078 3.014,-5.233L3.266,-4.635C3.222,-4.745 3.189,-4.855 3.173,-4.972C3.203,-4.75 3.232,-4.529 3.262,-4.307C3.253,-4.402 3.253,-4.494 3.262,-4.588C3.232,-4.367 3.203,-4.145 3.173,-3.924C3.187,-4.03 3.213,-4.131 3.254,-4.23L3.002,-3.632C3.034,-3.703 3.072,-3.768 3.119,-3.831C2.989,-3.662 2.858,-3.493 2.728,-3.325C2.769,-3.374 2.812,-3.417 2.862,-3.458L2.356,-3.067C2.409,-3.105 2.463,-3.135 2.524,-3.161C2.815,-3.318 3.049,-3.532 3.225,-3.805C3.446,-4.046 3.595,-4.329 3.673,-4.655C3.777,-4.987 3.792,-5.319 3.717,-5.652C3.702,-5.984 3.603,-6.294 3.42,-6.581C3.076,-7.115 2.564,-7.585 1.926,-7.73C1.705,-7.76 1.483,-7.79 1.262,-7.819C0.811,-7.818 0.39,-7.704 0,-7.478" style="fill:rgb(35,31,32);fill-rule:nonzero;"/>
                    </g>
                    <g transform="matrix(1,0,0,1,54.8137,50.5985)">
                        <path d="M0,-10.108C0.017,-8.455 -0.036,-6.802 -0.165,-5.154C-0.228,-4.346 -0.309,-3.539 -0.407,-2.735C-0.42,-2.631 -0.495,-1.961 -0.418,-2.628C-0.441,-2.435 -0.472,-2.243 -0.501,-2.051C-0.567,-1.602 -0.64,-1.154 -0.717,-0.707C-0.872,0.197 -0.751,1.048 -0.074,1.726C0.583,2.382 1.473,2.561 2.359,2.368C3.907,2.033 5.456,1.697 7.005,1.361C8.284,1.084 9.151,-0.479 8.751,-1.714C8.315,-3.062 7.047,-3.758 5.675,-3.46C4.127,-3.125 2.578,-2.789 1.03,-2.453L4.105,0.622C4.713,-2.923 5.036,-6.51 5,-10.108C4.987,-11.415 3.86,-12.669 2.5,-12.608C1.157,-12.548 -0.014,-11.509 0,-10.108" style="fill:rgb(35,31,32);fill-rule:nonzero;"/>
                    </g>
                    <g transform="matrix(1,0,0,1,47.4838,62.8021)">
                        <path d="M0,-0.755C-1.743,4.467 4.144,7.687 8.282,8.74C10.515,9.308 12.877,9.493 15.166,9.22C17.587,8.931 20.008,8.377 21.463,6.237C22.809,4.258 23.288,1.511 23.56,-0.819C23.818,-3.022 23.498,-5.317 22.022,-7.054C20.516,-8.827 18.123,-9.395 15.925,-9.742C13.369,-10.146 10.862,-10.248 8.299,-9.839C3.389,-9.056 -0.868,-5.959 -2.696,-1.296C-3.091,-0.287 -2.433,1.018 -1.547,1.527C-1.214,1.719 -0.881,1.91 -0.549,2.101C2.246,3.708 4.767,-0.611 1.975,-2.216L0.977,-2.79C1.36,-1.849 1.743,-0.908 2.126,0.033C4.295,-5.501 12.04,-5.828 16.937,-4.438C17.964,-4.146 18.508,-3.713 18.631,-2.775C18.831,-1.258 18.37,0.434 17.934,1.864C17.784,2.354 17.645,3.062 17.334,3.467C17.042,3.848 16.614,3.904 16.107,4.024C14.602,4.379 13.023,4.428 11.487,4.271C9.929,4.112 8.332,3.654 6.93,2.955C5.958,2.47 4.447,1.695 4.821,0.574C5.249,-0.706 4.327,-2.157 3.075,-2.501C1.712,-2.876 0.429,-2.04 0,-0.755" style="fill:rgb(35,31,32);fill-rule:nonzero;"/>
                    </g>
                    <g transform="matrix(1,0,0,1,37.0207,55.8641)">
                        <path d="M0,-5.762C-0.608,-4.393 -1.215,-3.024 -1.823,-1.655C-2.059,-1.124 -2.2,-0.654 -2.12,-0.061C-2.049,0.464 -1.834,1.006 -1.432,1.375C-1.113,1.668 -0.742,1.884 -0.329,2.018C0.201,2.189 1.137,2.117 1.597,1.766C2.826,0.827 4.055,-0.111 5.284,-1.049C4.144,-1.348 3.004,-1.647 1.864,-1.946C2.025,-1.725 2.186,-1.503 2.347,-1.282C2.724,-0.765 3.185,-0.283 3.841,-0.133C4.459,0.008 5.233,0.004 5.768,-0.385C6.885,-1.199 8.002,-2.013 9.119,-2.826C7.979,-3.125 6.839,-3.424 5.699,-3.723C5.765,-3.614 5.82,-3.509 5.871,-3.392L5.619,-3.989C5.678,-3.831 5.719,-3.676 5.748,-3.509C5.718,-3.731 5.688,-3.952 5.658,-4.174C5.682,-3.963 5.68,-3.763 5.652,-3.553C5.681,-3.774 5.711,-3.996 5.741,-4.217C5.716,-4.092 5.686,-3.977 5.645,-3.857C5.229,-2.616 6.125,-1.07 7.391,-0.781C8.774,-0.466 10.021,-1.199 10.467,-2.527C10.875,-3.743 10.675,-5.159 10.016,-6.247C9.369,-7.316 7.704,-7.951 6.596,-7.144C5.479,-6.33 4.361,-5.516 3.244,-4.702C4.384,-4.403 5.524,-4.104 6.665,-3.805C6.503,-4.027 6.342,-4.248 6.181,-4.47C5.805,-4.987 5.344,-5.469 4.687,-5.619C4.078,-5.757 3.282,-5.764 2.761,-5.367L-0.926,-2.552C0.214,-1.412 1.354,-0.271 2.494,0.869C3.102,-0.5 3.71,-1.869 4.317,-3.238C4.599,-3.873 4.761,-4.467 4.569,-5.165C4.41,-5.745 3.961,-6.373 3.42,-6.659C2.84,-6.965 2.137,-7.119 1.494,-6.911C0.914,-6.723 0.258,-6.344 0,-5.762" style="fill:rgb(35,31,32);fill-rule:nonzero;"/>
                    </g>
                    <g transform="matrix(1,0,0,1,66.7025,49.1791)">
                        <path d="M0,-3.347C-0.437,-2.301 -0.83,-1.239 -1.178,-0.161C-1.503,0.848 -0.971,2.165 -0.029,2.663C0.985,3.198 2.155,3.052 3.001,2.272C3.816,1.52 4.632,0.768 5.447,0.016C5.835,-0.342 6.222,-0.699 6.609,-1.056C6.813,-1.244 7.017,-1.432 7.221,-1.62C7.322,-1.714 7.43,-1.804 7.527,-1.902C7.882,-2.264 7.053,-1.615 7.424,-1.832C7.225,-1.748 7.026,-1.664 6.827,-1.58C6.863,-1.592 6.898,-1.604 6.933,-1.616C6.712,-1.587 6.49,-1.557 6.268,-1.527C6.306,-1.529 6.343,-1.531 6.38,-1.533C6.159,-1.563 5.937,-1.593 5.716,-1.623C5.742,-1.617 5.769,-1.612 5.795,-1.606L5.198,-1.858C5.661,-1.647 4.394,-2.939 4.551,-2.52C4.576,-2.454 4.618,-2.386 4.646,-2.321L4.394,-2.918C4.645,-2.317 4.841,-1.774 5.319,-1.307C5.981,-0.66 6.763,-0.485 7.649,-0.403C7.428,-0.432 7.206,-0.462 6.985,-0.492C7.062,-0.486 7.138,-0.468 7.21,-0.44L6.613,-0.692C6.383,-0.923 6.154,-1.154 5.924,-1.386C5.84,-1.585 5.756,-1.784 5.672,-1.983L5.697,-1.899C5.668,-2.121 5.638,-2.343 5.608,-2.564C5.619,-2.463 5.615,-2.381 5.602,-2.281C5.631,-2.502 5.661,-2.724 5.691,-2.945C5.552,-2.231 5.396,-1.56 5.581,-0.831C5.782,-0.037 6.31,0.69 7.035,1.088C8.311,1.789 9.699,1.505 10.955,0.946C11.49,0.708 11.955,-0.008 12.103,-0.548C12.268,-1.146 12.194,-1.943 11.851,-2.474C11.507,-3.008 10.995,-3.478 10.357,-3.623C9.662,-3.781 9.078,-3.659 8.431,-3.371C8.402,-3.358 8.373,-3.345 8.344,-3.332L8.941,-3.584C8.751,-3.508 8.559,-3.453 8.358,-3.417C8.579,-3.447 8.801,-3.476 9.022,-3.506C8.86,-3.485 8.704,-3.478 8.541,-3.497C8.763,-3.467 8.984,-3.437 9.206,-3.407C9.118,-3.425 9.044,-3.446 8.961,-3.481L9.558,-3.229C9.772,-3.105 9.945,-2.94 10.076,-2.736C10.225,-2.514 10.261,-2.476 10.184,-2.621L10.436,-2.024C10.413,-2.084 10.399,-2.146 10.395,-2.21C10.424,-1.988 10.454,-1.767 10.484,-1.545C10.48,-1.615 10.482,-1.685 10.492,-1.754C10.463,-1.532 10.433,-1.311 10.403,-1.089C10.554,-1.992 10.742,-2.722 10.367,-3.611C10.122,-4.191 9.699,-4.704 9.136,-5.009C8.585,-5.308 8.021,-5.359 7.41,-5.427C7.631,-5.397 7.853,-5.368 8.074,-5.338C7.996,-5.347 7.921,-5.37 7.851,-5.407L8.449,-5.155C8.574,-5.061 8.699,-4.966 8.824,-4.872C9.1,-4.481 9.19,-4.373 9.095,-4.549C9.077,-4.616 9.026,-4.696 8.999,-4.759L9.251,-4.162C9.001,-4.763 8.835,-5.242 8.357,-5.708C7.804,-6.249 7.04,-6.545 6.268,-6.527C4.929,-6.495 4.046,-5.488 3.135,-4.648C1.912,-3.52 0.689,-2.392 -0.535,-1.264C0.858,-0.453 2.251,0.358 3.644,1.169C3.992,0.09 4.384,-0.972 4.821,-2.018C5.053,-2.573 4.858,-3.452 4.569,-3.944C4.266,-4.463 3.671,-4.957 3.075,-5.093C2.435,-5.239 1.717,-5.207 1.149,-4.841C0.564,-4.464 0.266,-3.983 0,-3.347" style="fill:rgb(35,31,32);fill-rule:nonzero;"/>
                    </g>
                    <g transform="matrix(1,0,0,1,43.973,12.0372)">
                        <path d="M0,7.477C3.371,5.348 7.23,4.13 11.192,3.732C14.185,3.431 19.489,2.689 21.384,5.74C23.078,8.468 27.405,5.961 25.701,3.217C22.802,-1.451 16.986,-1.725 12.047,-1.344C6.914,-0.948 1.857,0.393 -2.524,3.16C-5.237,4.873 -2.731,9.202 0,7.477" style="fill:rgb(35,31,32);fill-rule:nonzero;"/>
                    </g>
                    <g transform="matrix(1,0,0,1,47.9329,99.5732)">
                        <path d="M0,-25.101C-1.415,-21.124 -3.049,-17.248 -4.879,-13.445C-5.775,-11.583 -6.582,-9.718 -7.001,-7.687C-7.392,-5.786 -7.522,-3.71 -8.304,-1.913C-8.841,-0.675 -8.669,0.77 -7.407,1.508C-6.349,2.126 -4.527,1.856 -3.986,0.611C-3.115,-1.392 -2.727,-3.413 -2.335,-5.546C-1.952,-7.626 -1.286,-9.413 -0.374,-11.31C1.577,-15.368 3.312,-19.53 4.821,-23.772C5.274,-25.044 4.309,-26.508 3.075,-26.847C1.691,-27.227 0.454,-26.378 0,-25.101" style="fill:rgb(35,31,32);fill-rule:nonzero;"/>
                    </g>
                    <g transform="matrix(-0.747998,0.663701,0.663701,0.747998,87.7199,90.3107)">
                        <path d="M8.984,-23.66C10.618,-14.962 12.253,-6.264 13.887,2.433C14.482,5.592 9.58,6.584 8.984,3.411C7.349,-5.287 5.714,-13.985 4.079,-22.683C3.485,-25.841 8.387,-26.833 8.984,-23.66" style="fill:rgb(35,31,32);fill-rule:nonzero;"/>
                    </g>
                    <g transform="matrix(1,0,0,1,57.1815,89.3341)">
                        <path d="M0,-12.424C-1.217,-12.097 -2.61,-12.719 -3.856,-13.141C-5.581,-13.726 -7.357,-14.206 -9.19,-13.868C-13.285,-13.113 -14.658,-9.101 -15.142,-5.474C-13.888,-6.194 -12.634,-6.914 -11.38,-7.633C-14.789,-9.844 -19.542,-9.827 -22.946,-7.589C-23.115,-7.478 -25.349,-5.853 -25.187,-5.624C-24.457,-5.802 -24.378,-5.882 -24.949,-5.866C-25.241,-5.891 -25.533,-5.909 -25.825,-5.92C-26.48,-5.934 -27.15,-5.889 -27.794,-5.761C-30.083,-5.307 -32.242,-3.198 -31.918,-0.718C-31.743,0.621 -30.894,1.782 -29.418,1.782C-28.203,1.782 -26.741,0.631 -26.918,-0.718C-27.015,-1.46 -26.965,-0.795 -27.037,-0.767C-26.946,-0.802 -26.81,-0.913 -26.7,-0.904C-25.905,-0.842 -25.02,-0.811 -24.223,-0.868C-22.401,-0.997 -21.756,-2.344 -20.422,-3.272C-18.462,-4.635 -15.871,-4.591 -13.904,-3.316C-12.132,-2.167 -10.373,-3.744 -10.142,-5.474C-10.013,-6.439 -9.768,-7.655 -9.133,-8.43C-8.532,-9.162 -7.74,-9.061 -6.972,-8.868C-4.172,-8.164 -1.631,-6.807 1.329,-7.603C4.433,-8.437 3.116,-13.262 0,-12.424" style="fill:rgb(35,31,32);fill-rule:nonzero;"/>
                    </g>
                    <g transform="matrix(1,0,0,1,61.3396,76.1069)">
                        <path d="M0,6.135C1.657,5.295 6.17,3.127 6.663,6.227C6.98,8.226 9.581,8.442 10.841,7.33C12.262,6.076 13.643,4.745 15.117,3.556C14.946,3.694 15.573,3.192 15.575,3.211C15.342,3.208 15.112,3.183 14.884,3.138C14.957,3.214 15.03,3.291 15.102,3.368C15.391,3.948 16.2,4.576 16.721,4.917C18.248,5.918 20.136,5.918 21.837,5.404C22.692,5.145 23.497,4.749 24.321,4.41C24.489,4.342 25.194,4.001 24.54,3.998C24.832,4 25.486,4.569 25.784,4.701C27.302,5.372 28.869,5.07 30.361,4.499C30.888,4.298 31.456,4.087 31.953,3.996C32.29,3.934 31.785,3.883 32.001,3.999C32.311,4.166 32.231,4.146 32.322,4.23C34.168,5.927 35.403,8.377 38.319,8.192C39.666,8.106 40.819,7.104 40.819,5.692C40.819,4.405 39.673,3.105 38.319,3.192C38.004,3.191 37.985,3.208 38.261,3.244C38.009,3.169 37.964,3.157 38.125,3.208C38.285,3.267 38.247,3.234 38.011,3.108C38.196,3.248 38.174,3.219 37.944,3.02C37.556,2.644 37.218,2.221 36.871,1.808C35.964,0.728 34.951,-0.265 33.588,-0.736C31.967,-1.297 30.406,-0.833 28.871,-0.26C28.571,-0.148 28.239,0.028 27.921,0.064C26.97,0.174 27.688,0.11 27.711,0.117C27.536,0.064 27.256,-0.215 27.064,-0.319C26.534,-0.603 25.975,-0.776 25.377,-0.821C23.454,-0.964 21.929,0.241 20.129,0.69C19.584,0.826 19.574,0.847 19.17,0.443C18.597,-0.13 18.165,-0.756 17.44,-1.173C15.475,-2.307 13.48,-1.558 11.866,-0.224C10.307,1.065 8.822,2.456 7.306,3.794C8.699,4.162 10.091,4.53 11.484,4.898C11.073,2.31 8.706,0.344 6.228,-0.192C3.116,-0.866 0.194,0.441 -2.524,1.818C-5.395,3.272 -2.867,7.587 0,6.135" style="fill:rgb(35,31,32);fill-rule:nonzero;"/>
                    </g>
                    <g transform="matrix(1,0,0,1,42.0841,24.331)">
                        <path d="M0,1.499C2.621,1.274 5.312,1.451 7.936,2.074C8.637,2.241 9.486,2.079 9.985,1.525C10.398,1.068 10.298,0.387 9.638,0.23C6.576,-0.497 3.435,-0.742 0.297,-0.473C-0.307,-0.422 -1.221,-0.05 -1.314,0.644C-1.408,1.351 -0.519,1.543 0,1.499" style="fill:rgb(35,31,32);fill-rule:nonzero;"/>
                    </g>
                    <g transform="matrix(1,0,0,1,60.8029,23.8995)">
                        <path d="M0,2.391C0.919,2.096 1.849,1.836 2.789,1.615C3.019,1.561 3.25,1.501 3.482,1.46C3.071,1.532 3.449,1.467 3.519,1.453C3.644,1.428 3.769,1.404 3.895,1.38C4.378,1.288 4.863,1.207 5.349,1.134C5.72,1.079 6.12,0.957 6.45,0.777C6.633,0.677 6.956,0.481 7.023,0.253C7.192,-0.32 6.07,-0.223 5.821,-0.186C3.745,0.123 1.689,0.594 -0.31,1.236C-0.648,1.344 -1.003,1.458 -1.289,1.679C-1.423,1.783 -1.659,1.994 -1.604,2.202C-1.467,2.711 -0.293,2.485 0,2.391" style="fill:rgb(35,31,32);fill-rule:nonzero;"/>
                    </g>
                    <g transform="matrix(1,0,0,1,40.184,57.847)">
                        <path d="M0,-2.185C-0.449,-1.746 -0.394,-1.06 0.121,-0.708C0.754,-0.275 1.71,-0.444 2.338,-0.796C2.847,-1.081 3.354,-1.369 3.861,-1.656L1.782,-2.078C1.832,-1.803 1.865,-1.526 1.883,-1.246C1.877,-1.335 1.872,-1.423 1.867,-1.512C1.903,-0.852 1.847,-0.193 1.699,0.451C1.641,0.708 1.831,1.015 2.041,1.142C2.285,1.29 2.556,1.342 2.838,1.344C3.5,1.349 4.197,1.06 4.543,0.472C4.937,-0.198 5.331,-0.868 5.725,-1.538C5.861,-1.769 5.834,-2.096 5.675,-2.307C5.499,-2.541 5.137,-2.673 4.858,-2.695C4.138,-2.751 3.345,-2.467 2.966,-1.824C2.573,-1.154 2.179,-0.484 1.785,0.185C2.733,0.192 3.681,0.199 4.629,0.206C4.858,-0.795 4.861,-1.845 4.68,-2.855C4.616,-3.211 4.216,-3.382 3.91,-3.446C3.491,-3.534 2.982,-3.492 2.601,-3.277C2.316,-3.116 2.031,-2.955 1.746,-2.794C1.467,-2.637 1.19,-2.452 0.896,-2.325C1.022,-2.371 1.147,-2.416 1.272,-2.462C1.238,-2.448 1.201,-2.438 1.164,-2.433C1.296,-2.456 1.427,-2.479 1.558,-2.502C1.54,-2.501 1.522,-2.501 1.503,-2.5C1.627,-2.499 1.751,-2.498 1.875,-2.497C1.857,-2.5 1.838,-2.502 1.82,-2.505C1.931,-2.482 2.042,-2.458 2.153,-2.435C2.142,-2.439 2.131,-2.443 2.119,-2.447C2.212,-2.404 2.305,-2.36 2.397,-2.316C2.375,-2.327 2.356,-2.342 2.339,-2.36C2.408,-2.297 2.477,-2.235 2.546,-2.172C2.529,-2.19 2.515,-2.21 2.505,-2.232C2.545,-2.153 2.584,-2.074 2.624,-1.994C2.614,-2.015 2.607,-2.038 2.605,-2.061C2.61,-1.973 2.615,-1.884 2.621,-1.795C2.618,-1.817 2.621,-1.839 2.629,-1.86C2.6,-1.771 2.572,-1.683 2.543,-1.594L2.559,-1.622C2.5,-1.538 2.442,-1.454 2.384,-1.37C2.392,-1.378 2.4,-1.386 2.408,-1.394C2.597,-1.578 2.723,-1.915 2.653,-2.178C2.58,-2.449 2.307,-2.657 2.049,-2.734C1.323,-2.95 0.531,-2.704 0,-2.185" style="fill:rgb(35,31,32);fill-rule:nonzero;"/>
                    </g>
                </g>
            </g>
        </g>
    </g>
</svg>
