<?xml version="1.0" encoding="UTF-8" standalone="no"?>
<!DOCTYPE svg PUBLIC "-//W3C//DTD SVG 1.1//EN" "http://www.w3.org/Graphics/SVG/1.1/DTD/svg11.dtd">
<svg width="100%" height="100%" viewBox="0 0 263 289" version="1.1" xmlns="http://www.w3.org/2000/svg" xmlns:xlink="http://www.w3.org/1999/xlink" xml:space="preserve" xmlns:serif="http://www.serif.com/" style="fill-rule:evenodd;clip-rule:evenodd;stroke-linecap:round;">
    <path d="M31.614,120.026C35.252,120.026 38.201,122.975 38.201,126.613C38.201,137.723 35.461,148.577 32.561,158.331C31.804,160.878 30.686,163.232 29.809,165.08C29.758,165.187 29.708,165.292 29.659,165.396C28.681,167.46 27.999,168.963 27.595,170.444C26.828,173.257 25.439,175.188 24.295,176.576C23.814,177.159 23.459,177.566 23.17,177.898C22.682,178.458 22.381,178.803 21.983,179.411C20.571,181.567 19.085,184.853 17.986,187.751C17.675,188.569 17.3,189.449 16.971,190.221L16.956,190.256C16.604,191.08 16.279,191.841 15.985,192.592C15.33,194.263 15.136,195.139 15.121,195.437C15.015,197.56 14.805,199.786 14.606,201.897L14.575,202.227C14.362,204.493 14.163,206.666 14.06,208.805C13.852,213.161 14.094,216.736 15.106,219.569C15.358,220.276 16.046,221.288 17.677,222.845C18.404,223.539 19.179,224.216 20.073,224.997C20.143,225.058 20.215,225.121 20.287,225.184C21.217,225.997 22.296,226.944 23.294,227.942C24.877,229.525 26.913,231.105 29.048,232.256C31.232,233.433 33.113,233.944 34.498,233.944C38.136,233.944 41.085,236.893 41.085,240.531C41.085,244.169 38.136,247.118 34.498,247.118C30.196,247.118 26.131,245.649 22.799,243.853C19.417,242.031 16.366,239.646 13.978,237.258C13.337,236.616 12.575,235.941 11.618,235.104C11.538,235.035 11.457,234.964 11.375,234.891C10.523,234.148 9.529,233.281 8.579,232.373C6.554,230.44 4.015,227.684 2.699,224C0.812,218.716 0.668,213.071 0.901,208.177C1.02,205.692 1.248,203.232 1.459,200.992L1.479,200.778C1.687,198.568 1.872,196.604 1.963,194.779C2.094,192.163 3.026,189.552 3.72,187.784C4.086,186.849 4.476,185.934 4.807,185.159L4.84,185.082C5.198,184.243 5.466,183.609 5.668,183.078C6.889,179.859 8.774,175.533 10.963,172.191C11.61,171.204 12.262,170.389 12.815,169.732C13.051,169.451 13.287,169.179 13.485,168.951C13.513,168.919 13.54,168.888 13.566,168.858C13.792,168.596 13.969,168.39 14.13,168.195C14.712,167.489 14.814,167.238 14.885,166.978C15.636,164.224 16.819,161.728 17.738,159.788L17.754,159.755C18.757,157.638 19.476,156.114 19.933,154.577C22.767,145.044 25.027,135.717 25.027,126.613C25.027,122.975 27.976,120.026 31.614,120.026Z" style="fill:rgb(31,29,30);stroke:rgb(35,31,32);stroke-width:0.25px;"/>
    <path d="M127.023,13.839C124.4,14.161 121.713,14.851 120.184,15.35C105.976,19.995 94.812,28.752 83.7,39.863C81.463,42.101 79.342,44.412 77.115,46.84L77.06,46.901C74.88,49.278 72.596,51.769 70.162,54.203C67.766,56.598 65.281,58.736 62.96,60.707C62.71,60.919 62.463,61.129 62.217,61.337C60.128,63.108 58.194,64.749 56.328,66.511C51.092,71.457 46.705,76.372 43.477,82.241C38.49,91.309 36.762,99.456 36.762,110.029C36.762,113.667 33.813,116.616 30.175,116.616C26.537,116.616 23.588,113.667 23.588,110.029C23.588,97.627 25.703,87.221 31.934,75.892C36.102,68.313 41.588,62.311 47.282,56.933C49.422,54.913 51.635,53.037 53.69,51.294C53.94,51.083 54.187,50.873 54.432,50.665C56.746,48.7 58.867,46.867 60.846,44.888C63.066,42.668 65.178,40.366 67.405,37.937L67.437,37.902C69.625,35.516 71.925,33.008 74.385,30.548C86.118,18.815 99.029,8.406 116.09,2.828C118.288,2.11 121.815,1.205 125.422,0.763C127.231,0.541 129.228,0.415 131.18,0.543C133.027,0.665 135.364,1.045 137.509,2.223C137.508,2.222 137.508,2.221 137.508,2.221C137.51,2.217 137.788,2.328 138.605,2.498C139.056,2.592 139.542,2.679 140.148,2.788L140.166,2.792C140.748,2.897 141.437,3.021 142.133,3.167C143.468,3.448 145.266,3.894 146.99,4.752C148.783,5.644 150.855,7.165 152.147,9.749C153.774,13.002 152.455,16.959 149.202,18.586C146.224,20.075 142.658,19.097 140.827,16.427C140.552,16.33 140.109,16.204 139.421,16.06C138.939,15.958 138.43,15.865 137.829,15.757L137.739,15.741C137.191,15.642 136.551,15.527 135.925,15.397C134.747,15.152 132.941,14.731 131.265,13.823C131.213,13.81 130.931,13.73 130.315,13.689C129.452,13.632 128.33,13.679 127.023,13.839Z" style="fill:rgb(31,29,30);stroke:rgb(35,31,32);stroke-width:0.25px;"/>
    <path d="M155.527,13.416C155.527,9.778 158.476,6.829 162.114,6.829C176.811,6.829 190.119,9.552 203.405,17.052C206.958,19.058 209.749,21.633 212.078,24.047C213.094,25.101 214.082,26.189 214.995,27.194C215.121,27.333 215.246,27.47 215.368,27.605C216.413,28.754 217.378,29.802 218.364,30.788C221.313,33.738 222.807,36.956 223.759,39.955C224.217,41.395 224.564,42.837 224.863,44.1C224.897,44.244 224.931,44.387 224.964,44.527C225.235,45.676 225.477,46.704 225.775,47.762C226.454,50.178 227.047,52.47 227.611,54.652C229.87,63.383 231.677,70.37 236.789,76.618L236.876,76.724C242.136,83.153 248.732,91.215 248.732,102.82C248.732,106.457 245.783,109.407 242.145,109.407C238.507,109.407 235.558,106.457 235.558,102.82C235.558,96.455 232.179,91.787 226.593,84.96C219.461,76.244 216.816,65.818 214.543,56.857C214.056,54.937 213.586,53.084 213.093,51.329C212.714,49.983 212.405,48.672 212.141,47.55C212.107,47.408 212.075,47.268 212.042,47.132C211.742,45.862 211.494,44.858 211.203,43.943C210.66,42.233 210.051,41.107 209.048,40.104C207.82,38.876 206.672,37.623 205.622,36.469C205.492,36.326 205.365,36.186 205.239,36.047C204.312,35.026 203.465,34.095 202.596,33.193C200.636,31.162 198.872,29.622 196.929,28.525C185.982,22.345 175,20.003 162.114,20.003C158.476,20.003 155.527,17.054 155.527,13.416Z" style="fill:rgb(31,29,30);stroke:rgb(35,31,32);stroke-width:0.25px;"/>
    <path d="M251.065,145.22C250.189,148.49 249.481,152.297 249.455,153.729C249.365,158.697 249.833,163.241 250.752,168.293C251.022,169.78 251.746,170.999 253.351,173.706C253.439,173.854 253.53,174.007 253.623,174.164C254.989,176.469 255.813,178.717 256.442,180.511C256.536,180.779 256.625,181.034 256.71,181.279C257.237,182.793 257.62,183.894 258.165,185.015C261.48,191.828 262.434,197.241 262.434,204.48C262.434,210.52 262.137,217.296 259.942,223.434C257.626,229.909 253.253,235.529 245.689,239.112C235.832,243.781 225.415,248.559 212.587,248.559C208.949,248.559 206,245.609 206,241.972C206,238.334 208.949,235.384 212.587,235.384C222.115,235.384 230.078,231.93 240.049,227.206C244.169,225.255 246.285,222.498 247.537,218.997C248.91,215.161 249.26,210.364 249.26,204.48C249.26,198.874 248.613,195.494 246.319,190.778C245.403,188.897 244.744,186.99 244.233,185.513C244.155,185.288 244.081,185.073 244.009,184.869C243.424,183.198 242.95,181.995 242.289,180.88C242.153,180.651 242.006,180.407 241.85,180.149C240.503,177.918 238.513,174.623 237.79,170.649C236.754,164.948 236.173,159.516 236.283,153.489C236.34,150.33 237.435,145.19 238.34,141.811C238.775,140.19 239.359,138.223 240.014,136.894C240.157,136.602 240.563,135.789 241.278,135.004C241.609,134.641 242.482,133.742 243.929,133.199C245.769,132.509 248.097,132.589 250.078,133.963C251.627,135.038 252.266,136.441 252.488,136.985C252.758,137.648 252.875,138.228 252.931,138.562C253.045,139.244 253.061,139.881 253.061,140.311C253.061,142.128 252.325,143.774 251.134,144.966C251.112,145.049 251.089,145.134 251.065,145.22ZM239.886,140.264C239.886,140.264 239.887,140.273 239.887,140.292C239.886,140.274 239.886,140.264 239.886,140.264Z" style="fill:rgb(31,29,30);stroke:rgb(35,31,32);stroke-width:0.25px;"/>
    <path d="M220.515,202.219C224.153,202.219 227.102,205.168 227.102,208.806L227.102,208.963C227.103,211.45 227.104,215.587 225.428,219.418C224.945,220.523 224.386,221.529 223.93,222.326C223.768,222.609 223.624,222.858 223.492,223.086C223.205,223.58 222.974,223.979 222.737,224.423C222.069,225.676 222.055,226.065 222.055,226.11C222.055,229.748 219.106,232.697 215.468,232.697C211.83,232.697 208.881,229.748 208.881,226.11C208.881,222.754 210.157,220.014 211.115,218.22C211.467,217.56 211.874,216.857 212.203,216.29C212.31,216.104 212.409,215.933 212.495,215.783C212.901,215.074 213.17,214.569 213.359,214.137C213.8,213.129 213.928,211.646 213.928,208.806C213.928,205.168 216.877,202.219 220.515,202.219Z" style="fill:rgb(31,29,30);stroke:rgb(35,31,32);stroke-width:0.25px;"/>
    <path d="M46.854,213.086C46.829,209.469 43.889,206.545 40.267,206.545C36.629,206.545 33.68,209.494 33.68,213.132C33.68,215.941 34.706,218.678 35.524,220.513C36.424,222.532 37.512,224.405 38.364,225.735C39.097,226.882 39.711,228.052 40.466,229.494C40.771,230.075 41.099,230.701 41.467,231.387C42.621,233.538 44.114,236.146 46.186,238.447C48.619,241.152 52.784,241.371 55.488,238.937C58.192,236.503 58.412,232.339 55.978,229.634C55.024,228.575 54.143,227.147 53.075,225.157C52.856,224.748 52.618,224.295 52.366,223.812C51.531,222.219 50.529,220.304 49.46,218.634C48.848,217.678 48.114,216.398 47.557,215.149C47.281,214.53 47.085,213.999 46.966,213.581C46.875,213.26 46.857,213.104 46.854,213.086Z" style="fill:rgb(31,29,30);stroke:rgb(35,31,32);stroke-width:0.25px;"/>
    <path d="M66.842,131.317C67.978,131.777 69.066,132.408 69.963,132.954C69.994,132.973 70.026,132.992 70.059,133.012C71.214,133.715 73.589,135.16 75.74,136.92C76.845,137.824 78.1,138.978 79.148,140.336C80.128,141.606 81.424,143.689 81.592,146.375C81.819,150.006 79.059,153.134 75.428,153.361C72.15,153.565 69.282,151.336 68.589,148.229C68.359,147.965 67.972,147.587 67.396,147.115C66.408,146.306 65.275,145.552 64.275,144.924C64.272,144.928 64.268,144.931 64.264,144.935C64.024,145.163 63.788,145.364 63.587,145.528C63.575,145.692 63.566,145.879 63.56,146.092C63.551,146.431 63.552,146.745 63.552,147.12C63.552,147.208 63.552,147.299 63.552,147.394C63.552,150.051 63.736,151.799 64.153,153.236C64.541,154.571 65.215,155.923 66.613,157.575C67.477,158.596 68.221,159.508 68.906,160.348C70.508,162.312 71.788,163.881 73.523,165.52C73.629,165.62 73.88,165.847 74.227,166.142C74.567,166.431 74.946,166.739 75.305,167.012C75.404,167.088 75.494,167.155 75.575,167.214C77.689,167.683 79.265,168.851 80.26,169.791C81.543,171.004 82.498,172.433 83.161,173.527C83.778,174.544 84.346,175.625 84.783,176.457C84.83,176.546 84.876,176.633 84.92,176.716C85.449,177.721 85.729,178.22 85.91,178.482C87.367,180.595 88.522,181.44 90.885,183.17C91.587,183.684 92.396,184.276 93.35,185.003C94.464,185.85 95.543,186.922 96.21,187.585C96.341,187.715 96.456,187.83 96.552,187.923C97.363,188.713 97.667,188.916 97.778,188.975C98.589,189.401 99.456,189.804 100.475,190.27C100.586,190.32 100.7,190.372 100.816,190.425C101.71,190.832 102.731,191.297 103.735,191.799C105.251,192.558 106.874,193.582 108.117,194.366C108.497,194.606 108.842,194.824 109.138,195.005C110.688,195.953 111.674,196.428 112.458,196.63C114.681,197.201 116.93,198.133 118.58,198.817C119.019,198.999 119.416,199.164 119.758,199.299C121.696,200.064 122.895,200.373 123.977,200.373C126.607,200.373 128.378,201.786 129.256,202.775C130.085,203.709 130.525,204.681 130.749,205.244C131.214,206.414 131.45,207.667 131.592,208.617C131.894,210.642 132.018,213.131 132.048,215.46C132.078,217.839 132.014,220.299 131.882,222.356C131.816,223.382 131.73,224.367 131.62,225.224C131.534,225.895 131.369,227.065 130.988,228.114C130.006,230.814 128.128,232.404 127.342,233.069L127.289,233.114C127.031,233.333 126.862,233.481 126.757,233.574C126.732,233.626 126.706,233.683 126.677,233.743C126.125,234.914 124.903,237.504 122.891,239.516C120.318,242.089 116.148,242.089 113.575,239.516C111.003,236.944 111.003,232.773 113.575,230.201C113.713,230.063 113.846,229.897 114.07,229.483C114.201,229.242 114.334,228.971 114.538,228.551L114.571,228.484C114.755,228.106 114.995,227.613 115.268,227.096C115.905,225.894 116.676,225 117.319,224.36C117.783,223.899 118.294,223.465 118.592,223.214C118.642,222.761 118.691,222.188 118.735,221.513C118.844,219.81 118.901,217.688 118.875,215.63C118.862,214.621 118.829,213.681 118.78,212.849C117.329,212.471 116.033,211.992 114.917,211.551C114.15,211.248 113.491,210.976 112.899,210.732C111.462,210.139 110.419,209.708 109.177,209.389C106.39,208.672 104.009,207.311 102.262,206.242C101.603,205.839 101.045,205.487 100.547,205.173C99.507,204.517 98.732,204.027 97.843,203.582C97.066,203.194 96.273,202.833 95.353,202.413C95.239,202.361 95.123,202.308 95.005,202.255C93.983,201.788 92.814,201.249 91.643,200.633C89.722,199.622 88.263,198.239 87.363,197.363C87.07,197.078 86.828,196.84 86.622,196.636C86.037,196.06 85.737,195.764 85.373,195.487C84.858,195.096 84.313,194.701 83.744,194.291C81.074,192.362 77.898,190.069 75.065,185.962C74.364,184.945 73.726,183.734 73.276,182.88L73.264,182.857C73.224,182.781 73.185,182.707 73.146,182.633C72.674,181.736 72.291,181.01 71.894,180.354C71.784,180.173 71.684,180.016 71.594,179.881C71.186,179.763 70.877,179.638 70.695,179.562C70.137,179.329 69.654,179.062 69.299,178.851C68.582,178.424 67.885,177.921 67.324,177.494C66.192,176.632 65.073,175.66 64.477,175.098C62.073,172.827 60.01,170.297 58.222,168.104C57.638,167.388 57.084,166.708 56.556,166.085L61.585,161.83L56.556,166.085C54.095,163.176 52.459,160.206 51.502,156.911C50.575,153.719 50.378,150.53 50.378,147.394C50.378,147.326 50.378,147.249 50.378,147.165C50.375,146.361 50.37,144.885 50.564,143.42C50.758,141.949 51.283,139.233 53.307,137.007C53.8,136.465 54.289,136.064 54.574,135.84C54.694,135.745 54.807,135.658 54.9,135.589C55.98,133.88 58.112,131.12 61.889,130.609C63.951,130.33 65.697,130.853 66.842,131.317ZM76.056,167.541C76.056,167.541 76.052,167.539 76.045,167.535C76.053,167.539 76.057,167.541 76.056,167.541ZM62.733,146.183L62.733,146.183L62.733,146.183ZM61.898,143.528C61.901,143.53 61.904,143.531 61.907,143.532C61.891,143.526 61.888,143.524 61.898,143.528ZM68.799,148.501C68.798,148.501 68.785,148.483 68.766,148.449C68.791,148.484 68.801,148.501 68.799,148.501Z" style="fill:rgb(31,29,30);stroke:rgb(35,31,32);stroke-width:0.25px;"/>
    <path d="M209.895,139.032C210.344,138.896 211.478,138.558 212.737,138.558C215.447,138.558 218.031,139.233 220.259,140.731C222.457,142.209 223.879,144.196 224.78,146.136C226.477,149.787 226.637,153.937 226.554,156.821C226.411,161.842 223.933,166.093 221.853,169.082C220.765,170.647 219.593,172.126 218.6,173.378C217.55,174.702 216.736,175.729 216.093,176.662C212.333,182.113 206.123,184.55 201.817,185.917C201.728,186.074 201.626,186.247 201.516,186.426C201.126,187.057 200.452,188.051 199.397,188.955C199.412,188.943 199.419,188.936 199.42,188.937C199.423,188.94 199.205,189.177 198.754,189.947C198.534,190.322 198.321,190.711 198.059,191.191C198.036,191.232 198.014,191.273 197.991,191.315C197.723,191.805 197.381,192.428 197.017,193.021C194.573,197.004 191.511,199.682 188.954,201.919C188.896,201.969 188.838,202.02 188.781,202.07C181.421,208.51 171.174,213.489 161.772,215.578C161.442,215.651 161.106,215.727 160.763,215.804C159.123,216.172 157.343,216.572 155.478,216.906C155.808,220.965 156.125,223.61 157.173,225.424C158.228,227.251 159.386,229.052 160.633,230.924C160.645,230.939 160.702,231.012 160.836,231.17C160.868,231.207 160.917,231.264 160.977,231.334C161.158,231.545 161.442,231.875 161.659,232.141C161.986,232.54 162.44,233.121 162.859,233.814C163.267,234.488 163.803,235.528 164.067,236.848C164.781,240.416 162.467,243.886 158.9,244.599C155.687,245.242 152.553,243.429 151.441,240.456C151.371,240.371 151.289,240.275 151.184,240.152C151.155,240.119 151.121,240.079 151.084,240.035C150.994,239.931 150.885,239.805 150.792,239.694C150.532,239.388 150.095,238.868 149.696,238.269C148.373,236.284 147.032,234.205 145.766,232.015C143.072,227.352 142.636,221.718 142.368,218.244C142.351,218.033 142.336,217.83 142.32,217.635C142.319,217.619 142.317,217.598 142.315,217.573C142.28,217.15 142.143,215.474 142.151,213.819C142.154,213.001 142.191,211.806 142.412,210.664C142.512,210.144 142.742,209.124 143.335,208.064C143.89,207.072 145.616,204.645 149.037,204.455C151.82,204.3 154.566,203.687 158.023,202.916C158.315,202.851 158.612,202.785 158.914,202.717C166.307,201.075 174.516,197.046 180.106,192.156C182.831,189.771 184.478,188.266 185.788,186.131C185.957,185.857 186.15,185.51 186.433,184.992C186.458,184.947 186.483,184.9 186.51,184.852C186.756,184.402 187.063,183.839 187.389,183.284C187.999,182.242 188.983,180.667 190.414,179.321C190.43,179.291 190.447,179.259 190.468,179.22C190.528,179.107 190.62,178.936 190.819,178.582C190.832,178.559 190.847,178.532 190.862,178.504C191.308,177.704 192.896,174.851 196.348,173.815C201.072,172.398 203.94,171.079 205.248,169.182C206.148,167.877 207.207,166.543 208.138,165.368C208.185,165.309 208.232,165.251 208.278,165.192C209.299,163.904 210.221,162.734 211.039,161.558C212.772,159.067 213.356,157.476 213.386,156.444C213.417,155.35 213.384,154.338 213.27,153.461C213.179,152.759 213.051,152.26 212.931,151.928C212.912,151.935 212.893,151.943 212.874,151.951C212.059,152.284 211.059,152.761 210.159,153.269C209.999,153.36 209.847,153.448 209.706,153.533C209.385,154.367 208.889,155.148 208.217,155.82C205.644,158.392 201.474,158.392 198.901,155.82C197.957,154.876 197.188,153.592 196.897,152.03C196.616,150.527 196.861,149.212 197.194,148.259C197.793,146.542 198.889,145.377 199.462,144.817C200.74,143.566 202.385,142.53 203.678,141.8C205.075,141.01 206.577,140.292 207.894,139.755C208.55,139.487 209.237,139.232 209.895,139.032ZM190.289,179.531C190.289,179.53 190.294,179.523 190.303,179.509C190.294,179.524 190.289,179.531 190.289,179.531Z" style="fill:rgb(31,29,30);stroke:rgb(35,31,32);stroke-width:0.25px;"/>
    <path d="M111.458,88.04C114.597,83.505 119.272,80.272 125.588,80.272C129.226,80.272 132.175,83.222 132.175,86.86C132.175,90.498 129.226,93.447 125.588,93.447C124.449,93.447 123.499,93.792 122.289,95.539C120.784,97.713 119.466,99.903 118.02,102.304C117.549,103.087 117.064,103.892 116.555,104.727C115.271,106.831 114.973,109.112 114.453,113.101C114.395,113.543 114.335,114.005 114.27,114.491C113.285,121.879 110.815,130.182 106.098,136.824C101.243,143.661 93.817,148.904 83.599,148.904C79.961,148.904 77.012,145.955 77.012,142.317C77.012,138.679 79.961,135.73 83.599,135.73C88.661,135.73 92.409,133.347 95.357,129.196C98.443,124.85 100.404,118.805 101.211,112.75C101.266,112.338 101.32,111.894 101.377,111.423C101.816,107.796 102.452,102.546 105.309,97.865C105.724,97.185 106.149,96.479 106.584,95.755C108.075,93.277 109.69,90.593 111.458,88.04Z" style="fill:rgb(31,29,30);stroke:rgb(35,31,32);stroke-width:0.25px;"/>
    <path d="M106.976,149.991C110.614,149.991 113.563,152.94 113.563,156.578L113.563,157.37C113.563,161.008 110.614,163.957 106.976,163.957C103.338,163.957 100.389,161.008 100.389,157.37L100.389,156.578C100.389,152.94 103.338,149.991 106.976,149.991Z" style="fill:rgb(31,29,30);stroke:rgb(35,31,32);stroke-width:0.25px;"/>
    <path d="M109.186,150.14C108.194,149.543 107.032,149.199 105.79,149.199C102.152,149.199 99.203,152.148 99.203,155.786C99.203,157.909 99.973,160.395 101.972,162.224C104.321,164.374 107.696,164.938 110.717,163.565C111.363,163.271 112.666,162.659 113.721,161.604C114.031,161.294 114.572,160.701 115.016,159.822C115.451,158.96 116.075,157.231 115.517,155.111C114.919,152.841 113.347,151.527 112.157,150.905C111.066,150.336 110.073,150.2 109.542,150.159C109.422,150.15 109.303,150.143 109.186,150.14Z" style="fill:rgb(31,29,30);stroke:rgb(35,31,32);stroke-width:0.25px;"/>
    <path d="M157.142,154.041C158.136,151.662 160.484,149.991 163.223,149.991C163.88,149.991 164.676,150.031 165.501,150.202C166.125,150.332 167.778,150.725 169.216,152.133C170.042,152.942 170.828,154.125 171.137,155.667C171.442,157.193 171.176,158.548 170.773,159.548C170.06,161.32 168.814,162.306 168.284,162.688C167.071,163.562 165.595,164.093 164.141,164.222C163.083,164.317 158.956,164.358 156.935,160.316C155.901,158.249 156.057,155.898 157.142,154.041ZM163.281,163.166C163.281,163.166 163.274,163.166 163.261,163.165L163.281,163.166ZM167.726,152.965C168.09,153.362 168.428,153.843 168.718,154.424C168.448,153.882 168.112,153.394 167.726,152.965Z" style="fill:rgb(31,29,30);stroke:rgb(35,31,32);stroke-width:0.25px;"/>
    <path d="M117.851,178.43C118.253,174.814 121.51,172.208 125.126,172.61C126.748,172.79 128.015,173.391 128.81,173.839C129.506,174.231 130.145,174.691 130.471,174.926C130.501,174.947 130.527,174.966 130.551,174.983C130.612,175.027 130.666,175.065 130.713,175.098C132.541,175.379 134.613,175.913 136.061,176.285C136.589,176.421 137.034,176.536 137.354,176.609C138.173,176.796 139.969,176.727 141.41,176.353C141.495,176.299 141.685,176.176 142.021,175.938C142.052,175.915 142.087,175.891 142.125,175.864C142.447,175.634 142.965,175.265 143.506,174.93C144.14,174.537 145.013,174.057 146.083,173.7C149.534,172.55 153.264,174.415 154.415,177.866C155.544,181.253 153.769,184.908 150.441,186.131C150.279,186.231 150.107,186.354 149.671,186.663L149.65,186.678C149.62,186.7 149.588,186.722 149.554,186.747C148.837,187.258 147.255,188.387 145.222,188.968C142.311,189.8 138.048,190.281 134.418,189.452C133.297,189.195 132.404,188.963 131.636,188.762C130.385,188.436 129.465,188.196 128.424,188.081C126.857,187.906 125.605,187.359 124.749,186.896C123.963,186.47 123.281,185.981 122.923,185.724C122.908,185.714 122.894,185.704 122.881,185.694L122.847,185.67C122.747,185.598 122.669,185.543 122.603,185.496C119.557,184.637 117.49,181.678 117.851,178.43ZM150.504,186.094C150.504,186.094 150.502,186.095 150.499,186.097L150.504,186.094Z" style="fill:rgb(31,29,30);stroke:rgb(35,31,32);stroke-width:0.25px;"/>
    <path d="M168.091,244.69C165.655,246.719 162.778,247.983 160.45,248.804C157.121,249.978 153.711,250.649 151.385,251.053C140.313,252.979 127.531,251.633 117.624,250.59L117.323,250.558C114.09,250.218 110.475,249.838 106.337,247.319C106.184,247.226 106.032,247.134 105.881,247.044C103.163,252.282 99.108,256.521 95.217,260.039C93.135,261.921 90.976,263.702 88.986,265.344L88.963,265.363C86.923,267.047 85.076,268.572 83.41,270.086C82.831,270.613 82.234,271.158 81.623,271.717C78.073,274.962 74.039,278.649 70.082,281.701C69.779,281.935 69.466,282.161 69.202,282.349C69.028,282.473 68.918,282.552 68.812,282.626C68.697,282.708 68.589,282.784 68.413,282.91C67.895,283.28 67.488,283.585 67.159,283.866C67.102,283.914 67.052,283.958 67.008,283.998C66.07,286.918 63.178,288.874 60.011,288.522C56.395,288.12 53.789,284.864 54.191,281.248C54.625,277.341 57.48,274.805 58.614,273.838C59.382,273.185 60.157,272.618 60.749,272.194C60.991,272.022 61.185,271.884 61.348,271.768C61.658,271.549 61.853,271.411 62.035,271.27C65.517,268.584 69.08,265.33 72.654,262.065C73.285,261.489 73.917,260.912 74.549,260.338C76.46,258.6 78.527,256.895 80.487,255.277L80.578,255.202C82.61,253.525 84.549,251.923 86.383,250.265C90.092,246.912 92.887,243.749 94.477,240.392C94.493,240.359 94.516,240.309 94.546,240.243C94.74,239.823 95.214,238.795 95.741,237.883C96.055,237.339 96.517,236.6 97.125,235.886C97.611,235.316 98.822,233.99 100.796,233.332C104.139,232.217 107.286,233.224 108.87,233.843C110.696,234.557 112.316,235.536 113.187,236.065C114.623,236.939 115.628,237.133 118.77,237.464C129.149,238.556 140.118,239.641 149.127,238.074C151.25,237.705 153.795,237.182 156.068,236.38C158.543,235.507 159.677,234.649 160.004,234.228C160.776,233.236 161.604,232.391 162.171,231.812L162.213,231.768C162.858,231.11 163.218,230.737 163.523,230.357C164.916,228.616 166.879,227.912 168.562,227.885C169.953,227.863 170.983,228.287 171.406,228.481C172.261,228.871 172.828,229.361 172.961,229.476L172.969,229.483C173.329,229.792 173.578,230.078 173.634,230.142L173.638,230.148C173.796,230.328 173.915,230.484 173.947,230.527C174.039,230.647 174.126,230.77 174.177,230.841C174.293,231.004 174.441,231.216 174.591,231.433C174.671,231.549 174.756,231.672 174.846,231.802C175.11,232.184 175.412,232.62 175.732,233.078C176.161,233.691 176.586,234.29 176.944,234.773C177.25,235.187 177.385,235.347 177.387,235.355C178.938,236.902 180.634,238.51 182.397,240.181C186.764,244.322 191.536,248.847 195.503,253.778C197.938,256.806 199.924,259.074 202.629,261.778C203.227,262.377 203.977,263.021 204.966,263.841C205.12,263.969 205.282,264.103 205.449,264.241C206.277,264.924 207.246,265.725 208.161,266.548C210.305,268.476 213.106,271.336 214.438,275.332C215.589,278.783 213.724,282.514 210.272,283.664C206.821,284.814 203.091,282.949 201.94,279.498C201.731,278.87 201.095,277.911 199.35,276.342C198.662,275.723 197.95,275.135 197.13,274.457C196.944,274.303 196.753,274.146 196.555,273.982C195.557,273.153 194.386,272.167 193.313,271.094C190.207,267.988 187.905,265.352 185.238,262.035C181.843,257.815 178.14,254.309 174.089,250.475C172.169,248.657 170.171,246.766 168.091,244.69Z" style="fill:rgb(31,29,30);stroke:rgb(35,31,32);stroke-width:0.25px;"/>
    <path d="M119.584,85.721C119.584,82.083 122.533,79.134 126.171,79.134C132.748,79.134 141.625,80.213 148.314,86.065C151.729,89.053 154.929,92.403 157.549,96.691C157.579,96.74 157.61,96.79 157.64,96.841C158.603,98.415 159.759,100.305 160.702,102.611C161.002,103.345 161.204,104.037 161.345,104.57C161.446,104.95 161.547,105.38 161.62,105.687C161.641,105.777 161.66,105.857 161.676,105.922C161.761,106.278 161.813,106.466 161.851,106.585C163.005,108.641 163.785,110.823 164.375,112.625C164.636,113.421 164.85,114.107 165.045,114.731C165.365,115.757 165.634,116.62 165.977,117.544C166.041,117.717 166.193,118.012 166.726,118.51C167.338,119.082 168.112,119.626 169.395,120.508C170.011,120.931 170.526,121.294 170.977,121.613C172.025,122.352 172.73,122.849 173.561,123.297C174.47,123.788 175.103,123.954 175.811,123.954C179.449,123.954 182.398,126.903 182.398,130.541C182.398,134.179 179.449,137.128 175.811,137.128C169.925,137.128 165.582,133.991 162.917,132.065C162.558,131.806 162.229,131.569 161.931,131.364C161.814,131.283 161.688,131.198 161.555,131.107C159.411,129.649 155.401,126.921 153.623,122.119C153.17,120.898 152.715,119.446 152.325,118.204C152.154,117.658 151.995,117.152 151.855,116.725C151.312,115.067 150.841,113.87 150.332,112.979C149.453,111.44 149.064,109.824 148.876,109.042L148.867,109.004C148.825,108.828 148.791,108.684 148.761,108.559C148.703,108.312 148.662,108.138 148.608,107.936C148.542,107.687 148.509,107.599 148.508,107.599C148.508,107.599 148.509,107.599 148.509,107.6C147.996,106.345 147.354,105.273 146.307,103.56C144.611,100.784 142.44,98.431 139.638,95.98C136.641,93.357 131.839,92.308 126.171,92.308C122.533,92.308 119.584,89.359 119.584,85.721ZM161.873,106.649C161.873,106.649 161.872,106.647 161.871,106.643L161.873,106.649Z" style="fill:rgb(31,29,30);stroke:rgb(35,31,32);stroke-width:0.25px;"/>
    <path d="M181.989,111.769C185.627,111.769 188.577,114.718 188.577,118.356C188.577,119.353 188.975,120.498 190.232,121.974C191.541,123.511 193.413,124.969 195.593,126.456C199.17,128.895 201.626,130.492 204.819,131.556C208.27,132.707 210.135,136.437 208.985,139.888C207.835,143.34 204.104,145.205 200.653,144.055C195.519,142.343 191.695,139.743 188.172,137.341C185.768,135.702 182.693,133.441 180.201,130.515C177.658,127.527 175.402,123.464 175.402,118.356C175.402,114.718 178.351,111.769 181.989,111.769Z" style="fill:rgb(31,29,30);stroke:rgb(35,31,32);stroke-width:0.25px;"/>
    <path d="M170.273,131.105C170.273,127.467 173.223,124.518 176.861,124.518L186.976,124.518C190.614,124.518 193.563,127.467 193.563,131.105C193.563,134.743 190.614,137.692 186.976,137.692L176.861,137.692C173.223,137.692 170.273,134.743 170.273,131.105Z" style="fill:rgb(31,29,30);stroke:rgb(35,31,32);stroke-width:0.25px;"/>
</svg>
