<?xml version="1.0" encoding="UTF-8" standalone="no"?>
<!DOCTYPE svg PUBLIC "-//W3C//DTD SVG 1.1//EN" "http://www.w3.org/Graphics/SVG/1.1/DTD/svg11.dtd">
<svg width="100%" height="100%" viewBox="0 0 100 100" version="1.1" xmlns="http://www.w3.org/2000/svg" xmlns:xlink="http://www.w3.org/1999/xlink" xml:space="preserve" xmlns:serif="http://www.serif.com/" style="fill-rule:evenodd;clip-rule:evenodd;stroke-linejoin:round;stroke-miterlimit:2;">
    <g transform="matrix(1,0,0,1,-337.5,-112.5)">
        <g id="Page-12" serif:id="Page 12" transform="matrix(1,0,0,1,337.5,112.5)">
            <rect x="0" y="0" width="100" height="100" style="fill:none;"/>
            <g id="Drawing">
                <g transform="matrix(1,0,0,1,29.2194,43.1168)">
                    <path d="M0,-6.755C-0.175,-6.381 -0.352,-5.997 -0.459,-5.596C-0.564,-5.208 -0.605,-4.8 -0.647,-4.403C-0.713,-3.78 -0.621,-3.12 -0.483,-2.516C-0.348,-1.923 -0.1,-1.329 0.215,-0.81C0.422,-0.467 0.679,-0.147 0.938,0.157C1.081,0.324 1.241,0.475 1.413,0.611C1.64,0.855 1.908,1.028 2.218,1.128C2.516,1.285 2.837,1.357 3.181,1.344C3.794,1.344 4.527,1.071 4.949,0.611C5.386,0.135 5.711,-0.49 5.681,-1.156C5.653,-1.774 5.457,-2.522 4.949,-2.924C4.728,-3.099 4.534,-3.297 4.36,-3.518C4.491,-3.35 4.621,-3.181 4.751,-3.012C4.57,-3.253 4.42,-3.51 4.299,-3.786L4.551,-3.189C4.419,-3.504 4.328,-3.832 4.279,-4.17C4.308,-3.949 4.338,-3.727 4.368,-3.506C4.324,-3.844 4.323,-4.183 4.368,-4.522C4.338,-4.3 4.308,-4.079 4.279,-3.857C4.32,-4.135 4.392,-4.403 4.496,-4.664L4.244,-4.067C4.268,-4.122 4.292,-4.177 4.317,-4.231C4.5,-4.518 4.599,-4.828 4.614,-5.161C4.688,-5.493 4.674,-5.825 4.569,-6.158C4.41,-6.738 3.961,-7.366 3.42,-7.652C2.84,-7.958 2.137,-8.112 1.494,-7.904C0.907,-7.714 0.272,-7.336 0,-6.755" style="fill:rgb(35,31,32);fill-rule:nonzero;"/>
                </g>
                <g transform="matrix(1,0,0,1,66.3367,41.8766)">
                    <path d="M0,-8.364C0.249,-5.594 0.34,-2.813 0.273,-0.032C0.241,1.276 1.445,2.528 2.773,2.468C4.154,2.406 5.239,1.37 5.273,-0.032C5.34,-2.813 5.249,-5.594 5,-8.364C4.939,-9.04 4.762,-9.638 4.268,-10.132C3.834,-10.565 3.123,-10.892 2.5,-10.864C1.246,-10.808 -0.125,-9.759 0,-8.364" style="fill:rgb(35,31,32);fill-rule:nonzero;"/>
                </g>
                <g transform="matrix(1,0,0,1,45.8801,47.8316)">
                    <path d="M0,19.151C0.646,15.995 1.48,12.883 2.525,9.835C3.034,8.349 3.585,6.873 4.196,5.425C4.49,4.728 4.798,4.035 5.12,3.35C5.198,3.178 5.28,3.008 5.365,2.84C5.009,2.94 4.654,3.04 4.298,3.14C4.302,3.103 5.405,3.533 5.436,3.546C10.846,5.783 15.865,9.043 20.197,12.966L21.3,8.788C14.555,11.192 7.809,13.596 1.064,16.001C-0.207,16.454 -1.059,17.705 -0.682,19.076C-0.344,20.306 1.115,21.278 2.393,20.822C9.139,18.418 15.884,16.014 22.629,13.609C24.294,13.016 25.224,10.781 23.732,9.431C21.037,6.99 18.123,4.773 15.021,2.872C13.531,1.959 11.996,1.117 10.424,0.351C8.806,-0.437 7.026,-1.435 5.244,-1.737C2.941,-2.127 1.503,-0.71 0.615,1.234C-0.189,2.997 -0.937,4.788 -1.615,6.603C-2.98,10.253 -4.04,14.005 -4.821,17.822C-5.092,19.143 -4.438,20.523 -3.075,20.897C-1.839,21.237 -0.272,20.48 0,19.151" style="fill:rgb(35,31,32);fill-rule:nonzero;"/>
                </g>
                <g transform="matrix(1,0,0,1,23.4242,32.7534)">
                    <path d="M0,-6.819L0,-0C0,1.307 1.15,2.56 2.5,2.5C3.855,2.439 5,1.401 5,-0L5,-6.819C5,-8.127 3.85,-9.379 2.5,-9.319C1.145,-9.258 0,-8.221 0,-6.819" style="fill:rgb(35,31,32);fill-rule:nonzero;"/>
                </g>
                <g transform="matrix(1,0,0,1,37.8158,32.493)">
                    <path d="M0,-13.882C0.563,-9.274 0.734,-4.63 0.511,0.008C0.448,1.316 1.706,2.566 3.011,2.508C4.419,2.445 5.443,1.409 5.511,0.008C5.734,-4.63 5.563,-9.274 5,-13.882C4.842,-15.175 3.964,-16.448 2.5,-16.382C1.282,-16.327 -0.17,-15.272 0,-13.882" style="fill:rgb(35,31,32);fill-rule:nonzero;"/>
                </g>
                <g transform="matrix(1,0,0,1,51.4569,31.9953)">
                    <path d="M0,-17.173L0,0C0,1.351 1.149,2.5 2.5,2.5C3.856,2.5 5,1.356 5,0L5,-17.173C5,-18.524 3.851,-19.673 2.5,-19.673C1.144,-19.673 0,-18.529 0,-17.173" style="fill:rgb(35,31,32);fill-rule:nonzero;"/>
                </g>
                <g transform="matrix(1,0,0,1,61.8172,30.4759)">
                    <path d="M0,-12.876C0.27,-8.588 0.348,-4.291 0.233,0.004C0.198,1.312 1.408,2.563 2.733,2.504C4.118,2.442 5.196,1.406 5.233,0.004C5.348,-4.291 5.27,-8.588 5,-12.876C4.918,-14.179 3.909,-15.439 2.5,-15.376C1.216,-15.318 -0.088,-14.274 0,-12.876" style="fill:rgb(35,31,32);fill-rule:nonzero;"/>
                </g>
                <g transform="matrix(1,0,0,1,73.4284,31.7438)">
                    <path d="M0,-14.396L0,-0.001C0,1.307 1.15,2.56 2.5,2.499C3.854,2.438 5,1.401 5,-0.001L5,-14.396C5,-15.704 3.85,-16.956 2.5,-16.896C1.145,-16.835 0,-15.798 0,-14.396" style="fill:rgb(35,31,32);fill-rule:nonzero;"/>
                </g>
                <g transform="matrix(1,0,0,1,19.9739,70.5367)">
                    <path d="M0,-23.15C-3.128,-25.148 -7.204,-23.814 -9.305,-20.995C-11.478,-18.08 -11.562,-14.094 -10.905,-10.658C-9.605,-3.869 -3.536,1.998 3.674,1.329C5.018,1.204 6.174,0.269 6.174,-1.171C6.174,-2.426 5.026,-3.796 3.674,-3.671C-0.764,-3.259 -4.529,-6.301 -5.782,-10.716C-6.359,-12.748 -6.595,-15.225 -5.793,-17.155C-5.416,-18.063 -4.943,-18.609 -4.136,-18.966C-3.508,-19.244 -3.078,-19.187 -2.524,-18.833C0.196,-17.096 2.707,-21.421 0,-23.15" style="fill:rgb(35,31,32);fill-rule:nonzero;"/>
                </g>
                <g transform="matrix(1,0,0,1,84.2887,54.4824)">
                    <path d="M0,-13.003C-0.06,-12.795 -0.227,-12.655 -0.36,-12.502C-0.511,-12.327 -0.171,-12.496 -0.374,-12.478C-0.707,-12.449 0.609,-12.629 -0.058,-12.56C0.096,-12.576 0.371,-12.547 0.518,-12.599C0.799,-12.586 0.691,-12.655 0.194,-12.804C-0.024,-12.853 -0.209,-12.952 -0.362,-13.102C-0.433,-13.092 -0.424,-13.299 -0.344,-12.968C-0.291,-12.752 -0.215,-12.541 -0.157,-12.326C0.287,-10.679 0.392,-9.62 0.313,-7.823C0.295,-7.421 0.263,-7.021 0.218,-6.621C0.169,-6.18 0.271,-6.928 0.2,-6.49C0.164,-6.269 0.126,-6.049 0.083,-5.83C-0.073,-5.042 -0.282,-4.264 -0.544,-3.505C-0.812,-2.727 -0.963,-2.377 -1.42,-1.532C-1.824,-0.785 -2.288,-0.077 -2.797,0.602C-3.607,1.684 -2.972,3.396 -1.9,4.023C-0.622,4.77 0.708,4.21 1.52,3.126C4.327,-0.618 5.699,-5.57 5.252,-10.229C5.013,-12.722 4.596,-16.575 1.773,-17.439C0.681,-17.773 -0.733,-17.591 -1.804,-17.253C-3.249,-16.797 -4.392,-15.815 -4.821,-14.332C-5.197,-13.036 -4.364,-11.611 -3.075,-11.257C-1.755,-10.894 -0.377,-11.701 0,-13.003" style="fill:rgb(35,31,32);fill-rule:nonzero;"/>
                </g>
                <g transform="matrix(1,0,0,1,27.6753,60.8162)">
                    <path d="M0,14.774C3.64,17.068 7.794,18.407 12.022,19.099C16.464,19.826 21.047,20.149 25.543,19.852C29.982,19.558 34.234,18.563 38.273,16.692C41.93,14.999 45.233,12.627 48.305,10.038C51.788,7.101 54.944,3.805 58.074,0.502C60.287,-1.833 56.757,-5.375 54.538,-3.033C49.508,2.274 44.353,7.73 37.882,11.293C30.754,15.218 22.53,15.477 14.612,14.464C10.358,13.921 6.172,12.757 2.524,10.457C-0.206,8.736 -2.718,13.061 0,14.774" style="fill:rgb(35,31,32);fill-rule:nonzero;"/>
                </g>
                <g transform="matrix(1,0,0,1,17.6157,42.8556)">
                    <path d="M0,-9.85L0,-0.001C0,1.307 1.15,2.56 2.5,2.499C3.855,2.439 5,1.401 5,-0.001L5,-9.85C5,-11.158 3.85,-12.41 2.5,-12.35C1.145,-12.289 0,-11.252 0,-9.85" style="fill:rgb(35,31,32);fill-rule:nonzero;"/>
                </g>
                <g transform="matrix(1,0,0,1,5.9986,46.8964)">
                    <path d="M0,-7.072L0,-0.001C0,1.307 1.15,2.56 2.5,2.499C3.855,2.439 5,1.401 5,-0.001L5,-7.072C5,-8.38 3.85,-9.632 2.5,-9.572C1.145,-9.511 0,-8.474 0,-7.072" style="fill:rgb(35,31,32);fill-rule:nonzero;"/>
                </g>
                <g transform="matrix(1,0,0,1,14.3306,4.0823)">
                    <path d="M0,27.895C2.48,22.251 7.325,18.223 11.982,14.392C16.807,10.422 22.046,6.654 27.882,4.32C33.809,1.949 40.461,0.921 46.689,2.696C49.802,3.583 52.672,5.07 55.526,6.567C58.166,7.952 60.874,9.308 62.906,11.545C66.96,16.011 67.507,22.721 67.534,28.462C67.549,31.679 72.549,31.685 72.534,28.462C72.506,22.326 71.797,15.655 68.311,10.416C66.382,7.517 63.761,5.402 60.75,3.699C57.601,1.918 54.34,0.235 50.979,-1.106C44.253,-3.79 36.841,-3.715 29.948,-1.678C23.009,0.373 16.862,4.261 11.191,8.662C5.287,13.243 -1.236,18.357 -4.317,25.371C-4.86,26.607 -4.679,28.056 -3.42,28.792C-2.359,29.413 -0.546,29.138 0,27.895" style="fill:rgb(35,31,32);fill-rule:nonzero;"/>
                </g>
                <g transform="matrix(1,0,0,1,14.8121,91.9638)">
                    <path d="M0,-14.788L0.752,-14.706C1.971,-14.573 3.075,-15.759 3.208,-16.874C3.346,-18.041 2.652,-19.35 1.417,-19.617C-1.313,-20.205 -4.091,-19.349 -6.061,-17.364C-8.198,-15.21 -8.88,-12.15 -8.448,-9.215C-8.031,-6.38 -6.52,-3.867 -4.552,-1.824C-4.096,-1.351 -3.612,-0.906 -3.11,-0.483C-2.67,-0.111 -1.969,0.688 -1.445,0.825C-1.241,0.879 -1.3,1.141 -1.408,0.446C-1.323,0.993 -1.591,-0.252 -1.366,-0.106C-1.379,-0.114 -2.693,0.301 -2.853,0.335C-2.211,1.858 -1.569,3.381 -0.927,4.904C1.913,3.607 5.04,3.03 7.772,1.469C10.245,0.056 12.452,-2.148 13.256,-4.943C13.746,-6.645 13.694,-8.538 12.421,-9.893C11.334,-11.052 9.47,-11.618 8.015,-12.12C7.236,-12.388 6.445,-12.579 5.651,-12.793C5.517,-12.824 5.384,-12.862 5.254,-12.907C5.085,-12.957 5.079,-12.963 5.234,-12.923C5.765,-12.488 5.929,-11.996 5.726,-11.446C5.721,-11.449 5.717,-11.452 5.713,-11.455C5.508,-11.722 9.334,-13.837 9.616,-13.977C11.58,-14.95 11.005,-18.015 9.018,-18.546C6.175,-19.307 2.135,-20.112 -0.184,-17.753C-2.322,-15.579 -1.852,-11.816 0.269,-9.816C1.325,-8.82 2.674,-8.161 4.078,-7.814C4.636,-7.675 5.691,-7.307 6.201,-7.466C6.051,-7.42 6.436,-7.437 6.439,-7.441C6.086,-7.649 5.926,-7.92 5.956,-8.251C6.01,-8.423 6.013,-8.422 5.963,-8.249C5.992,-8.24 5.93,-8.199 5.864,-8.131C5.723,-7.985 5.391,-7.696 5.333,-7.651C4.787,-7.224 4.184,-6.855 3.591,-6.497C2.383,-5.767 1.121,-5.136 -0.201,-4.642C-1.465,-4.169 -2.328,-2.952 -1.947,-1.566C-1.613,-0.353 -0.143,0.655 1.128,0.18C3.879,-0.85 6.577,-2.196 8.844,-4.089C10.014,-5.066 10.887,-6.425 10.949,-7.983C11.02,-9.753 10.033,-11.345 8.389,-12.014C7.064,-12.553 6.004,-12.373 4.697,-12.844C4.486,-12.921 3.97,-13.202 3.804,-13.352C3.696,-13.449 3.595,-13.554 3.501,-13.665C3.616,-13.526 3.628,-13.528 3.535,-13.673C3.454,-13.826 3.452,-13.818 3.526,-13.65C3.483,-13.769 3.449,-13.891 3.423,-14.015C3.421,-14.033 3.406,-14.159 3.399,-14.135C3.345,-13.958 3.609,-14.483 3.48,-14.429C3.492,-14.434 3.253,-14.022 3.21,-14.159C3.173,-14.279 3.596,-14.273 3.678,-14.282C4.986,-14.427 6.439,-14.059 7.689,-13.725C7.49,-15.248 7.291,-16.771 7.092,-18.294C4.33,-16.926 -0.225,-14.418 1.03,-10.652C1.624,-8.87 3.285,-8.246 4.94,-7.82C5.187,-7.756 9.044,-6.463 8.953,-6.316C8.81,-6.388 8.734,-6.518 8.723,-6.707C8.574,-7.16 8.518,-7.176 8.556,-6.755C8.635,-6.884 8.433,-6.266 8.392,-6.136C8.256,-5.708 8.035,-5.305 7.673,-4.828C7.127,-4.11 6.178,-3.381 5.248,-2.849C2.549,-1.302 -0.625,-0.704 -3.451,0.587C-4.568,1.097 -4.929,2.672 -4.474,3.709C-3.955,4.889 -2.776,5.417 -1.524,5.156C-0.135,4.867 1.255,4.398 2.244,3.329C3.418,2.061 3.847,0.191 3.083,-1.394C2.491,-2.624 1.302,-3.267 0.3,-4.125C-0.567,-4.868 -1.416,-5.679 -2.081,-6.612C-3.318,-8.349 -4.144,-10.734 -3.266,-12.742C-3.128,-13.058 -2.894,-13.416 -2.81,-13.518C-2.488,-13.911 -2.222,-14.135 -1.941,-14.312C-1.462,-14.613 -1.375,-14.669 -0.759,-14.805C-0.439,-14.875 -0.197,-14.857 0.088,-14.795C0.309,-16.432 0.531,-18.069 0.752,-19.706L0,-19.788C-1.344,-19.934 -2.5,-18.534 -2.5,-17.288C-2.5,-15.815 -1.348,-14.935 0,-14.788" style="fill:rgb(35,31,32);fill-rule:nonzero;"/>
                </g>
                <g transform="matrix(1,0,0,1,22.8914,90.0402)">
                    <path d="M0,-7.076C1.404,-7.066 2.807,-7.055 4.211,-7.045C4.812,-7.041 5.414,-7.036 6.015,-7.032C6.351,-7.029 6.687,-7.031 7.023,-7.021C7.158,-7.018 7.294,-7.012 7.429,-7.002C7.211,-7.039 7.254,-7.025 7.558,-6.961C7.355,-7.049 7.759,-6.671 7.421,-7.078C7.733,-6.703 7.235,-7.471 7.537,-6.905C7.619,-6.742 7.597,-6.793 7.468,-7.058C7.508,-6.934 7.539,-6.807 7.563,-6.679C7.413,-7.205 7.52,-6.749 7.528,-6.552C7.505,-6.262 7.51,-6.285 7.542,-6.621C7.522,-6.523 7.497,-6.427 7.466,-6.332C7.408,-6.157 7.433,-6.202 7.541,-6.467C7.473,-6.325 7.397,-6.187 7.314,-6.052C7.013,-5.515 7.564,-6.255 7.136,-5.812C6.943,-5.612 6.748,-5.421 6.537,-5.239C6.404,-5.129 6.416,-5.136 6.573,-5.26C6.443,-5.166 6.311,-5.074 6.177,-4.986C5.976,-4.853 5.771,-4.727 5.563,-4.604C5.019,-4.283 4.458,-3.99 3.892,-3.71C2.742,-3.141 2.026,-2.845 0.844,-2.406C-1.556,-1.516 -4.021,-0.819 -6.482,-0.123C-7.74,0.232 -8.646,1.661 -8.228,2.952C-7.813,4.234 -6.501,5.079 -5.153,4.698C-0.572,3.404 4.196,2.09 8.294,-0.41C10.47,-1.739 12.238,-3.624 12.501,-6.252C12.748,-8.723 11.227,-11.216 8.757,-11.813C7.342,-12.155 5.806,-12.033 4.361,-12.044C2.907,-12.055 1.454,-12.065 0,-12.076C-1.308,-12.086 -2.56,-10.919 -2.5,-9.576C-2.439,-8.213 -1.402,-7.086 0,-7.076" style="fill:rgb(35,31,32);fill-rule:nonzero;"/>
                </g>
            </g>
        </g>
    </g>
</svg>
