<?xml version="1.0" encoding="UTF-8" standalone="no"?>
<!DOCTYPE svg PUBLIC "-//W3C//DTD SVG 1.1//EN" "http://www.w3.org/Graphics/SVG/1.1/DTD/svg11.dtd">
<svg width="100%" height="100%" viewBox="0 0 100 100" version="1.1" xmlns="http://www.w3.org/2000/svg" xmlns:xlink="http://www.w3.org/1999/xlink" xml:space="preserve" xmlns:serif="http://www.serif.com/" style="fill-rule:evenodd;clip-rule:evenodd;stroke-linejoin:round;stroke-miterlimit:2;">
    <g transform="matrix(1,0,0,1,-450,-112.5)">
        <g id="Page-13" serif:id="Page 13" transform="matrix(1,0,0,1,450,112.5)">
            <rect x="0" y="0" width="100" height="100" style="fill:none;"/>
            <g id="Drawing">
                <g transform="matrix(1,0,0,1,26.4663,65.9212)">
                    <path d="M0,-39.415C0.629,-42.268 3.432,-43.94 5.78,-45.322C8.623,-46.995 11.644,-48.287 14.793,-49.265C21.095,-51.221 27.678,-51.948 34.257,-52.025C37.369,-52.062 40.901,-52.257 43.574,-50.387C46.048,-48.657 47.722,-45.729 49.197,-43.164C52.635,-37.182 54.917,-30.332 55.397,-23.429C55.863,-16.719 54.284,-10.434 50.256,-5.01C46.449,0.116 41.022,3.794 35.292,6.46C29.015,9.38 21.948,11.482 15.082,12.374C11.863,12.792 8.358,13.049 5.241,11.952C2.516,10.994 0.834,8.692 -0.371,6.178C-1.884,3.02 -2.809,-0.498 -3.804,-3.845C-4.984,-7.81 -6.001,-11.865 -6.189,-16.013C-6.526,-23.471 -4.294,-30.764 -0.005,-36.854C0.773,-37.959 0.194,-39.634 -0.902,-40.275C-2.152,-41.006 -3.543,-40.485 -4.322,-39.378C-8.673,-33.201 -11.093,-25.7 -11.219,-18.146C-11.351,-10.229 -8.836,-2.257 -6.171,5.118C-5.021,8.299 -3.551,11.532 -1.019,13.864C1.788,16.449 5.419,17.499 9.166,17.676C13.161,17.863 17.245,17.201 21.133,16.34C25.063,15.47 28.954,14.323 32.723,12.907C39.744,10.27 46.485,6.568 51.659,1.045C56.798,-4.441 59.954,-11.24 60.425,-18.77C60.923,-26.712 58.796,-34.857 55.435,-42.002C53.825,-45.424 51.855,-48.762 49.427,-51.671C46.842,-54.77 43.536,-56.394 39.56,-56.856C35.933,-57.278 32.144,-57.054 28.512,-56.781C24.689,-56.494 20.863,-55.966 17.13,-55.084C13.503,-54.227 9.969,-53.003 6.601,-51.408C3.458,-49.92 0.059,-48.061 -2.286,-45.438C-3.493,-44.089 -4.429,-42.524 -4.821,-40.744C-5.512,-37.608 -0.693,-36.269 0,-39.415" style="fill:rgb(35,31,32);fill-rule:nonzero;"/>
                </g>
                <g transform="matrix(1,0,0,1,36.5856,33.2977)">
                    <path d="M0,6.788C0.045,6.523 0.134,6.276 0.192,6.016C0.149,6.205 0.033,6.322 0.176,6.067C0.24,5.951 0.302,5.833 0.372,5.72C0.443,5.607 0.519,5.498 0.597,5.39C0.288,5.818 0.577,5.445 0.661,5.358C0.754,5.26 0.85,5.166 0.95,5.075C0.991,5.038 1.327,4.761 1.086,4.947C0.845,5.134 1.198,4.878 1.244,4.848C1.36,4.772 1.479,4.7 1.6,4.632C1.734,4.556 1.87,4.484 2.007,4.417C2.05,4.396 2.474,4.22 2.234,4.31C1.991,4.402 2.431,4.248 2.473,4.233C2.619,4.184 2.765,4.138 2.913,4.094C3.246,3.996 3.583,3.913 3.922,3.84C4.225,3.775 4.529,3.719 4.834,3.668C4.986,3.643 5.138,3.62 5.291,3.596C5.542,3.556 5.516,3.571 5.28,3.595C5.87,3.535 6.456,3.477 7.05,3.474C7.344,3.473 7.636,3.492 7.93,3.505C8.416,3.528 7.733,3.443 8.021,3.511C8.16,3.543 8.303,3.563 8.443,3.596C8.583,3.629 8.721,3.665 8.858,3.707C8.906,3.722 9.34,3.858 9.063,3.761C8.793,3.667 9.201,3.83 9.253,3.857C9.414,3.94 9.567,4.033 9.72,4.13C10.829,4.827 12.524,4.4 13.141,3.233C13.791,2.002 13.427,0.557 12.244,-0.187C9.328,-2.022 5.574,-1.669 2.367,-0.931C-0.851,-0.192 -4.223,1.957 -4.821,5.459C-5.041,6.743 -4.481,8.214 -3.075,8.534C-1.864,8.81 -0.235,8.166 0,6.788" style="fill:rgb(35,31,32);fill-rule:nonzero;"/>
                </g>
                <g transform="matrix(1,0,0,1,64.0033,28.7619)">
                    <path d="M0,8.134C0.851,7.296 1.721,6.494 2.629,5.719C2.906,5.482 2.306,5.945 2.604,5.737C2.743,5.641 2.877,5.538 3.016,5.442C3.237,5.29 3.464,5.143 3.695,5.006C3.955,4.851 4.222,4.707 4.494,4.575C4.552,4.547 4.962,4.376 4.646,4.499C4.3,4.635 4.84,4.436 4.858,4.43C5.085,4.354 5.315,4.288 5.548,4.233C5.693,4.199 5.843,4.179 5.988,4.144C6.322,4.065 5.516,4.175 5.858,4.161C6.127,4.149 6.392,4.122 6.662,4.126C6.781,4.128 6.899,4.138 7.017,4.141C7.399,4.154 6.953,4.078 6.879,4.111C7.027,4.045 7.482,4.236 7.646,4.285C7.757,4.318 7.865,4.362 7.975,4.396C8.26,4.484 7.537,4.157 7.932,4.389C8.048,4.457 8.402,4.756 8.522,4.754C8.444,4.696 8.367,4.638 8.29,4.58C8.524,4.812 8.489,4.718 8.184,4.299C7.687,3.466 7.574,2.285 8.942,1.686C9.363,1.573 9.783,1.459 10.204,1.345C10.18,1.342 10.156,1.339 10.132,1.336C10.553,1.45 10.974,1.564 11.394,1.677L11.313,1.627C10.198,0.94 8.513,1.35 7.892,2.524C7.246,3.746 7.599,5.211 8.789,5.944C10.359,6.913 12.347,5.975 12.785,4.247C13.136,2.861 12.526,1.579 11.437,0.738C9.937,-0.421 8.022,-0.98 6.126,-0.861C2.144,-0.613 -0.816,1.922 -3.536,4.598C-4.469,5.517 -4.525,7.226 -3.536,8.134C-2.531,9.056 -0.996,9.114 0,8.134" style="fill:rgb(35,31,32);fill-rule:nonzero;"/>
                </g>
                <g transform="matrix(1,0,0,1,38.8554,63.6216)">
                    <path d="M0,-8.244C-0.281,-4.881 3.558,-2.373 5.963,-0.695C8.731,1.235 11.91,2.424 15.306,2.463C18.626,2.5 22.146,1.701 25.298,0.69C28.209,-0.243 30.745,-1.825 31.794,-4.825C32.24,-6.099 31.287,-7.56 30.048,-7.9C28.67,-8.279 27.42,-7.433 26.973,-6.154C26.505,-4.818 24.542,-4.285 23.302,-3.93C20.871,-3.235 18.311,-2.586 15.773,-2.539C13.411,-2.496 11.331,-3.197 9.345,-4.445C8.415,-5.029 7.544,-5.689 6.707,-6.399C6.298,-6.746 5.883,-7.093 5.498,-7.467C5.32,-7.64 5.07,-7.854 4.95,-8.078C4.914,-8.144 4.931,-7.42 5,-8.244C5.113,-9.591 3.77,-10.744 2.5,-10.744C1.054,-10.744 0.113,-9.595 0,-8.244" style="fill:rgb(35,31,32);fill-rule:nonzero;"/>
                </g>
                <g transform="matrix(1,0,0,1,33.737,78.7669)">
                    <path d="M0,-61.565C-5.999,-63.478 -10.81,-58.084 -12.723,-53.005C-14.518,-48.239 -13.459,-41.955 -17.179,-38.022C-15.786,-37.654 -14.393,-37.286 -13,-36.918C-13.99,-40.043 -14.98,-43.167 -15.97,-46.291C-16.56,-48.153 -19.594,-48.969 -20.54,-46.888C-22.129,-43.39 -21.999,-39.662 -22.019,-35.899C-22.04,-31.855 -22.061,-27.81 -22.083,-23.766C-22.124,-15.76 -22.166,-7.754 -22.208,0.252L-17.208,0.252C-17.301,-1.455 -17.393,-3.162 -17.486,-4.87C-17.553,-6.106 -18.385,-7.174 -19.654,-7.325C-20.772,-7.458 -22.198,-6.777 -22.397,-5.534C-23.061,-1.391 -23.421,3.76 -19.283,6.264C-17.786,7.17 -15.799,7.571 -14.088,7.095C-13.161,6.838 -12.314,6.352 -11.644,5.659C-11.318,5.321 -10.992,4.887 -10.777,4.463C-10.601,4.113 -10.141,4.412 -11.26,4.459C-11.68,4.346 -12.101,4.232 -12.521,4.118C-12.476,4.139 -12.431,4.159 -12.386,4.179L-13.283,3.283L-13.411,3.049C-13.11,4.978 -10.451,5.357 -9.232,4.153C-7.082,2.028 -7.317,-1.269 -9.061,-3.565C-10.979,-6.091 -14.145,-6.581 -17.124,-6.707C-18.911,-6.783 -21.947,-6.591 -22.714,-8.662C-23.155,-9.854 -23.045,-11.307 -23.074,-12.552C-23.116,-14.331 -23.122,-16.112 -23.089,-17.892C-22.964,-24.629 -22.314,-31.351 -21.097,-37.979C-20.197,-42.874 -19.221,-48.56 -15.657,-52.313C-11.86,-56.312 -6.017,-56.222 -0.904,-56.292C5.546,-56.38 11.735,-57.384 17.96,-59.058C21.143,-59.914 24.3,-60.862 27.481,-61.721C30.344,-62.493 33.3,-63.351 36.253,-63.694C37.25,-63.809 38.421,-63.919 39.373,-63.524C40.346,-63.121 40.619,-62.157 40.926,-61.219C41.948,-58.091 42.83,-54.913 43.605,-51.714C47.103,-37.281 48.098,-22.325 46.677,-7.546C46.436,-5.034 50.204,-4.202 51.336,-6.284C53.579,-10.411 55.823,-14.538 58.067,-18.666C56.514,-19.086 54.961,-19.507 53.408,-19.927C53.767,-13.514 55.064,-7.195 57.359,-1.193C58.236,1.101 61.352,1.248 62.18,-1.193C65.249,-10.238 62.116,-19.8 59.556,-28.557C56.863,-37.77 54.305,-47.096 51.146,-56.161C49.721,-60.25 47.688,-64.339 43.744,-66.509C40.923,-68.061 38.397,-63.745 41.22,-62.192C43.985,-60.67 45.327,-57.694 46.325,-54.832C47.756,-50.729 48.947,-46.529 50.214,-42.372C51.557,-37.963 52.879,-33.547 54.179,-29.124C55.422,-24.893 56.758,-20.663 57.656,-16.341C58.611,-11.744 58.887,-7.025 57.359,-2.522L62.18,-2.522C60.044,-8.109 58.743,-13.953 58.408,-19.927C58.276,-22.283 54.997,-23.484 53.749,-21.189C51.506,-17.062 49.262,-12.935 47.018,-8.808C48.571,-8.387 50.124,-7.967 51.677,-7.546C53.005,-21.356 52.197,-35.335 49.358,-48.915C48.652,-52.291 47.815,-55.64 46.851,-58.951C45.967,-61.985 45.285,-65.647 42.477,-67.518C40.047,-69.136 36.927,-68.876 34.199,-68.402C30.883,-67.826 27.618,-66.958 24.378,-66.054C18.002,-64.277 11.602,-62.17 4.981,-61.54C-0.979,-60.974 -7.331,-61.94 -13.054,-59.791C-18.82,-57.625 -22.197,-52.811 -24.066,-47.124C-26.115,-40.888 -26.927,-34.094 -27.543,-27.586C-27.923,-23.557 -28.113,-19.511 -28.11,-15.465C-28.107,-12.018 -28.526,-7.709 -26.222,-4.852C-24.053,-2.163 -20.541,-1.848 -17.332,-1.716C-16.101,-1.665 -14.459,-1.686 -13.443,-0.982C-13.071,-0.723 -12.846,-0.358 -12.723,0.03C-12.632,0.315 -12.6,0.278 -12.657,0.569C-12.623,0.397 -12.38,0.234 -12.768,0.617C-11.375,0.985 -9.982,1.352 -8.589,1.72C-8.954,-0.618 -11.669,-0.992 -13.343,0.154C-14.105,0.675 -14.776,1.384 -15.248,2.179C-15.14,1.997 -15.58,2.4 -15.225,2.213C-15.365,2.287 -15.247,2.267 -15.557,2.291C-16.357,2.354 -17.183,1.856 -17.549,0.941C-18.183,-0.645 -17.837,-2.577 -17.575,-4.205C-19.212,-4.427 -20.849,-4.648 -22.486,-4.87C-22.393,-3.162 -22.301,-1.455 -22.208,0.252C-22.035,3.444 -17.225,3.494 -17.208,0.252C-17.168,-7.424 -17.128,-15.1 -17.088,-22.776C-17.068,-26.572 -17.048,-30.369 -17.028,-34.166C-17.018,-36.006 -17.033,-37.848 -16.992,-39.688C-16.956,-41.255 -16.882,-42.913 -16.222,-44.365L-20.792,-44.962C-19.802,-41.838 -18.812,-38.713 -17.822,-35.589C-17.272,-33.854 -14.984,-33.069 -13.643,-34.486C-9.876,-38.469 -9.631,-43.807 -8.647,-48.904C-8,-52.253 -5.416,-58.047 -1.329,-56.744C1.744,-55.764 3.059,-60.59 0,-61.565" style="fill:rgb(35,31,32);fill-rule:nonzero;"/>
                </g>
            </g>
        </g>
    </g>
</svg>
