<svg width="284" height="238" viewBox="0 0 284 238" fill="none" xmlns="http://www.w3.org/2000/svg">
<path fill-rule="evenodd" clip-rule="evenodd" d="M23.6864 104.878C24.8289 105.215 26.7727 105.967 28.254 107.777C29.2427 108.985 30.7193 110.981 31.9873 113.168C32.6234 114.265 33.2719 115.522 33.776 116.832C34.2525 118.07 34.7583 119.754 34.7583 121.594C34.7583 125.072 31.9388 127.892 28.4607 127.892C25.0484 127.892 22.27 125.178 22.1662 121.791C22.1497 121.727 22.1096 121.585 22.0216 121.356C21.8309 120.861 21.5185 120.223 21.0906 119.484C20.5486 118.549 19.9256 117.632 19.3736 116.878C18.9689 116.863 18.534 116.879 18.1455 116.918C17.9439 116.939 17.7836 116.962 17.6723 116.983C17.6301 116.99 17.6015 116.996 17.5856 117C15.964 117.511 14.8413 118.596 13.992 120.542C13.0621 122.672 12.642 125.517 12.642 128.535C12.642 134.295 15.295 139.88 19.8074 144.999C24.3181 150.115 30.3407 154.346 36.059 157.206C39.1698 158.761 40.4308 162.544 38.8753 165.655C37.3199 168.765 33.5371 170.026 30.4263 168.471C23.5845 165.05 16.158 159.905 10.3596 153.328C4.56287 146.752 0.046875 138.326 0.046875 128.535C0.046875 124.612 0.556185 119.839 2.44875 115.503C4.4146 110.999 7.99543 106.773 13.9234 104.949C15.6682 104.412 18.0219 104.204 20.0538 104.301C21.1246 104.352 22.41 104.501 23.6864 104.878Z" fill="#231F20"/>
<path fill-rule="evenodd" clip-rule="evenodd" d="M55.4871 101.408C53.734 101.018 52.102 100.993 49.3815 100.993C45.9035 100.993 43.084 98.1736 43.084 94.6955C43.084 91.2175 45.9035 88.398 49.3815 88.398C49.4429 88.398 49.5045 88.398 49.5664 88.398C52.0942 88.3975 54.9999 88.397 58.2194 89.1125C59.759 89.4546 61.2267 90.0747 61.9677 90.3878C62.0983 90.443 62.2063 90.4886 62.2882 90.5215C62.9827 90.8006 63.1082 90.7906 63.1274 90.7891C63.1283 90.789 63.129 90.7889 63.1295 90.7889C66.6075 90.7889 69.427 93.6085 69.427 97.0865C69.427 100.565 66.6075 103.384 63.1295 103.384C60.7041 103.384 58.8177 102.701 57.5914 102.208C57.1707 102.039 56.8571 101.909 56.611 101.807C56.0337 101.568 55.8289 101.484 55.4871 101.408Z" fill="#231F20"/>
<path fill-rule="evenodd" clip-rule="evenodd" d="M67.9057 79.4321C71.3837 79.4321 74.2032 82.2516 74.2032 85.7297C74.2032 85.9852 74.2063 86.2625 74.2096 86.5589C74.2359 88.9234 74.2757 92.5107 72.8736 96.094C72.446 97.1867 71.8531 98.5204 71.3388 99.6773C71.0707 100.28 70.824 100.835 70.6332 101.283C69.9438 102.901 69.5261 104.102 69.3529 105.054C69.3041 105.323 69.2493 105.582 69.192 105.83C75.6112 106.115 82.0871 107.079 88.5491 109.341C93.3878 111.034 98.2103 111.451 103.956 111.948C105.442 112.076 106.989 112.21 108.614 112.372C109.897 112.501 111.092 112.74 112.05 112.945C112.341 113.007 112.603 113.064 112.846 113.117C113.484 113.256 113.99 113.366 114.53 113.461C114.544 113.462 114.625 113.469 114.804 113.469C115.026 113.469 115.229 113.461 115.554 113.448C115.666 113.444 115.792 113.439 115.939 113.433L115.991 113.431C116.889 113.397 118.72 113.328 120.635 113.895C120.942 113.986 121.335 114.041 122.411 114.192C122.5 114.205 122.595 114.218 122.695 114.232L122.728 114.236C123.621 114.362 125.206 114.584 126.767 115.178C126.764 115.082 126.762 114.984 126.762 114.886C126.762 109.962 126.914 104.896 127.063 99.9854L127.066 99.8996C127.215 94.9817 127.359 90.2271 127.359 85.7297C127.359 82.2516 130.179 79.4321 133.657 79.4321C137.135 79.4321 139.954 82.2516 139.954 85.7297C139.954 90.4196 139.805 95.336 139.658 100.181L139.653 100.367C139.504 105.253 139.36 110.071 139.357 114.721C139.361 114.727 139.382 114.939 139.458 115.51C139.477 115.648 139.497 115.799 139.519 115.96C139.596 116.527 139.691 117.221 139.771 117.891C139.871 118.728 139.979 119.76 140.002 120.693C140.013 121.138 140.012 121.794 139.916 122.492C139.869 122.839 139.773 123.387 139.553 124.006C139.362 124.545 138.881 125.71 137.737 126.74C136.723 127.652 135.669 128.029 135.175 128.182C134.599 128.361 134.082 128.444 133.726 128.487C133.012 128.575 132.317 128.577 131.782 128.562C130.677 128.531 129.442 128.401 128.35 128.254C127.229 128.103 126.101 127.913 125.157 127.726C124.495 127.595 123.198 127.334 122.247 126.933C122.25 126.934 122.249 126.934 122.241 126.932C122.191 126.918 121.89 126.837 120.944 126.705C120.853 126.692 120.749 126.678 120.634 126.662C119.819 126.553 118.453 126.369 117.192 126.011C117.122 126.009 116.897 126.001 116.412 126.019C116.351 126.022 116.28 126.024 116.202 126.028C115.839 126.043 115.308 126.064 114.807 126.064C114.156 126.065 113.313 126.033 112.388 125.872C111.552 125.727 110.674 125.535 109.967 125.381C109.77 125.338 109.586 125.298 109.42 125.262C108.554 125.077 107.92 124.961 107.361 124.905C106.148 124.783 104.875 124.677 103.558 124.566C97.6715 124.071 90.8788 123.5 84.3884 121.228C78.1857 119.058 71.7032 118.328 64.6513 118.328C64.377 118.328 64.1317 118.334 63.8746 118.341C63.8472 118.342 63.8171 118.343 63.7846 118.344C63.5695 118.351 63.2522 118.36 62.9697 118.36C62.9647 118.36 62.9552 118.36 62.9415 118.36C62.6297 118.369 60.1337 118.441 58.0682 116.656C55.8245 114.717 55.6842 112.067 55.6576 111.563C55.6565 111.543 55.6556 111.526 55.6548 111.513C55.6216 110.985 55.6259 110.258 55.6291 109.719C55.63 109.577 55.6307 109.449 55.6307 109.34C55.6307 107.462 56.0893 105.826 56.3804 104.842C56.4961 104.452 56.5879 104.151 56.6621 103.908C56.8254 103.374 56.9031 103.12 56.961 102.801C57.3953 100.412 58.2757 98.1537 59.0464 96.3452C59.4263 95.4538 59.7506 94.7297 60.0439 94.0748C60.4482 93.1723 60.7936 92.4011 61.1445 91.5043C61.6125 90.3083 61.6114 89.2223 61.6086 86.444C61.6084 86.2175 61.6081 85.9797 61.6081 85.7297C61.6081 82.2516 64.4276 79.4321 67.9057 79.4321ZM127.411 121.085C127.411 121.085 127.411 121.079 127.411 121.068L127.411 121.085ZM62.9989 105.765C62.9731 105.765 62.9807 105.764 63.0157 105.765C63.0098 105.765 63.0043 105.765 62.9989 105.765Z" fill="#231F20"/>
<path fill-rule="evenodd" clip-rule="evenodd" d="M98.7076 89.9336C88.0804 90.0827 77.4112 90.2324 66.7194 90.2324C63.2414 90.2324 60.4219 87.4129 60.4219 83.9348C60.4219 80.4568 63.2414 77.6373 66.7194 77.6373C77.3229 77.6373 87.9182 77.4886 98.5748 77.3391L98.5814 77.339C109.226 77.1897 119.93 77.0396 130.677 77.0396C134.155 77.0396 136.975 79.8591 136.975 83.3371C136.975 86.8151 134.155 89.6346 130.677 89.6346C120.033 89.6346 109.417 89.7834 98.758 89.9329L98.7076 89.9336Z" fill="#231F20"/>
<path fill-rule="evenodd" clip-rule="evenodd" d="M153.081 111.4C148.427 112.13 143.209 112.948 137.842 112.948C134.364 112.948 131.545 110.128 131.545 106.65C131.545 103.172 134.364 100.352 137.842 100.352C142.125 100.352 146.434 99.6932 151.279 98.934C151.368 98.92 151.458 98.906 151.548 98.8919C156.157 98.1693 161.295 97.3638 166.534 97.3638C170.012 97.3638 172.831 100.183 172.831 103.661C172.831 107.139 170.012 109.959 166.534 109.959C162.343 109.959 158.087 110.616 153.229 111.377L153.081 111.4Z" fill="#231F20"/>
<path fill-rule="evenodd" clip-rule="evenodd" d="M173.714 75.2471C177.192 75.2471 180.011 78.0666 180.011 81.5446C180.011 89.712 180.166 97.8614 180.576 105.852C180.59 105.898 180.608 105.951 180.628 106.012C180.673 106.144 180.724 106.289 180.781 106.442C182.364 106.457 183.947 106.425 185.621 106.392C187.134 106.361 188.722 106.329 190.45 106.329C197.434 106.329 203.861 106.053 210.557 105.216C211.497 105.098 212.458 105.073 213.184 105.06C213.474 105.055 213.732 105.052 213.971 105.049C214.431 105.043 214.824 105.038 215.26 105.022C215.881 104.999 216.291 104.96 216.559 104.913C216.583 104.909 216.604 104.905 216.622 104.901C217.872 104.254 219.074 103.992 220.001 103.875C220.896 103.761 221.747 103.761 222.211 103.761L222.266 103.761C222.563 103.762 222.746 103.76 222.864 103.758C225.855 102.607 229.289 103.896 230.752 106.822C232.307 109.933 231.046 113.716 227.935 115.271C226.613 115.932 225.349 116.172 224.411 116.272C223.597 116.359 222.801 116.357 222.366 116.357C222.329 116.357 222.295 116.357 222.264 116.357C222.098 116.357 221.975 116.357 221.874 116.358C219.556 117.439 217.045 117.56 215.726 117.609C214.713 117.646 214.046 117.65 213.54 117.652C212.941 117.655 212.569 117.657 212.119 117.714C204.754 118.634 197.778 118.925 190.45 118.925C189.254 118.925 187.933 118.95 186.545 118.976C183.477 119.034 180.075 119.099 176.93 118.914C174.538 118.773 173.021 117.41 172.569 116.985C171.935 116.39 171.475 115.761 171.184 115.329C170.582 114.432 170.079 113.429 169.705 112.602C169.314 111.735 168.96 110.83 168.688 110.022C168.507 109.483 168.087 108.216 168.022 106.981C167.579 98.5636 167.416 90.0266 167.416 81.5446C167.416 78.0666 170.236 75.2471 173.714 75.2471ZM216.72 104.879C216.72 104.879 216.716 104.88 216.709 104.882C216.716 104.879 216.72 104.878 216.72 104.879ZM223.071 103.748C223.075 103.748 223.076 103.748 223.074 103.748C223.073 103.748 223.072 103.748 223.071 103.748Z" fill="#231F20"/>
<path fill-rule="evenodd" clip-rule="evenodd" d="M215.075 82.3465C214.471 82.3946 213.612 82.4631 212.857 82.4631H203.592C199.063 82.4631 194.489 82.6087 189.783 82.7587L189.771 82.7591C185.103 82.9079 180.307 83.0608 175.499 83.0608C172.021 83.0608 169.201 80.2413 169.201 76.7633C169.201 73.2852 172.021 70.4657 175.499 70.4657C180.078 70.4657 184.678 70.32 189.382 70.1701L189.467 70.1673C194.11 70.0193 198.857 69.868 203.592 69.868H212.857C213.046 69.868 213.398 69.8448 214.183 69.7826L214.252 69.7771C214.912 69.7247 215.8 69.6542 216.695 69.6289C217.598 69.6034 218.779 69.6126 219.982 69.8106C221.003 69.9787 222.806 70.3974 224.418 71.7285L224.448 71.7437C224.569 71.8059 224.84 71.9454 225.135 72.124C225.809 72.5312 226.731 73.2066 227.527 74.325C228.293 75.3994 228.686 76.5207 228.901 77.4892C229.014 77.9986 229.138 78.6762 229.228 79.1648C229.261 79.3489 229.29 79.5061 229.312 79.6174C229.43 80.2309 229.507 80.5084 229.547 80.6226C230.426 83.0835 230.373 85.6654 230.346 86.9841C230.343 87.1049 230.341 87.2151 230.34 87.3136C230.319 88.8574 230.407 89.1572 230.405 89.1578C230.405 89.1578 230.403 89.1546 230.401 89.149C231.679 92.0239 232.488 95.4253 233.019 97.8123C233.192 98.5941 233.227 99.301 233.234 99.7644C233.242 100.259 233.219 100.729 233.196 101.101C233.176 101.421 233.15 101.755 233.128 102.027C233.124 102.07 233.121 102.111 233.118 102.151C233.106 102.295 233.096 102.425 233.088 102.545C233.986 104.274 234.073 106.395 233.135 108.271C231.579 111.382 227.796 112.643 224.686 111.087C221.715 109.602 220.904 106.809 220.666 105.619C220.404 104.308 220.446 103.036 220.484 102.302C220.503 101.926 220.579 100.929 220.611 100.507C220.62 100.398 220.625 100.328 220.626 100.316C220.63 100.252 220.633 100.196 220.635 100.149C220.123 97.8878 219.562 95.7724 218.891 94.2644C217.682 91.5425 217.723 88.7456 217.744 87.3034C217.744 87.2489 217.745 87.1963 217.746 87.1458C217.747 87.0794 217.748 87.0153 217.749 86.9532C217.759 86.1915 217.765 85.7428 217.739 85.3182C217.718 84.9951 217.686 84.8636 217.682 84.8471C217.341 83.8897 217.129 82.9349 216.987 82.2209C216.453 82.2381 215.876 82.2829 215.179 82.3382C215.145 82.3409 215.111 82.3436 215.075 82.3465ZM233.054 103.4C233.053 103.4 233.053 103.397 233.053 103.391L233.054 103.4Z" fill="#231F20"/>
<path fill-rule="evenodd" clip-rule="evenodd" d="M223.604 94.0983C223.604 90.6203 226.423 87.8008 229.901 87.8008H241.856C245.334 87.8008 248.153 90.6203 248.153 94.0983C248.153 97.5764 245.334 100.396 241.856 100.396H229.901C226.423 100.396 223.604 97.5764 223.604 94.0983Z" fill="#231F20"/>
<path fill-rule="evenodd" clip-rule="evenodd" d="M200.494 101.495C200.614 101.501 200.743 101.508 200.879 101.517C200.938 101.52 201.037 101.527 201.144 101.534C201.292 101.543 201.454 101.554 201.546 101.56C201.733 101.571 202.068 101.591 202.4 101.591C205.878 101.591 208.698 98.7713 208.698 95.2933C208.698 91.8153 205.878 88.9957 202.4 88.9957C202.426 88.9957 202.381 88.991 201.667 88.9462C201.157 88.9142 200.411 88.8726 199.638 88.881C198.97 88.8882 197.784 88.9302 196.575 89.2724C195.881 89.4691 191.922 90.6921 191.37 95.1099C190.938 98.5611 193.386 101.709 196.837 102.14C198.143 102.303 199.406 102.054 200.494 101.495ZM199.557 101.484C199.557 101.484 199.564 101.483 199.578 101.482C199.565 101.484 199.557 101.484 199.557 101.484Z" fill="#231F20"/>
<path fill-rule="evenodd" clip-rule="evenodd" d="M102.409 95.0403C105.52 96.5957 106.781 100.378 105.226 103.489C103.493 106.954 100.04 107.721 98.8918 107.928C97.5344 108.174 96.1468 108.169 95.5442 108.166C95.4933 108.166 95.4481 108.166 95.4089 108.166C91.9308 108.166 89.1113 105.346 89.1113 101.868C89.1113 98.3904 91.9308 95.5709 95.4089 95.5709C95.4402 95.5709 95.4706 95.5709 95.5002 95.5709C95.6518 95.5709 95.7816 95.571 95.9003 95.5701C97.7404 94.2409 100.238 93.9548 102.409 95.0403Z" fill="#231F20"/>
<path fill-rule="evenodd" clip-rule="evenodd" d="M156.523 141.229C156.549 141.249 156.574 141.268 156.6 141.288C158.079 142.42 159.695 142.819 160.894 142.926C162.085 143.033 163.565 142.917 165.016 142.279C166.316 141.708 169.248 139.835 169.248 135.94C169.248 131.251 165.185 129.678 164.322 129.403C163.087 129.009 161.883 128.961 161.274 128.95C160.54 128.936 159.837 128.973 159.371 129.002C158.676 129.044 158.708 129.045 158.766 129.045C155.288 129.045 152.469 131.864 152.469 135.342C152.469 138.03 154.153 140.325 156.523 141.229ZM161.125 141.545C161.162 141.547 161.179 141.549 161.178 141.55C161.177 141.55 161.159 141.549 161.125 141.545Z" fill="#231F20"/>
<path fill-rule="evenodd" clip-rule="evenodd" d="M163.561 13.2333C156.58 13.2333 148.474 14.432 142.23 16.7233C140.295 17.4333 138.361 17.5786 137.297 17.6585C137.228 17.6637 137.162 17.6686 137.101 17.6734C135.808 17.7738 135.476 17.839 135.266 17.9158C134.801 18.0864 134.298 18.2751 133.772 18.4723C132.626 18.9024 131.372 19.3728 130.173 19.7834C125.808 21.2784 121.379 22.8048 117.09 24.3302C115.962 24.7313 114.381 25.6181 112.684 26.64C111.032 27.6354 109.276 28.2409 108.178 28.6196C108.113 28.642 108.05 28.6636 107.99 28.6845C106.671 29.1413 106.155 29.351 105.805 29.5697C105.062 30.0332 104.36 30.6471 103.195 31.6664C102.99 31.8458 102.771 32.0379 102.534 32.2439C101.206 33.4001 99.221 35.0955 96.7687 36.1979C93.613 37.6165 90.5672 39.3529 87.3073 41.2769C86.8244 41.562 86.3346 41.8525 85.8386 42.1467C83.0718 43.7878 80.1103 45.5444 77.0452 47.1191C71.938 49.743 65.786 55.4443 62.7106 60.3599C61.2921 62.6271 59.5404 64.104 58.5075 64.9748C58.4627 65.0126 58.4191 65.0493 58.377 65.0849C57.2259 66.0578 57.1432 66.2116 57.1104 66.2726C56.1261 68.0929 54.6772 69.7192 53.804 70.6985C53.6989 70.8164 53.6021 70.925 53.5155 71.0234C52.4253 72.2618 52.114 72.7429 52.0088 72.9984C50.0998 77.6347 47.3339 82.3692 44.8536 86.6149C43.7802 88.4522 42.7603 90.1981 41.8865 91.8048C38.7354 97.5986 36.6869 102.762 36.6869 108.296C36.6869 111.774 33.8674 114.594 30.3893 114.594C26.9113 114.594 24.0918 111.774 24.0918 108.296C24.0918 99.5697 27.3637 92.1457 30.8219 85.7871C32.1126 83.4139 33.3656 81.2772 34.5528 79.2526C36.7839 75.4479 38.7827 72.0395 40.3623 68.2031C41.3677 65.7613 43.057 63.8423 44.0437 62.7215L44.0615 62.7013C45.3291 61.2612 45.7785 60.7492 46.0295 60.2851C47.2914 57.951 49.1041 56.4265 50.0937 55.5943C50.1473 55.5492 50.1984 55.5062 50.2469 55.4653C51.351 54.5321 51.7283 54.1668 52.033 53.6796C56.283 46.8866 64.1166 39.6012 71.2895 35.916C73.9847 34.5313 76.571 32.9982 79.3451 31.3538C79.8581 31.0497 80.3776 30.7418 80.9053 30.4303C84.2039 28.4833 87.7636 26.4368 91.6045 24.7102C92.1735 24.4544 92.9133 23.9204 94.2636 22.7447C94.4134 22.6143 94.5766 22.4703 94.7517 22.3158C95.8597 21.3383 97.4445 19.9402 99.1383 18.8836C100.815 17.8374 102.61 17.2176 103.72 16.834C103.771 16.8165 103.82 16.7995 103.868 16.7829C105.204 16.3204 105.767 16.103 106.185 15.8509C107.761 14.9018 110.374 13.3509 112.869 12.4634C117.231 10.912 121.718 9.36579 126.092 7.86782C127.125 7.51392 128.073 7.15793 129.113 6.76752C129.681 6.55428 130.276 6.33077 130.927 6.09172C132.919 5.36077 134.871 5.21186 135.97 5.12808C136.024 5.12396 136.076 5.12 136.126 5.11613C137.472 5.01154 137.745 4.95273 137.891 4.89925C145.797 1.99788 155.421 0.638184 163.561 0.638184H170.814C173.386 0.638184 175.651 1.54721 176.996 2.13702C177.564 2.38621 178.148 2.6634 178.61 2.88303C178.727 2.93873 178.837 2.99072 178.936 3.03762C179.506 3.30605 179.847 3.45638 180.091 3.54678C182.5 4.43776 184.941 5.16898 187.575 5.93745C187.845 6.01619 188.117 6.09546 188.392 6.1754C190.743 6.85942 193.264 7.59281 195.808 8.46406C204.348 11.3892 213.064 14.7671 221.398 19.287C228.122 22.9332 233.162 27.984 237.706 32.6536C238.319 33.2835 238.884 33.7026 239.894 34.4368L239.926 34.4598C240.933 35.1915 242.31 36.1919 243.799 37.7216C245.69 39.665 247.049 41.8196 248.096 43.5972C248.461 44.2169 248.778 44.769 249.069 45.2767C249.708 46.3924 250.225 47.2938 250.865 48.2277C252.537 50.6693 256.446 54.275 258.98 55.7628C262.013 57.5436 263.569 60.4284 264.323 61.8266L264.383 61.9361C264.474 62.1052 264.557 62.2586 264.632 62.3993C264.954 62.9972 265.152 63.3652 265.38 63.7226C265.54 63.9728 265.631 64.0779 265.653 64.1024C268.071 66.1081 268.466 68.8147 268.458 70.3623C268.45 71.8586 268.086 73.2309 267.853 74.0345C267.735 74.4436 267.446 75.3435 267.282 75.8559C267.221 76.0452 267.178 76.1817 267.166 76.2209C267.096 76.4512 267.059 76.5938 267.041 76.666C266.986 77.8812 266.816 79.0443 266.697 79.8534C266.681 79.9625 266.666 80.0652 266.653 80.1607C266.511 81.1488 266.458 81.6903 266.471 82.1517C266.497 83.0982 266.74 84.3704 267.211 86.1185C267.344 86.6132 267.532 87.2651 267.737 87.9745C268.005 88.9043 268.301 89.9329 268.54 90.8359C268.608 90.914 268.684 91.0028 268.762 91.0977C269.082 91.4854 269.51 92.0473 269.906 92.7801C270.771 94.3799 271.161 95.8488 271.395 96.9865C273.71 98.3741 274.266 100.822 274.358 101.281C274.554 102.257 274.49 103.085 274.461 103.405C274.423 103.831 274.357 104.213 274.302 104.494C274.19 105.062 274.044 105.599 273.933 105.977C273.874 106.175 273.814 106.367 273.757 106.539C273.728 106.623 273.694 106.725 273.654 106.831L273.652 106.837C273.634 106.888 273.533 107.164 273.382 107.474C271.86 110.602 268.091 111.903 264.964 110.382C263.541 109.689 262.496 108.532 261.923 107.182C261.922 107.181 261.924 107.182 261.923 107.182C260.776 105.997 260.31 104.654 260.169 104.247L260.166 104.238C260.026 103.833 259.876 103.298 259.819 103.092C259.809 103.058 259.802 103.033 259.798 103.019C259.578 102.253 259.434 101.563 259.328 100.999C259.28 100.748 259.237 100.502 259.201 100.299L259.191 100.242C259.151 100.015 259.119 99.8378 259.087 99.6723C259.015 99.2986 258.959 99.0915 258.911 98.9583C258.845 98.8841 258.731 98.756 258.626 98.6331C258.037 97.947 256.999 96.6359 256.507 94.6141C256.28 93.6818 256.053 92.9064 255.788 92.0025C255.573 91.2687 255.334 90.4503 255.05 89.3945C254.523 87.4412 253.95 84.9917 253.88 82.5018C253.835 80.8693 254.039 79.3939 254.185 78.3733C254.2 78.2707 254.214 78.1727 254.227 78.0787C254.367 77.1091 254.444 76.5737 254.462 76.0277C254.487 75.2411 254.611 74.5399 254.727 74.0159C254.845 73.4772 254.989 72.9714 255.116 72.5563C255.223 72.2036 255.341 71.8409 255.438 71.542L255.451 71.4999C255.193 71.1527 254.966 70.8166 254.766 70.5036C254.255 69.7039 253.788 68.8317 253.463 68.2246C253.405 68.1159 253.352 68.0158 253.303 67.926C252.787 66.9721 252.532 66.6305 252.472 66.547C248.41 64.1247 243.195 59.3189 240.473 55.3445C239.529 53.9657 238.629 52.3968 237.899 51.1231C237.661 50.7088 237.442 50.3258 237.244 49.9906C236.32 48.4212 235.578 47.3328 234.773 46.506C234.083 45.7973 233.462 45.3318 232.491 44.6267L232.378 44.5444C231.415 43.8455 230.081 42.877 228.68 41.438C224.098 36.7299 220.243 32.9885 215.394 30.3588C207.948 26.3208 199.98 23.2066 191.727 20.3796C189.479 19.6098 187.247 18.9601 184.86 18.2652C184.591 18.187 184.321 18.1082 184.048 18.0286C181.406 17.2578 178.587 16.4194 175.722 15.3596C174.921 15.0634 174.15 14.7058 173.565 14.4297C173.4 14.3519 173.247 14.2796 173.103 14.2114C172.67 14.0055 172.316 13.8376 171.938 13.6721C171.077 13.2943 170.75 13.2398 170.751 13.2334C170.751 13.2334 170.751 13.2333 170.751 13.2334L163.561 13.2333ZM261.944 102.061C261.944 102.062 261.944 102.06 261.944 102.061V102.061Z" fill="#231F20"/>
<path fill-rule="evenodd" clip-rule="evenodd" d="M62.2949 76.9169C62.0011 77.8489 61.5542 78.9102 60.9377 79.879C57.2885 85.6133 53.8705 91.8455 51.9024 97.7499C50.9621 100.571 49.3606 103.169 48.2828 104.918C48.0407 105.311 47.8251 105.66 47.6492 105.96C46.5152 107.895 46.1154 109.014 46.1154 110.237C46.1154 113.715 43.2958 116.535 39.8178 116.535C39.1212 116.535 38.4511 116.421 37.8247 116.213C36.2729 118.457 33.3726 119.509 30.6535 118.602C27.3539 117.502 25.5707 113.936 26.6706 110.637C26.8366 110.138 27.0027 109.604 27.1786 109.038C27.9705 106.488 28.9591 103.305 31.0196 99.9991C32.8877 97.0013 34.4789 93.7967 36.2327 90.2646L36.3252 90.0783C38.0671 86.5704 39.9778 82.7363 42.3174 79.0807C44.4848 75.6941 47.473 72.1571 50.1754 69.4548C50.6872 68.943 51.316 68.3791 52.0503 67.8995C52.6722 67.4932 54.0107 66.7157 55.8285 66.644C58.185 66.551 60.3669 67.6843 61.6504 69.6083C62.642 71.0947 62.7911 72.5855 62.8246 73.2601C62.8975 74.7283 62.5599 76.0765 62.2949 76.9169ZM59.1702 78.2757C59.1749 78.2714 59.1773 78.2694 59.1773 78.2695C59.1773 78.2696 59.1749 78.2717 59.1702 78.2757ZM50.3022 73.0567C50.3033 73.0563 50.2993 73.0757 50.2871 73.1158C50.2951 73.077 50.3012 73.057 50.3022 73.0567Z" fill="#231F20"/>
<path fill-rule="evenodd" clip-rule="evenodd" d="M181.516 12.6074C184.927 13.2895 187.139 16.6072 186.457 20.0177C186.281 20.8941 185.928 22.6334 185.353 24.3514C185.065 25.2108 184.665 26.2416 184.109 27.2392C183.602 28.1469 182.67 29.5739 181.085 30.6308C181.088 30.6285 181.09 30.6273 181.09 30.6274C181.092 30.6298 180.781 30.8988 179.959 32.4641C179.884 32.6064 179.798 32.7722 179.704 32.9543C179.383 33.5744 178.965 34.3837 178.551 35.0942C177.984 36.0678 177.187 37.2922 176.067 38.4116C175.576 38.9029 175.023 39.5619 174.289 40.4898C174.129 40.6921 173.955 40.9138 173.772 41.1484C173.197 41.8823 172.522 42.7433 171.851 43.5388C170.109 45.6052 167.454 48.4185 163.638 49.806C163.658 49.7987 163.524 49.8467 163.189 50.0674C162.853 50.2892 162.461 50.5853 161.915 51.0171C161.81 51.1008 161.692 51.1956 161.563 51.2993C160.627 52.0507 159.11 53.2683 157.512 54.1095C154.718 55.5802 151.927 57.0363 149.027 58.4864C141.955 62.0224 134.273 64.5273 127.349 66.7526C119.459 69.2888 110.265 71.7038 101.048 71.7038C99.2018 71.7038 97.0056 71.5678 95.0253 71.4452C94.0651 71.3858 93.1556 71.3295 92.3614 71.2934C89.5522 71.1656 87.3727 71.2176 85.7106 71.587C76.1151 73.7193 66.179 75.8879 55.3542 75.8879C51.8761 75.8879 49.0566 73.0684 49.0566 69.5904C49.0566 66.1123 51.8761 63.2928 55.3542 63.2928C64.6071 63.2928 73.2656 61.4502 82.9784 59.2918C86.362 58.5399 89.9466 58.5754 92.9338 58.7113C94.2305 58.7703 95.3714 58.8428 96.4233 58.9097C98.1008 59.0164 99.552 59.1087 101.048 59.1087C108.251 59.1087 115.928 57.194 123.495 54.7617C130.518 52.5045 137.309 50.2636 143.394 47.221C146.174 45.8311 148.871 44.4241 151.646 42.9639C152.104 42.7229 152.595 42.333 153.736 41.4282C153.85 41.3384 153.969 41.2435 154.096 41.1431L154.111 41.1311C155.18 40.2846 157.06 38.7961 159.334 37.9693C159.888 37.7677 160.761 37.1525 162.222 35.4195C162.735 34.8119 163.202 34.2152 163.736 33.5346C163.948 33.2634 164.171 32.979 164.411 32.6752C165.182 31.7016 166.117 30.5502 167.161 29.5055C167.161 29.5061 167.173 29.4938 167.198 29.464C167.223 29.4341 167.258 29.3894 167.304 29.3262C167.398 29.1959 167.517 29.013 167.668 28.7538C167.91 28.3382 168.114 27.9449 168.387 27.4159C168.511 27.1779 168.648 26.9125 168.809 26.6053L168.81 26.6039C169.544 25.2065 170.874 22.6762 173.261 20.7647C173.304 20.6555 173.354 20.5195 173.409 20.3543C173.71 19.4559 173.935 18.4015 174.106 17.5476C174.788 14.1371 178.106 11.9253 181.516 12.6074ZM173.11 21.1029C173.108 21.1056 173.107 21.107 173.107 21.1071L173.11 21.1029Z" fill="#231F20"/>
<path fill-rule="evenodd" clip-rule="evenodd" d="M181.481 13.6812C184.959 13.6812 187.779 16.5007 187.779 19.9787C187.779 22.3995 188.182 23.5561 188.954 25.7702C189.339 26.8737 189.815 28.24 190.379 30.1565C190.717 31.3082 191.569 32.5978 193.317 34.4639C193.703 34.8753 194.209 35.3861 194.778 35.9601C196.209 37.4037 198.037 39.2477 199.337 40.9185C201.204 43.3187 203.153 44.9603 205.816 46.2918C206.898 46.8328 207.957 47.3829 208.997 47.9374C207.926 46.7445 206.876 45.4532 205.833 44.0375C203.887 41.3965 201.37 39.7344 197.369 37.3336C194.386 35.5441 193.419 31.6758 195.209 28.6934C196.998 25.711 200.866 24.7439 203.849 26.5334C207.758 28.8789 212.357 31.6592 215.973 36.5661C219.627 41.5254 223.221 44.3663 229.094 47.6608C229.389 47.8264 229.676 47.9931 229.914 48.1315L229.953 48.1543C230.214 48.3062 230.419 48.4251 230.613 48.5333C230.69 48.5762 230.759 48.6138 230.821 48.6467C231.498 48.4715 232.351 48.3592 233.322 48.4763C234.98 48.6763 236.407 49.4782 237.42 50.5976C238.636 51.9417 239.004 53.458 239.123 54.2667C239.152 54.2872 239.183 54.3083 239.215 54.3301L239.225 54.3372C239.413 54.4664 239.658 54.6346 239.898 54.8071C240.141 54.9823 240.453 55.2143 240.773 55.4853C243.777 58.0267 243.751 61.4179 243.501 63.1004C243.428 63.5918 243.323 64.0513 243.229 64.417C243.249 64.3861 243.27 64.3552 243.291 64.3243C244.42 62.6868 246.052 61.8778 247.488 61.6161C249.617 61.2281 251.329 62.0141 251.701 62.1854C251.712 62.1904 251.722 62.1948 251.731 62.1987C252.887 62.7253 253.956 63.5298 254.574 64.0145C255.317 64.5975 256.044 65.2322 256.621 65.765C257.066 66.1755 257.794 66.863 258.274 67.4678C259.485 68.9927 261.645 72.1213 260.712 75.9286C260.281 77.6912 259.374 78.9492 258.361 79.8451C258.812 81.3731 259.183 82.9622 259.389 84.5587C259.483 85.2885 259.531 85.9427 259.565 86.4563C259.573 86.589 259.581 86.7072 259.588 86.8146C259.611 87.1675 259.626 87.4043 259.65 87.6557C259.7 88.1662 259.758 88.3581 259.843 88.5521C260.428 89.8897 260.956 91.2402 261.44 92.4793L261.487 92.5986C261.966 93.8272 262.406 94.9545 262.883 96.0673C263.077 96.5201 263.237 96.8991 263.349 97.1839C263.393 97.2962 263.488 97.5374 263.572 97.8037L263.575 97.8114C263.599 97.8854 263.746 98.3427 263.823 98.9188C263.847 99.1018 263.882 99.4234 263.878 99.8253C263.874 100.15 263.846 100.973 263.487 101.945C263.106 102.975 262.063 104.85 259.692 105.694C257.503 106.474 255.685 105.818 254.977 105.498C253.726 104.931 252.981 104.075 252.897 103.979C252.894 103.975 252.892 103.973 252.891 103.971C252.668 103.724 252.512 103.512 252.443 103.415C252.294 103.208 252.185 103.03 252.142 102.959C252.04 102.792 251.951 102.631 251.898 102.534C251.781 102.321 251.641 102.056 251.516 101.816C251.479 101.746 251.442 101.675 251.405 101.605C251.162 101.142 250.914 100.667 250.685 100.251C250.593 100.085 250.521 99.9563 250.465 99.8616C249.537 98.7234 248.918 97.4857 248.56 96.755C248.345 96.3148 248.185 95.9759 248.048 95.6846C247.837 95.2359 247.679 94.9003 247.451 94.4815C247.392 94.373 247.339 94.28 247.292 94.2007C246.372 93.9898 245.586 93.6758 245.018 93.4224C244.222 93.0674 243.473 92.6552 242.904 92.3348C242.66 92.1969 242.455 92.0799 242.271 91.9751C241.954 91.7939 241.7 91.6488 241.413 91.4942C241.051 91.2992 240.887 91.23 240.858 91.2175C240.853 91.2152 240.852 91.2149 240.855 91.2161C240.734 91.1741 240.605 91.1301 240.469 91.0839C239.819 90.8625 239.018 90.5898 238.217 90.2422C236.064 91.2326 233.241 91.5642 230.507 89.6129C226.746 86.9282 226.965 82.5092 227.853 80.0254C227.961 79.7219 228.061 79.4138 228.155 79.1001C228.115 79.026 228.075 78.9532 228.036 78.8818C227.804 78.4555 227.598 78.077 227.419 77.763C226.07 75.4024 223.599 72.68 220.471 70.015C217.402 67.4002 214.044 65.1315 211.298 63.6061C210.399 63.1066 209.53 62.6195 208.68 62.1427C205.79 60.5227 203.112 59.0215 200.183 57.5572C195.726 55.3283 192.336 52.4332 189.395 48.6511C188.543 47.5566 187.694 46.7076 186.605 45.619C185.901 44.9149 185.096 44.1105 184.125 43.0746C182.048 40.8573 179.495 37.7902 178.295 33.7104C178.082 32.9859 177.808 32.2 177.512 31.3485C176.484 28.4008 175.184 24.6676 175.184 19.9787C175.184 16.5007 178.003 13.6812 181.481 13.6812ZM251.644 101.835C251.644 101.835 251.641 101.828 251.637 101.816C251.642 101.829 251.644 101.835 251.644 101.835ZM242.229 70.2833C242.226 70.2839 242.224 70.2845 242.221 70.285C242.223 70.2707 242.224 70.2563 242.226 70.242C242.227 70.2557 242.228 70.2695 242.229 70.2833ZM226.615 55.4913C226.615 55.4912 226.615 55.4952 226.615 55.5038L226.615 55.4913ZM247.022 93.7996C247.022 93.7985 247.032 93.8089 247.051 93.8338C247.031 93.8132 247.022 93.8007 247.022 93.7996ZM250.354 99.6788C250.354 99.6779 250.365 99.6954 250.39 99.7352C250.366 99.6999 250.354 99.6796 250.354 99.6788ZM238.244 53.6223C238.244 53.6222 238.245 53.6237 238.249 53.6267L238.244 53.6223ZM239.177 56.4839C239.176 56.513 239.176 56.5298 239.176 56.5311C239.175 56.5324 239.176 56.5178 239.177 56.4839Z" fill="#231F20"/>
<path fill-rule="evenodd" clip-rule="evenodd" d="M203.187 49.0301C202.038 49.3709 201.074 49.2965 200.689 49.254C199.917 49.1686 199.339 48.9579 199.102 48.866C198.586 48.6666 198.211 48.4413 198.101 48.3751C197.936 48.2759 197.805 48.1869 197.725 48.1321C197.452 47.9426 197.201 47.7398 197.075 47.6375C196.483 47.1559 195.484 46.2806 194.426 45.3336C192.296 43.4282 189.353 40.7182 187.858 39.1847C187.306 38.6187 186.418 37.4673 185.643 36.3837C184.779 35.1736 183.694 33.5428 182.795 31.8461C182.053 30.4437 180.828 27.9146 180.813 25.2511C180.804 23.7195 181.202 21.3774 183.154 19.4889C185.061 17.6453 187.39 17.2666 188.98 17.2666C199.725 17.2666 208.328 22.4209 215.407 27.7575C217.861 29.6076 220.327 31.6376 222.65 33.55C223.636 34.3616 224.596 35.152 225.518 35.8985C228.747 38.511 231.725 40.7657 234.702 42.4858C238.352 44.5947 241.02 47.4091 243.047 49.5476C243.523 50.0496 243.964 50.5144 244.373 50.9241C244.947 51.4982 245.387 52.1604 245.538 52.3889C245.788 52.7647 246.067 53.2243 246.319 53.7071C246.48 54.0159 246.971 54.9574 247.191 56.1008C247.193 56.1078 247.194 56.1158 247.196 56.1247C247.269 56.4978 247.662 58.5061 246.475 60.5971C245.715 61.9349 244.478 62.9891 242.949 63.5027C241.587 63.9606 240.402 63.8549 239.723 63.7316C236.416 63.1303 233.202 61.4028 231.052 60.2472C230.768 60.0945 230.502 59.9518 230.258 59.823C227.56 58.4029 226.259 57.9554 225.375 57.9554C225.088 57.9554 224.745 57.9599 224.362 57.965C223.099 57.9816 221.406 58.0039 219.874 57.8882C217.725 57.7257 215.07 57.2694 212.487 55.8346C210.736 54.8615 209.189 53.4527 208.154 52.4718C207.591 51.9378 207.16 51.5149 206.791 51.1529C206.331 50.7008 205.967 50.3436 205.563 49.9839C205.501 49.9506 205.326 49.8566 204.981 49.7108C204.51 49.5116 204.05 49.3443 203.445 49.124C203.362 49.0938 203.276 49.0626 203.187 49.0301ZM201.607 34.0835C202.097 34.1632 202.576 34.3003 203.033 34.4914C202.356 34.0688 201.682 33.6712 201.009 33.3003C201.177 33.5371 201.375 33.798 201.607 34.0835ZM193.357 24.6658C193.357 24.6659 193.359 24.6742 193.363 24.6904C193.358 24.6737 193.356 24.6656 193.357 24.6658ZM204.958 35.7499C205.181 35.9631 205.389 36.1945 205.581 36.4431C205.787 36.5394 206.071 36.6595 206.469 36.813C205.962 36.4465 205.459 36.0919 204.958 35.7499ZM235.153 59.5347C235.192 59.6085 235.179 59.5956 235.14 59.5111C235.146 59.5207 235.15 59.5288 235.153 59.5347ZM205.233 36.2557C205.234 36.2554 205.254 36.2671 205.288 36.2919C205.248 36.2684 205.231 36.2561 205.233 36.2557Z" fill="#231F20"/>
<path fill-rule="evenodd" clip-rule="evenodd" d="M160.011 11.0096C164.889 11.1787 170.308 11.8216 175.332 14.0542C176.723 14.6724 178.134 15.8004 178.977 17.5696C179.774 19.2404 179.757 20.8407 179.588 21.9256C179.285 23.8821 178.294 25.4489 177.745 26.2462C176.502 28.0528 174.801 29.715 173.779 30.545C173.582 30.7054 173.259 31.0285 172.647 31.726C172.559 31.8265 172.459 31.9416 172.349 32.0675C171.859 32.6313 171.181 33.4128 170.519 34.0741C169.57 35.0232 168.513 35.9214 167.698 36.6144C167.526 36.7604 167.365 36.8972 167.218 37.0235C166.256 37.8505 165.628 38.4381 165.156 39.0091C159.782 45.5148 154.196 47.7975 148.163 50.2632C148.015 50.3237 147.866 50.3842 147.718 50.445C146.374 50.9946 144.951 51.6048 143.469 52.2403C138.891 54.2035 133.751 56.4078 128.657 57.8111C120.846 59.9632 112.93 60.5619 105.624 61.0434C105.136 61.0756 104.65 61.1073 104.167 61.1388C98.1394 61.532 92.5495 61.8967 87.1365 62.8876C86.1335 63.713 85.1021 64.1375 84.5387 64.3345C83.2256 64.7937 81.912 64.9262 81.0701 64.9805C80.1484 65.0398 79.2644 65.0313 78.6696 65.022C78.0953 65.013 77.9231 65.0122 77.9231 65.0083C77.9228 65.0084 77.9231 65.0082 77.9231 65.0083C77.7648 65.0232 77.6085 65.0391 77.4532 65.0568C75.6266 65.4995 73.8113 65.9578 72.0075 66.4375C71.7363 66.5465 71.4629 66.6621 71.1862 66.7845C71.1115 66.8175 70.4521 67.1108 69.8543 67.3915C69.7312 67.4493 69.6247 67.5 69.5356 67.5431C68.1886 68.4547 66.4914 68.8473 64.7706 68.5031C64.7018 68.4894 64.5756 68.4629 64.4066 68.4171C64.3139 68.4355 64.2208 68.4536 64.1276 68.4714C63.3203 68.6249 62.2335 68.803 61.1903 68.8422C60.7051 68.8604 59.8678 68.8666 58.9426 68.6711C58.4003 68.5565 55.6699 67.9617 54.2473 65.1165C53.7381 63.6914 53.709 61.044 54.0399 59.9437C54.347 59.2926 54.9966 58.3237 55.2914 57.9868C55.8182 57.4263 56.3291 57.0965 56.4587 57.0128L56.4634 57.0098C56.806 56.7884 57.0983 56.6493 57.1658 56.6171L57.171 56.6146C57.3573 56.5257 57.5104 56.4645 57.5472 56.4498C57.6516 56.408 57.7428 56.3747 57.7714 56.3642C57.8499 56.3357 57.9324 56.3069 57.9955 56.2851C58.1322 56.2378 58.3126 56.1765 58.5106 56.1097C58.9117 55.9745 59.4436 55.7968 59.9758 55.6195L62.1692 54.8899C62.1954 54.8812 62.2111 54.8759 62.219 54.8733C62.2256 54.871 62.2268 54.8706 62.2244 54.8715C63.6325 54.3906 65.3575 53.8029 67.1958 53.3722C67.2485 53.3263 67.3166 53.2656 67.4047 53.185C67.4934 53.104 67.5804 53.0232 67.6898 52.9215C67.7177 52.8956 67.7471 52.8683 67.7783 52.8394C67.9215 52.7064 68.0931 52.5476 68.2787 52.3806C69.4365 51.3386 70.7705 50.8535 71.3007 50.6671C71.5171 50.591 71.7373 50.5199 71.9592 50.4535C71.4802 49.6831 71.1291 48.728 71.0255 47.5474C70.8779 45.8657 71.404 44.5636 71.7461 43.8885C72.1092 43.1718 72.5338 42.6336 72.825 42.2976C73.835 41.1326 75.2407 40.1677 76.0359 39.6386C77.0145 38.9875 78.0543 38.3681 78.818 37.9204C79.0802 37.7667 79.2376 37.6752 79.3765 37.5944C79.5016 37.5217 79.6118 37.4577 79.7701 37.3647C79.8277 37.3309 79.8732 37.3039 79.9079 37.2831C82.2895 35.5545 84.8448 34.424 86.7677 33.5732C86.8157 33.552 86.8633 33.531 86.9105 33.5101C89.1013 32.5403 90.5619 31.8754 91.81 30.974C97.53 26.8429 104.355 23.1235 111.782 21.2897C115.552 20.3588 119.095 18.8954 123.118 17.2341C124.45 16.6837 125.835 16.1116 127.299 15.53C132.845 13.3255 139.25 11.1277 146.331 11.1277C147.638 11.1277 149.183 11.0918 150.841 11.0532C153.783 10.9847 157.078 10.908 160.011 11.0096ZM69.2454 67.6873C69.2472 67.6863 69.2491 67.6854 69.251 67.6843C69.2135 67.7053 69.2075 67.7073 69.2454 67.6873ZM145.07 23.7583C140.923 23.9893 136.74 25.331 131.951 27.2344C130.863 27.6667 129.72 28.1399 128.534 28.6312C127.961 28.8682 127.379 29.1093 126.787 29.3522C129.495 28.7297 132.067 28.0782 134.537 27.2843C135.665 26.9218 137.037 26.4469 138.497 25.9417C140.666 25.1909 143.029 24.3733 145.07 23.7583Z" fill="#231F20"/>
<path fill-rule="evenodd" clip-rule="evenodd" d="M237.992 93.3336C239.547 90.2228 243.33 88.9619 246.441 90.5173C247.945 91.2694 248.742 92.4451 248.843 92.5941C248.848 92.6001 248.85 92.6045 248.852 92.607C249.103 92.9636 249.28 93.2865 249.376 93.47C249.58 93.8594 249.751 94.2536 249.874 94.5517C250.133 95.1816 250.399 95.9219 250.631 96.618C250.866 97.3217 251.1 98.0835 251.284 98.7713C251.375 99.1117 251.469 99.4896 251.544 99.8636C251.595 100.117 251.733 100.803 251.733 101.581C251.733 104.634 252.235 107.716 252.853 111.402L252.888 111.608C253.469 115.076 254.147 119.115 254.147 123.307C254.147 137.317 253.464 151.801 250.894 165.94C249.775 172.093 247.497 178.632 244.441 184.156C243.92 185.1 243.544 186.106 242.998 187.566C242.799 188.099 242.577 188.693 242.317 189.366C241.497 191.492 240.264 194.457 238.046 196.921C237.655 197.356 237.206 198.112 236.551 199.612C236.436 199.875 236.302 200.195 236.152 200.552C235.639 201.778 234.939 203.447 234.177 204.819C232.314 208.171 230.557 209.897 228.698 211.723C228.421 211.995 228.143 212.269 227.861 212.55C223.337 217.074 218.053 221.835 212.271 225.514C206.041 229.479 199.596 231.929 193.573 234.218C192.798 234.513 192.029 234.805 191.27 235.097C183.824 237.961 175.699 237.804 169.119 237.678C167.84 237.653 166.619 237.629 165.473 237.629C160.278 237.629 155.046 237.318 150.03 237.02L149.934 237.015C144.822 236.711 139.929 236.422 135.131 236.422C117.967 236.422 102.768 232.808 87.1689 226.278C86.6485 226.06 86.0975 225.832 85.5229 225.595C83.0592 224.576 80.1638 223.379 77.4007 222.024C73.9925 220.353 70.2988 218.218 67.306 215.391L67.1705 215.263L67.0486 215.134L67.0481 215.133L67.048 215.133L67.046 215.131L67.0445 215.13L67.0437 215.129L67.0428 215.128L67.0332 215.118L66.943 215.024C66.8561 214.934 66.7159 214.791 66.5235 214.598C66.1386 214.213 65.5451 213.632 64.751 212.889C63.2027 211.44 60.896 209.382 57.8906 206.972C52.8783 203.661 50.006 198.78 47.9021 195.205C47.5566 194.618 47.2317 194.066 46.9215 193.561C41.157 184.194 36.2963 173.887 33.2756 163.012C30.9332 154.58 30.9334 146.915 30.9336 139.252L30.9336 139.031C30.9336 132.583 31.0184 125.743 32.2757 118.828C32.5377 117.387 33.0673 115.852 33.3903 114.916C33.4477 114.749 33.4985 114.602 33.5402 114.477C33.8659 113.504 33.9335 113.133 33.9474 113.056C33.9508 113.038 33.9511 113.036 33.9511 113.048C33.9511 110.223 35.1914 107.906 35.7244 106.911C35.7502 106.863 35.7744 106.818 35.7967 106.776C36.2557 105.912 36.3936 105.6 36.4238 105.551C36.8861 102.179 39.9559 99.7723 43.358 100.15C46.8148 100.534 49.3057 103.648 48.9216 107.105C48.7629 108.533 48.3358 109.73 47.9525 110.613C47.6318 111.352 47.2483 112.069 47.0064 112.522C46.9748 112.581 46.9456 112.636 46.9193 112.685C46.7114 113.076 46.5975 113.319 46.5389 113.448C46.4653 115.518 45.8444 117.397 45.485 118.472C45.3699 118.816 45.2702 119.11 45.1836 119.366C44.8859 120.244 44.7435 120.663 44.6676 121.081C43.6348 126.761 43.5287 132.577 43.5287 139.031C43.5287 146.941 43.5706 153.015 45.4112 159.641C48.0555 169.161 52.3715 178.386 57.6482 186.96C58.1428 187.764 58.5903 188.506 59.0047 189.193C61.2193 192.866 62.49 194.974 64.9624 196.547L65.2465 196.728L65.5096 196.938C68.9159 199.656 71.5528 202.004 73.3563 203.692C74.2584 204.536 74.9531 205.216 75.4324 205.695C75.672 205.935 75.8579 206.125 75.9891 206.26L76.0581 206.332C77.6966 207.848 80.0432 209.292 82.946 210.716C85.3109 211.875 87.7353 212.879 90.1731 213.887C90.7923 214.144 91.4123 214.4 92.0324 214.66C106.358 220.657 119.904 223.827 135.131 223.827C140.337 223.827 145.576 224.138 150.596 224.437L150.681 224.442C155.793 224.746 160.682 225.034 165.473 225.034C167.102 225.034 168.649 225.056 170.127 225.077C176.639 225.169 181.807 225.242 186.748 223.342C187.544 223.036 188.323 222.738 189.088 222.447C195.228 220.105 200.43 218.12 205.51 214.888C210.168 211.923 214.705 207.894 218.955 203.644C219.32 203.279 219.644 202.958 219.935 202.67C221.675 200.947 222.218 200.409 223.167 198.702C223.567 197.982 223.859 197.285 224.275 196.292C224.481 195.802 224.716 195.241 225.009 194.57C225.751 192.871 226.858 190.525 228.684 188.496C229.231 187.888 229.791 186.843 230.567 184.832C230.688 184.518 230.822 184.157 230.968 183.762C231.576 182.124 232.398 179.908 233.42 178.06C235.785 173.786 237.617 168.553 238.502 163.687C240.881 150.601 241.552 136.96 241.552 123.307C241.552 120.254 241.049 117.171 240.431 113.485L240.397 113.279C239.84 109.96 239.196 106.118 239.141 102.12C239.134 102.09 239.125 102.058 239.116 102.023C239.013 101.64 238.859 101.128 238.683 100.602C238.533 100.151 238.392 99.7623 238.284 99.4888C237.162 97.6904 236.975 95.3683 237.992 93.3336Z" fill="#231F20"/>
<path fill-rule="evenodd" clip-rule="evenodd" d="M199.564 143.563C203.042 143.563 205.862 146.382 205.862 149.861C205.862 153.682 204.362 157.193 203.186 159.644C202.58 160.906 202.073 161.882 201.638 162.719C201.021 163.907 200.549 164.816 200.145 165.867C199.295 168.078 197.584 170.12 196.506 171.339C195.38 172.612 194.17 173.819 193.389 174.598C193.306 174.681 193.227 174.759 193.154 174.832C192.468 175.519 191.82 176.329 190.917 177.476L190.824 177.594C190.014 178.625 188.957 179.968 187.723 181.202C183.825 185.101 177.161 188.739 172.523 190.345C172.057 190.506 171.588 190.67 171.114 190.836C165.745 192.714 159.836 194.781 152.626 194.781C152.085 194.781 151.738 194.805 151.271 194.837C150.829 194.867 150.28 194.904 149.359 194.936C148.034 194.982 145.975 194.994 143.93 194.388C143.934 194.389 143.936 194.389 143.936 194.389C143.936 194.389 143.846 194.367 143.602 194.352C143.292 194.333 142.939 194.336 142.307 194.346C142.248 194.347 142.184 194.348 142.117 194.35C141.052 194.37 138.986 194.409 136.894 193.765C135.69 193.395 134.415 193.133 132.757 192.792L132.755 192.792C131.202 192.473 129.292 192.08 127.368 191.463C122.837 190.01 118.725 187.913 115.043 186.035C114.298 185.655 113.572 185.285 112.863 184.93C105.509 181.253 98.1971 175.952 92.3837 170.138C89.8933 167.648 87.8073 165.183 85.8283 162.844C85.5269 162.488 85.2281 162.134 84.9307 161.784C83.9864 160.674 83.2234 159.25 82.757 158.347C82.362 157.582 81.9508 156.726 81.6148 156.027C81.6131 156.023 81.6115 156.02 81.6098 156.017C80.1465 154.863 79.207 153.075 79.207 151.068C79.207 150.725 79.2214 150.105 79.3693 149.398C79.3708 149.391 79.3725 149.383 79.3744 149.373C79.4529 148.991 79.9108 146.761 82.1099 145.287C85.2911 143.154 88.3354 144.692 89.2368 145.292C90.1698 145.912 90.737 146.642 90.9225 146.884C91.6282 147.804 92.2683 149.126 92.5951 149.801C92.6126 149.837 92.6291 149.871 92.6448 149.903C92.7822 150.186 92.9131 150.458 93.0401 150.723C93.3533 151.374 93.6429 151.977 93.9476 152.567C94.2577 153.167 94.4471 153.479 94.5185 153.597C94.5588 153.663 94.5616 153.668 94.5274 153.627C94.8504 154.007 95.1647 154.378 95.4726 154.742C97.4684 157.099 99.196 159.139 101.29 161.232C106.164 166.106 112.375 170.605 118.495 173.665C119.382 174.108 120.227 174.538 121.043 174.952C124.69 176.806 127.738 178.355 131.215 179.47C132.399 179.85 133.669 180.121 135.292 180.455C135.368 180.47 135.444 180.486 135.522 180.502C136.999 180.805 138.802 181.175 140.597 181.727C140.597 181.727 140.777 181.774 142.105 181.753C142.163 181.752 142.226 181.751 142.292 181.749C143.367 181.729 145.414 181.691 147.509 182.312C147.507 182.311 147.508 182.312 147.513 182.312C147.557 182.32 147.926 182.383 148.925 182.348C149.335 182.334 149.738 182.31 150.219 182.282C150.333 182.275 150.45 182.268 150.574 182.261C151.164 182.226 151.896 182.186 152.626 182.186C157.622 182.186 161.609 180.801 167.307 178.823C167.665 178.698 168.03 178.571 168.403 178.442C171.765 177.278 176.611 174.502 178.817 172.296C179.477 171.636 180.108 170.845 181.019 169.687L181.086 169.602C181.908 168.557 182.981 167.193 184.248 165.926C184.325 165.849 184.403 165.771 184.483 165.692C185.288 164.888 186.222 163.955 187.072 162.994C187.533 162.473 187.901 162.02 188.164 161.652C188.329 161.42 188.403 161.291 188.424 161.256C189.054 159.642 190.086 157.629 190.916 156.01C191.275 155.309 191.596 154.682 191.831 154.193C192.908 151.95 193.267 150.643 193.267 149.861C193.267 146.382 196.086 143.563 199.564 143.563ZM91.802 151.102C91.8022 151.085 91.8022 151.074 91.8021 151.069C91.8021 151.069 91.8021 151.068 91.8021 151.068C91.8021 151.079 91.8021 151.09 91.802 151.102Z" fill="#231F20"/>
<path fill-rule="evenodd" clip-rule="evenodd" d="M255.279 123.796C255.363 123.695 255.497 123.546 255.703 123.351C256.443 122.65 257.621 121.818 259.121 120.998C260.589 120.194 262.152 119.518 263.512 119.057C264.908 118.584 265.641 118.49 265.734 118.478C265.742 118.477 265.745 118.477 265.744 118.477C266.357 118.477 267.414 118.808 268.614 120.595C269.823 122.395 270.527 124.83 270.527 126.822C270.527 127.407 270.529 127.96 270.531 128.484C270.547 132.106 270.556 134.363 269.759 136.434C269.527 137.038 269.274 137.413 268.798 137.955C268.583 138.2 268.392 138.403 268.13 138.682C267.995 138.826 267.84 138.99 267.654 139.191C267.167 139.715 266.577 140.368 265.961 141.16C264.874 142.558 263.279 144.203 260.683 146.022C257.143 148.504 253.369 150.133 250.611 151.053C247.311 152.153 245.528 155.719 246.628 159.019C247.727 162.318 251.294 164.101 254.593 163.002C258.196 161.801 263.137 159.683 267.912 156.336C271.502 153.82 274.02 151.314 275.903 148.893C276.355 148.312 276.612 148.044 276.98 147.661C277.28 147.349 277.653 146.96 278.265 146.262C279.404 144.964 280.6 143.333 281.515 140.955C283.241 136.469 283.178 131.559 283.134 128.182C283.128 127.695 283.122 127.24 283.122 126.822C283.122 122.37 281.696 117.484 279.07 113.573C276.436 109.651 271.952 105.882 265.744 105.882C263.671 105.882 261.368 106.485 259.468 107.129C257.413 107.826 255.18 108.797 253.075 109.949C251.001 111.083 248.829 112.515 247.043 114.206C245.419 115.743 243.249 118.306 242.863 121.773C242.479 125.23 244.97 128.344 248.427 128.728C251.669 129.088 254.61 126.919 255.279 123.796ZM255.16 123.956C255.16 123.955 255.163 123.949 255.171 123.937C255.165 123.949 255.161 123.956 255.16 123.956Z" fill="#231F20"/>
<path fill-rule="evenodd" clip-rule="evenodd" d="M260.227 111.653C259.607 112.194 258.901 112.602 258.452 112.827C257.951 113.077 257.496 113.248 257.155 113.364C256.868 113.462 256.582 113.547 256.431 113.592C256.414 113.597 256.398 113.602 256.385 113.606C256.321 113.625 256.272 113.64 256.236 113.651C253.195 115.118 249.516 113.922 247.931 110.91C246.311 107.833 247.493 104.024 250.571 102.404C251.344 101.997 252.089 101.748 252.524 101.615C252.672 101.525 252.825 101.44 252.983 101.361C253.121 101.292 253.297 101.207 253.492 101.123C253.495 101.121 253.498 101.12 253.502 101.118C253.614 101.069 254.088 100.864 254.692 100.726C254.694 100.725 254.698 100.724 254.704 100.723C254.853 100.686 256.108 100.378 257.618 100.749C258.563 100.982 260.37 101.683 261.541 103.666C262.709 105.646 262.451 107.562 262.202 108.494C261.804 109.99 260.937 110.937 260.831 111.053C260.826 111.058 260.823 111.061 260.822 111.063C260.567 111.351 260.338 111.556 260.227 111.653ZM258.616 112.626C258.756 112.556 258.721 112.582 258.57 112.649C258.586 112.641 258.601 112.634 258.616 112.626Z" fill="#231F20"/>
</svg>
