<?xml version="1.0" encoding="UTF-8" standalone="no"?>
<!DOCTYPE svg PUBLIC "-//W3C//DTD SVG 1.1//EN" "http://www.w3.org/Graphics/SVG/1.1/DTD/svg11.dtd">
<svg width="100%" height="100%" viewBox="0 0 100 100" version="1.1" xmlns="http://www.w3.org/2000/svg" xmlns:xlink="http://www.w3.org/1999/xlink" xml:space="preserve" xmlns:serif="http://www.serif.com/" style="fill-rule:evenodd;clip-rule:evenodd;stroke-linejoin:round;stroke-miterlimit:2;">
    <g transform="matrix(1,0,0,1,-675,-112.5)">
        <g id="Page-15" serif:id="Page 15" transform="matrix(1,0,0,1,675,112.5)">
            <rect x="0" y="0" width="100" height="100" style="fill:none;"/>
            <g id="Drawing">
                <g transform="matrix(1,0,0,1,28.1611,58.4654)">
                    <path d="M0,-25.898C4.453,-37.052 14.985,-45.407 26.755,-47.52C33.283,-48.692 40.33,-47.651 45.197,-42.854C49.571,-38.545 51.795,-32.488 53.142,-26.62C56.234,-13.151 55.24,2.346 45.595,13.048C41.437,17.661 35.992,20.98 29.794,21.895C24.026,22.746 17.747,21.478 13.087,17.878C7.832,13.819 5.16,7.294 3.498,1.068C1.46,-6.565 0.678,-14.484 1.107,-22.37C1.215,-24.342 1.404,-26.307 1.657,-28.265C1.83,-29.607 0.384,-30.765 -0.843,-30.765C-2.338,-30.765 -3.17,-29.611 -3.343,-28.265C-4.466,-19.573 -4.123,-10.738 -2.386,-2.147C-0.874,5.333 1.641,12.989 6.797,18.787C11.632,24.226 18.758,27.038 25.966,27.125C33.264,27.213 40.155,24.487 45.731,19.854C58.172,9.518 61.249,-7.513 58.943,-22.798C57.876,-29.874 55.826,-37.293 51.51,-43.122C49.438,-45.921 46.919,-48.38 43.844,-50.063C40.25,-52.03 36.149,-52.903 32.073,-52.949C17.876,-53.111 4.151,-44.276 -2.614,-31.983C-3.459,-30.449 -4.172,-28.853 -4.821,-27.227C-5.322,-25.973 -4.274,-24.481 -3.075,-24.152C-1.651,-23.761 -0.503,-24.639 0,-25.898" style="fill:rgb(35,31,32);fill-rule:nonzero;"/>
                </g>
                <g transform="matrix(1,0,0,1,40.1441,43.9781)">
                    <path d="M0,-10.896C-0.27,-7.039 -0.078,-3.21 0.438,0.618C0.516,1.191 1.115,1.836 1.587,2.112C2.123,2.426 2.913,2.558 3.514,2.364C4.119,2.168 4.702,1.793 5.008,1.215C5.345,0.577 5.355,-0.005 5.26,-0.711C5.339,-0.123 5.256,-0.763 5.24,-0.893C5.21,-1.14 5.183,-1.387 5.156,-1.634C5.111,-2.058 5.072,-2.483 5.037,-2.908C4.965,-3.793 4.916,-4.681 4.889,-5.569C4.836,-7.346 4.876,-9.123 5,-10.896C5.091,-12.203 3.785,-13.454 2.5,-13.396C1.067,-13.332 0.098,-12.297 0,-10.896" style="fill:rgb(35,31,32);fill-rule:nonzero;"/>
                </g>
                <g transform="matrix(1,0,0,1,64.7361,43.9174)">
                    <path d="M0,-12.316L0,-0C0,1.307 1.15,2.56 2.5,2.5C3.854,2.439 5,1.401 5,-0L5,-12.316C5,-13.624 3.85,-14.876 2.5,-14.816C1.145,-14.755 0,-13.718 0,-12.316" style="fill:rgb(35,31,32);fill-rule:nonzero;"/>
                </g>
                <g transform="matrix(1,0,0,1,42.9589,58.2604)">
                    <path d="M0,3.152C3.472,8.868 10.728,10.871 16.933,8.917C23.027,6.998 30.1,1.411 29.13,-5.649C28.946,-6.988 27.233,-7.719 26.055,-7.395C24.612,-6.999 24.124,-5.663 24.308,-4.32C24.577,-2.366 22.594,-0.417 21.301,0.747C19.562,2.313 17.483,3.561 15.227,4.209C11.273,5.344 6.562,4.323 4.317,0.628C2.649,-2.118 -1.677,0.392 0,3.152" style="fill:rgb(35,31,32);fill-rule:nonzero;"/>
                </g>
                <g transform="matrix(1,0,0,1,84.5002,40.8225)">
                    <path d="M0,19.355C-0.459,27.446 -0.161,35.554 0.891,43.59C1.2,45.954 4.111,47.112 5.55,44.852C7.493,41.798 8.923,38.426 9.771,34.907C8.134,34.685 6.497,34.464 4.86,34.242C5.563,39.845 6.266,45.448 6.969,51.05C7.137,52.39 7.997,53.55 9.469,53.55C10.88,53.55 11.9,52.404 11.969,51.05C12.986,31.07 13.906,10.73 8.854,-8.829C8.129,-11.639 4.083,-10.92 3.944,-8.164C3.332,3.938 2.719,16.04 2.107,28.143C2.039,29.493 3.305,30.643 4.607,30.643C6.084,30.643 6.956,29.49 7.107,28.143C7.891,21.149 8.674,14.15 9.093,7.123C9.49,0.451 9.767,-6.39 8.69,-13.014C7.724,-18.952 5.052,-24.426 0.528,-28.456C-3.658,-32.185 -8.793,-34.652 -14.106,-36.329C-20.218,-38.259 -26.701,-39.312 -33.076,-38.264C-38.122,-37.434 -42.9,-35.157 -46.947,-32.066C-55.546,-25.499 -61.301,-15.676 -64.039,-5.299C-67.91,9.372 -66.85,24.692 -67.681,39.692C-67.834,42.458 -63.211,43.165 -62.77,40.357C-60.757,27.537 -59.68,14.592 -59.619,1.615C-59.604,-1.604 -64.586,-1.606 -64.619,1.615C-64.793,18.411 -60.371,34.755 -55.941,50.817C-55.318,53.075 -51.598,53.319 -51.12,50.817C-50.493,47.538 -49.521,44.334 -48.115,41.304C-49.668,40.883 -51.221,40.463 -52.774,40.042C-52.946,44.855 -53.182,50.497 -57.145,53.846C-55.722,54.435 -54.299,55.025 -52.877,55.614C-52.416,48.266 -50.929,41.047 -48.531,34.088C-47.715,31.721 -51.051,29.865 -52.709,31.656C-55.695,34.879 -57.916,38.609 -59.36,42.757C-57.753,43.2 -56.146,43.643 -54.539,44.086C-53.609,37.59 -52.679,31.093 -51.75,24.597C-51.559,23.262 -52.078,21.911 -53.496,21.522C-54.669,21.199 -56.379,21.923 -56.571,23.268C-57.501,29.764 -58.43,36.261 -59.36,42.757C-59.808,45.886 -55.622,47.198 -54.539,44.086C-53.387,40.778 -51.552,37.759 -49.174,35.191C-50.566,34.38 -51.959,33.569 -53.352,32.759C-55.895,40.136 -57.388,47.828 -57.877,55.614C-58.024,57.958 -55.13,58.667 -53.609,57.382C-48.61,53.157 -47.992,46.143 -47.774,40.042C-47.689,37.665 -51.374,36.498 -52.433,38.78C-54.025,42.212 -55.23,45.769 -55.941,49.487L-51.12,49.487C-55.434,33.844 -59.788,17.975 -59.619,1.615L-64.619,1.615C-64.678,14.139 -65.648,26.654 -67.592,39.028C-65.955,39.249 -64.318,39.471 -62.681,39.692C-61.464,17.721 -64.532,-8.144 -47.393,-25.098C-44.17,-28.285 -40.317,-30.934 -35.998,-32.384C-30.681,-34.168 -25.149,-33.944 -19.736,-32.684C-14.646,-31.499 -9.652,-29.695 -5.318,-26.726C-1.042,-23.798 1.945,-19.669 3.25,-14.645C4.946,-8.121 4.519,-1.013 4.175,5.653C3.785,13.174 2.946,20.662 2.107,28.143L7.107,28.143C7.719,16.04 8.332,3.938 8.944,-8.164C7.307,-7.943 5.67,-7.721 4.033,-7.5C8.97,11.613 7.963,31.528 6.969,51.05L11.969,51.05C11.266,45.448 10.563,39.845 9.86,34.242C9.705,33.007 9.028,31.946 7.692,31.787C6.503,31.645 5.246,32.347 4.949,33.578C4.194,36.714 2.965,39.606 1.232,42.328C2.785,42.749 4.338,43.17 5.891,43.59C4.839,35.555 4.541,27.446 5,19.355C5.182,16.14 0.182,16.151 0,19.355" style="fill:rgb(35,31,32);fill-rule:nonzero;"/>
                </g>
            </g>
        </g>
    </g>
</svg>
