<?xml version="1.0" encoding="UTF-8" standalone="no"?>
<!DOCTYPE svg PUBLIC "-//W3C//DTD SVG 1.1//EN" "http://www.w3.org/Graphics/SVG/1.1/DTD/svg11.dtd">
<svg width="100%" height="100%" viewBox="0 0 100 100" version="1.1" xmlns="http://www.w3.org/2000/svg" xmlns:xlink="http://www.w3.org/1999/xlink" xml:space="preserve" xmlns:serif="http://www.serif.com/" style="fill-rule:evenodd;clip-rule:evenodd;stroke-linejoin:round;stroke-miterlimit:2;">
    <g transform="matrix(1,0,0,1,-787.5,-112.5)">
        <g id="Page-16" serif:id="Page 16" transform="matrix(1,0,0,1,787.5,112.5)">
            <rect x="0" y="0" width="100" height="100" style="fill:none;"/>
            <g id="Drawing">
                <g transform="matrix(1,0,0,1,27.6555,73.6855)">
                    <path d="M0,-41.919C2.547,-46.158 7.199,-48.362 11.845,-49.515C16.998,-50.792 22.678,-51.105 27.792,-49.502C37.739,-46.385 41.533,-35.413 42.074,-25.932C42.658,-15.713 40.086,-4.311 31.87,2.492C25.25,7.973 13.967,9.603 7.182,3.531C2.714,-0.467 0.828,-6.405 -0.611,-12.04C-2.445,-19.219 -3.907,-26.565 -3.131,-34.004C-2.991,-35.348 -4.381,-36.504 -5.631,-36.504C-7.1,-36.504 -7.991,-35.352 -8.131,-34.004C-8.909,-26.547 -7.495,-19.072 -5.718,-11.853C-4.247,-5.874 -2.341,0.152 1.639,4.972C9.107,14.018 22.725,14.18 32.21,8.341C42.608,1.941 46.991,-10.725 47.151,-22.421C47.304,-33.628 43.82,-47.032 33.134,-52.66C26.675,-56.061 18.968,-56.099 11.962,-54.663C5.533,-53.345 -0.838,-50.232 -4.317,-44.443C-5.979,-41.678 -1.657,-39.161 0,-41.919" style="fill:rgb(35,31,32);fill-rule:nonzero;"/>
                </g>
                <g transform="matrix(1,0,0,1,38.915,41.3051)">
                    <path d="M0,5C3.217,5 3.223,0 0,0C-3.217,0 -3.223,5 0,5" style="fill:rgb(35,31,32);fill-rule:nonzero;"/>
                </g>
                <g transform="matrix(1,0,0,1,58.3437,40.8917)">
                    <path d="M0,5C3.217,5 3.223,0 0,0C-3.217,0 -3.223,5 0,5" style="fill:rgb(35,31,32);fill-rule:nonzero;"/>
                </g>
                <g transform="matrix(1,0,0,1,47.1826,54.5331)">
                    <path d="M0,5L3.307,5C3.948,5 4.621,4.721 5.075,4.268C5.319,4.041 5.491,3.773 5.592,3.463C5.748,3.165 5.82,2.844 5.807,2.5C5.778,1.853 5.566,1.183 5.075,0.732C4.586,0.283 3.984,0 3.307,0L0,0C-0.641,0 -1.314,0.279 -1.768,0.732C-2.012,0.959 -2.184,1.227 -2.285,1.537C-2.441,1.835 -2.513,2.156 -2.5,2.5C-2.471,3.147 -2.259,3.817 -1.768,4.268C-1.279,4.717 -0.677,5 0,5" style="fill:rgb(35,31,32);fill-rule:nonzero;"/>
                </g>
                <g transform="matrix(1,0,0,1,37.8349,72.236)">
                    <path d="M0,-7.764C0.068,-4.539 1.653,-1.621 4.24,0.274C6.743,2.107 10.346,2.561 13.243,1.478C14.464,1.022 15.43,-0.233 14.989,-1.597C14.602,-2.792 13.225,-3.833 11.914,-3.343C11.634,-3.239 11.353,-3.147 11.063,-3.075C10.932,-3.043 10.799,-3.017 10.667,-2.988C10.212,-2.888 11.089,-3.02 10.771,-2.994C10.473,-2.97 10.179,-2.946 9.88,-2.948C9.751,-2.949 9.153,-3.064 9.07,-2.997C9.154,-3.064 9.677,-2.898 9.173,-2.993C9.041,-3.018 8.908,-3.046 8.777,-3.079C8.486,-3.15 8.21,-3.252 7.925,-3.342C7.632,-3.434 8.404,-3.102 7.999,-3.309C7.879,-3.37 7.756,-3.427 7.637,-3.491C7.376,-3.63 7.131,-3.789 6.887,-3.954C6.52,-4.202 7.197,-3.683 6.972,-3.888C6.878,-3.972 6.779,-4.051 6.686,-4.137C6.501,-4.309 6.323,-4.49 6.156,-4.68C6.106,-4.737 6.057,-4.795 6.009,-4.853C5.89,-4.999 5.942,-4.929 6.165,-4.646C6.144,-4.743 6,-4.874 5.945,-4.956C5.804,-5.166 5.673,-5.383 5.554,-5.606C5.494,-5.718 5.441,-5.833 5.382,-5.945C5.133,-6.418 5.569,-5.402 5.395,-5.907C5.313,-6.147 5.227,-6.383 5.161,-6.629C5.096,-6.872 5.072,-7.13 5.002,-7.37C5.182,-6.752 5.038,-7.068 5.02,-7.309C5.008,-7.46 5.003,-7.612 5,-7.764C4.972,-9.071 3.87,-10.325 2.5,-10.264C1.169,-10.204 -0.03,-9.165 0,-7.764" style="fill:rgb(35,31,32);fill-rule:nonzero;"/>
                </g>
                <g transform="matrix(1,0,0,1,46.4742,64.0983)">
                    <path d="M0,-36.873C0.044,-36.752 0.457,-35.153 0.458,-35.152C0.371,-35.181 0.779,-35.602 0.799,-35.616C1.205,-35.891 2.173,-34.575 2.208,-35.127C2.238,-35.604 1.588,-36.445 1.272,-36.783C0.817,-37.269 0.226,-37.625 -0.404,-37.833C-2.693,-38.587 -5.395,-37.266 -5.978,-34.886C-4.341,-34.664 -2.704,-34.443 -1.067,-34.221C-0.984,-36.45 -1.391,-38.998 -3.561,-40.155C-5.473,-41.175 -8.141,-40.744 -9.173,-38.695C-7.62,-38.275 -6.067,-37.854 -4.514,-37.433C-4.536,-38.965 -5.29,-40.371 -6.678,-41.085C-8.08,-41.806 -9.93,-41.224 -10.35,-39.591C-10.89,-37.496 -11.43,-35.402 -11.969,-33.308C-10.332,-33.086 -8.695,-32.865 -7.058,-32.643C-7.068,-34.573 -7.408,-36.47 -8.156,-38.251C-8.99,-40.24 -11.436,-40.752 -12.725,-38.849C-14.134,-36.769 -15.543,-34.69 -16.951,-32.611C-15.399,-32.19 -13.846,-31.77 -12.293,-31.349C-12.311,-32.435 -12.328,-33.521 -12.346,-34.607C-12.391,-37.373 -16.563,-38.07 -17.257,-35.272C-18.678,-29.543 -21.271,-24.098 -25.013,-19.513C-28.932,-14.709 -34.024,-9.75 -33.318,-2.974C-33.075,-0.646 -29.998,0.603 -28.659,-1.712C-28.063,-2.742 -27.467,-3.773 -26.871,-4.803L-31.44,-5.4C-30.739,-2.984 -30.038,-0.567 -29.337,1.849C-28.443,4.933 -23.616,3.621 -24.516,0.52L-26.619,-6.729C-27.213,-8.776 -30.099,-9.209 -31.188,-7.327C-31.784,-6.296 -32.38,-5.266 -32.976,-4.235C-31.424,-3.815 -29.871,-3.394 -28.318,-2.974C-28.952,-9.053 -23.317,-13.455 -20.015,-17.847C-16.43,-22.615 -13.87,-28.158 -12.435,-33.943C-14.072,-34.164 -15.709,-34.386 -17.346,-34.607C-17.328,-33.521 -17.311,-32.435 -17.293,-31.349C-17.251,-28.772 -13.997,-28.076 -12.634,-30.087C-11.225,-32.166 -9.817,-34.246 -8.408,-36.325L-12.977,-36.922C-12.392,-35.526 -12.066,-34.157 -12.058,-32.643C-12.044,-29.855 -7.861,-29.208 -7.148,-31.978C-6.608,-34.073 -6.069,-36.167 -5.529,-38.262C-6.753,-37.764 -7.977,-37.266 -9.202,-36.768C-9.355,-36.966 -9.459,-37.188 -9.514,-37.433C-9.481,-35.07 -6.011,-33.878 -4.856,-36.172C-5.037,-35.812 -5.683,-35.716 -5.994,-35.757C-5.268,-35.661 -6.166,-35.758 -6.154,-35.933C-6.19,-35.412 -6.047,-34.772 -6.067,-34.221C-6.173,-31.411 -1.828,-30.816 -1.157,-33.557C-1.525,-32.053 -3.171,-34.679 -2.173,-32.735C-1.394,-31.215 0.212,-30.408 1.903,-30.756C5.51,-31.499 5.89,-35.288 4.821,-38.202C4.357,-39.469 3.125,-40.327 1.746,-39.948C0.525,-39.613 -0.467,-38.147 0,-36.873" style="fill:rgb(35,31,32);fill-rule:nonzero;"/>
                </g>
                <g transform="matrix(1,0,0,1,49.1464,43.7063)">
                    <path d="M0,-12.615C0.419,-12.267 0.839,-11.919 1.258,-11.572C2.414,-10.614 4.4,-10.523 5.185,-12.078C5.986,-13.664 6.418,-15.282 6.468,-17.062C5.413,-16.258 4.358,-15.455 3.303,-14.651C4.376,-14.331 5.091,-13.316 5.115,-12.283C5.158,-10.367 7.199,-9.196 8.876,-10.124C10.243,-10.88 11.148,-12.387 11.016,-13.969C9.463,-13.548 7.91,-13.127 6.357,-12.707C8.255,-9.152 10.296,-5.425 13.441,-2.807C14.246,-2.136 15.092,-1.513 16.003,-0.995C16.87,-0.502 17.891,-0.114 18.662,0.528C19.995,1.64 20.245,3.653 20.556,5.249C20.815,6.575 22.401,7.334 23.631,6.995C25.016,6.615 25.637,5.25 25.378,3.92C24.946,1.711 24.361,-0.465 22.907,-2.24C21.473,-3.991 19.342,-4.693 17.528,-5.933C14.326,-8.121 12.449,-11.908 10.674,-15.23C9.547,-17.342 5.806,-16.465 6.016,-13.969C6.082,-13.174 6.172,-14.342 6.353,-14.442L10.115,-12.283C10.038,-15.632 7.844,-18.515 4.632,-19.473C3.034,-19.949 1.512,-18.648 1.468,-17.062C1.444,-16.192 1.262,-15.382 0.868,-14.601C2.176,-14.77 3.485,-14.939 4.794,-15.107C4.375,-15.455 3.955,-15.803 3.536,-16.151C2.497,-17.012 1.017,-17.168 0,-16.151C-0.887,-15.264 -1.044,-13.481 0,-12.615" style="fill:rgb(35,31,32);fill-rule:nonzero;"/>
                </g>
                <g transform="matrix(1,0,0,1,49.0442,91.4033)">
                    <path d="M0,-72.893C-0.013,-75.794 -2.32,-77.714 -5.038,-78.124C-6.34,-78.321 -7.67,-78.268 -8.921,-77.827C-10.516,-77.263 -11.89,-76.263 -13.441,-75.619C-14.811,-75.05 -15.92,-75.432 -17.329,-75.489C-19.225,-75.566 -20.805,-74.716 -22.048,-73.34C-24.211,-70.945 -26.107,-68.216 -27.774,-65.457C-34.867,-53.718 -37.285,-40.11 -35.69,-26.571C-35.189,-22.325 -34.428,-18.118 -33.544,-13.936C-32.719,-10.036 -32.129,-5.859 -30.438,-2.223C-29.628,-0.481 -26.995,-0.709 -26.121,-2.223C-24.023,-5.856 -21.925,-9.489 -19.828,-13.122L-24.397,-13.719C-23.218,-8.398 -23.686,-2.944 -25.576,2.154C-23.939,2.375 -22.302,2.597 -20.665,2.818C-18.747,-13.006 -21.627,-29.195 -28.649,-43.485C-29.245,-44.697 -30.965,-45.028 -32.07,-44.382C-33.305,-43.659 -33.564,-42.177 -32.967,-40.961C-26.321,-27.438 -23.855,-12.122 -25.665,2.818C-25.812,4.035 -24.601,5.142 -23.497,5.274C-22.199,5.428 -21.198,4.681 -20.754,3.483C-18.557,-2.445 -18.21,-8.889 -19.576,-15.048C-20.048,-17.178 -23.105,-17.447 -24.145,-15.645C-26.243,-12.013 -28.34,-8.38 -30.438,-4.747L-26.121,-4.747C-27.373,-7.439 -27.736,-10.715 -28.364,-13.599C-29.072,-16.847 -29.731,-20.108 -30.247,-23.393C-31.206,-29.496 -31.585,-35.752 -30.823,-41.9C-30.145,-47.365 -28.554,-52.809 -26.211,-57.79C-25.027,-60.305 -23.659,-62.734 -22.116,-65.045C-21.385,-66.138 -20.622,-67.212 -19.805,-68.243C-19.327,-68.847 -18.522,-70.251 -17.757,-70.497C-17.037,-70.728 -15.906,-70.255 -15.159,-70.242C-14.365,-70.229 -13.544,-70.351 -12.784,-70.57C-11.238,-71.014 -9.857,-71.863 -8.438,-72.592C-7.945,-72.845 -7.465,-73.091 -6.917,-73.206C-6.896,-73.21 -6.037,-73.258 -6.081,-73.263C-5.449,-73.19 -5.324,-73.116 -4.889,-72.845C-5.177,-73.024 -4.87,-72.772 -4.828,-72.743C-5.035,-72.885 -5.002,-73.46 -5,-72.893C-4.986,-69.676 0.014,-69.67 0,-72.893" style="fill:rgb(35,31,32);fill-rule:nonzero;"/>
                </g>
                <g transform="matrix(1,0,0,1,23.9784,24.957)">
                    <path d="M0,24.852C2.913,23.777 5.41,22.032 7.299,19.555C8.129,18.467 8.764,17.212 9.667,16.183C10.526,15.204 11.623,14.594 12.799,14.036C15.346,12.829 17.986,12.01 20.09,10.04C22.326,7.946 23.828,4.691 22.698,1.657C22.227,0.392 21.007,-0.47 19.623,-0.089C18.407,0.245 17.403,1.714 17.877,2.986C18.191,3.83 18.163,4.315 17.661,5.17C17.181,5.987 16.474,6.678 15.666,7.2C13.637,8.509 11.239,9.118 9.141,10.302C6.719,11.67 5.285,13.684 3.768,15.939C2.528,17.783 0.767,19.257 -1.329,20.031C-2.595,20.498 -3.455,21.725 -3.075,23.106C-2.74,24.325 -1.273,25.322 0,24.852" style="fill:rgb(35,31,32);fill-rule:nonzero;"/>
                </g>
                <g transform="matrix(1,0,0,1,67.444,29.7455)">
                    <path d="M0,45.064C-0.209,48.721 -0.005,52.333 0.488,55.96C0.63,57.004 1.911,57.822 2.899,57.795C3.88,57.768 4.376,58.732 4.074,59.576C3.326,61.669 5.963,63.47 7.747,62.399C8.484,61.956 9.222,61.513 9.959,61.071C8.705,60.351 7.452,59.631 6.198,58.912C5.989,60.823 6.506,62.728 8.245,63.756C9.928,64.751 11.935,63.461 12.007,61.597L12.845,39.752C13.103,33.009 13.453,26.255 13.28,19.505C13.112,12.925 12.43,6.272 10.589,-0.068C9.702,-3.122 8.635,-6.43 6.872,-9.102C4.967,-11.99 2.188,-13.429 -0.945,-14.659C-7.714,-17.316 -15.291,-19.687 -22.231,-16.263C-24.019,-15.38 -23.682,-12.909 -22.231,-11.945C-16.705,-8.275 -10.203,-6.193 -3.575,-5.934C-1.86,-5.867 1.296,-6.309 1.735,-4.16C2.045,-2.638 1.952,-0.952 2.028,0.599C2.121,2.526 2.215,4.453 2.309,6.38C3.731,5.791 5.154,5.201 6.577,4.612C3.907,2.391 1.714,-0.379 0.4,-3.614C-0.172,-5.024 -1.78,-6.071 -3.272,-5.108C-5.051,-3.96 -5.749,-2.155 -5.358,-0.099C-3.965,-0.909 -2.572,-1.72 -1.179,-2.531C-5.236,-5.961 -9.814,-8.613 -14.84,-10.352C-16.035,-10.765 -17.251,-11.121 -18.481,-11.415C-19.532,-11.667 -20.9,-12.157 -21.982,-12.15C-22.258,-12.148 -22.465,-12.332 -22.174,-11.8C-22.083,-11.633 -22.313,-11.823 -22.133,-11.968C-22.211,-11.905 -21.964,-12.161 -21.939,-12.191C-21.316,-12.933 -20.389,-13.411 -19.518,-13.798C-18.524,-14.24 -18.1,-15.642 -18.369,-16.621C-18.678,-17.744 -19.674,-18.359 -20.78,-18.457C-24.746,-18.807 -28.716,-18.722 -32.663,-18.204C-34.001,-18.028 -35.163,-17.18 -35.163,-15.704C-35.163,-14.489 -34.011,-13.026 -32.663,-13.204C-28.716,-13.722 -24.746,-13.807 -20.78,-13.457C-21.201,-15.01 -21.621,-16.563 -22.042,-18.115C-24.525,-17.012 -27.197,-14.749 -27.174,-11.8C-27.145,-8.104 -23.46,-7.393 -20.632,-6.781C-14.79,-5.517 -9.284,-2.858 -4.715,1.005C-2.774,2.645 -0.058,1.083 -0.536,-1.428C-0.488,-1.177 -0.518,-0.939 -0.749,-0.791C-1.973,-1.289 -3.197,-1.787 -4.421,-2.285C-2.78,1.759 -0.329,5.343 3.041,8.148C4.579,9.427 7.423,8.721 7.309,6.38C7.211,4.373 7.114,2.366 7.016,0.358C6.925,-1.511 6.958,-3.445 6.594,-5.287C5.865,-8.974 2.677,-10.485 -0.743,-10.811C-3.94,-11.116 -6.998,-11.097 -10.141,-11.925C-13.571,-12.828 -16.755,-14.302 -19.707,-16.263L-19.707,-11.945C-14.583,-14.474 -8.406,-12.176 -3.461,-10.296C-0.881,-9.314 1.56,-8.366 2.993,-5.861C4.396,-3.41 5.268,-0.598 6.008,2.113C9.256,14.007 8.35,26.584 7.883,38.759C7.591,46.372 7.299,53.985 7.007,61.597C8.261,60.878 9.514,60.158 10.768,59.439C10.18,59.091 11.197,59.841 11.142,59.855C11.153,59.852 11.193,58.957 11.198,58.912C11.408,56.982 8.933,55.854 7.436,56.753C6.698,57.196 5.961,57.639 5.223,58.082C6.447,59.023 7.671,59.964 8.896,60.905C10.282,57.025 6.945,52.685 2.899,52.795C3.702,53.407 4.506,54.019 5.309,54.63C4.879,51.466 4.818,48.249 5,45.064C5.184,41.849 0.183,41.86 0,45.064" style="fill:rgb(35,31,32);fill-rule:nonzero;"/>
                </g>
                <g transform="matrix(1,0,0,1,31.8876,13.1955)">
                    <path d="M0,5C3.217,5 3.223,0 0,0C-3.217,0 -3.223,5 0,5" style="fill:rgb(35,31,32);fill-rule:nonzero;"/>
                </g>
                <g transform="matrix(1,0,0,1,48.4227,10.3019)">
                    <path d="M0,5C3.217,5 3.223,0 0,0C-3.217,0 -3.223,5 0,5" style="fill:rgb(35,31,32);fill-rule:nonzero;"/>
                </g>
                <g transform="matrix(1,0,0,1,70.7128,22.921)">
                    <path d="M0,-6.62C0.556,-5.487 -0.074,-6.391 0.142,-6.299C0.079,-6.326 0.984,-6.661 1.006,-6.668C1.953,-6.958 3.011,-7.06 3.997,-6.991C5.5,-6.887 6.766,-6.171 7.386,-4.754C8.642,-1.884 6.04,0.564 3.16,0.187C1.569,-0.02 0.285,1.954 0.749,3.352C1.69,6.188 3.358,8.752 5.699,10.631C7.986,12.467 11.621,14.577 14.67,13.735C18.287,12.736 18.413,7.922 17.94,4.91C17.459,1.85 15.841,-1.059 13.484,-3.071C12.895,-1.648 12.305,-0.226 11.716,1.197C13.619,1.171 15.522,1.152 17.424,1.12C19.219,1.089 20.9,0.659 21.88,-0.992C22.688,-2.353 23.031,-4.17 23.234,-5.718C23.461,-7.446 23.289,-9.209 22.402,-10.746C19.283,-16.144 8.386,-18.401 6.411,-10.872C8.048,-10.651 9.685,-10.429 11.322,-10.208C11.887,-15.703 5.281,-21.197 0.033,-20.789C-2.923,-20.559 -5.304,-18.704 -6.396,-15.968C-7.5,-13.201 -6.896,-10.117 -5.401,-7.62C-3.749,-4.862 0.575,-7.373 -1.083,-10.143C-1.824,-11.38 -2.334,-12.909 -1.709,-14.31C-1.254,-15.331 -0.305,-15.911 0.811,-15.797C3.301,-15.542 6.598,-12.889 6.322,-10.208C6.03,-7.367 10.532,-6.871 11.233,-9.543C11.996,-12.453 17.314,-9.787 18.165,-8.108C18.489,-7.467 18.362,-6.583 18.232,-5.908C18.207,-5.777 17.591,-3.503 17.563,-3.515C17.75,-3.605 17.897,-3.73 18.005,-3.892C17.728,-3.884 17.452,-3.879 17.176,-3.877C16.68,-3.869 16.183,-3.863 15.687,-3.857C14.363,-3.839 13.04,-3.821 11.716,-3.803C9.689,-3.776 8.236,-0.997 9.948,0.465C11.363,1.672 12.369,3.152 12.854,4.957C13.091,5.84 13.177,6.711 13.137,7.625C13.12,8.029 13.002,8.415 12.977,8.81C12.975,8.846 12.824,9.272 12.839,9.285C13.045,9.16 13.251,9.035 13.457,8.91C13.362,8.944 13.267,8.938 13.172,8.891C12.412,8.5 11.486,8.415 10.704,7.999C9.924,7.583 9.195,7.1 8.542,6.505C7.186,5.271 6.149,3.768 5.57,2.023C4.767,3.078 3.963,4.132 3.16,5.187C6.484,5.622 9.958,3.753 11.622,0.877C13.292,-2.01 12.957,-5.744 10.998,-8.406C8.681,-11.553 4.948,-12.353 1.236,-11.798C-0.539,-11.532 -2.385,-10.972 -3.618,-9.588C-5.014,-8.022 -5.228,-5.952 -4.317,-4.096C-3.723,-2.884 -2.002,-2.553 -0.897,-3.2C0.339,-3.923 0.597,-5.404 0,-6.62" style="fill:rgb(35,31,32);fill-rule:nonzero;"/>
                </g>
                <g transform="matrix(1,0,0,1,68.3461,9.0686)">
                    <path d="M0,5.474L-11.51,-3.536C-12.055,-3.963 -12.555,-4.268 -13.278,-4.268C-13.891,-4.268 -14.624,-3.996 -15.046,-3.536C-15.871,-2.638 -16.146,-0.861 -15.046,-0C-11.209,3.003 -7.372,6.006 -3.536,9.01C-2.991,9.436 -2.491,9.742 -1.768,9.742C-1.155,9.742 -0.422,9.469 0,9.01C0.825,8.111 1.1,6.335 0,5.474" style="fill:rgb(35,31,32);fill-rule:nonzero;"/>
                </g>
            </g>
        </g>
    </g>
</svg>
