<?xml version="1.0" encoding="UTF-8" standalone="no"?>
<!DOCTYPE svg PUBLIC "-//W3C//DTD SVG 1.1//EN" "http://www.w3.org/Graphics/SVG/1.1/DTD/svg11.dtd">
<svg width="100%" height="100%" viewBox="0 0 100 100" version="1.1" xmlns="http://www.w3.org/2000/svg" xmlns:xlink="http://www.w3.org/1999/xlink" xml:space="preserve" xmlns:serif="http://www.serif.com/" style="fill-rule:evenodd;clip-rule:evenodd;stroke-linejoin:round;stroke-miterlimit:2;">
    <g transform="matrix(1,0,0,1,-112.5,0)">
        <g id="Page-2" serif:id="Page 2" transform="matrix(1,0,0,1,112.5,0)">
            <rect x="0" y="0" width="100" height="100" style="fill:none;"/>
            <g id="Drawing">
                <g transform="matrix(1,0,0,1,51.0997,80.0941)">
                    <path d="M0,-59.736C-6.733,-60.406 -14.123,-60.883 -20.107,-57.105C-25.484,-53.71 -28.653,-47.819 -30.44,-41.879C-32.497,-35.044 -32.719,-27.484 -29.39,-21.012C-27.842,-18.003 -25.597,-15.359 -23.24,-12.957C-20.998,-10.672 -18.641,-8.473 -16.14,-6.473C-10.853,-2.247 -4.716,1.102 2.221,1.126C8.535,1.147 14.572,-1.418 19.446,-5.323C24.653,-9.496 28.186,-15.388 30.272,-21.669C32.26,-27.658 33.155,-34.381 32.677,-40.683C32.215,-46.76 30.105,-53.674 24.158,-56.495C20.382,-58.286 15.818,-58.338 11.722,-58.729C7.341,-59.147 2.951,-59.459 -1.445,-59.677C-4.661,-59.836 -4.653,-54.835 -1.445,-54.677C2.137,-54.5 5.715,-54.261 9.287,-53.951C12.501,-53.672 15.787,-53.479 18.963,-52.903C21.274,-52.484 23.307,-51.592 24.757,-49.718C26.156,-47.91 26.866,-45.653 27.306,-43.442C28.337,-38.268 27.787,-32.55 26.665,-27.44C25.451,-21.912 23.21,-16.438 19.408,-12.17C15.895,-8.226 11.258,-5.324 6.06,-4.247C0.566,-3.109 -4.75,-4.745 -9.385,-7.71C-11.858,-9.291 -14.101,-11.18 -16.256,-13.166C-18.446,-15.184 -20.617,-17.266 -22.494,-19.583C-26.282,-24.264 -27.601,-29.942 -26.697,-35.867C-25.806,-41.707 -23.413,-48.317 -18.608,-52.078C-13.393,-56.161 -6.151,-55.348 0,-54.736C1.345,-54.602 2.5,-55.981 2.5,-57.236C2.5,-58.699 1.349,-59.602 0,-59.736" style="fill:rgb(35,31,32);fill-rule:nonzero;"/>
                </g>
                <g transform="matrix(1,0,0,1,56.0694,46.6931)">
                    <path d="M0,5C3.217,5 3.223,0 0,0C-3.217,0 -3.223,5 0,5" style="fill:rgb(35,31,32);fill-rule:nonzero;"/>
                </g>
                <g transform="matrix(0.193038,0.981191,0.981191,-0.193038,50.3366,45.0764)">
                    <path d="M12.951,-10.834C15.035,-2.373 16.673,6.19 17.857,14.823C18.293,17.997 13.39,18.983 12.951,15.788C11.767,7.155 10.129,-1.408 8.045,-9.869C7.275,-12.996 12.182,-13.953 12.951,-10.834" style="fill:rgb(35,31,32);fill-rule:nonzero;"/>
                </g>
                <g transform="matrix(1,0,0,1,55.3069,9.5466)">
                    <path d="M0,9.91C0.033,9.167 0.521,8.299 0.905,7.43C1.415,6.276 1.894,5.107 2.315,3.917C3.084,1.746 3.661,-0.485 4.067,-2.752C2.843,-2.253 1.619,-1.755 0.395,-1.257C0.675,-1.095 0.596,-1.159 0.94,-0.82C1.151,-0.611 1.132,-0.607 1.374,-0.238C1.771,0.366 2.132,0.996 2.506,1.615C3.406,3.106 4.304,4.599 5.201,6.093C6.007,7.436 6.851,8.765 7.578,10.153C8.189,11.318 8.66,12.572 8.715,13.735C8.779,15.084 9.818,16.235 11.215,16.235C12.519,16.235 13.78,15.09 13.715,13.735C13.534,9.916 11.427,6.747 9.518,3.569C8.534,1.931 7.549,0.294 6.562,-1.342C5.582,-2.965 4.603,-4.594 2.918,-5.575C1.629,-6.325 -0.464,-5.698 -0.754,-4.081C-1.179,-1.711 -1.792,0.619 -2.612,2.883C-3.445,5.185 -4.888,7.37 -5,9.91C-5.06,11.26 -3.808,12.41 -2.5,12.41C-1.096,12.41 -0.06,11.264 0,9.91" style="fill:rgb(35,31,32);fill-rule:nonzero;"/>
                </g>
                <g transform="matrix(1,0,0,1,19.8973,61.6948)">
                    <path d="M0,-15.77L-14.907,-16.041C-16.592,-16.072 -17.671,-14.424 -17.318,-12.877C-16.186,-7.922 -11.478,-5.689 -7.199,-3.96C-2.602,-2.102 1.741,0.302 6.862,-0.592C8.193,-0.824 8.941,-2.455 8.608,-3.667C8.222,-5.073 6.867,-5.646 5.533,-5.413C1.894,-4.778 -1.934,-7.169 -5.168,-8.496C-7.996,-9.656 -11.742,-10.902 -12.496,-14.206L-14.907,-11.041C-9.938,-10.951 -4.969,-10.86 0,-10.77C3.219,-10.711 3.219,-15.711 0,-15.77" style="fill:rgb(35,31,32);fill-rule:nonzero;"/>
                </g>
                <g transform="matrix(1,0,0,1,83.5995,45.616)">
                    <path d="M0,-0.498C2.289,-0.629 4.209,-1.647 6.222,-2.645C7.119,-3.089 8.027,-3.512 8.945,-3.914C8.926,-3.906 9.641,-4.214 9.352,-4.092C9.603,-4.198 9.857,-4.301 10.11,-4.403C10.363,-4.505 10.617,-4.605 10.872,-4.704C10.957,-4.737 11.041,-4.77 11.126,-4.802C11.452,-4.909 11.468,-4.928 11.174,-4.861C10.753,-4.974 10.333,-5.088 9.912,-5.202C9.951,-5.174 9.99,-5.147 10.029,-5.119C9.73,-5.418 9.431,-5.717 9.132,-6.016C9.069,-6.462 9.006,-6.907 8.943,-7.353C8.919,-7.262 8.888,-7.173 8.851,-7.086C8.797,-6.947 8.792,-6.934 8.837,-7.047C8.898,-7.196 8.873,-7.148 8.762,-6.901C8.596,-6.575 8.426,-6.252 8.238,-5.937C8.05,-5.623 7.849,-5.315 7.641,-5.013C7.525,-4.846 7.405,-4.68 7.284,-4.515C7.26,-4.482 6.984,-4.114 7.111,-4.28C7.263,-4.479 6.886,-3.996 6.852,-3.954C6.724,-3.794 6.594,-3.636 6.464,-3.478C6.229,-3.193 5.99,-2.912 5.748,-2.633C5.236,-2.046 4.709,-1.472 4.166,-0.913C3.11,0.175 1.996,1.208 0.831,2.18C0.548,2.416 0.261,2.648 -0.028,2.877C-0.129,2.957 -0.472,3.218 -0.203,3.014C-0.334,3.113 -0.465,3.212 -0.596,3.309C-1.255,3.798 -1.929,4.265 -2.613,4.717C-3.703,5.436 -4.269,6.96 -3.51,8.137C-2.809,9.225 -1.257,9.805 -0.09,9.034C3.715,6.523 7.182,3.489 10.078,-0.037C11.507,-1.777 13.262,-3.849 13.78,-6.105C14.28,-8.284 12.566,-10.303 10.282,-9.79C9.024,-9.507 7.718,-8.796 6.546,-8.286C5.303,-7.744 4.082,-7.159 2.873,-6.546C2.609,-6.413 2.345,-6.279 2.078,-6.15C1.926,-6.077 1.773,-6.004 1.619,-5.935C1.862,-6.044 1.634,-5.937 1.518,-5.894C1.206,-5.777 0.89,-5.67 0.566,-5.589C0.446,-5.559 0.322,-5.54 0.202,-5.509C-0.195,-5.406 0.732,-5.54 0,-5.498C-1.303,-5.423 -2.563,-4.402 -2.5,-2.998C-2.442,-1.708 -1.398,-0.418 0,-0.498" style="fill:rgb(35,31,32);fill-rule:nonzero;"/>
                </g>
                <g transform="matrix(1,0,0,1,43.6387,87.0073)">
                    <path d="M0,-7.238C-2.102,-4.52 -4.203,-1.802 -6.305,0.917C-7.387,2.316 -7.215,4.599 -5.202,5.095C-2.559,5.746 0.153,6.216 2.879,6.295C5.544,6.372 8.207,6.014 10.828,5.559C16.037,4.655 21.216,3.542 26.403,2.523C27.64,2.28 28.609,0.642 28.149,-0.552C26.804,-4.052 25.261,-7.468 23.489,-10.773C21.968,-13.61 17.65,-11.087 19.171,-8.249C20.74,-5.324 22.137,-2.321 23.328,0.777C23.91,-0.248 24.492,-1.273 25.074,-2.298C20.194,-1.339 15.32,-0.331 10.429,0.571C5.558,1.468 0.954,1.463 -3.873,0.274C-3.505,1.667 -3.137,3.059 -2.77,4.452L3.536,-3.702C4.361,-4.769 4.576,-6.198 3.536,-7.238C2.675,-8.099 0.831,-8.312 0,-7.238" style="fill:rgb(35,31,32);fill-rule:nonzero;"/>
                </g>
                <g transform="matrix(1,0,0,1,50.6074,83.9593)">
                    <path d="M0,-5.626C-0.073,-3.751 -0.146,-1.875 -0.219,-0C-0.27,1.308 0.967,2.559 2.281,2.5C3.679,2.437 4.726,1.402 4.781,-0C4.854,-1.875 4.927,-3.751 5,-5.626C5.051,-6.934 3.814,-8.185 2.5,-8.126C1.102,-8.063 0.055,-7.028 0,-5.626" style="fill:rgb(35,31,32);fill-rule:nonzero;"/>
                </g>
                <g transform="matrix(1,0,0,1,56.0035,83.3845)">
                    <path d="M0,-6.055C-0.318,-3.569 0.303,-0.943 1.556,1.214C1.871,1.756 2.446,2.196 3.05,2.363C3.648,2.528 4.445,2.453 4.976,2.111C6.117,1.375 6.576,-0.099 5.873,-1.31C5.664,-1.67 5.478,-2.042 5.315,-2.425C5.399,-2.226 5.483,-2.027 5.567,-1.828C5.249,-2.6 5.032,-3.404 4.915,-4.231C4.945,-4.009 4.975,-3.788 5.005,-3.566C4.897,-4.394 4.894,-5.226 5,-6.055C5.075,-6.643 4.666,-7.424 4.268,-7.823C3.834,-8.256 3.123,-8.583 2.5,-8.555C1.853,-8.526 1.183,-8.314 0.732,-7.823C0.602,-7.654 0.472,-7.485 0.341,-7.317C0.115,-6.927 0.001,-6.506 0,-6.055" style="fill:rgb(35,31,32);fill-rule:nonzero;"/>
                </g>
                <g transform="matrix(1,0,0,1,44.6103,44.8705)">
                    <path d="M0,-14.038C-2.279,-14.228 -4.577,-14.419 -6.86,-14.176C-9.31,-13.916 -11.901,-13.351 -13.223,-11.026C-13.728,-10.139 -13.957,-9.164 -14.097,-8.167C-14.254,-7.049 -14.44,-5.901 -14.366,-4.769C-14.204,-2.29 -13.045,-0.296 -10.902,0.987C-10.049,1.498 -9.103,1.856 -8.183,2.225C-7.136,2.645 -6.073,3.03 -4.96,3.23C-2.663,3.641 -0.303,3.362 1.615,1.95C5.393,-0.832 6.102,-5.457 6.058,-9.859C6.044,-11.285 6.039,-12.713 5.428,-14.033C4.831,-15.324 3.722,-16.228 2.409,-16.734C-0.047,-17.679 -2.897,-16.668 -4.523,-14.677C-5.349,-13.666 -5.586,-12.118 -4.523,-11.142C-3.607,-10.302 -1.871,-10.06 -0.987,-11.142C-0.887,-11.264 -0.788,-11.386 -0.679,-11.5C-0.706,-11.473 -0.144,-11.978 -0.403,-11.776C-0.62,-11.607 -0.222,-11.884 -0.169,-11.915C-0.057,-11.98 0.392,-12.135 -0.021,-12.004C0.129,-12.051 0.277,-12.093 0.431,-12.125C0.312,-12.1 0.002,-12.115 0.452,-12.103C0.95,-12.089 0.542,-12.091 0.448,-12.118C0.557,-12.095 0.664,-12.066 0.768,-12.029C0.939,-11.972 0.91,-11.985 0.681,-12.068C0.698,-12.04 1.13,-11.769 0.722,-12.093C0.828,-12.008 0.945,-11.894 1.033,-11.787C0.714,-12.178 1.012,-11.812 1.007,-11.748L0.942,-11.862C0.995,-11.584 1.015,-11.525 1.001,-11.686C0.944,-11.949 1.023,-11.426 1.026,-11.367C1.038,-11.148 1.042,-10.929 1.046,-10.71C1.055,-10.285 1.06,-9.859 1.061,-9.433C1.067,-7.696 1.039,-6.443 0.583,-4.914C0.525,-4.72 0.444,-4.528 0.39,-4.333C0.291,-3.97 0.56,-4.655 0.389,-4.318C0.239,-4.02 0.096,-3.722 -0.077,-3.436C-0.163,-3.296 -0.629,-2.679 -0.324,-3.041C-0.561,-2.76 -0.813,-2.503 -1.08,-2.253C-1.42,-1.935 -1.169,-2.179 -1.082,-2.239C-1.201,-2.157 -1.318,-2.076 -1.442,-2.001C-1.596,-1.907 -1.758,-1.833 -1.915,-1.745C-2.226,-1.571 -1.567,-1.817 -1.919,-1.753C-2.113,-1.718 -2.307,-1.634 -2.502,-1.594C-2.406,-1.614 -2.073,-1.608 -2.653,-1.576C-2.835,-1.566 -3.017,-1.563 -3.2,-1.568C-3.273,-1.57 -3.993,-1.648 -3.63,-1.592C-4.37,-1.705 -5.096,-1.94 -5.798,-2.192C-6.197,-2.334 -6.591,-2.49 -6.983,-2.648C-7.028,-2.666 -7.518,-2.873 -7.236,-2.751C-6.997,-2.648 -7.6,-2.919 -7.671,-2.954C-7.982,-3.104 -8.268,-3.287 -8.572,-3.45C-8.647,-3.49 -8.954,-3.729 -8.612,-3.453C-8.728,-3.547 -8.829,-3.655 -8.942,-3.752C-9.013,-3.813 -9.233,-4.109 -8.982,-3.755C-9.073,-3.883 -9.153,-4.019 -9.227,-4.157C-9.054,-3.835 -9.226,-4.138 -9.249,-4.233C-9.276,-4.338 -9.4,-4.96 -9.346,-4.523C-9.432,-5.224 -9.367,-5.948 -9.291,-6.647C-9.269,-6.854 -9.244,-7.061 -9.217,-7.268C-9.231,-7.16 -9.296,-6.81 -9.207,-7.309C-9.137,-7.701 -9.056,-8.084 -8.934,-8.463C-8.965,-8.367 -9.14,-8.066 -8.906,-8.502C-8.765,-8.72 -8.743,-8.762 -8.839,-8.629C-8.943,-8.497 -8.903,-8.531 -8.719,-8.729C-8.823,-8.663 -9.042,-8.539 -8.637,-8.754C-8.211,-8.981 -8.853,-8.755 -8.334,-8.874C-7.401,-9.089 -6.922,-9.192 -5.97,-9.25C-3.979,-9.37 -1.984,-9.203 0,-9.038C1.307,-8.929 2.557,-10.266 2.5,-11.538C2.435,-12.986 1.4,-13.921 0,-14.038" style="fill:rgb(35,31,32);fill-rule:nonzero;"/>
                </g>
                <g transform="matrix(1,0,0,1,67.731,49.5063)">
                    <path d="M0,-18.678C-1.945,-19.471 -4.197,-18.851 -5.769,-17.574C-7.068,-16.519 -7.928,-14.897 -8.2,-13.256C-8.79,-9.699 -7.194,-6.317 -4.775,-3.775C-2.256,-1.128 1.632,0.793 5.156,-1.116C8.394,-2.87 9.901,-7.204 9.361,-10.68C9.055,-12.648 7.957,-14.363 6.371,-15.543C5.524,-16.173 4.494,-16.503 3.503,-16.834C2.534,-17.157 1.565,-17.48 0.596,-17.802C-0.646,-18.216 -2.19,-17.325 -2.479,-16.056C-2.794,-14.677 -2.062,-13.424 -0.733,-12.981C0.543,-12.556 1.824,-12.141 3.094,-11.696C2.722,-11.826 3.08,-11.705 3.155,-11.664C3.282,-11.594 3.405,-11.52 3.531,-11.45C3.911,-11.237 3.568,-11.423 3.491,-11.494C3.586,-11.406 3.682,-11.323 3.774,-11.23C3.865,-11.138 3.947,-11.039 4.033,-10.943C3.966,-11.018 3.765,-11.358 3.986,-10.979C4.119,-10.753 4.246,-10.53 4.359,-10.293C4.108,-10.819 4.382,-10.142 4.425,-9.967C4.456,-9.841 4.483,-9.714 4.504,-9.586C4.484,-9.708 4.486,-10.022 4.492,-9.543C4.496,-9.224 4.494,-8.912 4.468,-8.595C4.478,-8.707 4.561,-9.042 4.454,-8.554C4.42,-8.398 4.388,-8.243 4.347,-8.089C4.267,-7.78 4.16,-7.481 4.053,-7.18C4.186,-7.555 3.927,-6.932 3.858,-6.805C3.731,-6.571 3.587,-6.349 3.44,-6.126C3.355,-5.997 3.147,-5.854 3.468,-6.16C3.35,-6.048 3.25,-5.915 3.133,-5.8C3.064,-5.732 2.982,-5.671 2.919,-5.599C3.198,-5.913 3.115,-5.728 2.963,-5.634C2.854,-5.566 2.742,-5.502 2.632,-5.434C2.263,-5.203 2.595,-5.418 2.699,-5.447C2.572,-5.412 2.434,-5.373 2.308,-5.331C2.13,-5.272 1.916,-5.35 2.355,-5.327C2.224,-5.334 2.071,-5.323 1.943,-5.32C1.473,-5.308 2.162,-5.234 1.89,-5.317C1.656,-5.389 1.415,-5.437 1.182,-5.511C0.737,-5.653 1.094,-5.547 1.185,-5.502C1.056,-5.566 0.926,-5.628 0.799,-5.697C0.543,-5.836 0.294,-5.989 0.053,-6.153C-0.067,-6.235 -0.186,-6.321 -0.303,-6.409C-0.022,-6.196 -0.241,-6.369 -0.389,-6.497C-0.794,-6.849 -1.176,-7.228 -1.532,-7.628C-1.612,-7.718 -2.128,-8.37 -1.827,-7.962C-2.02,-8.223 -2.203,-8.491 -2.374,-8.768C-2.525,-9.012 -2.666,-9.261 -2.797,-9.517C-2.875,-9.67 -3.096,-10.252 -2.935,-9.793C-3.028,-10.057 -3.124,-10.319 -3.197,-10.59C-3.233,-10.724 -3.266,-10.859 -3.294,-10.995C-3.311,-11.072 -3.369,-11.636 -3.348,-11.275C-3.329,-10.932 -3.344,-11.374 -3.347,-11.456C-3.354,-11.628 -3.355,-11.8 -3.348,-11.972C-3.342,-12.109 -3.331,-12.248 -3.316,-12.385C-3.356,-12.029 -3.34,-12.184 -3.278,-12.442C-3.246,-12.572 -3.21,-12.7 -3.17,-12.828C-3.085,-13.092 -3.02,-13.166 -3.17,-12.872C-3.11,-12.99 -3.054,-13.107 -2.989,-13.222C-2.955,-13.281 -2.663,-13.753 -2.858,-13.459C-3.036,-13.19 -2.801,-13.519 -2.742,-13.582C-2.63,-13.7 -2.512,-13.812 -2.387,-13.917C-2.463,-13.853 -2.804,-13.623 -2.403,-13.873C-2.02,-14.112 -2.595,-13.865 -2.335,-13.924C-2.202,-13.955 -2.06,-13.992 -1.931,-14.035C-1.635,-14.134 -2.359,-13.973 -1.872,-14.023C-1.679,-14.043 -1.513,-13.905 -1.92,-14.048C-1.724,-13.979 -1.524,-13.936 -1.329,-13.857C-0.115,-13.361 1.471,-14.393 1.746,-15.603C2.077,-17.055 1.3,-18.148 0,-18.678" style="fill:rgb(35,31,32);fill-rule:nonzero;"/>
                </g>
                <g transform="matrix(1,0,0,1,34.0003,39.7761)">
                    <path d="M0,-0.238L0,-0C-0.013,0.344 0.059,0.665 0.215,0.963C0.316,1.273 0.488,1.541 0.732,1.767C0.959,2.011 1.227,2.183 1.537,2.284C1.835,2.441 2.156,2.513 2.5,2.5C2.722,2.47 2.943,2.44 3.165,2.41C3.588,2.291 3.956,2.077 4.268,1.767C4.398,1.599 4.528,1.43 4.659,1.261C4.885,0.871 4.999,0.451 5,-0L5,-0.238C5.013,-0.582 4.941,-0.903 4.785,-1.201C4.684,-1.511 4.512,-1.779 4.268,-2.006C4.041,-2.25 3.773,-2.422 3.463,-2.523C3.165,-2.679 2.844,-2.751 2.5,-2.738C2.278,-2.708 2.057,-2.678 1.835,-2.649C1.412,-2.53 1.044,-2.316 0.732,-2.006C0.602,-1.837 0.472,-1.668 0.341,-1.5C0.115,-1.11 0.001,-0.689 0,-0.238" style="fill:rgb(35,31,32);fill-rule:nonzero;"/>
                </g>
                <g transform="matrix(1,0,0,1,70.7012,37.2757)">
                    <path d="M0,5C3.217,5 3.223,0 0,0C-3.217,0 -3.223,5 0,5" style="fill:rgb(35,31,32);fill-rule:nonzero;"/>
                </g>
            </g>
        </g>
    </g>
</svg>
