<?xml version="1.0" encoding="UTF-8" standalone="no"?>
<!DOCTYPE svg PUBLIC "-//W3C//DTD SVG 1.1//EN" "http://www.w3.org/Graphics/SVG/1.1/DTD/svg11.dtd">
<svg width="100%" height="100%" viewBox="0 0 100 100" version="1.1" xmlns="http://www.w3.org/2000/svg" xmlns:xlink="http://www.w3.org/1999/xlink" xml:space="preserve" xmlns:serif="http://www.serif.com/" style="fill-rule:evenodd;clip-rule:evenodd;stroke-linejoin:round;stroke-miterlimit:2;">
    <g transform="matrix(1,0,0,1,-225,0)">
        <g id="Page-3" serif:id="Page 3" transform="matrix(1,0,0,1,225,0)">
            <rect x="0" y="0" width="100" height="100" style="fill:none;"/>
            <clipPath id="_clip1">
                <rect x="0" y="0" width="100" height="100"/>
            </clipPath>
            <g clip-path="url(#_clip1)">
                <g id="Drawing">
                    <g transform="matrix(1,0,0,1,6.3073,56.4372)">
                        <path d="M0,-16.129C-3.955,-15.645 -7.396,-12.825 -8.005,-8.75C-8.636,-4.524 -5.847,-0.262 -1.729,0.905C-1.354,1.011 -0.889,1.163 -0.501,1.152L-0.328,1.196C0.101,1.333 -0.053,1.169 -0.792,0.704C-0.823,0.763 -0.677,1.139 -0.658,1.211C-0.383,2.249 -0.005,3.257 0.494,4.21C1.386,5.913 2.706,7.439 4.171,8.675C7.406,11.404 11.311,13.142 15.296,14.475C23.93,17.365 33.188,17.897 42.226,18.013C51.57,18.134 61.155,18.249 70.275,15.92C74.793,14.766 79.247,12.97 83.147,10.394C85.06,9.13 86.881,7.684 88.495,6.053C90.334,4.196 92.115,1.912 91.895,-0.853C91.283,-0.05 90.671,0.754 90.06,1.557C93.652,0.461 96.364,-2.976 96.196,-6.81C96.031,-10.565 93.116,-13.967 89.41,-14.65C89.992,-14.068 90.574,-13.486 91.156,-12.904C90.1,-19.26 85.218,-24.454 79.634,-27.324C72.782,-30.847 64.955,-31.457 57.431,-32.353C49.988,-33.24 42.519,-34.378 35.007,-33.81C28.43,-33.312 22.023,-31.8 15.963,-29.194C9.36,-26.354 3.339,-22.035 -1.216,-16.453C-2.069,-15.408 -2.238,-13.94 -1.216,-12.917C-0.335,-12.037 1.462,-11.866 2.32,-12.917C9.755,-22.028 20.974,-27.188 32.524,-28.57C39.265,-29.376 45.933,-28.723 52.641,-27.924C59.662,-27.087 66.995,-26.703 73.735,-24.417C79.676,-22.402 85.255,-18.074 86.335,-11.574C86.465,-10.794 87.311,-9.97 88.081,-9.828C89.627,-9.543 91.013,-8.462 91.196,-6.81C91.371,-5.229 90.201,-3.713 88.73,-3.264C87.746,-2.964 86.807,-1.955 86.895,-0.853C87.024,0.771 85.458,2.057 84.382,3.084C83.168,4.242 81.859,5.271 80.454,6.187C77.5,8.112 74.28,9.536 70.909,10.553C63.014,12.933 54.702,13.062 46.524,13.043C38.687,13.024 30.756,12.949 23.051,11.366C19.275,10.59 15.492,9.501 12.019,7.808C9.232,6.449 6.419,4.641 4.896,1.848C3.947,0.108 4.053,-2.118 2.093,-3.195C0.599,-4.015 -1.048,-3.726 -2.228,-5.152C-3.933,-7.213 -2.848,-10.78 0,-11.129C1.34,-11.293 2.5,-12.161 2.5,-13.629C2.5,-14.853 1.349,-16.294 0,-16.129" style="fill:rgb(35,31,32);fill-rule:nonzero;"/>
                    </g>
                    <g transform="matrix(1,0,0,1,83.9324,52.8191)">
                        <path d="M0,-4.234C-0.03,-4.224 -0.06,-4.217 -0.092,-4.212C0.13,-4.242 0.351,-4.272 0.573,-4.302C0.534,-4.298 0.496,-4.298 0.457,-4.302C0.678,-4.272 0.9,-4.242 1.121,-4.213C1.074,-4.219 1.03,-4.231 0.986,-4.248L1.583,-3.996C1.531,-4.018 1.484,-4.044 1.439,-4.078C1.608,-3.947 1.776,-3.817 1.945,-3.687C1.901,-3.722 1.863,-3.76 1.828,-3.804C1.958,-3.635 2.088,-3.466 2.218,-3.298C2.19,-3.336 2.167,-3.376 2.147,-3.419L2.399,-2.822C2.382,-2.866 2.37,-2.909 2.363,-2.956C2.392,-2.735 2.422,-2.513 2.452,-2.291C2.448,-2.331 2.449,-2.369 2.453,-2.409C2.424,-2.188 2.394,-1.966 2.364,-1.744C2.373,-1.795 2.387,-1.842 2.405,-1.89L2.153,-1.293C2.179,-1.349 2.209,-1.4 2.245,-1.45C2.115,-1.282 1.985,-1.113 1.854,-0.944C1.902,-1.006 1.954,-1.06 2.015,-1.108C1.846,-0.978 1.677,-0.848 1.509,-0.717C1.57,-0.764 1.636,-0.802 1.706,-0.832L1.109,-0.58C1.194,-0.615 1.281,-0.639 1.371,-0.652C1.15,-0.622 0.928,-0.592 0.707,-0.563C0.806,-0.575 0.904,-0.575 1.003,-0.564C0.781,-0.594 0.56,-0.623 0.338,-0.653C0.444,-0.639 0.545,-0.612 0.643,-0.57C0.444,-0.654 0.245,-0.738 0.046,-0.822C0.123,-0.788 0.194,-0.747 0.261,-0.696L-0.245,-1.087C-0.185,-1.039 -0.131,-0.986 -0.084,-0.925L-0.475,-1.431C-0.437,-1.38 -0.405,-1.325 -0.378,-1.267L-0.63,-1.864C-0.601,-1.794 -0.581,-1.723 -0.57,-1.649C-0.6,-1.87 -0.63,-2.092 -0.66,-2.313C-0.65,-2.232 -0.651,-2.151 -0.661,-2.069C-0.631,-2.291 -0.601,-2.513 -0.572,-2.734C-0.585,-2.644 -0.609,-2.559 -0.643,-2.475L-0.391,-3.072C-0.431,-2.981 -0.48,-2.897 -0.54,-2.818C-0.41,-2.987 -0.279,-3.156 -0.149,-3.324C-0.205,-3.253 -0.268,-3.19 -0.34,-3.134C-0.171,-3.264 -0.002,-3.394 0.166,-3.525C0.101,-3.475 0.032,-3.434 -0.044,-3.401C0.155,-3.485 0.354,-3.569 0.553,-3.653C0.484,-3.626 0.414,-3.606 0.34,-3.596C0.562,-3.626 0.784,-3.655 1.005,-3.685C0.938,-3.678 0.872,-3.678 0.806,-3.685C1.027,-3.656 1.249,-3.626 1.47,-3.596C1.4,-3.606 1.334,-3.625 1.268,-3.652L1.865,-3.4C1.795,-3.431 1.729,-3.47 1.668,-3.517C1.837,-3.387 2.005,-3.256 2.174,-3.126C2.107,-3.18 2.049,-3.24 1.996,-3.307C2.126,-3.138 2.257,-2.97 2.387,-2.801C2.331,-2.876 2.285,-2.955 2.248,-3.041L2.5,-2.444C2.464,-2.529 2.439,-2.617 2.426,-2.709C2.456,-2.488 2.485,-2.266 2.515,-2.045C2.505,-2.128 2.504,-2.211 2.515,-2.295C2.485,-2.073 2.455,-1.852 2.425,-1.63C2.436,-1.699 2.454,-1.766 2.481,-1.83L2.229,-1.233C2.249,-1.279 2.273,-1.322 2.3,-1.363C2.483,-1.65 2.582,-1.96 2.597,-2.293C2.671,-2.625 2.657,-2.957 2.552,-3.29C2.475,-3.615 2.326,-3.898 2.105,-4.14C1.929,-4.412 1.695,-4.627 1.403,-4.784L0.806,-5.036C0.363,-5.155 -0.08,-5.155 -0.523,-5.036L-1.12,-4.784C-1.496,-4.561 -1.795,-4.263 -2.017,-3.887C-2.165,-3.665 -2.266,-3.363 -2.349,-3.14C-2.371,-3.081 -2.386,-3.022 -2.396,-2.959C-2.435,-2.722 -2.476,-2.473 -2.492,-2.233C-2.494,-2.205 -2.494,-2.177 -2.493,-2.149C-2.486,-1.867 -2.442,-1.583 -2.383,-1.307C-2.37,-1.248 -2.352,-1.191 -2.33,-1.134C-2.238,-0.896 -2.14,-0.616 -2.002,-0.384C-1.867,-0.156 -1.686,0.055 -1.52,0.254C-1.479,0.303 -1.434,0.348 -1.386,0.389C-0.906,0.802 -0.61,0.988 -0.002,1.192C0.245,1.275 0.634,1.3 0.816,1.316C1.094,1.34 1.431,1.263 1.67,1.226C1.728,1.216 1.785,1.204 1.841,1.184C2.099,1.092 2.372,0.996 2.608,0.85C2.836,0.708 3.047,0.536 3.248,0.359C3.299,0.314 3.344,0.264 3.387,0.211C3.513,0.055 3.746,-0.212 3.871,-0.437C4.006,-0.677 4.105,-0.94 4.198,-1.198C4.22,-1.258 4.236,-1.32 4.247,-1.383C4.288,-1.619 4.323,-1.874 4.344,-2.114C4.348,-2.151 4.349,-2.188 4.348,-2.225C4.343,-2.364 4.313,-2.516 4.296,-2.645C4.279,-2.769 4.268,-2.922 4.237,-3.054C4.229,-3.087 4.22,-3.119 4.208,-3.151C4.203,-3.165 4.197,-3.179 4.191,-3.193C4.107,-3.402 4.022,-3.629 3.92,-3.83C3.907,-3.855 3.893,-3.88 3.878,-3.903C3.753,-4.098 3.595,-4.281 3.451,-4.461C3.412,-4.51 3.371,-4.555 3.323,-4.596C3.147,-4.746 2.949,-4.899 2.76,-5.032C2.734,-5.05 2.709,-5.067 2.682,-5.083C2.448,-5.22 2.184,-5.311 1.934,-5.408C1.878,-5.429 1.82,-5.446 1.761,-5.459C1.488,-5.516 1.208,-5.554 0.929,-5.571C0.869,-5.574 0.808,-5.574 0.749,-5.568C0.473,-5.541 0.188,-5.519 -0.082,-5.449C-0.332,-5.384 -0.635,-5.236 -0.827,-5.146C-0.887,-5.117 -0.944,-5.086 -0.998,-5.047C-1.188,-4.912 -1.46,-4.735 -1.636,-4.535C-1.652,-4.517 -1.666,-4.499 -1.681,-4.48C-1.82,-4.306 -1.975,-4.121 -2.098,-3.936C-2.183,-3.81 -2.233,-3.652 -2.29,-3.518C-2.347,-3.382 -2.418,-3.248 -2.452,-3.104C-2.511,-2.858 -2.555,-2.594 -2.551,-2.338C-2.549,-2.217 -2.514,-2.037 -2.503,-1.959C-2.49,-1.861 -2.478,-1.702 -2.451,-1.581C-2.448,-1.566 -2.443,-1.551 -2.439,-1.536C-2.434,-1.521 -2.428,-1.507 -2.422,-1.493L-2.17,-0.895C-2.153,-0.86 -2.135,-0.826 -2.113,-0.793C-2.005,-0.633 -1.832,-0.418 -1.708,-0.268C-1.693,-0.25 -1.678,-0.232 -1.662,-0.214C-1.466,-0.012 -1.237,0.177 -0.984,0.302C-0.97,0.309 -0.955,0.315 -0.941,0.322C-0.739,0.412 -0.511,0.525 -0.299,0.589C-0.078,0.657 0.424,0.696 0.457,0.698C0.748,0.719 1.052,0.676 1.329,0.587C1.655,0.51 1.938,0.361 2.179,0.14C2.452,-0.036 2.666,-0.27 2.823,-0.561C3.006,-0.848 3.105,-1.158 3.12,-1.491C3.194,-1.823 3.179,-2.156 3.075,-2.488C2.991,-2.687 2.907,-2.886 2.823,-3.085C2.601,-3.461 2.302,-3.76 1.926,-3.982C1.727,-4.066 1.528,-4.15 1.329,-4.234C0.886,-4.353 0.443,-4.353 0,-4.234" style="fill:rgb(35,31,32);fill-rule:nonzero;"/>
                    </g>
                    <g transform="matrix(1,0,0,1,11.5774,50.6285)">
                        <path d="M0,-3.271C-0.013,-3.264 -0.026,-3.257 -0.04,-3.252C0.159,-3.336 0.358,-3.42 0.557,-3.504C0.536,-3.497 0.516,-3.492 0.495,-3.488C0.716,-3.518 0.938,-3.548 1.159,-3.577C1.131,-3.574 1.104,-3.574 1.075,-3.577C1.296,-3.548 1.518,-3.518 1.74,-3.488C1.711,-3.493 1.684,-3.5 1.657,-3.51C1.856,-3.426 2.055,-3.342 2.254,-3.258C2.212,-3.276 2.175,-3.298 2.138,-3.325C2.307,-3.195 2.476,-3.065 2.644,-2.934C2.614,-2.959 2.588,-2.986 2.563,-3.016L2.954,-2.51C2.925,-2.547 2.902,-2.586 2.882,-2.628C2.966,-2.429 3.05,-2.23 3.134,-2.031C3.12,-2.067 3.11,-2.103 3.103,-2.141C3.133,-1.92 3.163,-1.698 3.192,-1.477C3.186,-1.533 3.188,-1.588 3.195,-1.644C3.166,-1.422 3.136,-1.201 3.106,-0.979C3.118,-1.046 3.137,-1.109 3.163,-1.172C3.079,-0.973 2.995,-0.774 2.911,-0.575C2.956,-0.675 3.015,-0.766 3.081,-0.853C2.951,-0.684 2.82,-0.516 2.69,-0.347C2.774,-0.454 2.864,-0.558 2.972,-0.642C2.803,-0.512 2.634,-0.381 2.466,-0.251C2.505,-0.279 2.544,-0.303 2.588,-0.323L1.991,-0.071C2.03,-0.087 2.069,-0.098 2.112,-0.104C1.89,-0.074 1.669,-0.045 1.447,-0.015C1.484,-0.018 1.52,-0.018 1.557,-0.013C1.335,-0.043 1.114,-0.073 0.892,-0.102C0.928,-0.096 0.963,-0.086 0.997,-0.073L0.4,-0.325C0.441,-0.307 0.479,-0.285 0.515,-0.259C0.347,-0.389 0.178,-0.519 0.009,-0.65C0.059,-0.612 0.101,-0.568 0.139,-0.519C0.009,-0.688 -0.121,-0.857 -0.251,-1.025C-0.214,-0.974 -0.183,-0.919 -0.158,-0.86C-0.242,-1.06 -0.326,-1.259 -0.41,-1.458C-0.39,-1.405 -0.375,-1.353 -0.366,-1.298C-0.396,-1.519 -0.426,-1.741 -0.456,-1.962C-0.449,-1.907 -0.448,-1.854 -0.454,-1.798C-0.425,-2.02 -0.395,-2.241 -0.365,-2.463C-0.377,-2.384 -0.399,-2.309 -0.43,-2.236C-0.346,-2.435 -0.261,-2.634 -0.177,-2.833C-0.214,-2.753 -0.259,-2.679 -0.312,-2.608C-0.182,-2.777 -0.052,-2.946 0.079,-3.114C-0.011,-3 -0.116,-2.902 -0.23,-2.813C-0.061,-2.943 0.107,-3.073 0.276,-3.204C0.154,-3.111 0.026,-3.025 -0.114,-2.961L0.483,-3.213C0.418,-3.185 0.353,-3.165 0.283,-3.154C0.504,-3.184 0.726,-3.214 0.947,-3.244C0.907,-3.239 0.869,-3.239 0.829,-3.241C1.05,-3.212 1.272,-3.182 1.493,-3.152C1.459,-3.157 1.428,-3.165 1.396,-3.176C1.595,-3.092 1.794,-3.008 1.993,-2.924C1.953,-2.941 1.918,-2.961 1.884,-2.987C2.052,-2.857 2.221,-2.727 2.39,-2.596C2.364,-2.618 2.342,-2.641 2.321,-2.668C2.451,-2.499 2.582,-2.331 2.712,-2.162C2.698,-2.183 2.687,-2.202 2.676,-2.225C2.76,-2.026 2.844,-1.827 2.928,-1.628C2.919,-1.651 2.913,-1.671 2.908,-1.696C2.938,-1.474 2.968,-1.252 2.998,-1.031C2.995,-1.056 2.995,-1.077 2.997,-1.102C2.968,-0.881 2.938,-0.659 2.908,-0.438L2.913,-0.462C3.017,-0.794 3.032,-1.126 2.958,-1.459C2.943,-1.791 2.844,-2.101 2.661,-2.388C2.504,-2.679 2.289,-2.913 2.017,-3.09C1.776,-3.31 1.492,-3.46 1.167,-3.537C0.945,-3.567 0.724,-3.597 0.502,-3.626C0.051,-3.625 -0.37,-3.511 -0.759,-3.285C-0.928,-3.155 -1.097,-3.024 -1.265,-2.894C-1.575,-2.582 -1.79,-2.214 -1.908,-1.791C-2.02,-1.236 -2.047,-0.92 -1.913,-0.366C-1.853,-0.119 -1.744,0.119 -1.619,0.341C-1.498,0.556 -1.332,0.769 -1.146,0.939C-0.756,1.296 -0.649,1.344 -0.232,1.519C0.185,1.695 0.29,1.736 0.829,1.759C1.1,1.77 1.379,1.718 1.641,1.663C1.701,1.65 1.756,1.631 1.812,1.608C2.038,1.518 2.329,1.415 2.558,1.278C2.821,1.121 3.074,0.906 3.306,0.723C3.398,0.65 3.486,0.572 3.564,0.483C3.758,0.259 3.964,0.025 4.106,-0.239C4.228,-0.468 4.322,-0.712 4.411,-0.955C4.433,-1.013 4.446,-1.073 4.456,-1.134C4.565,-1.772 4.588,-2.025 4.447,-2.673C4.396,-2.905 4.21,-3.27 4.159,-3.384C4.136,-3.435 4.111,-3.483 4.08,-3.53C3.742,-4.031 3.535,-4.235 3.039,-4.576C2.582,-4.891 2.091,-4.963 1.557,-5.013C1.258,-5.041 0.943,-4.993 0.661,-4.892C0.455,-4.819 0.153,-4.714 -0.058,-4.569C-0.228,-4.451 -0.514,-4.248 -0.692,-4.061C-1.155,-3.578 -1.486,-3.058 -1.689,-2.42C-1.698,-2.392 -1.704,-2.365 -1.71,-2.336C-1.732,-2.217 -1.748,-2.097 -1.76,-1.976C-1.777,-1.856 -1.793,-1.736 -1.808,-1.615C-1.83,-1.343 -1.772,-1.036 -1.714,-0.79C-1.598,-0.29 -1.294,0.189 -0.942,0.555C-0.605,0.905 -0.102,1.201 0.369,1.325C0.624,1.392 0.895,1.44 1.159,1.423C1.742,1.385 2.002,1.316 2.524,1.046C2.815,0.889 3.049,0.675 3.225,0.402C3.446,0.161 3.595,-0.122 3.672,-0.448C3.777,-0.78 3.792,-1.112 3.717,-1.445C3.702,-1.777 3.603,-2.087 3.42,-2.374C3.29,-2.543 3.16,-2.711 3.03,-2.88C2.718,-3.19 2.35,-3.404 1.926,-3.523C1.705,-3.553 1.483,-3.583 1.262,-3.612C0.811,-3.611 0.39,-3.497 0,-3.271" style="fill:rgb(35,31,32);fill-rule:nonzero;"/>
                    </g>
                    <g transform="matrix(1,0,0,1,20.6387,42.6834)">
                        <path d="M0,0.16C0.088,-0.092 0.059,-0.033 -0.088,0.336C-0.045,0.246 0.003,0.158 0.054,0.072C0.345,-0.417 0.135,0.095 0.014,0.089C0.064,0.092 0.389,-0.291 0.441,-0.342C0.795,-0.693 0.019,-0.089 0.42,-0.323C0.595,-0.425 0.771,-0.528 0.946,-0.63C1.415,-0.904 0.521,-0.5 0.995,-0.662C1.415,-0.805 1.833,-0.935 2.266,-1.034C2.666,-1.126 3.07,-1.201 3.475,-1.272C3.553,-1.286 3.631,-1.3 3.71,-1.312C3.983,-1.354 3.921,-1.348 3.523,-1.293C3.679,-1.26 3.923,-1.336 4.086,-1.346C4.272,-1.357 4.459,-1.363 4.645,-1.357C4.75,-1.353 4.855,-1.347 4.959,-1.337C4.579,-1.395 4.485,-1.406 4.678,-1.37C4.773,-1.343 5.112,-1.2 5.193,-1.225C4.832,-1.384 4.771,-1.402 5.008,-1.279C5.097,-1.226 5.183,-1.168 5.265,-1.104C5.685,-2.657 6.106,-4.21 6.527,-5.763C5.617,-5.783 4.708,-5.803 3.799,-5.823C2.651,-5.849 1.393,-6.017 0.359,-5.406C-0.865,-4.684 -1.294,-3.325 -1.309,-1.983C-1.321,-0.935 -1.197,0.476 -0.6,1.387C-0.099,2.15 0.625,2.659 1.532,2.781C2.558,2.919 3.407,2.521 4.184,1.889C5.279,0.998 5.81,-0.39 5.407,-1.769C5.135,-2.703 4.314,-3.504 3.368,-3.742C2.336,-4.001 1.32,-3.677 0.541,-2.983C-0.532,-2.029 -0.692,-0.563 -0.419,0.765C-0.336,1.168 -0.172,1.547 -0.035,1.933C0.033,2.125 0.078,2.322 0.14,2.515C0.237,2.821 0.134,1.974 0.107,2.291C0.081,2.61 0.232,1.781 0.156,2.056C0.077,2.345 0.447,1.556 0.277,1.8C0.108,2.045 0.647,1.359 0.456,1.589C0.421,1.631 0.35,1.672 0.325,1.718C0.5,1.391 0.765,1.425 0.474,1.567C0.236,1.684 0.83,1.42 0.786,1.433C0.347,1.567 1.295,1.394 1.028,1.419C0.973,1.424 0.898,1.405 0.846,1.418C1.286,1.496 1.408,1.508 1.212,1.455C1.025,1.399 1.13,1.445 1.525,1.591C0.684,3.03 -0.157,4.469 -0.998,5.908C0.593,6.604 2.256,7.028 4.009,6.945C5.747,6.863 7.412,6.404 8.935,5.559C10.079,4.924 10.552,3.256 9.831,2.138C9.084,0.979 7.635,0.562 6.411,1.241C6.268,1.321 6.124,1.398 5.977,1.471C5.927,1.494 5.878,1.517 5.829,1.541C5.631,1.629 5.63,1.63 5.827,1.544C6.026,1.461 6.024,1.459 5.822,1.538C5.77,1.557 5.719,1.575 5.668,1.593C5.513,1.646 5.357,1.695 5.199,1.738C4.936,1.812 4.669,1.862 4.402,1.918C3.845,2.036 4.985,1.882 4.417,1.917C4.281,1.925 4.146,1.939 4.009,1.945C3.737,1.958 3.464,1.958 3.191,1.944C3.055,1.938 2.919,1.924 2.783,1.915C2.216,1.877 3.355,2.036 2.8,1.914C2.533,1.856 2.266,1.806 2.003,1.731C1.846,1.686 1.69,1.636 1.536,1.582C1.381,1.528 0.893,1.315 1.525,1.591C0.887,1.312 0.3,1.146 -0.401,1.339C-0.981,1.499 -1.609,1.947 -1.895,2.488C-2.492,3.619 -2.249,5.287 -0.998,5.908C0.021,6.415 1.133,6.585 2.231,6.214C3.406,5.816 4.317,5.002 4.799,3.86C5.239,2.816 5.16,1.658 4.786,0.604C4.666,0.265 4.526,-0.068 4.437,-0.417C4.285,-1.015 4.411,0.061 4.439,-0.419C4.435,-0.162 4.37,0.078 4.244,0.301C3.826,0.979 3.13,1.254 2.157,1.124C1.79,0.91 1.422,0.695 1.054,0.481C0.519,-0.165 0.435,-0.895 0.8,-1.708C0.867,-1.793 0.934,-1.878 1.001,-1.963C0.946,-1.905 0.888,-1.85 0.828,-1.798C0.687,-1.673 0.752,-1.723 1.023,-1.949C3.537,-3.623 4.159,0.45 3.784,-1.057C3.742,-1.229 3.669,-1.436 3.674,-1.612C3.688,-1.516 3.703,-1.419 3.717,-1.323C3.706,-1.448 3.698,-1.574 3.693,-1.699C3.688,-1.857 3.689,-2.014 3.696,-2.172C3.721,-2.745 3.63,-1.848 3.683,-2.065C3.739,-2.254 3.697,-2.154 3.558,-1.767C3.238,-1.232 2.814,-0.939 2.284,-0.889C2.046,-0.863 2.032,-0.852 2.24,-0.858C2.305,-0.856 2.37,-0.855 2.435,-0.854C2.63,-0.85 2.824,-0.845 3.019,-0.841C3.409,-0.832 3.799,-0.823 4.188,-0.815C4.968,-0.797 5.747,-0.78 6.527,-0.763C7.579,-0.74 8.699,-1.552 8.937,-2.598C9.201,-3.758 8.727,-4.742 7.788,-5.422C5.789,-6.868 2.985,-6.354 0.764,-5.815C-1.756,-5.203 -3.973,-3.707 -4.821,-1.169C-5.236,0.072 -4.343,1.617 -3.075,1.906C-1.695,2.221 -0.444,1.489 0,0.16" style="fill:rgb(35,31,32);fill-rule:nonzero;"/>
                    </g>
                    <g transform="matrix(1,0,0,1,64.5344,42.5736)">
                        <path d="M0,-3.361C0.212,-3.537 0.19,-3.523 -0.066,-3.319C0.035,-3.392 0.138,-3.461 0.243,-3.528C0.4,-3.629 0.562,-3.722 0.727,-3.809C0.837,-3.867 0.949,-3.923 1.062,-3.975C0.75,-3.849 0.724,-3.837 0.984,-3.939C1.162,-3.998 1.338,-4.064 1.518,-4.118C1.759,-4.189 2.002,-4.249 2.248,-4.299C2.371,-4.324 2.495,-4.347 2.619,-4.367L2.326,-4.329C2.828,-4.459 3.446,-4.41 3.96,-4.393C4.22,-4.385 4.479,-4.369 4.738,-4.345C4.887,-4.332 5.035,-4.316 5.183,-4.298C4.924,-4.334 4.887,-4.338 5.072,-4.311C5.578,-4.216 6.084,-4.134 6.586,-4.018C6.79,-3.971 6.994,-3.921 7.195,-3.861C7.278,-3.837 7.914,-3.567 7.572,-3.745C7.187,-3.946 7.891,-3.578 7.897,-3.543C7.627,-3.766 7.594,-3.787 7.797,-3.607C7.881,-3.526 7.959,-3.438 8.03,-3.346C8.62,-4.768 9.209,-6.191 9.798,-7.613C9.664,-7.6 9.53,-7.598 9.395,-7.607C9.693,-7.558 9.749,-7.553 9.562,-7.591C9.371,-7.656 9.166,-7.692 8.972,-7.755C8.567,-7.885 8.17,-8.048 7.755,-8.149C6.624,-8.426 5.495,-8.426 4.416,-7.97C3.23,-7.47 2.366,-6.388 2.053,-5.143C1.752,-3.944 1.97,-2.726 2.301,-1.56C2.766,0.074 4.533,0.648 5.974,-0.066C8.208,-1.175 9.046,-4.579 6.663,-6.045C4.629,-7.296 2.072,-5.996 1.438,-3.812C1.307,-3.362 1.266,-2.838 1.292,-2.365C1.312,-2.008 1.376,-1.652 1.424,-1.299C1.512,-0.639 1.419,-1.776 1.43,-1.19C1.433,-1.047 1.425,-0.895 1.439,-0.753C1.428,-0.559 1.444,-0.636 1.485,-0.985C1.473,-0.929 1.462,-0.873 1.45,-0.817C1.382,-0.605 1.387,-0.598 1.465,-0.796C1.554,-0.987 1.546,-0.987 1.442,-0.794C1.544,-0.949 2.083,-1.279 1.706,-1.119C1.973,-1.233 2.052,-1.239 1.731,-1.142C1.588,-1.099 1.443,-1.064 1.298,-1.031C1.136,-0.994 0.973,-0.963 0.81,-0.931C0.352,-0.84 1.222,-0.951 0.903,-0.943C0.767,-0.939 0.631,-0.922 0.494,-0.923C-0.128,-0.925 0.489,-0.995 0.528,-0.893C0.453,-0.908 0.38,-0.928 0.308,-0.953C0.125,-1.013 0.211,-0.979 0.564,-0.849C0.834,-0.69 0.879,-0.546 0.62,-0.854C-0.389,0.455 -1.399,1.764 -2.409,3.072C0.719,5.472 5.229,6.121 8.928,4.79C10.156,4.348 11.112,3.068 10.674,1.715C10.284,0.507 8.917,-0.506 7.599,-0.031C7.202,0.112 6.8,0.234 6.387,0.326C6.211,0.365 6.033,0.395 5.856,0.428C5.255,0.54 6.414,0.399 5.804,0.429C5.411,0.448 5.025,0.474 4.631,0.462C4.42,0.456 4.21,0.435 3.999,0.424C3.477,0.397 4.505,0.523 3.947,0.421C3.591,0.356 3.237,0.285 2.888,0.188C2.685,0.132 2.484,0.069 2.284,-0C2.122,-0.056 1.499,-0.178 2.125,-0.045C1.438,-0.191 0.659,-0.827 0.115,-1.245C-0.344,-1.597 -1.283,-1.668 -1.812,-1.497C-2.339,-1.326 -2.77,-1.041 -3.111,-0.601C-3.912,0.437 -3.726,1.713 -2.915,2.681C-1.971,3.808 -0.343,4.197 1.068,4.04C2.557,3.875 4.23,3.559 5.27,2.372C6.476,0.995 6.545,-0.705 6.273,-2.427C6.363,-1.855 6.293,-2.332 6.288,-2.465C6.281,-2.665 6.392,-2.983 6.259,-2.483C6.205,-2.279 6.049,-2.048 5.898,-1.904C5.799,-1.832 5.7,-1.76 5.601,-1.688C5.775,-1.785 5.756,-1.782 5.543,-1.68C5.1,-1.568 4.984,-1.539 4.498,-1.673C3.681,-1.783 3.223,-2.356 3.126,-3.393C3.14,-3.521 3.154,-3.65 3.168,-3.778C3.216,-3.983 3.32,-4.21 3.473,-4.359C3.854,-4.733 3.67,-4.493 3.45,-4.384C4.674,-3.886 5.899,-3.388 7.123,-2.89C7.032,-3.209 6.956,-3.529 6.881,-3.852C6.847,-4.037 6.854,-3.996 6.902,-3.732C6.901,-3.805 6.9,-3.878 6.898,-3.951C6.902,-4.01 6.905,-4.069 6.908,-4.128C6.897,-4.023 6.886,-3.918 6.875,-3.814C6.954,-4.334 6.718,-3.544 6.85,-3.788C6.921,-3.904 6.907,-3.889 6.808,-3.744C6.733,-3.616 6.627,-3.517 6.491,-3.447C6.349,-3.367 6.053,-3.341 6.362,-3.385C6.09,-3.346 5.937,-3.293 6.298,-3.353C6.59,-3.401 5.871,-3.457 6.163,-3.384C6.308,-3.348 6.454,-3.323 6.598,-3.282C6.885,-3.201 7.165,-3.094 7.447,-2.999C8.196,-2.745 9.004,-2.568 9.798,-2.613C10.811,-2.672 11.68,-3.195 12.083,-4.15C12.497,-5.132 12.226,-6.086 11.566,-6.881C10.725,-7.894 9.425,-8.46 8.176,-8.777C6.808,-9.124 5.37,-9.348 3.96,-9.393C1.207,-9.482 -1.425,-8.677 -3.536,-6.897C-4.539,-6.05 -4.473,-4.222 -3.536,-3.361C-2.468,-2.381 -1.07,-2.458 0,-3.361" style="fill:rgb(35,31,32);fill-rule:nonzero;"/>
                    </g>
                    <g transform="matrix(1,0,0,1,37.7531,48.8143)">
                        <path d="M0,-3.421C-0.565,-2.323 -0.603,-1.039 0.094,0.022C0.773,1.054 1.831,1.664 3.065,1.742C3.956,1.798 4.722,1.52 5.532,1.213C5.674,1.16 5.821,1.125 5.964,1.078C6.161,1.035 6.06,1.049 5.661,1.12C5.402,1.114 5.16,1.049 4.934,0.925C4.829,0.848 4.724,0.77 4.619,0.693C4.678,0.752 4.738,0.81 4.8,0.866C5.023,1.064 5.26,1.256 5.522,1.401C6.361,1.867 7.31,1.898 8.24,1.818C9.141,1.741 10.044,1.619 10.932,1.452C12.033,1.246 12.998,0.859 13.601,-0.157C14.248,-1.246 13.988,-2.652 13.348,-3.674C12.654,-4.782 11.086,-5.319 9.927,-4.571C8.818,-3.856 8.287,-2.336 9.03,-1.151C9.043,-1.131 9.144,-0.939 9.155,-0.94C9.114,-0.936 8.956,-1.538 9.04,-1.191C8.862,-1.758 9.079,-2.222 9.694,-2.583C10.568,-3.333 10.782,-3.646 10.338,-3.522C10.234,-3.512 10.124,-3.474 10.021,-3.452C9.799,-3.406 9.575,-3.363 9.351,-3.324C9.211,-3.299 9.071,-3.278 8.931,-3.255C8.594,-3.199 8.952,-3.266 9.088,-3.273C8.612,-3.248 8.139,-3.163 7.661,-3.141C7.57,-3.137 7.471,-3.148 7.382,-3.136C7.112,-3.101 7.892,-3.023 7.638,-3.1C7.433,-3.161 7.538,-3.093 7.954,-2.894C8.335,-2.634 8.446,-2.573 8.29,-2.712C8.225,-2.788 8.137,-2.861 8.062,-2.926C6.864,-3.97 5.359,-4.081 3.919,-3.493C3.685,-3.397 3.448,-3.321 3.209,-3.24C2.891,-3.133 3.247,-3.24 3.389,-3.247C3.048,-3.229 3.445,-3.237 3.568,-3.199C3.622,-3.183 4.11,-2.896 3.851,-3.083C3.958,-3 4.066,-2.917 4.173,-2.835C4.048,-2.969 4.064,-2.944 4.221,-2.757C4.652,-2.218 4.624,-1.493 4.317,-0.897C4.915,-2.059 4.658,-3.664 3.42,-4.318C2.276,-4.923 0.639,-4.663 0,-3.421" style="fill:rgb(35,31,32);fill-rule:nonzero;"/>
                    </g>
                    <g transform="matrix(1,0,0,1,24.3257,31.4073)">
                        <path d="M0,3.547C1.017,3.411 2.04,3.41 3.058,3.538C2.837,3.508 2.615,3.478 2.394,3.448C3.453,3.593 4.481,3.873 5.467,4.288L4.869,4.036C5.339,4.24 5.793,4.472 6.234,4.733C7.36,5.4 9.027,5.025 9.655,3.836C10.291,2.632 9.96,1.127 8.758,0.415C6.166,-1.12 2.998,-1.853 0,-1.453C-0.691,-1.361 -1.254,-1.235 -1.768,-0.721C-2.201,-0.287 -2.528,0.424 -2.5,1.047C-2.471,1.694 -2.259,2.364 -1.768,2.815C-1.317,3.229 -0.638,3.632 0,3.547" style="fill:rgb(35,31,32);fill-rule:nonzero;"/>
                    </g>
                    <g transform="matrix(1,0,0,1,60.7469,26.3217)">
                        <path d="M0,7.387C1.426,7.166 2.432,6.039 3.708,5.479C3.509,5.563 3.31,5.647 3.111,5.731C3.927,5.391 4.784,5.2 5.657,5.078C5.436,5.108 5.214,5.137 4.992,5.167C5.743,5.069 6.498,5.018 7.254,4.973C8.557,4.896 9.817,3.878 9.754,2.473C9.696,1.185 8.652,-0.109 7.254,-0.027C5.714,0.064 4.13,0.165 2.644,0.602C1.858,0.834 1.069,1.154 0.368,1.58C-0.207,1.93 -0.716,2.379 -1.335,2.655C-1.136,2.571 -0.937,2.487 -0.738,2.403C-0.932,2.48 -1.123,2.534 -1.329,2.566C-1.907,2.655 -2.541,3.233 -2.823,3.714C-3.137,4.25 -3.27,5.04 -3.075,5.641C-2.88,6.246 -2.505,6.829 -1.926,7.135C-1.294,7.469 -0.702,7.496 0,7.387" style="fill:rgb(35,31,32);fill-rule:nonzero;"/>
                    </g>
                    <g transform="matrix(1,0,0,1,16.5993,43.7545)">
                        <path d="M0,-3.982C-0.044,-3.97 -0.088,-3.96 -0.134,-3.954C0.088,-3.984 0.309,-4.014 0.531,-4.043C0.446,-4.033 0.362,-4.034 0.277,-4.046C0.499,-4.016 0.721,-3.986 0.942,-3.956C0.852,-3.97 0.765,-3.995 0.68,-4.029L1.278,-3.777C1.188,-3.816 1.104,-3.865 1.026,-3.923C1.195,-3.793 1.364,-3.663 1.532,-3.532C1.455,-3.592 1.387,-3.66 1.327,-3.737C1.457,-3.568 1.587,-3.399 1.718,-3.231C1.666,-3.299 1.623,-3.371 1.589,-3.45L1.842,-2.853C1.811,-2.926 1.79,-3.002 1.779,-3.082C1.808,-2.86 1.838,-2.639 1.868,-2.417C1.867,-2.423 1.866,-2.428 1.866,-2.434C1.879,-2.778 1.807,-3.099 1.65,-3.397C1.55,-3.707 1.377,-3.975 1.133,-4.202C0.907,-4.446 0.639,-4.618 0.329,-4.719C0.031,-4.875 -0.29,-4.947 -0.634,-4.934C-0.856,-4.904 -1.077,-4.875 -1.299,-4.845C-1.722,-4.726 -2.09,-4.512 -2.402,-4.202C-2.532,-4.033 -2.663,-3.865 -2.793,-3.696C-3.019,-3.306 -3.133,-2.885 -3.134,-2.434C-3.103,-2.182 -3.086,-1.919 -3.027,-1.668C-3.018,-1.63 -3.007,-1.592 -2.992,-1.555C-2.913,-1.346 -2.818,-1.13 -2.728,-0.926C-2.719,-0.905 -2.71,-0.885 -2.699,-0.865C-2.681,-0.829 -2.661,-0.795 -2.639,-0.762C-2.484,-0.531 -2.316,-0.298 -2.119,-0.099C-1.917,0.105 -1.678,0.275 -1.442,0.434C-1.291,0.536 -1.113,0.596 -0.947,0.666C-0.784,0.735 -0.615,0.822 -0.437,0.857C-0.185,0.906 0.072,0.937 0.328,0.96C0.367,0.964 0.407,0.965 0.446,0.964C0.741,0.953 1.044,0.92 1.329,0.839C1.655,0.762 1.938,0.613 2.179,0.392C2.452,0.216 2.666,-0.018 2.823,-0.309C3.006,-0.596 3.105,-0.906 3.12,-1.239C3.194,-1.571 3.179,-1.904 3.075,-2.236L2.823,-2.833C2.601,-3.209 2.302,-3.508 1.926,-3.73C1.727,-3.814 1.528,-3.898 1.329,-3.982C0.886,-4.101 0.443,-4.101 0,-3.982" style="fill:rgb(35,31,32);fill-rule:nonzero;"/>
                    </g>
                    <g transform="matrix(1,0,0,1,75.1369,34.2701)">
                        <path d="M0,5.498C0.405,5.575 0.844,5.653 1.263,5.624C1.585,5.602 1.909,5.557 2.226,5.495C2.33,5.475 2.432,5.448 2.533,5.414C2.921,5.284 3.323,5.126 3.671,4.903C3.929,4.737 4.172,4.539 4.406,4.344C4.492,4.273 4.572,4.195 4.646,4.112C4.89,3.886 5.062,3.618 5.163,3.308C5.32,3.01 5.392,2.689 5.379,2.345C5.392,2 5.32,1.679 5.163,1.381C5.062,1.071 4.89,0.803 4.646,0.577L4.14,0.186C3.75,-0.04 3.33,-0.154 2.879,-0.155C2.657,-0.126 2.436,-0.096 2.214,-0.066C1.79,0.053 1.423,0.267 1.111,0.577C1.021,0.676 0.924,0.767 0.819,0.85C0.987,0.72 1.156,0.59 1.325,0.46C1.156,0.589 0.974,0.696 0.778,0.78L1.376,0.528C1.179,0.609 0.975,0.665 0.765,0.696C0.986,0.666 1.208,0.637 1.429,0.607C1.218,0.635 1.007,0.636 0.797,0.609C1.018,0.639 1.24,0.669 1.461,0.699C1.417,0.692 1.373,0.685 1.329,0.677C0.997,0.572 0.665,0.558 0.332,0.632C0,0.647 -0.31,0.746 -0.597,0.929C-0.889,1.086 -1.122,1.3 -1.299,1.573C-1.52,1.814 -1.669,2.097 -1.746,2.423C-1.776,2.644 -1.806,2.866 -1.835,3.087C-1.834,3.539 -1.72,3.959 -1.494,4.349C-1.364,4.518 -1.233,4.686 -1.103,4.855C-0.791,5.165 -0.424,5.379 0,5.498" style="fill:rgb(35,31,32);fill-rule:nonzero;"/>
                    </g>
                    <g transform="matrix(1,0,0,1,44.3946,9.9552)">
                        <path d="M0,-1.631C0.175,-2.268 0.35,-2.905 0.524,-3.542C0.58,-3.743 0.923,-4.524 0.576,-3.879C-2.029,-4.182 -2.893,-3.979 -2.016,-3.27C-1.906,-3.17 -1.798,-3.069 -1.691,-2.966C-1.263,-2.555 -0.858,-2.12 -0.478,-1.664C-0.383,-1.55 -0.29,-1.435 -0.198,-1.318C-0.362,-1.531 -0.359,-1.522 -0.187,-1.292C-0.02,-1.046 0.153,-0.805 0.315,-0.556C1.034,-1.81 1.754,-3.064 2.474,-4.318C-0.756,-4.264 -3.974,-3.927 -7.153,-3.361C-8.182,-3.178 -9.034,-1.968 -8.989,-0.951C-8.935,0.245 -8.224,1.025 -7.153,1.46C-6.51,1.722 -5.866,1.984 -5.223,2.246C-4.901,2.376 -4.58,2.51 -4.258,2.638C-3.947,2.766 -3.936,2.769 -4.226,2.647C-3.713,2.95 -3.938,2.636 -4.902,1.705L-4.902,0.376C-4.481,-0.243 -4.38,-0.42 -4.601,-0.155C-4.672,-0.074 -4.74,0.008 -4.806,0.093C-5.025,0.363 -5.25,0.654 -5.452,0.943C-5.676,1.266 -5.873,1.607 -6.043,1.961C-6.465,2.838 -6.797,3.739 -6.948,4.702C-7.143,5.949 -6.734,7.131 -5.501,7.651C-4.26,8.175 -3.151,7.631 -2.379,6.628C-1.076,4.938 0.226,3.247 1.528,1.557L-3.041,0.959C-1.896,3.84 0.408,6.104 3.481,6.836C4.471,7.071 5.482,6.751 6.109,5.94C6.764,5.091 6.734,4.106 6.304,3.163C5.613,1.645 4.849,0.165 4.01,-1.276C3.512,-0.052 3.014,1.172 2.516,2.396C4.339,1.869 6.107,1.173 7.821,0.359C8.711,-0.064 9.136,-1.227 9.015,-2.132C8.897,-3.01 8.185,-4.073 7.224,-4.21C5.48,-4.459 3.7,-4.626 1.972,-4.966C1.906,-4.98 1.84,-4.994 1.774,-5.008C1.543,-5.081 1.518,-5.082 1.697,-5.013C1.82,-4.975 1.924,-4.905 2.01,-4.805C2.062,-4.733 2.113,-4.661 2.164,-4.589C2.092,-4.63 1.912,-5.151 2.035,-4.802C2.159,-4.45 1.975,-5.028 1.956,-5.091C1.829,-5.51 1.726,-5.936 1.646,-6.367C1.629,-6.46 1.565,-6.994 1.612,-6.529C1.588,-6.766 1.568,-7.004 1.553,-7.243C1.473,-8.545 0.461,-9.806 -0.947,-9.743C-2.232,-9.685 -3.533,-8.64 -3.447,-7.243C-3.309,-5.011 -2.888,-1.856 -0.71,-0.647C0.3,-0.086 1.455,-0.023 2.574,0.137C3.681,0.295 4.788,0.453 5.895,0.611L5.298,-3.958C4.936,-3.787 4.573,-3.619 4.205,-3.461C4.53,-3.6 4.166,-3.447 4.026,-3.392C3.84,-3.318 3.654,-3.246 3.467,-3.176C2.717,-2.895 1.956,-2.648 1.187,-2.425C-0.362,-1.977 -1.127,-0.163 -0.307,1.247C0.531,2.689 1.296,4.169 1.987,5.687C2.928,4.462 3.869,3.238 4.81,2.014C4.565,1.956 4.33,1.876 4.089,1.808C3.828,1.709 3.853,1.723 4.163,1.851C4.049,1.8 3.937,1.745 3.826,1.687C3.603,1.571 3.398,1.429 3.18,1.304C2.758,1.061 3.495,1.597 3.015,1.182C2.849,1.039 2.69,0.888 2.539,0.729C2.452,0.639 2.368,0.546 2.287,0.451C2.112,0.238 2.126,0.259 2.33,0.514C2.163,0.386 2.027,0.063 1.926,-0.118C1.859,-0.238 1.533,-0.993 1.78,-0.37C1.402,-1.322 0.772,-2.017 -0.298,-2.161C-1.375,-2.305 -2.155,-1.79 -2.789,-0.967C-4.091,0.724 -5.394,2.414 -6.696,4.105C-5.173,4.747 -3.65,5.389 -2.127,6.031C-2.06,5.607 -1.969,5.19 -1.835,4.781C-1.778,4.608 -1.583,4.189 -1.772,4.581C-1.679,4.388 -1.584,4.196 -1.478,4.01C-1.371,3.823 -1.25,3.648 -1.134,3.467C-0.829,2.99 -1.346,3.681 -0.996,3.299C-0.331,2.575 0.099,1.717 -0.036,0.708C-0.254,-0.913 -1.432,-1.574 -2.808,-2.134C-3.813,-2.543 -4.819,-2.952 -5.824,-3.361L-5.824,1.46C-5.125,1.336 -4.425,1.227 -3.723,1.123C-3.543,1.098 -3.558,1.1 -3.767,1.129C-3.684,1.118 -3.601,1.108 -3.519,1.097C-3.353,1.077 -3.187,1.057 -3.021,1.038C-2.648,0.995 -2.275,0.956 -1.901,0.92C-0.446,0.783 1.013,0.706 2.474,0.682C4.287,0.651 5.697,-1.447 4.632,-3.08C4.051,-3.971 3.402,-4.827 2.694,-5.62C1.944,-6.46 1.016,-7.504 -0.083,-7.842C-1.581,-8.303 -3.094,-7.652 -3.811,-6.255C-4.327,-5.25 -4.524,-4.043 -4.821,-2.96C-5.167,-1.7 -4.392,-0.185 -3.075,0.115C-1.755,0.416 -0.37,-0.281 0,-1.631" style="fill:rgb(35,31,32);fill-rule:nonzero;"/>
                    </g>
                    <g transform="matrix(1,0,0,1,42.5114,1.9505)">
                        <path d="M0,5C3.217,5 3.223,0 0,0C-3.217,0 -3.223,5 0,5" style="fill:rgb(35,31,32);fill-rule:nonzero;"/>
                    </g>
                    <g transform="matrix(1,0,0,1,47.5987,22.1157)">
                        <path d="M0,1.319C-0.696,-0.553 -1.893,-2.114 -3.641,-3.122L-6.164,1.195C-5.395,1.639 -4.671,2.134 -3.949,2.65C-3.803,2.76 -3.851,2.722 -4.092,2.537C-3.996,2.613 -3.901,2.689 -3.806,2.765C-3.64,2.9 -3.477,3.037 -3.315,3.177C-2.969,3.476 -2.634,3.787 -2.307,4.106C-0.888,5.49 1.247,4.754 1.872,3.003C1.653,3.616 1.784,3.259 1.847,3.106C1.951,2.857 1.472,3.472 1.782,3.178C1.878,3.088 1.966,2.99 2.064,2.902C2.103,2.866 2.143,2.831 2.185,2.798C2.328,2.68 2.266,2.728 1.997,2.942C2.205,2.866 2.414,2.659 2.604,2.541C2.86,2.382 3.118,2.226 3.377,2.072C3.893,1.764 4.416,1.465 4.957,1.204C5.025,1.171 5.518,0.95 5.175,1.097C4.828,1.246 5.384,1.023 5.403,1.017C5.699,0.912 6.001,0.827 6.308,0.755C7.582,0.455 8.459,-1.069 8.054,-2.32C7.858,-2.925 7.483,-3.509 6.905,-3.814C6.271,-4.149 5.682,-4.171 4.978,-4.066C4.266,-3.96 3.53,-3.504 3.044,-2.981C2.373,-2.26 2.102,-1.425 2.006,-0.462C1.876,0.844 3.249,2.095 4.506,2.038C5.971,1.973 6.867,0.937 7.006,-0.462C7.013,-0.197 6.949,0.048 6.813,0.275C6.544,0.585 6.498,0.644 6.675,0.454C6.498,0.636 6.286,0.755 6.039,0.812C6.126,0.782 6.216,0.763 6.308,0.755C5.865,-0.852 5.421,-2.459 4.978,-4.066C3.384,-3.691 1.919,-2.891 0.528,-2.049C-1.024,-1.111 -2.321,-0.089 -2.95,1.674L1.229,0.57C-0.229,-0.851 -1.876,-2.105 -3.641,-3.122C-4.775,-3.775 -6.428,-3.424 -7.061,-2.225C-7.691,-1.033 -7.375,0.498 -6.164,1.195C-6.027,1.275 -5.896,1.359 -5.762,1.444C-5.385,1.681 -6.048,1.181 -5.828,1.386C-5.615,1.585 -5.408,1.779 -5.21,1.993C-4.906,2.32 -5.421,1.667 -5.26,1.921C-5.19,2.032 -5.111,2.138 -5.043,2.25C-4.961,2.386 -4.89,2.525 -4.815,2.665C-4.586,3.092 -5.004,2.157 -4.821,2.648C-4.367,3.87 -3.109,4.835 -1.746,4.394C-0.549,4.007 0.488,2.631 0,1.319" style="fill:rgb(35,31,32);fill-rule:nonzero;"/>
                    </g>
                    <g transform="matrix(1,0,0,1,50.5171,20.3008)">
                        <path d="M0,1.343C-0.35,0.452 -0.7,-0.438 -1.051,-1.329C-1.128,-1.654 -1.277,-1.938 -1.498,-2.179C-1.674,-2.452 -1.908,-2.666 -2.2,-2.823C-2.486,-3.006 -2.796,-3.105 -3.129,-3.12C-3.461,-3.194 -3.794,-3.179 -4.126,-3.075C-4.731,-2.88 -5.314,-2.505 -5.62,-1.926C-5.704,-1.727 -5.788,-1.528 -5.872,-1.329C-5.991,-0.886 -5.991,-0.443 -5.872,0C-5.522,0.891 -5.172,1.781 -4.821,2.672C-4.744,2.998 -4.595,3.281 -4.374,3.522C-4.198,3.795 -3.964,4.009 -3.673,4.166C-3.386,4.349 -3.076,4.448 -2.743,4.463C-2.411,4.537 -2.078,4.522 -1.746,4.418C-1.141,4.223 -0.558,3.848 -0.252,3.269C-0.168,3.07 -0.084,2.871 0,2.672C0.119,2.229 0.119,1.786 0,1.343" style="fill:rgb(35,31,32);fill-rule:nonzero;"/>
                    </g>
                    <g transform="matrix(1,0,0,1,31.0382,43.3954)">
                        <path d="M0,4.402C0.289,4.113 0.577,3.825 0.866,3.536C1.11,3.309 1.282,3.041 1.383,2.731C1.54,2.433 1.611,2.112 1.598,1.768C1.611,1.424 1.54,1.103 1.383,0.805C1.282,0.495 1.11,0.227 0.866,-0C0.698,-0.13 0.529,-0.26 0.36,-0.391C-0.03,-0.617 -0.45,-0.731 -0.902,-0.732C-1.123,-0.702 -1.345,-0.672 -1.566,-0.643C-1.99,-0.524 -2.357,-0.31 -2.669,-0C-2.958,0.289 -3.247,0.578 -3.536,0.866C-3.779,1.093 -3.952,1.361 -4.052,1.671C-4.209,1.969 -4.281,2.29 -4.268,2.634C-4.281,2.978 -4.209,3.3 -4.052,3.597C-3.952,3.907 -3.779,4.176 -3.536,4.402C-3.367,4.532 -3.198,4.663 -3.03,4.793C-2.64,5.019 -2.219,5.133 -1.768,5.134C-1.546,5.104 -1.325,5.075 -1.103,5.045C-0.68,4.926 -0.312,4.712 0,4.402" style="fill:rgb(35,31,32);fill-rule:nonzero;"/>
                    </g>
                    <g transform="matrix(1,0,0,1,19.4943,29.4744)">
                        <path d="M0,5.202C1.321,5.211 2.641,5.159 3.958,5.046C4.302,5.059 4.623,4.988 4.921,4.831C5.231,4.73 5.499,4.558 5.726,4.314C6.159,3.881 6.486,3.169 6.458,2.546C6.429,1.9 6.216,1.229 5.726,0.779C5.261,0.352 4.612,-0.009 3.958,0.046C2.641,0.159 1.321,0.211 0,0.202C-0.638,0.198 -1.317,0.484 -1.768,0.934C-2.201,1.368 -2.528,2.079 -2.5,2.702C-2.471,3.349 -2.259,4.019 -1.768,4.47C-1.277,4.921 -0.679,5.197 0,5.202" style="fill:rgb(35,31,32);fill-rule:nonzero;"/>
                    </g>
                    <g transform="matrix(1,0,0,1,68.9944,25.9927)">
                        <path d="M0,4.977C0.778,4.913 1.56,4.933 2.334,5.036C2.112,5.007 1.891,4.977 1.669,4.947C1.718,4.954 1.766,4.961 1.814,4.968C2.146,5.072 2.479,5.087 2.811,5.012C3.144,4.997 3.453,4.898 3.74,4.716C4.032,4.558 4.266,4.344 4.442,4.072C4.663,3.83 4.812,3.547 4.889,3.222C4.919,3 4.949,2.778 4.979,2.557C4.977,2.106 4.863,1.685 4.637,1.295C4.507,1.126 4.377,0.958 4.246,0.789C3.934,0.479 3.567,0.265 3.143,0.146C2.093,-0.008 1.06,-0.11 0,-0.023C-0.344,-0.036 -0.665,0.036 -0.963,0.192C-1.273,0.293 -1.541,0.465 -1.768,0.709C-2.012,0.936 -2.184,1.204 -2.285,1.514C-2.441,1.812 -2.513,2.133 -2.5,2.477C-2.47,2.699 -2.44,2.92 -2.411,3.142C-2.292,3.565 -2.078,3.933 -1.768,4.245C-1.599,4.375 -1.43,4.505 -1.262,4.636C-0.872,4.862 -0.451,4.976 0,4.977" style="fill:rgb(35,31,32);fill-rule:nonzero;"/>
                    </g>
                    <g transform="matrix(1,0,0,1,98.8638,51.5649)">
                        <path d="M0,-5.323C-0.544,-5.473 -1.091,-5.623 -1.65,-5.708C-2.122,-5.779 -2.601,-5.856 -3.08,-5.863C-3.528,-5.87 -3.984,-5.802 -4.422,-5.73C-5.039,-5.628 -5.667,-5.383 -6.2,-5.064C-6.912,-4.637 -7.51,-4.046 -7.938,-3.334C-8.269,-2.782 -8.36,-2.026 -8.19,-1.407C-8.03,-0.827 -7.581,-0.199 -7.041,0.087C-6.46,0.393 -5.758,0.547 -5.114,0.339C-4.49,0.137 -3.964,-0.238 -3.62,-0.81C-3.568,-0.897 -3.513,-0.979 -3.452,-1.059L-3.843,-0.553C-3.717,-0.709 -3.576,-0.845 -3.419,-0.969C-3.587,-0.839 -3.756,-0.709 -3.925,-0.578C-3.741,-0.714 -3.547,-0.825 -3.339,-0.919L-3.937,-0.667C-3.652,-0.787 -3.36,-0.867 -3.055,-0.915C-3.277,-0.885 -3.498,-0.855 -3.72,-0.825C-3.299,-0.882 -2.878,-0.868 -2.457,-0.817C-2.679,-0.847 -2.9,-0.877 -3.122,-0.906C-2.513,-0.823 -1.921,-0.665 -1.329,-0.502C-0.704,-0.329 0.038,-0.426 0.597,-0.754C1.116,-1.057 1.61,-1.652 1.746,-2.248C1.892,-2.888 1.86,-3.606 1.494,-4.174C1.141,-4.722 0.641,-5.146 0,-5.323" style="fill:rgb(35,31,32);fill-rule:nonzero;"/>
                    </g>
                    <g transform="matrix(1,0,0,1,5.8166,46.8355)">
                        <path d="M0,1.592C0.012,1.545 0.027,1.501 0.044,1.456C-0.04,1.655 -0.124,1.854 -0.208,2.053C-0.175,1.977 -0.135,1.907 -0.086,1.84C-0.216,2.009 -0.346,2.177 -0.477,2.346C-0.418,2.271 -0.352,2.206 -0.279,2.146C-0.447,2.276 -0.616,2.407 -0.785,2.537C-0.698,2.471 -0.605,2.418 -0.506,2.373C-0.705,2.457 -0.904,2.541 -1.103,2.625C-0.99,2.578 -0.874,2.545 -0.752,2.526C-0.974,2.555 -1.195,2.585 -1.417,2.615C-1.295,2.599 -1.174,2.597 -1.051,2.611C-1.273,2.581 -1.494,2.551 -1.716,2.522C-1.6,2.538 -1.49,2.57 -1.38,2.613C-1.58,2.529 -1.779,2.445 -1.978,2.361C-1.837,2.42 -1.708,2.497 -1.587,2.589C-1.755,2.459 -1.924,2.328 -2.093,2.198C-1.95,2.311 -1.825,2.441 -1.714,2.585C-1.844,2.417 -1.974,2.248 -2.105,2.079C-1.978,2.25 -1.873,2.433 -1.788,2.628L-2.04,2.031C-2.023,2.07 -2.008,2.108 -1.993,2.148C-1.915,2.473 -1.766,2.756 -1.545,2.998C-1.369,3.27 -1.135,3.485 -0.844,3.642C-0.557,3.824 -0.247,3.923 0.086,3.938C0.418,4.013 0.75,3.998 1.083,3.894C1.688,3.698 2.271,3.323 2.577,2.745L2.829,2.148C2.948,1.705 2.948,1.262 2.829,0.818C2.688,0.453 2.545,0.065 2.333,-0.27C2.131,-0.59 1.897,-0.903 1.629,-1.172C1.355,-1.447 1.038,-1.702 0.695,-1.886C0.364,-2.064 0.005,-2.232 -0.369,-2.297C-1.062,-2.419 -1.424,-2.421 -2.118,-2.29C-2.475,-2.223 -2.832,-2.06 -3.144,-1.888C-3.952,-1.442 -4.589,-0.631 -4.821,0.263C-4.926,0.595 -4.94,0.927 -4.866,1.26C-4.851,1.592 -4.752,1.902 -4.569,2.189C-4.412,2.481 -4.198,2.714 -3.925,2.891C-3.684,3.112 -3.401,3.261 -3.075,3.338C-2.854,3.368 -2.632,3.398 -2.411,3.427C-1.959,3.426 -1.539,3.312 -1.149,3.086C-0.605,2.736 -0.166,2.232 0,1.592" style="fill:rgb(35,31,32);fill-rule:nonzero;"/>
                    </g>
                    <g transform="matrix(1,0,0,1,41.4465,37.2477)">
                        <path d="M0,-11.747C-1.071,-10.169 -2.071,-8.577 -2.702,-6.764C-3.396,-4.772 -3.43,-2.627 -3.033,-0.573C-2.785,0.713 -1.173,1.566 0.042,1.173C1.413,0.729 2.055,-0.524 1.788,-1.902C1.766,-2.012 1.746,-2.121 1.728,-2.232C1.686,-2.508 1.693,-2.452 1.749,-2.064C1.75,-2.064 1.712,-2.498 1.708,-2.564C1.687,-2.954 1.691,-3.345 1.719,-3.734C1.728,-3.846 1.738,-3.957 1.75,-4.068C1.693,-3.68 1.686,-3.624 1.728,-3.9C1.76,-4.065 1.787,-4.23 1.823,-4.393C1.913,-4.8 2.031,-5.199 2.175,-5.59C2.396,-6.193 1.986,-5.222 2.202,-5.679C2.284,-5.852 2.364,-6.027 2.45,-6.199C2.623,-6.543 2.811,-6.879 3.008,-7.21C3.418,-7.898 3.868,-8.561 4.317,-9.223C5.054,-10.308 4.559,-12.042 3.42,-12.644C2.155,-13.313 0.786,-12.905 0,-11.747" style="fill:rgb(35,31,32);fill-rule:nonzero;"/>
                    </g>
                    <g transform="matrix(1,0,0,1,47.5656,35.945)">
                        <path d="M0,-6.528C0.157,-6.537 0.318,-6.523 0.474,-6.533C0.749,-6.549 0.028,-6.675 0.462,-6.526C0.608,-6.475 0.767,-6.427 0.916,-6.389C1.224,-6.31 0.43,-6.66 0.935,-6.376C1.219,-6.216 1.493,-6.054 1.765,-5.876C2.04,-5.696 1.859,-5.889 1.723,-5.921C1.823,-5.897 2.06,-5.642 2.137,-5.575C2.564,-5.2 2.961,-4.791 3.327,-4.357C3.533,-4.112 3.534,-4.167 3.328,-4.372C3.43,-4.27 3.509,-4.126 3.591,-4.008C3.762,-3.763 3.923,-3.511 4.076,-3.253C4.213,-3.021 4.342,-2.784 4.464,-2.544C4.531,-2.41 4.596,-2.275 4.658,-2.139C4.857,-1.705 4.607,-2.026 4.654,-2.158C4.61,-2.034 4.913,-1.443 4.955,-1.312C5.044,-1.026 5.124,-0.737 5.192,-0.446C5.245,-0.222 5.243,0.242 5.364,0.435C5.3,0.333 5.311,-0.056 5.346,0.304C5.363,0.483 5.381,0.661 5.392,0.84C5.43,1.438 5.416,2.036 5.363,2.633C5.246,3.939 6.596,5.19 7.863,5.133C9.317,5.068 10.238,4.032 10.363,2.633C10.631,-0.374 9.815,-3.535 8.206,-6.083C6.484,-8.81 3.467,-11.718 0,-11.528C-1.304,-11.456 -2.563,-10.429 -2.5,-9.028C-2.442,-7.735 -1.399,-6.451 0,-6.528" style="fill:rgb(35,31,32);fill-rule:nonzero;"/>
                    </g>
                    <g transform="matrix(1,0,0,1,43.1917,33.9409)">
                        <path d="M0,-6.544C0.306,-4.128 0.756,-1.749 1.451,0.587C1.633,1.198 2.046,1.757 2.6,2.081C3.136,2.395 3.926,2.528 4.527,2.333C5.794,1.923 6.672,0.601 6.273,-0.742C5.679,-2.737 5.24,-4.774 4.959,-6.837C4.989,-6.616 5.018,-6.394 5.048,-6.173C5.032,-6.296 5.016,-6.42 5,-6.544C4.913,-7.232 4.779,-7.801 4.268,-8.312C3.834,-8.745 3.123,-9.072 2.5,-9.044C1.853,-9.015 1.183,-8.803 0.732,-8.312C0.317,-7.859 -0.081,-7.184 0,-6.544" style="fill:rgb(35,31,32);fill-rule:nonzero;"/>
                    </g>
                    <g transform="matrix(1,0,0,1,85.7677,41.3531)">
                        <path d="M0,-5.119C-0.008,-5.04 -0.017,-4.961 -0.027,-4.882C0.002,-5.104 0.032,-5.325 0.062,-5.547C-0.026,-4.915 -0.196,-4.303 -0.441,-3.714C-0.357,-3.913 -0.273,-4.112 -0.189,-4.311C-0.44,-3.724 -0.761,-3.176 -1.149,-2.669C-1.018,-2.837 -0.888,-3.006 -0.758,-3.175C-1.134,-2.693 -1.564,-2.262 -2.046,-1.886L-1.54,-2.277C-1.582,-2.245 -1.624,-2.213 -1.667,-2.182C-1.958,-2.025 -2.192,-1.81 -2.369,-1.538C-2.59,-1.296 -2.739,-1.013 -2.816,-0.688C-2.981,-0.089 -2.906,0.708 -2.564,1.239C-2.22,1.772 -1.707,2.242 -1.07,2.388C-0.456,2.528 0.327,2.528 0.856,2.136C1.434,1.707 1.997,1.268 2.474,0.728C2.945,0.195 3.388,-0.385 3.741,-1.004C4.089,-1.614 4.37,-2.276 4.59,-2.942C4.822,-3.647 4.923,-4.383 5,-5.119C5.062,-5.717 4.676,-6.478 4.268,-6.887C3.834,-7.32 3.123,-7.647 2.5,-7.619C1.853,-7.59 1.183,-7.378 0.732,-6.887L0.341,-6.381C0.115,-5.991 0.001,-5.57 0,-5.119" style="fill:rgb(35,31,32);fill-rule:nonzero;"/>
                    </g>
                    <g transform="matrix(1,0,0,1,6.4224,41.7266)">
                        <path d="M0,2.299C0.408,2.711 0.817,3.124 1.225,3.536C1.451,3.78 1.72,3.952 2.03,4.053C2.327,4.209 2.649,4.281 2.993,4.268C3.337,4.281 3.658,4.209 3.956,4.053C4.266,3.952 4.534,3.78 4.76,3.536C4.891,3.367 5.021,3.199 5.151,3.03C5.378,2.64 5.491,2.219 5.493,1.768C5.463,1.547 5.433,1.325 5.403,1.104C5.285,0.68 5.07,0.312 4.76,0C4.352,-0.412 3.944,-0.824 3.536,-1.237C3.309,-1.48 3.041,-1.653 2.731,-1.753C2.433,-1.91 2.112,-1.982 1.768,-1.969C1.424,-1.982 1.102,-1.91 0.805,-1.753C0.495,-1.653 0.226,-1.48 0,-1.237C-0.13,-1.068 -0.261,-0.899 -0.391,-0.731C-0.617,-0.341 -0.731,0.08 -0.732,0.531C-0.702,0.753 -0.673,0.974 -0.643,1.196C-0.524,1.619 -0.31,1.987 0,2.299" style="fill:rgb(35,31,32);fill-rule:nonzero;"/>
                    </g>
                    <g transform="matrix(1,0,0,1,21.3516,53.7369)">
                        <path d="M0,8.304C2.411,7.973 4.872,8.121 7.296,7.967C9.777,7.81 12.229,7.371 14.679,6.97C19.533,6.175 24.44,5.878 29.352,5.703C31.776,5.617 34.203,5.531 36.629,5.5C39.2,5.466 41.759,5.733 44.327,5.713C46.59,5.695 48.954,4.779 51.197,5.09C53.537,5.415 55.901,6.568 58.121,7.344C59.395,7.79 60.856,6.837 61.196,5.598C61.575,4.22 60.729,2.97 59.45,2.523C57.131,1.712 54.758,0.638 52.324,0.239C49.739,-0.184 47.361,0.627 44.799,0.705C42.242,0.783 39.681,0.475 37.121,0.494C34.531,0.514 31.94,0.611 29.352,0.703C24.152,0.888 18.97,1.244 13.829,2.07C11.341,2.47 8.882,2.91 6.359,3.014C3.78,3.122 1.233,3.131 -1.329,3.483C-2.668,3.666 -3.399,5.38 -3.075,6.558C-2.679,8.001 -1.343,8.488 0,8.304" style="fill:rgb(35,31,32);fill-rule:nonzero;"/>
                    </g>
                    <g transform="matrix(1,0,0,1,28.2467,56.8078)">
                        <path d="M0,6.129C8.52,7.763 17.04,6.657 25.566,5.703C29.77,5.232 33.994,4.825 38.229,4.886C42.369,4.945 46.568,5.573 50.583,4.219C53.616,3.196 52.315,-1.634 49.254,-0.602C45.622,0.623 41.745,-0.079 37.995,-0.118C33.838,-0.161 29.693,0.241 25.566,0.703C17.559,1.599 9.337,2.843 1.329,1.308C0.005,1.054 -1.368,1.679 -1.746,3.054C-2.082,4.277 -1.333,5.873 0,6.129" style="fill:rgb(35,31,32);fill-rule:nonzero;"/>
                    </g>
                    <g transform="matrix(1,0,0,1,36.1989,54.3674)">
                        <path d="M0,5.149C-0.274,5.519 0.002,5.15 0.182,5.089C0.427,5.007 0.671,4.918 0.921,4.849C1.642,4.65 2.38,4.498 3.113,4.351C4.579,4.056 6.056,3.837 7.545,3.695C10.66,3.398 13.797,3.371 16.921,3.521C23.176,3.821 29.359,4.838 35.526,5.872C36.856,6.095 38.218,5.522 38.602,4.126C38.931,2.928 38.195,1.275 36.856,1.051C29.791,-0.134 22.682,-1.316 15.509,-1.535C12,-1.641 8.499,-1.481 5.02,-1.006C1.73,-0.556 -2.199,-0.234 -4.317,2.625C-5.122,3.711 -4.496,5.417 -3.42,6.046C-2.148,6.79 -0.806,6.237 0,5.149" style="fill:rgb(35,31,32);fill-rule:nonzero;"/>
                    </g>
                    <g transform="matrix(1,0,0,1,80.6648,56.0411)">
                        <path d="M0,5.652C0.823,5.706 1.659,5.608 2.464,5.446C3.264,5.284 4.039,4.968 4.766,4.605C5.057,4.448 5.291,4.233 5.467,3.961C5.688,3.719 5.837,3.436 5.915,3.111C6.019,2.778 6.034,2.446 5.959,2.114C5.944,1.781 5.845,1.471 5.663,1.184C5.318,0.651 4.806,0.181 4.169,0.035C3.947,0.006 3.725,-0.024 3.504,-0.054C3.053,-0.052 2.632,0.061 2.242,0.287C2.112,0.353 1.98,0.414 1.846,0.471L2.443,0.219C1.886,0.453 1.303,0.613 0.704,0.697C0.926,0.667 1.147,0.637 1.369,0.607C0.914,0.667 0.458,0.682 0,0.652C-0.344,0.639 -0.665,0.711 -0.963,0.867C-1.273,0.968 -1.541,1.14 -1.768,1.384C-2.012,1.611 -2.184,1.879 -2.285,2.189C-2.441,2.487 -2.513,2.808 -2.5,3.152C-2.471,3.799 -2.259,4.469 -1.768,4.92C-1.599,5.05 -1.43,5.18 -1.262,5.311C-0.872,5.537 -0.451,5.651 0,5.652" style="fill:rgb(35,31,32);fill-rule:nonzero;"/>
                    </g>
                    <g transform="matrix(1,0,0,1,19.7231,61.7217)">
                        <path d="M0,-4.704C-0.156,-4.743 -0.312,-4.782 -0.468,-4.821C-0.8,-4.925 -1.132,-4.94 -1.464,-4.866C-1.797,-4.85 -2.107,-4.752 -2.394,-4.569C-2.685,-4.412 -2.919,-4.197 -3.095,-3.925C-3.316,-3.684 -3.466,-3.4 -3.543,-3.075C-3.573,-2.853 -3.602,-2.632 -3.632,-2.41C-3.631,-1.959 -3.517,-1.538 -3.291,-1.148C-3.161,-0.98 -3.03,-0.811 -2.9,-0.642C-2.588,-0.333 -2.22,-0.118 -1.797,-0L-1.329,0.117C-0.997,0.222 -0.665,0.236 -0.332,0.162C0,0.147 0.31,0.048 0.597,-0.135C0.889,-0.292 1.122,-0.506 1.299,-0.779C1.52,-1.02 1.669,-1.303 1.746,-1.629C1.776,-1.85 1.806,-2.072 1.835,-2.293C1.834,-2.745 1.72,-3.165 1.494,-3.555C1.364,-3.724 1.233,-3.892 1.103,-4.061C0.791,-4.371 0.424,-4.585 0,-4.704" style="fill:rgb(35,31,32);fill-rule:nonzero;"/>
                    </g>
                </g>
            </g>
        </g>
    </g>
</svg>
