<?xml version="1.0" encoding="UTF-8" standalone="no"?>
<!DOCTYPE svg PUBLIC "-//W3C//DTD SVG 1.1//EN" "http://www.w3.org/Graphics/SVG/1.1/DTD/svg11.dtd">
<svg width="100%" height="100%" viewBox="0 0 100 100" version="1.1" xmlns="http://www.w3.org/2000/svg" xmlns:xlink="http://www.w3.org/1999/xlink" xml:space="preserve" xmlns:serif="http://www.serif.com/" style="fill-rule:evenodd;clip-rule:evenodd;stroke-linejoin:round;stroke-miterlimit:2;">
    <g transform="matrix(1,0,0,1,-337.5,0)">
        <g id="Page-4" serif:id="Page 4" transform="matrix(1,0,0,1,337.5,0)">
            <rect x="0" y="0" width="100" height="100" style="fill:none;"/>
            <g id="Drawing" transform="matrix(0.938591,0,0,0.938591,4.90526,7.09919)">
                <g transform="matrix(1,0,0,1,19.337,66.8848)">
                    <path d="M0,-32.912C0.661,-24.154 1.541,-15.384 5.676,-7.479C7.631,-3.742 10.146,-0.331 12.801,2.933C14.072,4.495 15.387,6.019 16.716,7.532C18.027,9.024 19.289,10.599 20.858,11.831C22.75,13.316 24.84,13.829 27.202,14.038C29.468,14.239 31.763,14.412 34.039,14.311C38.194,14.126 42.488,12.953 45.47,9.894C48.45,6.839 50.06,2.46 51.461,-1.487C52.918,-5.594 53.973,-9.83 54.9,-14.084C57.117,-24.249 59.684,-34.819 57.964,-45.248C57.744,-46.581 56.092,-47.324 54.889,-46.994C53.474,-46.605 52.922,-45.256 53.143,-43.918C54.502,-35.677 52.534,-27.282 50.883,-19.235C49.315,-11.592 47.694,-3.598 44.001,3.353C43.247,4.771 42.361,6.172 41.062,7.155C39.721,8.17 38.098,8.719 36.466,9.045C34.585,9.42 32.619,9.375 30.712,9.282C28.899,9.193 26.679,9.306 24.982,8.573C23.501,7.934 22.427,6.46 21.39,5.287C20.152,3.888 18.919,2.485 17.714,1.058C15.312,-1.788 13.038,-4.746 11.137,-7.954C6.597,-15.614 5.658,-24.202 5,-32.912C4.898,-34.258 3.924,-35.412 2.5,-35.412C1.226,-35.412 -0.102,-34.266 0,-32.912" style="fill:rgb(35,31,32);fill-rule:nonzero;"/>
                </g>
                <g transform="matrix(1,0,0,1,51.0795,48.9631)">
                    <path d="M0,-2.783C-0.221,-2.706 -0.441,-2.651 -0.672,-2.614C-0.45,-2.644 -0.229,-2.674 -0.007,-2.704C-0.335,-2.665 -0.649,-2.668 -0.976,-2.711C-0.754,-2.681 -0.533,-2.651 -0.311,-2.622C-0.588,-2.67 -0.849,-2.745 -1.11,-2.851C-0.911,-2.767 -0.712,-2.683 -0.512,-2.599C-1.451,-3.032 -2.283,-3.485 -3.362,-3.431C-4.048,-3.396 -4.705,-3.3 -5.394,-3.38C-5.173,-3.35 -4.951,-3.32 -4.73,-3.291C-5.063,-3.341 -5.379,-3.42 -5.691,-3.548L-5.094,-3.296C-5.242,-3.364 -5.378,-3.445 -5.521,-3.523C-5.886,-3.724 -5.085,-3.111 -5.395,-3.427C-5.44,-3.467 -5.482,-3.51 -5.522,-3.554C-5.652,-3.697 -5.585,-3.605 -5.32,-3.278C-5.383,-3.419 -5.487,-3.548 -5.552,-3.692C-5.468,-3.493 -5.384,-3.294 -5.3,-3.095L-5.343,-3.207C-5.581,-3.831 -5.896,-4.352 -6.492,-4.701C-7.028,-5.014 -7.817,-5.147 -8.418,-4.953C-9.607,-4.568 -10.663,-3.186 -10.164,-1.877C-9.873,-1.112 -9.511,-0.407 -8.886,0.148C-8.247,0.716 -7.604,1.08 -6.796,1.361C-6.12,1.595 -5.348,1.67 -4.635,1.663C-4.042,1.657 -3.446,1.514 -2.854,1.59C-3.076,1.56 -3.297,1.53 -3.519,1.5C-3.421,1.517 -3.327,1.543 -3.235,1.578C-3.434,1.494 -3.633,1.41 -3.832,1.326C-2.983,1.686 -2.238,2.119 -1.308,2.244C-0.421,2.364 0.472,2.335 1.329,2.038C2.562,1.612 3.51,0.306 3.075,-1.037C2.68,-2.258 1.323,-3.241 0,-2.783" style="fill:rgb(35,31,32);fill-rule:nonzero;"/>
                </g>
                <g transform="matrix(1,0,0,1,51.613,42.5322)">
                    <path d="M0,7.132C0.386,7.218 0.783,7.267 1.176,7.305C1.362,7.324 1.55,7.329 1.736,7.316C2.034,7.296 2.332,7.248 2.626,7.203C2.72,7.188 2.813,7.17 2.905,7.146C2.99,7.124 3.073,7.096 3.155,7.064C3.429,6.958 3.711,6.851 3.971,6.71C4.049,6.668 4.123,6.62 4.194,6.569C4.419,6.406 4.657,6.241 4.857,6.045C4.909,5.993 4.956,5.938 5.002,5.88C5.175,5.663 5.365,5.447 5.506,5.205C5.595,5.053 5.656,4.885 5.724,4.724C5.794,4.559 5.874,4.392 5.923,4.218C5.943,4.148 5.957,4.077 5.968,4.005C6.013,3.723 6.071,3.431 6.072,3.143C6.073,3.099 6.071,3.055 6.067,3.012C6.044,2.76 6.01,2.499 5.965,2.251C5.951,2.171 5.931,2.095 5.903,2.018C5.822,1.795 5.723,1.56 5.62,1.347C5.601,1.309 5.581,1.271 5.558,1.234C5.486,1.118 5.388,1.005 5.308,0.901C5.216,0.783 5.129,0.657 5.025,0.548C4.799,0.304 4.531,0.132 4.221,0.031C3.923,-0.126 3.602,-0.197 3.258,-0.184C2.913,-0.197 2.592,-0.126 2.294,0.031C1.985,0.132 1.716,0.304 1.49,0.548C1.053,1.024 0.728,1.65 0.758,2.316C0.787,2.537 0.817,2.759 0.847,2.98C0.966,3.404 1.18,3.771 1.49,4.083C1.52,4.115 1.549,4.149 1.577,4.183C1.446,4.015 1.316,3.846 1.186,3.677C1.237,3.747 1.28,3.821 1.316,3.9L1.064,3.303C1.105,3.403 1.133,3.505 1.149,3.612C1.119,3.39 1.089,3.169 1.06,2.947C1.076,3.079 1.075,3.209 1.058,3.341C1.087,3.119 1.117,2.897 1.147,2.676C1.125,2.821 1.085,2.961 1.029,3.096L1.281,2.499C1.225,2.624 1.158,2.741 1.076,2.851C1.206,2.682 1.336,2.513 1.467,2.345C1.383,2.452 1.289,2.547 1.181,2.63C1.35,2.5 1.519,2.37 1.687,2.239C1.556,2.336 1.416,2.415 1.266,2.48L1.863,2.228C1.674,2.305 1.478,2.355 1.276,2.385C1.498,2.355 1.719,2.325 1.941,2.295C1.638,2.335 1.334,2.328 1.031,2.288C1.253,2.318 1.474,2.348 1.696,2.378C1.573,2.36 1.451,2.338 1.329,2.311C0.997,2.206 0.665,2.192 0.332,2.266C0,2.281 -0.31,2.38 -0.597,2.563C-0.889,2.72 -1.122,2.934 -1.299,3.207C-1.52,3.448 -1.669,3.731 -1.746,4.057C-1.776,4.278 -1.806,4.5 -1.835,4.721C-1.834,5.173 -1.72,5.593 -1.494,5.983C-1.151,6.516 -0.637,6.99 0,7.132" style="fill:rgb(35,31,32);fill-rule:nonzero;"/>
                </g>
                <g transform="matrix(1,0,0,1,60.6369,62.3804)">
                    <path d="M0,-5.239C-1.809,-5.809 -3.554,-6.132 -5.443,-5.79C-6.802,-5.543 -8.29,-6.174 -9.84,-6.073C-11.35,-5.974 -12.729,-5.523 -14.132,-4.995C-14.767,-4.756 -15.403,-4.514 -16.058,-4.333C-16.148,-4.308 -17.074,-4.101 -16.696,-4.158C-17.046,-4.105 -17.405,-4.115 -17.758,-4.131C-19.108,-4.191 -20.258,-2.939 -20.258,-1.631C-20.258,-0.227 -19.112,0.809 -17.758,0.869C-16.275,0.935 -14.825,0.567 -13.443,0.065C-12.844,-0.153 -12.252,-0.391 -11.649,-0.598C-11.127,-0.777 -10.222,-1.038 -9.904,-1.075C-9.552,-1.116 -8.793,-1.034 -8.272,-0.945C-7.428,-0.802 -6.582,-0.662 -5.724,-0.731C-4.909,-0.796 -4.252,-1.014 -3.502,-0.967C-2.829,-0.924 -2.042,-0.642 -1.329,-0.418C-0.042,-0.012 1.398,-0.896 1.746,-2.164C2.116,-3.509 1.292,-4.832 0,-5.239" style="fill:rgb(35,31,32);fill-rule:nonzero;"/>
                </g>
                <g transform="matrix(1,0,0,1,49.0132,64.2636)">
                    <path d="M0,4.872C1.478,5.012 2.964,5.057 4.448,5.004C5.103,4.981 5.746,4.741 6.216,4.272C6.649,3.839 6.976,3.127 6.948,2.504C6.919,1.858 6.707,1.187 6.216,0.737C5.736,0.297 5.116,-0.019 4.448,0.004C2.964,0.057 1.478,0.012 0,-0.128C-0.602,-0.185 -1.356,0.192 -1.768,0.604C-2.201,1.038 -2.528,1.749 -2.5,2.372C-2.471,3.019 -2.259,3.689 -1.768,4.14C-1.599,4.27 -1.43,4.4 -1.262,4.531C-0.872,4.757 -0.451,4.871 0,4.872" style="fill:rgb(35,31,32);fill-rule:nonzero;"/>
                </g>
                <g transform="matrix(1,0,0,1,42.3162,36.0608)">
                    <path d="M0,-6.019C0.065,-4.012 0.027,-2.003 -0.115,0.001C-0.158,0.613 0.195,1.346 0.617,1.768C1.051,2.202 1.762,2.528 2.385,2.501C3.032,2.472 3.702,2.259 4.153,1.768C4.619,1.26 4.836,0.692 4.885,0.001C5.027,-2.003 5.065,-4.012 5,-6.019C4.979,-6.673 4.736,-7.319 4.268,-7.787C3.834,-8.22 3.123,-8.547 2.5,-8.519C1.853,-8.49 1.183,-8.278 0.732,-7.787C0.292,-7.307 -0.022,-6.688 0,-6.019" style="fill:rgb(35,31,32);fill-rule:nonzero;"/>
                </g>
                <g transform="matrix(1,0,0,1,50.4402,32.551)">
                    <path d="M0,-3.294C-0.055,-2.516 0.036,-1.762 0.151,-0.992C0.235,-0.43 0.384,0.119 0.592,0.647C0.669,0.973 0.818,1.256 1.039,1.498C1.215,1.77 1.449,1.984 1.741,2.142C2.028,2.324 2.337,2.423 2.67,2.438C3.002,2.513 3.335,2.498 3.667,2.394C4.272,2.198 4.856,1.823 5.161,1.245L5.413,0.647C5.532,0.204 5.532,-0.239 5.413,-0.682C5.194,-1.239 5.043,-1.817 4.959,-2.41C4.989,-2.188 5.019,-1.967 5.049,-1.745C4.98,-2.259 4.964,-2.777 5,-3.294C5.013,-3.638 4.941,-3.959 4.785,-4.257C4.684,-4.567 4.512,-4.835 4.268,-5.062C4.041,-5.306 3.773,-5.478 3.463,-5.579C3.165,-5.735 2.844,-5.807 2.5,-5.794C1.853,-5.765 1.183,-5.553 0.732,-5.062L0.341,-4.556C0.115,-4.166 0.001,-3.745 0,-3.294" style="fill:rgb(35,31,32);fill-rule:nonzero;"/>
                </g>
                <g transform="matrix(1,0,0,1,36.7205,36.114)">
                    <path d="M0,-7.987C-1.962,-8.176 -4.042,-8.167 -5.929,-7.531C-7.912,-6.862 -9.626,-5.666 -10.757,-3.884C-11.458,-2.778 -11.024,-1.078 -9.86,-0.463C-8.625,0.189 -7.188,-0.179 -6.439,-1.36C-6.38,-1.454 -6.316,-1.543 -6.256,-1.636C-6.095,-1.885 -6.648,-1.191 -6.362,-1.494C-6.211,-1.655 -6.067,-1.818 -5.903,-1.967C-5.822,-2.042 -5.735,-2.11 -5.653,-2.183C-5.447,-2.366 -6.189,-1.821 -5.789,-2.071C-5.601,-2.19 -5.419,-2.315 -5.225,-2.423C-5.097,-2.494 -4.766,-2.743 -4.626,-2.72C-4.661,-2.726 -5.192,-2.5 -4.852,-2.619C-4.747,-2.656 -4.643,-2.695 -4.537,-2.73C-4.035,-2.894 -3.52,-3.002 -2.998,-3.078C-3.219,-3.048 -3.441,-3.018 -3.663,-2.989C-2.444,-3.147 -1.22,-3.105 0,-2.987C0.601,-2.929 1.356,-3.308 1.768,-3.719C2.201,-4.153 2.528,-4.864 2.5,-5.487C2.471,-6.134 2.259,-6.804 1.768,-7.255C1.253,-7.727 0.694,-7.92 0,-7.987" style="fill:rgb(35,31,32);fill-rule:nonzero;"/>
                </g>
                <g transform="matrix(1,0,0,1,34.8688,30.5504)">
                    <path d="M0,4.506C0.739,4.611 1.478,4.716 2.217,4.821C2.549,4.925 2.881,4.94 3.214,4.865C3.546,4.85 3.856,4.751 4.143,4.569C4.435,4.412 4.668,4.197 4.845,3.925C5.066,3.683 5.215,3.4 5.292,3.075C5.322,2.853 5.352,2.632 5.381,2.41C5.38,1.959 5.266,1.538 5.04,1.148C4.91,0.98 4.78,0.811 4.649,0.642C4.337,0.332 3.97,0.118 3.546,-0.001C2.807,-0.106 2.068,-0.21 1.329,-0.315C0.997,-0.42 0.665,-0.434 0.332,-0.36C0,-0.345 -0.31,-0.246 -0.597,-0.063C-0.889,0.094 -1.122,0.308 -1.299,0.581C-1.52,0.822 -1.669,1.105 -1.746,1.431C-1.776,1.652 -1.806,1.874 -1.835,2.095C-1.834,2.547 -1.72,2.967 -1.494,3.357C-1.364,3.526 -1.233,3.694 -1.103,3.863C-0.791,4.173 -0.424,4.387 0,4.506" style="fill:rgb(35,31,32);fill-rule:nonzero;"/>
                </g>
                <g transform="matrix(1,0,0,1,35.0084,38.0321)">
                    <path d="M0,-5.26C-0.129,-5.267 -0.259,-5.266 -0.388,-5.257C-0.727,-5.233 -1.066,-5.185 -1.4,-5.123C-1.855,-5.038 -2.28,-4.838 -2.7,-4.651C-2.992,-4.494 -3.226,-4.28 -3.402,-4.008C-3.623,-3.766 -3.772,-3.483 -3.849,-3.157C-3.953,-2.825 -3.968,-2.493 -3.894,-2.16C-3.879,-1.828 -3.78,-1.518 -3.597,-1.231C-3.467,-1.062 -3.337,-0.894 -3.206,-0.725C-2.894,-0.415 -2.527,-0.201 -2.103,-0.082C-1.882,-0.052 -1.66,-0.022 -1.439,0.007C-0.987,0.006 -0.567,-0.108 -0.177,-0.334C-0.153,-0.345 -0.129,-0.355 -0.105,-0.365C-0.305,-0.281 -0.504,-0.197 -0.703,-0.113C-0.447,-0.219 -0.179,-0.291 0.096,-0.328C-0.126,-0.298 -0.347,-0.268 -0.569,-0.239C-0.38,-0.262 -0.19,-0.27 0,-0.26C0.344,-0.247 0.665,-0.319 0.963,-0.475C1.273,-0.576 1.541,-0.748 1.768,-0.992C2.012,-1.219 2.184,-1.487 2.285,-1.797C2.441,-2.095 2.513,-2.416 2.5,-2.76C2.47,-2.982 2.44,-3.203 2.411,-3.425C2.292,-3.848 2.078,-4.216 1.768,-4.528C1.599,-4.658 1.43,-4.788 1.262,-4.919C0.872,-5.145 0.451,-5.259 0,-5.26" style="fill:rgb(35,31,32);fill-rule:nonzero;"/>
                </g>
                <g transform="matrix(1,0,0,1,27.6699,33.39)">
                    <path d="M0,-4.323C-0.01,-4.322 -0.021,-4.32 -0.031,-4.319C0.19,-4.348 0.412,-4.378 0.633,-4.408C0.414,-4.38 0.193,-4.38 -0.027,-4.408C0.195,-4.379 0.417,-4.349 0.638,-4.319C0.408,-4.351 0.185,-4.412 -0.029,-4.502L0.568,-4.249C0.374,-4.333 0.193,-4.438 0.025,-4.566C0.193,-4.435 0.362,-4.305 0.531,-4.175C0.514,-4.188 0.497,-4.201 0.481,-4.214C0.255,-4.458 -0.013,-4.63 -0.323,-4.731C-0.621,-4.887 -0.942,-4.959 -1.287,-4.946C-1.631,-4.959 -1.952,-4.887 -2.25,-4.731C-2.56,-4.63 -2.828,-4.458 -3.054,-4.214C-3.185,-4.045 -3.315,-3.876 -3.445,-3.708C-3.671,-3.318 -3.785,-2.897 -3.787,-2.446C-3.757,-2.224 -3.727,-2.003 -3.697,-1.781C-3.579,-1.358 -3.364,-0.99 -3.054,-0.678C-2.759,-0.442 -2.456,-0.179 -2.113,-0.005C-1.85,0.128 -1.573,0.236 -1.3,0.344C-1.212,0.379 -1.122,0.409 -1.031,0.434C-0.945,0.457 -0.857,0.476 -0.769,0.491C-0.472,0.54 -0.171,0.586 0.13,0.608C0.531,0.636 0.935,0.554 1.329,0.498C1.655,0.421 1.938,0.272 2.179,0.051C2.452,-0.125 2.666,-0.359 2.823,-0.65C3.006,-0.937 3.105,-1.247 3.12,-1.58C3.194,-1.912 3.179,-2.245 3.075,-2.577L2.823,-3.174C2.601,-3.55 2.302,-3.849 1.926,-4.071L1.329,-4.323C0.886,-4.442 0.443,-4.442 0,-4.323" style="fill:rgb(35,31,32);fill-rule:nonzero;"/>
                </g>
                <g transform="matrix(1,0,0,1,32.5515,29.7689)">
                    <path d="M0,-0.84C-0.026,-0.893 -0.051,-0.946 -0.074,-1L0.178,-0.403C0.091,-0.611 0.033,-0.829 0.003,-1.053C0.032,-0.831 0.062,-0.609 0.092,-0.388C0.065,-0.602 0.065,-0.817 0.091,-1.032C0.061,-0.81 0.032,-0.589 0.002,-0.367C0.014,-0.455 0.03,-0.541 0.05,-0.627C0.154,-0.959 0.169,-1.292 0.094,-1.624C0.079,-1.957 -0.02,-2.267 -0.202,-2.554C-0.359,-2.845 -0.574,-3.079 -0.846,-3.255C-1.088,-3.476 -1.371,-3.625 -1.696,-3.702C-1.918,-3.732 -2.139,-3.762 -2.361,-3.792C-2.812,-3.79 -3.233,-3.677 -3.623,-3.45C-3.791,-3.32 -3.96,-3.19 -4.129,-3.06C-4.439,-2.748 -4.653,-2.38 -4.772,-1.956C-4.856,-1.597 -4.904,-1.225 -4.925,-0.857C-4.934,-0.705 -4.928,-0.553 -4.91,-0.402C-4.869,-0.055 -4.837,0.333 -4.733,0.678C-4.629,1.025 -4.48,1.361 -4.317,1.684C-4.16,1.975 -3.946,2.209 -3.673,2.385C-3.432,2.606 -3.149,2.755 -2.823,2.832C-2.491,2.937 -2.159,2.952 -1.826,2.877C-1.494,2.862 -1.184,2.763 -0.897,2.58C-0.728,2.45 -0.56,2.32 -0.391,2.19C-0.081,1.878 0.133,1.51 0.252,1.086C0.282,0.865 0.312,0.643 0.341,0.422C0.34,-0.029 0.226,-0.45 0,-0.84" style="fill:rgb(35,31,32);fill-rule:nonzero;"/>
                </g>
                <g transform="matrix(1,0,0,1,62.5206,28.0516)">
                    <path d="M0,3.31C0.012,3.281 0.023,3.252 0.035,3.223L-0.217,3.82C-0.191,3.764 -0.159,3.713 -0.12,3.665C-0.25,3.834 -0.381,4.003 -0.511,4.171C-0.472,4.124 -0.429,4.08 -0.381,4.041C-0.55,4.171 -0.719,4.302 -0.887,4.432C-0.757,4.332 -0.621,4.258 -0.471,4.192L-1.068,4.444C-0.338,4.155 0.441,3.964 1.192,3.733C1.931,3.506 2.667,3.266 3.435,3.153C3.213,3.182 2.991,3.212 2.77,3.242C3.135,3.196 3.497,3.182 3.863,3.22C3.642,3.191 3.42,3.161 3.199,3.131C3.481,3.172 3.743,3.241 4.006,3.352L3.409,3.1C3.446,3.118 3.482,3.135 3.519,3.153C4.136,3.447 4.766,3.592 5.446,3.405C6.025,3.245 6.654,2.797 6.94,2.256C7.529,1.141 7.303,-0.563 6.043,-1.165C5.072,-1.628 4.039,-1.892 2.954,-1.78C2.026,-1.684 1.156,-1.485 0.267,-1.212C-0.497,-0.978 -1.264,-0.748 -2.027,-0.507C-2.474,-0.365 -2.944,-0.203 -3.337,0.058C-4.081,0.552 -4.496,1.159 -4.821,1.981C-5.045,2.546 -4.863,3.405 -4.569,3.907C-4.266,4.426 -3.671,4.92 -3.075,5.056C-2.435,5.202 -1.717,5.17 -1.149,4.804C-0.569,4.43 -0.252,3.948 0,3.31" style="fill:rgb(35,31,32);fill-rule:nonzero;"/>
                </g>
                <g transform="matrix(1,0,0,1,64.8581,31.3695)">
                    <path d="M0,-0.256L0.154,0.393C0.203,0.6 0.266,0.809 0.298,1.019C0.268,0.798 0.238,0.576 0.208,0.354C0.211,0.379 0.212,0.404 0.21,0.428C0.24,0.207 0.27,-0.015 0.3,-0.236C0.298,-0.212 0.292,-0.188 0.283,-0.165L0.535,-0.762C0.528,-0.745 0.519,-0.729 0.509,-0.714L0.899,-1.22C0.889,-1.206 0.877,-1.194 0.864,-1.183C1.032,-1.313 1.201,-1.443 1.37,-1.574C1.347,-1.557 1.327,-1.546 1.302,-1.535L1.899,-1.787C1.872,-1.777 1.847,-1.771 1.819,-1.766C2.04,-1.796 2.262,-1.826 2.483,-1.856C2.433,-1.85 2.384,-1.851 2.334,-1.856C2.555,-1.826 2.777,-1.796 2.999,-1.766C2.837,-1.788 2.683,-1.853 2.533,-1.915L3.13,-1.663C2.787,-1.81 2.465,-1.999 2.169,-2.228L2.675,-1.837C2.462,-2.004 2.266,-2.19 2.088,-2.393C1.861,-2.637 1.593,-2.809 1.283,-2.91C0.985,-3.066 0.664,-3.138 0.32,-3.125C-0.024,-3.138 -0.345,-3.066 -0.643,-2.91C-0.953,-2.809 -1.221,-2.637 -1.448,-2.393C-1.578,-2.224 -1.709,-2.056 -1.839,-1.887C-2.065,-1.497 -2.179,-1.076 -2.18,-0.625C-2.15,-0.404 -2.121,-0.182 -2.091,0.039C-1.972,0.463 -1.758,0.831 -1.448,1.143C-1.055,1.59 -0.567,1.967 -0.073,2.291C0.089,2.397 0.257,2.492 0.431,2.575C0.695,2.701 0.969,2.811 1.24,2.921C1.332,2.958 1.425,2.996 1.52,3.024C2.056,3.183 2.691,3.194 3.228,3.035C3.879,2.842 4.491,2.41 4.826,1.809C4.837,1.794 4.846,1.778 4.853,1.761L5.105,1.164C5.168,0.913 5.211,0.651 5.211,0.392C5.211,-0.031 5.089,-0.458 4.991,-0.869C4.935,-1.108 4.878,-1.346 4.821,-1.585C4.744,-1.911 4.595,-2.194 4.374,-2.435C4.198,-2.708 3.964,-2.922 3.673,-3.079C3.386,-3.262 3.076,-3.361 2.743,-3.376C2.411,-3.45 2.078,-3.435 1.746,-3.331L1.149,-3.079C0.773,-2.857 0.474,-2.558 0.252,-2.182L0,-1.585C-0.119,-1.142 -0.119,-0.699 0,-0.256" style="fill:rgb(35,31,32);fill-rule:nonzero;"/>
                </g>
                <g transform="matrix(1,0,0,1,68.7965,25.2392)">
                    <path d="M0,4.73C0.532,3.995 1.064,3.259 1.595,2.524C1.778,2.237 1.877,1.927 1.892,1.594C1.966,1.262 1.952,0.93 1.847,0.597C1.77,0.272 1.621,-0.011 1.4,-0.253C1.224,-0.525 0.99,-0.74 0.698,-0.897L0.101,-1.149C-0.342,-1.268 -0.785,-1.268 -1.228,-1.149C-1.427,-1.065 -1.626,-0.981 -1.825,-0.897C-2.201,-0.674 -2.5,-0.375 -2.722,0C-3.254,0.736 -3.786,1.471 -4.317,2.206C-4.5,2.493 -4.599,2.803 -4.614,3.136C-4.688,3.468 -4.674,3.801 -4.569,4.133C-4.492,4.458 -4.343,4.742 -4.122,4.983C-3.946,5.255 -3.712,5.47 -3.42,5.627L-2.823,5.879C-2.38,5.998 -1.937,5.998 -1.494,5.879L-0.897,5.627C-0.521,5.405 -0.222,5.106 0,4.73" style="fill:rgb(35,31,32);fill-rule:nonzero;"/>
                </g>
                <g transform="matrix(1,0,0,1,67.5941,25.1783)">
                    <path d="M0,1.591C0.034,1.323 0.043,1.053 0.024,0.784C0,0.442 -0.052,0.1 -0.106,-0.238C-0.127,-0.376 -0.157,-0.512 -0.192,-0.648C-0.27,-0.973 -0.419,-1.256 -0.64,-1.498C-0.816,-1.77 -1.05,-1.985 -1.341,-2.142C-1.628,-2.324 -1.938,-2.423 -2.271,-2.438C-2.603,-2.513 -2.935,-2.498 -3.268,-2.394L-3.865,-2.142C-4.24,-1.919 -4.539,-1.62 -4.762,-1.245C-4.846,-1.046 -4.93,-0.847 -5.014,-0.648C-5.133,-0.205 -5.133,0.239 -5.014,0.682C-4.971,0.846 -4.937,1.012 -4.914,1.181C-4.944,0.959 -4.974,0.737 -5.003,0.516C-4.956,0.873 -4.955,1.234 -5,1.591C-5.013,1.935 -4.941,2.256 -4.785,2.554C-4.684,2.864 -4.512,3.132 -4.268,3.359C-4.041,3.603 -3.773,3.775 -3.463,3.876C-3.165,4.032 -2.844,4.104 -2.5,4.091C-2.278,4.061 -2.057,4.031 -1.835,4.002C-1.412,3.883 -1.044,3.669 -0.732,3.359L-0.341,2.853C-0.115,2.463 -0.001,2.042 0,1.591" style="fill:rgb(35,31,32);fill-rule:nonzero;"/>
                </g>
                <g transform="matrix(1,0,0,1,41.263,19.6948)">
                    <path d="M0,0.065C-4.757,-1.497 -9.495,-3.115 -14.214,-4.791C-15.448,-5.23 -17.004,-4.296 -17.289,-3.045C-17.608,-1.644 -16.864,-0.439 -15.543,0.03C-10.825,1.706 -6.086,3.325 -1.329,4.886C-0.086,5.295 1.456,4.413 1.746,3.14C2.059,1.766 1.331,0.502 0,0.065" style="fill:rgb(35,31,32);fill-rule:nonzero;"/>
                </g>
                <g transform="matrix(1,0,0,1,58.4032,11.9052)">
                    <path d="M0,11.043C2.298,9.847 4.623,8.705 6.977,7.621C9.415,6.499 11.402,5.645 13.769,4.696C14.978,4.211 15.963,3.006 15.515,1.621C15.136,0.451 13.739,-0.647 12.44,-0.125C7.345,1.919 2.347,4.192 -2.524,6.726C-3.686,7.33 -4.127,9.05 -3.42,10.146C-2.657,11.33 -1.243,11.69 0,11.043" style="fill:rgb(35,31,32);fill-rule:nonzero;"/>
                </g>
                <g transform="matrix(1,0,0,1,22.731,67.4133)">
                    <path d="M0,-27.554C-2.026,-28.666 -4.194,-29.768 -6.564,-29.76C-8.819,-29.753 -11.194,-28.745 -12.391,-26.757C-14.82,-22.723 -13.284,-16.755 -10.857,-13.106C-9.549,-11.14 -8.109,-9.345 -7.147,-7.165C-6.239,-5.11 -5.787,-2.827 -4.115,-1.208C-0.58,2.214 4.771,1.322 8.49,-1.243C9.6,-2.008 10.105,-3.436 9.387,-4.663C8.744,-5.763 7.083,-6.33 5.967,-5.56C4.193,-4.337 0.813,-2.775 -0.874,-5.053C-1.826,-6.337 -2.176,-8.237 -2.829,-9.689C-3.553,-11.299 -4.477,-12.749 -5.509,-14.175C-7.424,-16.823 -8.914,-19.625 -8.452,-23.013C-8.013,-26.223 -4.222,-24.169 -2.524,-23.237C0.299,-21.688 2.825,-26.004 0,-27.554" style="fill:rgb(35,31,32);fill-rule:nonzero;"/>
                </g>
                <g transform="matrix(1,0,0,1,77.4912,55.1257)">
                    <path d="M0,-16.309C0.612,-17.236 2.173,-18.466 3.249,-18.769C4.209,-19.038 5.03,-18.071 5.389,-17.275C6.011,-15.897 6.009,-14.195 5.992,-12.715C5.974,-11.244 5.807,-9.702 5.094,-8.389C4.317,-6.959 3.096,-5.826 2.122,-4.533C1.188,-3.295 0.55,-1.92 -0.127,-0.533C-0.68,0.6 -1.253,1.873 -2.297,2.642C-3.32,3.396 -4.764,3.515 -5.977,3.301C-7.305,3.068 -8.671,3.659 -9.052,5.047C-9.384,6.254 -8.643,7.887 -7.306,8.123C-3.725,8.753 -0.042,8.004 2.319,5.048C3.357,3.749 4.037,2.287 4.762,0.802C5.483,-0.676 6.357,-1.883 7.415,-3.134C9.999,-6.193 11.087,-9.543 10.985,-13.549C10.894,-17.148 10.03,-21.307 6.492,-23.077C2.523,-25.062 -2.086,-22.214 -4.317,-18.833C-6.095,-16.139 -1.767,-13.632 0,-16.309" style="fill:rgb(35,31,32);fill-rule:nonzero;"/>
                </g>
                <g transform="matrix(1,0,0,1,39.5041,18.1537)">
                    <path d="M0,-9.169C-0.058,-9.01 -0.119,-8.854 -0.184,-8.698L0.068,-9.295C-0.285,-8.48 -0.747,-7.727 -1.29,-7.024C-1.159,-7.193 -1.029,-7.362 -0.899,-7.53C-1.72,-6.49 -2.691,-5.595 -3.733,-4.782L-3.228,-5.173C-4.224,-4.405 -5.272,-3.71 -6.322,-3.019C-7.413,-2.301 -7.978,-0.775 -7.219,0.401C-6.517,1.49 -4.967,2.067 -3.799,1.298C-2.022,0.129 -0.227,-1.064 1.314,-2.54C2.874,-4.035 4.081,-5.809 4.821,-7.84C5.033,-8.42 4.872,-9.25 4.569,-9.766C4.266,-10.285 3.671,-10.779 3.075,-10.915C1.665,-11.236 0.48,-10.487 0,-9.169" style="fill:rgb(35,31,32);fill-rule:nonzero;"/>
                </g>
                <g transform="matrix(1,0,0,1,27.7633,18.6168)">
                    <path d="M0,-8.858C0.039,-8.411 0.03,-7.971 -0.023,-7.526C0.007,-7.747 0.036,-7.969 0.066,-8.19C0.009,-7.797 -0.076,-7.411 -0.197,-7.033C-0.255,-6.85 -0.365,-6.657 -0.402,-6.471C-0.246,-6.837 -0.222,-6.898 -0.333,-6.656C-0.376,-6.565 -0.421,-6.476 -0.467,-6.387C-0.63,-6.075 -0.811,-5.773 -1.009,-5.483C-1.065,-5.4 -1.123,-5.318 -1.181,-5.237C-1.338,-5.027 -1.299,-5.075 -1.065,-5.382C-1.205,-5.301 -1.349,-5.037 -1.459,-4.912C-2.513,-3.72 -3.777,-2.74 -5.03,-1.769C-5.499,-1.406 -5.762,-0.562 -5.762,-0.001C-5.762,0.612 -5.49,1.344 -5.03,1.766C-4.553,2.204 -3.928,2.528 -3.262,2.499C-2.554,2.467 -2.049,2.196 -1.494,1.766C0.191,0.46 1.767,-0.871 3.047,-2.592C4.35,-4.346 5.195,-6.655 5,-8.858C4.94,-9.533 4.761,-10.132 4.268,-10.626C3.834,-11.059 3.123,-11.386 2.5,-11.358C1.244,-11.302 -0.123,-10.253 0,-8.858" style="fill:rgb(35,31,32);fill-rule:nonzero;"/>
                </g>
                <g transform="matrix(1,0,0,1,34.7445,32.5551)">
                    <path d="M0,-23.163C1.88,-22.737 3.765,-22.765 5.596,-23.401C7.917,-24.206 8.019,-27.454 5.596,-28.222C0.95,-29.695 -4.161,-30.869 -8.978,-29.475C-13.253,-28.238 -16.564,-25.09 -19.392,-21.792C-22.511,-18.154 -24.731,-14.256 -25.062,-9.392C-25.396,-4.472 -23.895,0.342 -23.458,5.206C-23.338,6.55 -22.396,7.706 -20.958,7.706C-19.7,7.706 -18.337,6.558 -18.458,5.206C-18.843,0.923 -20.021,-3.289 -20.101,-7.597C-20.177,-11.632 -18.695,-14.888 -16.128,-17.938C-13.839,-20.656 -11.182,-23.638 -7.648,-24.654C-3.701,-25.788 0.482,-24.6 4.267,-23.401L4.267,-28.222C3.272,-27.877 2.364,-27.75 1.329,-27.984C-1.804,-28.694 -3.142,-23.874 0,-23.163" style="fill:rgb(35,31,32);fill-rule:nonzero;"/>
                </g>
                <g transform="matrix(1,0,0,1,34.2292,38.2428)">
                    <path d="M0,-30.493C-2.667,-25.072 -6.261,-20.276 -10.726,-16.206C-9.303,-15.617 -7.88,-15.028 -6.458,-14.438C-6.4,-15.536 -5.602,-16.539 -5.067,-17.455C-4.357,-18.671 -3.75,-19.931 -3.21,-21.231C-2.726,-22.398 -2.307,-23.588 -1.98,-24.809C-1.649,-26.042 -1.594,-27.403 -1.183,-28.6C-1.397,-28.232 -1.612,-27.864 -1.826,-27.497C-1.773,-27.564 -1.719,-27.631 -1.666,-27.698C-2.033,-27.484 -2.401,-27.27 -2.769,-27.055C-2.28,-27.245 -1.224,-26.921 -0.699,-26.835C0.268,-26.677 1.234,-26.515 2.206,-26.392C4.061,-26.157 5.884,-26.174 7.7,-26.669C9.763,-27.231 10.165,-30.167 8.297,-31.238C6.951,-32.01 5.475,-32.724 3.883,-32.683C2.408,-32.644 1.167,-31.935 0.007,-31.096C-2.583,-29.223 -5.167,-27.342 -7.753,-25.465C-6.529,-24.523 -5.305,-23.582 -4.081,-22.641C-3.566,-24.847 -2.926,-27.064 -2.529,-29.293C-2.021,-32.145 -4.576,-34.26 -7.195,-32.593C-8.871,-31.527 -9.793,-29.71 -10.624,-27.981C-11.667,-25.814 -12.628,-23.61 -13.544,-21.387C-14.616,-18.788 -10.17,-16.898 -8.975,-19.461C-7.727,-22.135 -6.48,-24.809 -5.233,-27.483C-4.563,-28.918 -5.054,-30.704 -6.727,-31.156C-10.274,-32.114 -11.679,-27.407 -12.484,-24.846C-13.36,-22.054 -13.774,-19.141 -14.118,-16.243C-14.471,-13.267 -14.955,-10.512 -15.911,-7.665C-16.852,-4.865 -17.594,-1.919 -16.633,0.984C-15.241,0.173 -13.848,-0.638 -12.455,-1.448C-14.494,-3.447 -16.29,-5.619 -17.841,-8.016C-19.333,-10.321 -23.247,-8.907 -22.41,-6.089C-22.072,-4.95 -21.593,-3.864 -20.942,-2.869C-19.818,-1.155 -16.897,-1.273 -16.372,-3.466C-15.328,-7.832 -14.39,-12.188 -13.786,-16.638C-13.345,-19.885 -12.819,-23.871 -9.588,-25.536C-8.388,-26.154 -8.036,-27.835 -8.691,-28.956C-9.435,-30.229 -10.872,-30.402 -12.112,-29.853C-15.839,-28.202 -19.558,-25.802 -22.054,-22.527C-24.668,-19.096 -25.099,-14.776 -24.673,-10.604C-24.483,-8.745 -22.69,-7.456 -20.911,-8.445C-18.232,-9.936 -16.029,-12.11 -14.479,-14.753C-13.743,-16.01 -14.343,-18.18 -15.974,-18.426C-17.021,-18.584 -18.051,-18.79 -19.078,-19.048C-18.58,-17.824 -18.082,-16.6 -17.584,-15.376C-16.833,-16.659 -15.994,-17.846 -15.007,-18.958C-16.186,-20.137 -17.365,-21.315 -18.543,-22.494C-20.699,-20.034 -21.554,-16.655 -20.446,-13.516C-19.996,-12.243 -18.738,-11.394 -17.37,-11.77C-16.137,-12.108 -15.173,-13.566 -15.624,-14.845C-16.126,-16.266 -16.04,-17.781 -15.007,-18.958C-14.118,-19.973 -14.009,-21.495 -15.007,-22.494C-15.92,-23.406 -17.643,-23.508 -18.543,-22.494C-19.806,-21.07 -20.939,-19.542 -21.901,-17.899C-22.702,-16.532 -21.978,-14.621 -20.407,-14.227C-19.38,-13.969 -18.35,-13.762 -17.303,-13.604C-17.801,-14.828 -18.299,-16.053 -18.797,-17.277C-19.931,-15.342 -21.476,-13.852 -23.435,-12.763C-22.181,-12.043 -20.927,-11.324 -19.673,-10.604C-19.993,-13.735 -20.014,-17.129 -17.949,-19.713C-15.837,-22.356 -12.632,-24.187 -9.588,-25.536C-10.429,-26.975 -11.271,-28.414 -12.112,-29.853C-16.129,-27.783 -17.791,-23.376 -18.437,-19.162C-19.181,-14.314 -20.052,-9.569 -21.194,-4.796C-19.671,-4.995 -18.147,-5.194 -16.624,-5.393C-17.054,-6.048 -17.366,-6.667 -17.589,-7.419C-19.112,-6.776 -20.635,-6.134 -22.158,-5.492C-20.384,-2.749 -18.324,-0.2 -15.99,2.087C-14.276,3.767 -11.005,2.095 -11.812,-0.345C-12.486,-2.384 -11.746,-4.382 -11.09,-6.336C-10.249,-8.841 -9.693,-11.28 -9.382,-13.909C-9.11,-16.21 -8.871,-18.505 -8.38,-20.774C-8.134,-21.91 -7.835,-23.035 -7.458,-24.136C-7.174,-24.967 -6.818,-26.346 -6.18,-26.938C-6.548,-26.723 -6.916,-26.509 -7.284,-26.295C-7.19,-26.333 -7.097,-26.371 -7.004,-26.409L-8.333,-26.409C-8.241,-26.384 -8.148,-26.359 -8.056,-26.334C-8.554,-27.558 -9.052,-28.783 -9.55,-30.007C-10.797,-27.333 -12.045,-24.659 -13.292,-21.984C-11.769,-21.342 -10.246,-20.7 -8.723,-20.058C-8.002,-21.806 -7.228,-23.532 -6.412,-25.238C-6.063,-25.97 -5.723,-26.716 -5.303,-27.411C-5.172,-27.629 -5.036,-27.856 -4.872,-28.049C-4.663,-28.293 -4.466,-28.321 -4.581,-28.303C-5.223,-28.387 -5.865,-28.471 -6.507,-28.555C-6.428,-28.52 -6.349,-28.485 -6.27,-28.45C-6.653,-28.948 -7.036,-29.446 -7.419,-29.944C-7.464,-30.306 -7.516,-30.215 -7.572,-29.672C-7.646,-29.355 -7.72,-29.039 -7.794,-28.722L-8.126,-27.296C-8.385,-26.188 -8.644,-25.079 -8.902,-23.97C-9.353,-22.04 -7.109,-19.783 -5.23,-21.147C-3.174,-22.639 -1.117,-24.131 0.939,-25.623C1.749,-26.211 2.726,-27.235 3.681,-27.561C4.433,-27.816 5.103,-27.305 5.773,-26.921L6.37,-31.49C4.1,-30.872 1.776,-31.505 -0.491,-31.832C-1.881,-32.032 -3.405,-32.379 -4.695,-31.625C-5.927,-30.905 -6.085,-29.569 -6.314,-28.31C-6.738,-25.969 -7.456,-23.668 -8.529,-21.542C-9.715,-19.191 -11.315,-17.168 -11.458,-14.438C-11.577,-12.16 -8.701,-11.294 -7.19,-12.671C-2.445,-16.996 1.483,-22.208 4.317,-27.969C4.913,-29.18 4.644,-30.674 3.42,-31.39C2.318,-32.035 0.598,-31.709 0,-30.493" style="fill:rgb(35,31,32);fill-rule:nonzero;"/>
                </g>
                <g transform="matrix(1,0,0,1,36.885,13.6195)">
                    <path d="M0,-6.138C4.001,-7.366 8.066,-8.005 12.248,-8.111C16.63,-8.221 21.217,-8.215 25.565,-7.619C32.18,-6.712 39.865,-2.185 41.529,4.728C42.554,3.703 43.579,2.678 44.605,1.653C43.448,1.295 42.238,1.135 41.029,1.183C37.822,1.31 37.806,6.311 41.029,6.183C41.839,6.15 42.5,6.235 43.275,6.474C45.158,7.057 46.781,5.188 46.351,3.399C44.37,-4.826 35.729,-10.862 27.755,-12.301C22.952,-13.167 17.854,-13.195 12.984,-13.124C8.131,-13.054 3.315,-12.385 -1.329,-10.959C-4.396,-10.018 -3.088,-5.19 0,-6.138" style="fill:rgb(35,31,32);fill-rule:nonzero;"/>
                </g>
                <g transform="matrix(1,0,0,1,40.5741,24.2103)">
                    <path d="M0,-16.138C2.547,-14.957 4.738,-13.208 7.069,-11.671C9.545,-10.039 12.146,-8.87 15.117,-8.57C16.569,-8.423 17.473,-9.843 17.617,-11.07C17.865,-13.198 16.09,-14.578 14.496,-15.588C12.847,-16.633 11.176,-17.646 9.485,-18.622C6.103,-20.577 2.64,-22.386 -0.888,-24.063C-3.078,-25.103 -5.599,-22.944 -4.309,-20.642C-1.71,-16.008 2.931,-12.921 7.338,-10.175C9.604,-8.762 11.962,-7.523 14.452,-6.551C16.838,-5.62 19.724,-4.774 22.308,-4.959C25.765,-5.206 26.471,-8.889 24.693,-11.357C23.255,-13.354 21.292,-14.996 19.279,-16.386C15.302,-19.132 10.617,-20.785 6.011,-22.133C-0.144,-23.935 -6.694,-25.505 -13.045,-23.746C-14.838,-23.249 -15.505,-20.885 -14.148,-19.567C-13.951,-19.375 -13.753,-19.184 -13.556,-18.992C-12.745,-20.385 -11.934,-21.778 -11.124,-23.17C-13.603,-23.592 -16.068,-22.678 -17.292,-20.378C-17.816,-19.393 -17.707,-18.155 -16.901,-17.348C-16.183,-16.63 -14.741,-16.297 -13.871,-16.957C-12.158,-18.26 -10.37,-19.708 -8.293,-20.373C-6.12,-21.069 -3.871,-21.123 -1.609,-21.131C2.934,-21.148 7.812,-21.837 12.276,-20.818C16.371,-19.883 19.78,-17.353 22.545,-14.271C24.073,-12.567 25.379,-10.692 26.59,-8.753C27.658,-7.044 28.975,-5.162 29.103,-3.087C29.516,-3.807 29.928,-4.526 30.341,-5.246C30.252,-5.201 30.163,-5.156 30.074,-5.111C30.495,-5.225 30.915,-5.338 31.336,-5.452C31.775,-5.26 31.796,-5.273 31.398,-5.493C31.126,-5.675 30.854,-5.857 30.582,-6.039C30.174,-6.313 29.766,-6.586 29.358,-6.86L26.501,-8.774C24.596,-10.05 22.692,-11.326 20.787,-12.602C19.031,-13.779 16.388,-11.81 17.115,-9.779C18.529,-5.828 21.291,-2.509 25.086,-0.645C26.518,0.058 28.306,-0.495 28.759,-2.139C29.833,-6.039 27.367,-10.363 24.951,-13.279C22.576,-16.146 19.327,-18.223 15.778,-19.309C13.675,-19.953 11.869,-17.482 12.955,-15.637C15.279,-11.686 19.07,-8.794 23.505,-7.62C25.76,-7.023 27.214,-9.376 26.328,-11.293C25.139,-13.863 23.318,-16.065 21.432,-18.154C19.393,-20.412 17.32,-22.64 15.263,-24.882C14.253,-23.573 13.244,-22.264 12.234,-20.955C17.346,-17.373 22.989,-14.695 28.455,-11.716C31.112,-10.268 33.734,-8.742 36.208,-6.995C37.381,-6.167 38.509,-5.284 39.583,-4.33C40.105,-3.867 40.672,-3.387 41.103,-2.833C41.284,-2.602 41.391,-2.317 41.564,-2.085C41.598,-1.964 41.632,-1.844 41.667,-1.724C41.663,-1.266 41.844,-1.563 42.209,-2.616C42.63,-2.73 43.05,-2.843 43.471,-2.957C43.121,-2.912 42.811,-3.232 42.388,-3.556C41.956,-3.885 41.545,-4.247 41.138,-4.607C40.044,-5.574 39.008,-6.605 37.943,-7.605C35.728,-9.683 33.418,-11.467 30.595,-12.627C29.589,-13.04 28.282,-12.35 27.772,-11.478C27.203,-10.505 27.396,-9.254 28.163,-8.449C31.9,-4.523 36.835,0.562 35.481,6.527C34.947,8.88 37.854,10.826 39.659,8.959C42.032,6.507 43.347,3.234 43.228,-0.187C41.591,0.034 39.954,0.256 38.318,0.477C39.006,2.869 39.694,5.26 40.383,7.652C41.271,10.738 46.097,9.426 45.204,6.322C44.516,3.931 43.827,1.54 43.139,-0.852C42.376,-3.503 38.128,-3.071 38.228,-0.187C38.302,1.943 37.615,3.882 36.124,5.424C37.517,6.235 38.91,7.045 40.302,7.856C42.114,-0.129 36.839,-6.585 31.698,-11.984C30.887,-10.591 30.077,-9.199 29.266,-7.806C32.582,-6.443 34.983,-3.389 37.602,-1.071C39.108,0.262 40.91,2.008 43.045,2.066C45.807,2.142 47.019,-0.461 46.521,-2.867C46.084,-4.979 44.533,-6.626 42.964,-8.002C41.36,-9.408 39.65,-10.702 37.885,-11.897C34.399,-14.259 30.667,-16.223 26.945,-18.18C22.782,-20.37 18.616,-22.569 14.757,-25.273C12.345,-26.964 9.886,-23.354 11.728,-21.346C13.686,-19.212 15.653,-17.084 17.603,-14.941C19.329,-13.044 20.926,-11.114 22.011,-8.769C22.952,-9.993 23.893,-11.217 24.834,-12.441C21.625,-13.291 18.957,-15.297 17.272,-18.16C16.331,-16.936 15.39,-15.712 14.449,-14.488C16.978,-13.714 19.172,-12.257 20.939,-10.296C21.774,-9.369 22.458,-8.319 23.021,-7.207C23.566,-6.133 24.27,-4.676 23.938,-3.469L27.61,-4.963C25.006,-6.242 22.924,-8.348 21.936,-11.108C20.712,-10.167 19.488,-9.226 18.264,-8.285L25.406,-3.5C27.596,-2.032 30.093,0.473 32.865,-0.928C33.601,-1.301 34.154,-2.264 34.103,-3.087C33.851,-7.165 31.386,-10.794 29.075,-14.03C26.671,-17.396 23.869,-20.445 20.383,-22.712C16.909,-24.971 12.984,-26.058 8.864,-26.244C6.714,-26.341 4.562,-26.225 2.413,-26.166C0.411,-26.111 -1.593,-26.171 -3.594,-26.098C-5.903,-26.015 -8.278,-25.753 -10.441,-24.897C-12.644,-24.025 -14.521,-22.7 -16.395,-21.275C-15.255,-20.135 -14.115,-18.994 -12.975,-17.854C-12.876,-18.04 -12.679,-18.387 -12.453,-18.349C-10.144,-17.957 -8.086,-20.648 -10.02,-22.527C-10.218,-22.719 -10.415,-22.911 -10.613,-23.103C-10.98,-21.71 -11.348,-20.317 -11.716,-18.924C-5.403,-20.673 1.49,-18.424 7.498,-16.439C10.145,-15.565 12.729,-14.524 15.134,-13.103C16.273,-12.429 17.369,-11.689 18.365,-10.817C18.942,-10.311 19.492,-9.774 20.01,-9.208C20.194,-9.007 20.361,-8.749 20.566,-8.576C20.623,-8.481 20.681,-8.387 20.738,-8.292C20.877,-7.82 21.042,-8.271 21.234,-9.643C21.654,-9.757 22.075,-9.87 22.495,-9.984C20.363,-9.699 17.942,-10.549 15.981,-11.296C13.833,-12.115 11.807,-13.279 9.861,-14.492C6.186,-16.783 2.18,-19.293 0.009,-23.166C-1.131,-22.025 -2.272,-20.885 -3.412,-19.745C-0.448,-18.337 2.47,-16.836 5.333,-15.232C6.695,-14.469 8.046,-13.683 9.383,-12.874C10.118,-12.43 10.849,-11.979 11.576,-11.521C11.903,-11.315 12.227,-11.074 12.565,-10.893C13.285,-10.508 12.537,-10.39 12.617,-11.07C13.45,-11.903 14.283,-12.736 15.117,-13.57C12.847,-13.799 10.813,-15.152 8.976,-16.402C6.872,-17.834 4.843,-19.38 2.524,-20.455C1.299,-21.023 -0.17,-20.801 -0.897,-19.558C-1.529,-18.478 -1.231,-16.709 0,-16.138" style="fill:rgb(35,31,32);fill-rule:nonzero;"/>
                </g>
                <g transform="matrix(1,0,0,1,60.5726,13.1559)">
                    <path d="M0,-8.705C3.832,-9.703 7.808,-6.693 10.687,-4.535C12.287,-3.335 13.787,-1.987 15.194,-0.568C16.533,0.783 17.883,2.282 18.588,4.079C19.081,5.335 20.264,6.21 21.664,5.825C22.861,5.496 23.906,4.013 23.41,2.75C21.492,-2.137 17.322,-5.775 13.211,-8.852C9.086,-11.938 4.001,-14.915 -1.329,-13.526C-4.441,-12.716 -3.121,-7.892 0,-8.705" style="fill:rgb(35,31,32);fill-rule:nonzero;"/>
                </g>
                <g transform="matrix(1,0,0,1,11.6835,89.5298)">
                    <path d="M0,-74.329C-3.768,-64.873 -4.81,-54.279 -4.348,-44.166C-4.121,-39.183 -3.001,-34.419 -1.157,-29.795C0.652,-25.256 2.909,-20.925 4.978,-16.505C7.373,-11.388 9.246,-6.077 10.565,-0.582C11.218,2.137 15.587,1.588 15.476,-1.247C15.232,-7.495 14.518,-13.717 13.369,-19.864C11.762,-19.421 10.155,-18.978 8.548,-18.535C10.394,-13.978 11.867,-9.291 12.958,-4.497C13.484,-2.186 17.358,-2.039 17.779,-4.497C18.283,-7.436 17.063,-9.844 15.801,-12.418C14.649,-14.771 13.418,-17.085 12.113,-19.356C9.727,-23.508 7.19,-27.881 2.984,-30.425C0.857,-31.712 -1.739,-29.138 -0.436,-27.005C2.243,-22.619 1.292,-16.987 3.003,-12.247C3.462,-10.978 4.704,-10.124 6.079,-10.501C7.304,-10.838 8.285,-12.3 7.825,-13.577C5.939,-18.8 6.866,-24.642 3.881,-29.528C2.741,-28.388 1.601,-27.248 0.46,-26.108C3.756,-24.114 5.689,-20.468 7.565,-17.233C8.647,-15.367 9.678,-13.471 10.658,-11.549C11.147,-10.588 11.625,-9.62 12.087,-8.646C12.469,-7.84 13.117,-6.753 12.958,-5.826L17.779,-5.826C16.688,-10.62 15.216,-15.307 13.369,-19.864C12.172,-22.817 7.946,-21.753 8.548,-18.535C9.616,-12.822 10.25,-7.054 10.476,-1.247C12.113,-1.468 13.75,-1.69 15.387,-1.911C14.205,-6.83 12.575,-11.606 10.557,-16.244C8.665,-20.592 6.427,-24.779 4.511,-29.116C2.696,-33.224 1.199,-37.588 0.791,-42.084C0.348,-46.976 0.526,-52 1.003,-56.883C1.542,-62.4 2.768,-67.846 4.821,-73C5.321,-74.255 4.275,-75.745 3.075,-76.075C1.652,-76.466 0.502,-75.588 0,-74.329" style="fill:rgb(35,31,32);fill-rule:nonzero;"/>
                </g>
                <g transform="matrix(1,0,0,1,12.0528,96.5587)">
                    <path d="M0,-84.072C-6.588,-74.785 -10.203,-62.728 -8.893,-51.33C-8.546,-48.309 -7.843,-45.416 -6.68,-42.605C-5.529,-39.823 -4.118,-37.169 -2.842,-34.446C-0.472,-29.387 0.794,-23.925 2.022,-18.502C3.454,-12.176 4.926,-5.866 7.804,-0.011C8.497,1.398 10.701,1.63 11.73,0.495C15.286,-3.428 19.494,-9.153 18.948,-14.763C18.693,-17.384 17.386,-19.418 15.664,-21.336C15.005,-22.071 14.276,-22.764 13.677,-23.551C13.397,-23.92 13.117,-24.331 12.934,-24.758C12.88,-24.884 12.882,-25.039 12.79,-25.179C12.527,-25.584 12.998,-25.539 12.657,-25.059C12.358,-24.76 12.059,-24.461 11.76,-24.162C10.427,-24.551 9.995,-24.536 10.465,-24.118C10.543,-24.053 10.607,-23.978 10.658,-23.891C10.787,-23.573 11.093,-23.266 11.283,-22.981C11.73,-22.307 12.154,-21.619 12.558,-20.919C13.329,-19.58 14.022,-18.197 14.655,-16.788C15.931,-13.954 16.92,-10.993 17.863,-8.034C18.757,-5.229 22.486,-5.952 22.774,-8.699C23.137,-12.171 23.226,-15.665 23.005,-19.15C22.889,-20.957 22.685,-22.754 22.428,-24.546C22.208,-26.085 22.19,-28.707 21.033,-29.863C18.638,-32.259 13.666,-32.366 12.527,-28.643C11.985,-26.871 13.084,-25.332 13.915,-23.868C14.861,-22.202 15.807,-20.537 16.753,-18.871C17.951,-16.762 21.516,-17.629 21.412,-20.133C21.288,-23.114 21.542,-26.033 22.229,-28.936C20.836,-28.568 19.443,-28.2 18.05,-27.833C20.158,-25.316 21.514,-22.327 22.206,-19.132C22.887,-15.988 27.708,-17.318 27.028,-20.461C26.148,-24.523 24.246,-28.192 21.586,-31.368C20.379,-32.81 17.817,-31.997 17.408,-30.265C16.622,-26.947 16.27,-23.541 16.412,-20.133L21.071,-21.395C20.125,-23.06 19.179,-24.726 18.233,-26.392C18.048,-26.716 17.882,-27.21 17.616,-27.478C17.4,-28.068 17.294,-28.058 17.296,-27.45C17.329,-27.151 17.233,-26.91 17.007,-26.727C16.865,-26.309 16.576,-26.992 16.945,-26.566C17.165,-26.311 17.722,-26.117 18.004,-25.937C17.621,-26.435 17.238,-26.933 16.855,-27.431C18.156,-21.267 18.429,-14.963 17.774,-8.699C19.41,-8.92 21.047,-9.142 22.684,-9.363C21.475,-13.157 20.142,-16.921 18.414,-20.514C17.585,-22.236 16.658,-23.912 15.6,-25.504C14.545,-27.092 13.272,-28.969 11.147,-29.016C8.81,-29.068 7.499,-26.944 7.79,-24.806C8.025,-23.076 8.876,-21.613 9.944,-20.265C11.583,-18.195 14.151,-16.457 13.981,-13.55C13.869,-11.622 12.889,-9.775 11.935,-8.14C10.866,-6.306 9.62,-4.613 8.195,-3.041C9.504,-2.872 10.813,-2.704 12.121,-2.535C7.332,-12.278 6.956,-23.47 2.975,-33.504C0.885,-38.77 -2.339,-43.595 -3.526,-49.192C-4.644,-54.464 -4.217,-60.134 -3.007,-65.353C-1.65,-71.2 0.847,-76.656 4.317,-81.548C5.099,-82.65 4.513,-84.33 3.42,-84.969C2.167,-85.702 0.783,-85.176 0,-84.072" style="fill:rgb(35,31,32);fill-rule:nonzero;"/>
                </g>
                <g transform="matrix(1,0,0,1,78.0881,29.0746)">
                    <path d="M0,-11.502C1.583,-8.804 3.218,-6.079 4.368,-3.161C4.947,-1.693 5.418,-0.177 5.715,1.374C5.835,2.002 5.912,2.627 5.948,3.265C5.972,3.676 5.95,4.091 5.975,4.5C5.989,4.736 5.785,5.087 6.044,4.76C7.437,5.128 8.83,5.495 10.223,5.863C9.417,0.784 9.801,-4.426 8.617,-9.459C7.593,-13.816 5.425,-17.762 1.761,-20.414C0.666,-21.206 -1.025,-20.602 -1.66,-19.517C-2.398,-18.255 -1.86,-16.891 -0.763,-16.097C2.108,-14.019 3.395,-10.372 4.029,-7.03C4.917,-2.35 4.654,2.484 5.401,7.192C5.682,8.961 8.465,9.704 9.58,8.295C12.073,5.147 10.842,0.217 9.639,-3.272C8.33,-7.071 6.343,-10.574 4.317,-14.026C2.69,-16.799 -1.634,-14.286 0,-11.502" style="fill:rgb(35,31,32);fill-rule:nonzero;"/>
                </g>
                <g transform="matrix(1,0,0,1,71.3323,77.0504)">
                    <path d="M0,-15.829C0.034,-10.787 2.353,-5.787 4.463,-1.296C6.383,2.79 9.004,6.59 12.932,8.964C15.394,10.451 17.912,7.069 15.962,5.037C10.704,-0.442 8.778,-8.069 6.942,-15.215L2.12,-13.886C4.027,-7.896 6.321,-1.719 11.787,1.904C14.005,3.374 16.267,0.563 15.207,-1.517C13.452,-4.962 12.341,-8.776 12.078,-12.641C12.026,-13.391 11.773,-14.561 12.038,-15.259C12.235,-15.775 12.792,-16.172 13.152,-16.588C14.551,-18.205 15.549,-20.028 16.207,-22.061C17.111,-24.855 13.136,-26.28 11.637,-23.988C9.723,-21.058 7.808,-18.129 5.893,-15.199C7.202,-15.368 8.51,-15.537 9.819,-15.705C7.976,-17.878 5.358,-15.978 4.422,-14.067C3.386,-11.951 2.349,-9.834 1.313,-7.718C0.719,-6.506 0.985,-5.014 2.21,-4.298C3.31,-3.654 5.034,-3.977 5.63,-5.195C6.238,-6.435 6.845,-7.676 7.453,-8.916C7.739,-9.5 8.025,-10.084 8.311,-10.668C8.454,-10.959 8.597,-11.251 8.74,-11.543C8.811,-11.689 8.883,-11.835 8.954,-11.981C9.214,-12.423 9.022,-12.337 8.378,-11.724L7.049,-11.724C7.115,-11.713 7.18,-11.703 7.246,-11.693C6.878,-11.907 6.511,-12.121 6.143,-12.336C6.19,-12.28 6.237,-12.225 6.284,-12.17C7.381,-10.877 9.397,-11.431 10.21,-12.676C12.125,-15.605 14.04,-18.535 15.955,-21.464L11.385,-23.39C10.768,-21.483 9.586,-20.241 8.367,-18.727C6.829,-16.819 6.919,-14.514 7.112,-12.195C7.497,-7.563 8.781,-3.133 10.89,1.007C12.03,-0.133 13.17,-1.273 14.31,-2.414C10.058,-5.232 8.409,-10.606 6.942,-15.215C5.97,-18.27 1.315,-17.021 2.12,-13.886C4.183,-5.858 6.537,2.435 12.426,8.573C13.436,7.264 14.446,5.955 15.456,4.646C12.26,2.715 10.331,-0.519 8.78,-3.82C7.057,-7.488 5.028,-11.719 5,-15.829C4.978,-19.045 -0.022,-19.052 0,-15.829" style="fill:rgb(35,31,32);fill-rule:nonzero;"/>
                </g>
                <g transform="matrix(1,0,0,1,70.6289,34.0375)">
                    <path d="M0,29.379C0.909,34.676 1.524,40.014 1.843,45.38C2.002,48.051 2.09,50.727 2.106,53.402C2.113,54.608 2.134,55.82 2.074,57.024C2.037,57.774 1.977,58.494 1.405,59.018C2.583,60.197 3.762,61.375 4.94,62.554C8.548,59.116 11.214,54.695 12.521,49.88C13.71,45.501 13.98,39.861 9.057,37.805C7.916,37.329 6.153,38.331 5.981,39.551C5.541,42.678 4.879,45.758 3.997,48.79C3.62,50.086 4.455,51.512 5.743,51.866C7.165,52.256 8.319,51.38 8.819,50.12C11.251,43.987 13.608,37.757 14.678,31.218C15.738,24.742 15.467,18.135 16.512,11.665C17.037,8.416 18.248,5.446 19.033,2.276C19.826,-0.93 19.583,-4.288 18.575,-7.419C16.645,-13.417 12.424,-18.452 8.986,-23.634C5.184,-29.363 0.033,-35.342 -7.496,-35.131C-10.214,-35.054 -11.014,-30.835 -8.16,-30.22C-4.446,-29.419 -0.49,-28.637 2.598,-26.274C5.428,-24.109 7.313,-20.931 8.874,-17.792C10.498,-14.524 12.342,-10.807 11.222,-7.104C10.1,-3.394 7.599,-0.321 6.885,3.563C5.987,8.442 6.853,13.328 7.794,18.132C8.03,19.337 9.396,20.094 10.537,19.922C11.843,19.726 12.575,18.74 12.704,17.467C13.318,11.422 13.396,5.346 12.938,-0.713C11.385,-0.292 9.832,0.129 8.279,0.549C12.778,7.37 11.288,15.953 10.754,23.612C10.444,28.059 10.618,32.393 11.43,36.78C12.188,40.881 13.329,44.903 13.982,49.024C14.309,51.083 14.492,53.209 14.357,55.293C14.269,56.657 13.949,58.51 12.755,59.375C13.895,59.674 15.036,59.973 16.176,60.272C14.7,57.809 13.953,55.114 13.962,52.242C13.967,50.195 11.143,48.787 9.694,50.474C9.352,50.872 9.011,51.27 8.669,51.668C7.939,52.519 7.687,53.687 8.278,54.697C8.811,55.608 10.066,56.207 11.102,55.846C15.285,54.39 15.31,49.413 15.791,45.719C16.368,41.291 16.775,36.843 17.084,32.389C17.716,23.303 17.946,14.195 18.417,5.101C18.681,-0.014 19.027,-5.124 19.551,-10.219C17.914,-9.997 16.277,-9.776 14.64,-9.554C15.184,-5.98 15.727,-2.405 16.27,1.17C17.877,0.727 19.485,0.283 21.092,-0.16C18.17,-9.721 15.008,-19.467 8.24,-27.074C7.23,-25.766 6.22,-24.457 5.21,-23.148C8.223,-21.03 11.027,-18.435 13.024,-15.318C15.184,-11.946 16.058,-8.332 15.765,-4.34C15.427,0.253 14.079,4.717 14.201,9.355C14.324,14 15.545,18.507 17.67,22.63C18.793,24.809 22.458,23.819 22.329,21.368C22.066,16.386 21.804,11.404 21.542,6.422C21.411,3.931 21.28,1.44 21.149,-1.051C21.023,-3.431 20.897,-5.834 20.205,-8.129C19.527,-10.38 15.929,-10.636 15.384,-8.129C14.435,-3.765 13.629,0.631 13.011,5.055C12.404,9.395 11.953,13.789 12.367,18.17C12.787,22.616 14.137,26.657 15.984,30.699C16.43,31.676 16.895,32.643 17.356,33.613C17.692,34.321 17.89,35.181 18.237,35.86C18.314,36.01 18.182,36.103 18.222,36.102C17.835,36.113 19.506,34.836 19.283,35.457C19.25,35.549 19.026,34.549 19.083,34.865C18.999,34.402 19.04,33.897 19.043,33.428C19.051,32.077 17.889,30.928 16.543,30.928C15.067,30.928 14.194,32.08 14.043,33.428C13.141,41.498 16.412,49.164 19.568,56.392C20.287,55.138 21.007,53.884 21.726,52.63C19.52,52.807 17.525,51.884 16.4,49.941C14.789,47.157 10.466,49.672 12.083,52.465C14.027,55.824 17.826,57.942 21.726,57.63C23.746,57.469 24.667,55.66 23.885,53.868C21.065,47.409 18.239,40.623 19.043,33.428L14.043,33.428C14.032,35.404 14.262,37.532 15.748,38.993C17.154,40.375 19.444,40.895 21.193,39.845C25.052,37.53 22.471,32.78 21.08,29.843C19.439,26.377 17.951,22.834 17.455,18.999C16.938,14.991 17.246,10.881 17.764,6.89C18.361,2.295 19.221,-2.274 20.205,-6.8L15.384,-6.8C16.047,-4.599 16.081,-2.333 16.201,-0.054C16.323,2.27 16.446,4.595 16.568,6.92C16.822,11.736 17.075,16.552 17.329,21.368C18.882,20.947 20.434,20.527 21.987,20.106C19.921,16.097 18.982,11.621 19.235,7.12C19.502,2.357 21.028,-2.285 20.819,-7.086C20.44,-15.781 14.557,-22.668 7.734,-27.465C5.303,-29.174 2.91,-25.555 4.704,-23.539C10.861,-16.619 13.618,-7.511 16.27,1.17C16.665,2.461 18.018,3.281 19.346,2.916C20.774,2.523 21.295,1.18 21.092,-0.16C20.548,-3.734 20.005,-7.309 19.462,-10.883C19.277,-12.095 17.819,-12.84 16.719,-12.674C15.412,-12.478 14.682,-11.492 14.551,-10.219C12.829,6.528 13.118,23.406 11.431,40.155C11.201,42.436 10.94,44.715 10.617,46.985C10.48,47.949 10.374,48.931 10.145,49.878C10.069,50.192 9.941,50.553 9.841,50.819C9.781,50.982 9.562,51.098 9.772,51.025C10.583,52.418 11.394,53.811 12.205,55.203C12.546,54.806 12.888,54.408 13.229,54.01C11.807,53.421 10.384,52.831 8.962,52.242C8.951,55.967 9.944,59.6 11.858,62.796C12.502,63.87 14.172,64.495 15.279,63.693C18.79,61.148 19.539,56.956 19.365,52.852C19.173,48.311 18.08,43.876 17.089,39.462C16.067,34.913 15.418,30.488 15.625,25.812C15.832,21.169 16.525,16.543 16.398,11.887C16.265,7.046 15.298,2.121 12.596,-1.974C11.336,-3.886 7.738,-3.354 7.938,-0.713C8.396,5.346 8.318,11.422 7.704,17.467C9.341,17.246 10.978,17.024 12.615,16.802C11.817,12.731 10.909,8.365 11.839,4.237C12.745,0.207 15.674,-3.061 16.371,-7.16C17.145,-11.716 15.327,-15.944 13.367,-19.959C11.652,-23.471 9.506,-26.97 6.491,-29.519C2.668,-32.75 -2.038,-34.008 -6.831,-35.041C-7.053,-33.404 -7.274,-31.767 -7.496,-30.131C-1.872,-30.289 1.867,-25.33 4.668,-21.11C6.265,-18.705 7.905,-16.332 9.53,-13.946C11.114,-11.619 12.687,-9.191 13.612,-6.516C14.573,-3.733 14.806,-0.992 13.961,1.849C13.072,4.836 12.09,7.69 11.62,10.789C10.718,16.743 10.834,22.785 10.031,28.746C9.095,35.691 6.566,42.314 3.997,48.79C5.604,49.234 7.212,49.677 8.819,50.12C9.701,47.088 10.362,44.007 10.803,40.88C9.778,41.462 8.753,42.045 7.728,42.627C7.727,42.626 7.971,43.002 8.068,43.267C8.303,43.904 8.318,44.499 8.301,45.176C8.26,46.838 7.764,48.524 7.228,50.087C6.057,53.501 4.009,56.537 1.405,59.018C-0.936,61.248 2.574,64.721 4.94,62.554C6.904,60.754 7.08,58.09 7.102,55.592C7.129,52.511 7.061,49.428 6.898,46.351C6.573,40.216 5.86,34.104 4.821,28.05C4.593,26.718 2.956,25.971 1.746,26.304C0.337,26.691 -0.229,28.043 0,29.379" style="fill:rgb(35,31,32);fill-rule:nonzero;"/>
                </g>
                <g transform="matrix(1,0,0,1,15.6198,87.566)">
                    <path d="M0,-7.83C0.108,-7.609 0.21,-7.386 0.313,-7.163C0.424,-6.908 0.412,-6.937 0.277,-7.25C0.323,-7.136 0.367,-7.022 0.411,-6.907C0.563,-6.505 0.699,-6.096 0.82,-5.683C0.957,-5.211 1.074,-4.733 1.17,-4.251C1.205,-4.07 1.238,-3.889 1.268,-3.707C1.288,-3.586 1.306,-3.464 1.323,-3.342C1.276,-3.702 1.268,-3.741 1.302,-3.458C1.474,-1.41 1.562,0.659 2.581,2.498C3.216,3.643 4.885,4.115 6.002,3.395C7.161,2.648 7.578,1.199 6.899,-0.025C6.841,-0.124 6.788,-0.225 6.738,-0.328C6.873,0.011 6.891,0.053 6.793,-0.201C6.726,-0.419 6.653,-0.631 6.599,-0.853C6.552,-1.048 6.523,-1.246 6.482,-1.441C6.451,-1.633 6.461,-1.554 6.509,-1.204C6.495,-1.319 6.482,-1.434 6.47,-1.55C6.36,-2.593 6.296,-3.632 6.145,-4.671C5.855,-6.661 5.201,-8.551 4.317,-10.354C3.74,-11.531 1.974,-11.945 0.897,-11.25C-0.309,-10.473 -0.617,-9.089 0,-7.83" style="fill:rgb(35,31,32);fill-rule:nonzero;"/>
                </g>
                <g transform="matrix(1,0,0,1,9.3818,94.8686)">
                    <path d="M0,-32.88C0.293,-27.513 0.704,-21.69 -1.659,-16.689C-2.61,-14.675 -1.052,-12.574 1.165,-13.017C5.101,-13.803 6.828,-17.547 7.957,-20.985L3.046,-21.649C3.028,-17.966 4.48,-14.603 4.924,-10.998C5.372,-7.353 4.053,-3.831 2.84,-0.46C2.211,1.288 4.18,3.221 5.916,2.615C8.984,1.545 11.712,-0.032 14.18,-2.144C12.758,-2.733 11.335,-3.322 9.913,-3.912L10.28,-0.211C10.537,2.369 13.408,3.046 14.939,1.051C17.244,-1.954 19.04,-5.211 20.505,-8.697C21.028,-9.943 19.941,-11.448 18.759,-11.773C17.316,-12.169 16.209,-11.277 15.684,-10.027C14.398,-6.968 12.638,-4.101 10.622,-1.473C12.174,-1.052 13.727,-0.632 15.28,-0.211L14.913,-3.912C14.694,-6.114 12.362,-7.149 10.645,-5.679C8.865,-4.156 6.797,-2.977 4.586,-2.206C5.612,-1.181 6.637,-0.156 7.662,0.869C8.988,-2.819 10.304,-6.699 9.954,-10.679C9.628,-14.389 8.028,-17.914 8.046,-21.649C8.06,-24.54 4.001,-24.95 3.135,-22.314C2.55,-20.531 1.922,-18.255 -0.165,-17.838C0.777,-16.614 1.718,-15.39 2.659,-14.166C5.447,-20.069 5.349,-26.503 5,-32.88C4.825,-36.08 -0.176,-36.101 0,-32.88" style="fill:rgb(35,31,32);fill-rule:nonzero;"/>
                </g>
                <g transform="matrix(1,0,0,1,12.9366,14.2299)">
                    <path d="M0,2.795C0.405,0.581 1.662,-1.216 2.902,-3.048C4.094,-4.809 5.307,-6.552 6.824,-8.054C10.087,-11.286 14.33,-11.717 18.722,-11.64C18.301,-13.193 17.881,-14.746 17.46,-16.299C14.612,-14.485 11.764,-12.671 8.916,-10.858C6.175,-9.112 3.13,-7.533 0.636,-5.442C-1.518,-3.636 -1.705,-0.74 -3.336,1.423C-4.916,3.52 -7.173,5.047 -9.335,6.477C-8.325,7.786 -7.315,9.095 -6.305,10.403C-3.814,8.116 -1.607,5.586 0.398,2.865C-1.042,2.023 -2.481,1.182 -3.92,0.341C-5.358,3.658 -7.758,6.17 -11.028,7.719C-12.443,8.389 -12.665,10.635 -11.534,11.645C-10.278,12.765 -9.462,14.408 -9.754,16.128C-9.98,17.458 -9.402,18.82 -8.008,19.203C-6.808,19.533 -5.161,18.796 -4.933,17.457C-4.345,13.999 -5.333,10.488 -7.998,8.11C-8.167,9.418 -8.335,10.727 -8.504,12.036C-4.576,10.176 -1.332,6.855 0.398,2.865C1.677,-0.088 -1.991,-2.277 -3.92,0.341C-5.666,2.712 -7.673,4.877 -9.841,6.868C-11.909,8.767 -9.196,12.372 -6.811,10.794C-4.545,9.296 -2.25,7.709 -0.418,5.683C0.484,4.686 1.319,3.587 1.935,2.389C2.539,1.215 2.766,-0.327 3.59,-1.367C4.41,-2.402 5.972,-3.058 7.063,-3.753C8.453,-4.638 9.842,-5.523 11.231,-6.407C14.149,-8.266 17.066,-10.124 19.984,-11.982C22.062,-13.305 21.25,-16.596 18.722,-16.64C13.136,-16.738 7.764,-15.839 3.572,-11.865C1.726,-10.114 0.235,-7.999 -1.191,-5.903C-2.737,-3.63 -4.318,-1.288 -4.821,1.466C-5.064,2.793 -4.458,4.161 -3.075,4.541C-1.861,4.875 -0.244,4.13 0,2.795" style="fill:rgb(35,31,32);fill-rule:nonzero;"/>
                </g>
                <g transform="matrix(1,0,0,1,67.6794,19.3206)">
                    <path d="M0,-15.28C4.127,-15.051 7.843,-12.915 11.102,-10.52C14.75,-7.839 18.018,-4.683 21.759,-2.118C22.18,-3.671 22.6,-5.224 23.021,-6.777C21.529,-6.77 20.037,-6.763 18.545,-6.755C16.596,-6.746 15.502,-4.654 16.387,-2.994L19.17,2.234C20.683,5.075 25.001,2.552 23.488,-0.29L20.704,-5.517C19.984,-4.263 19.265,-3.009 18.545,-1.755C20.037,-1.763 21.529,-1.77 23.021,-1.777C25.621,-1.79 26.264,-5.078 24.283,-6.436C20.333,-9.144 16.904,-12.526 12.995,-15.293C9.139,-18.022 4.767,-20.016 0,-20.28C-1.35,-20.355 -2.5,-19.077 -2.5,-17.78C-2.5,-16.364 -1.354,-15.355 0,-15.28" style="fill:rgb(35,31,32);fill-rule:nonzero;"/>
                </g>
                <g transform="matrix(1,0,0,1,70.3638,24.2949)">
                    <path d="M0,5C3.217,5 3.223,0 0,0C-3.217,0 -3.223,5 0,5" style="fill:rgb(35,31,32);fill-rule:nonzero;"/>
                </g>
                <g transform="matrix(1,0,0,1,33.2294,88.3681)">
                    <path d="M0,-12.651C0.192,-8.195 0.096,-3.735 -0.289,0.708C-0.499,3.133 3.334,4.182 4.37,1.97C5.724,-0.923 6.998,-3.897 7.959,-6.945C8.768,-9.509 9.893,-13.947 7.344,-15.93C6.615,-16.497 5.855,-16.833 4.911,-16.573C4.141,-16.361 3.3,-15.66 3.165,-14.827C3.074,-14.265 2.953,-13.71 2.787,-13.165C2.704,-12.893 2.609,-12.625 2.508,-12.359C2.443,-12.196 2.449,-12.207 2.526,-12.393C2.46,-12.245 2.39,-12.098 2.318,-11.952C2.065,-11.443 1.776,-10.951 1.453,-10.483C1.403,-10.411 0.982,-9.877 1.257,-10.21C1.05,-9.959 0.832,-9.719 0.608,-9.483C-0.295,-8.536 -0.404,-6.876 0.608,-5.948C1.586,-5.05 3.18,-4.936 4.143,-5.948C6.121,-8.024 7.526,-10.656 7.987,-13.498C6.594,-13.13 5.201,-12.763 3.808,-12.395C4.015,-12.207 4.021,-12.237 3.825,-12.486C3.959,-12.242 3.957,-12.262 3.817,-12.546C3.868,-12.306 3.881,-12.283 3.856,-12.478C3.837,-12.675 3.839,-12.649 3.859,-12.4C3.866,-12.127 3.865,-11.857 3.85,-11.585C3.845,-11.492 3.761,-10.681 3.811,-11.04C3.641,-9.833 3.276,-8.649 2.882,-7.499C2.023,-4.991 1.137,-2.87 0.052,-0.554C1.605,-0.133 3.158,0.287 4.711,0.708C5.096,-3.735 5.192,-8.195 5,-12.651C4.944,-13.956 3.89,-15.213 2.5,-15.151C1.194,-15.092 -0.06,-14.05 0,-12.651" style="fill:rgb(35,31,32);fill-rule:nonzero;"/>
                </g>
                <g transform="matrix(1,0,0,1,13.2084,88.5926)">
                    <path d="M0,-14.024C-0.318,-11.74 -1.046,-9.555 -1.821,-7.392C-2.01,-6.864 -2.202,-6.336 -2.401,-5.811C-2.638,-5.186 -2.168,-6.259 -2.467,-5.662C-2.587,-5.42 -2.704,-5.178 -2.842,-4.945C-2.911,-4.829 -2.984,-4.715 -3.06,-4.604C-3.218,-4.382 -3.197,-4.408 -2.995,-4.68C-3.014,-4.6 -3.416,-4.171 -3.498,-4.165C-3.222,-4.365 -3.195,-4.386 -3.418,-4.229C-3.516,-4.163 -3.618,-4.102 -3.722,-4.046C-3.97,-3.925 -3.933,-3.938 -3.612,-4.085C-3.724,-4.046 -3.838,-4.014 -3.955,-3.988C-4.794,-3.779 -5.474,-3.067 -5.701,-2.242C-5.954,-1.322 -5.644,-0.511 -5.058,0.19C-3.532,2.014 -0.807,0.865 0.83,-0.136C2.373,-1.079 3.642,-2.362 4.623,-3.876C5.335,-4.976 4.882,-6.686 3.726,-7.297C2.482,-7.954 1.066,-7.574 0.305,-6.4C0.238,-6.296 0.168,-6.194 0.1,-6.09C-0.062,-5.842 0.061,-5.997 0.158,-6.148C0.011,-5.919 -0.205,-5.713 -0.393,-5.517C-0.565,-5.338 -0.744,-5.167 -0.93,-5.002C-1.023,-4.92 -1.12,-4.843 -1.214,-4.761C-1.472,-4.535 -0.729,-5.089 -1.227,-4.759C-1.644,-4.483 -2.065,-4.236 -2.511,-4.009C-2.885,-3.818 -2.424,-4.035 -2.424,-4.036C-2.422,-4.016 -2.812,-3.894 -2.861,-3.875C-2.993,-3.822 -3.257,-3.828 -2.894,-3.826C-2.41,-3.823 -1.882,-3.776 -1.522,-3.345C-1.89,-1.953 -2.258,-0.56 -2.625,0.833C0.332,0.095 1.747,-2.605 2.706,-5.244C3.588,-7.674 4.463,-10.123 4.821,-12.695C4.918,-13.391 4.94,-13.988 4.569,-14.621C4.266,-15.14 3.671,-15.634 3.075,-15.77C1.897,-16.038 0.193,-15.409 0,-14.024" style="fill:rgb(35,31,32);fill-rule:nonzero;"/>
                </g>
                <g transform="matrix(1,0,0,1,85.4969,63.3035)">
                    <path d="M0,-10.474C-0.211,-9.226 -0.206,-8.02 0.142,-6.79C0.44,-5.738 0.933,-4.709 1.543,-3.801C2.163,-2.88 2.887,-2.025 3.621,-1.193C3.93,-0.843 4.242,-0.495 4.547,-0.14C4.708,0.047 4.864,0.238 5.022,0.429C5.314,0.78 4.804,0.127 4.986,0.377C5.067,0.487 5.149,0.597 5.229,0.709C6.669,-0.133 8.108,-0.974 9.547,-1.815C8.379,-3.345 7.211,-4.876 6.043,-6.406C5.63,-6.947 5.232,-7.367 4.549,-7.555C3.95,-7.72 3.153,-7.645 2.622,-7.303C2.088,-6.959 1.619,-6.446 1.473,-5.809C1.335,-5.2 1.328,-4.404 1.725,-3.883C2.893,-2.352 4.061,-0.822 5.229,0.709C5.642,1.249 6.04,1.669 6.724,1.857C7.322,2.022 8.119,1.948 8.65,1.605C9.7,0.928 10.363,-0.679 9.547,-1.815C8.941,-2.658 8.281,-3.457 7.594,-4.235C7.303,-4.565 7.01,-4.892 6.723,-5.226C6.579,-5.392 6.437,-5.56 6.298,-5.73C6.231,-5.812 6.169,-5.914 6.091,-5.986C6.271,-5.82 6.348,-5.645 6.132,-5.939C5.884,-6.277 5.654,-6.628 5.447,-6.993C5.343,-7.176 5.246,-7.362 5.156,-7.551C5.121,-7.623 4.969,-7.966 5.122,-7.611C5.275,-7.257 5.133,-7.6 5.106,-7.676C5.036,-7.871 4.975,-8.068 4.923,-8.269C4.898,-8.368 4.874,-8.468 4.854,-8.569C4.837,-8.655 4.781,-9.022 4.836,-8.615C4.892,-8.209 4.848,-8.575 4.843,-8.663C4.836,-8.765 4.833,-8.866 4.834,-8.968C4.834,-9.184 4.95,-9.906 4.821,-9.145C4.937,-9.825 4.93,-10.455 4.569,-11.071C4.266,-11.59 3.671,-12.084 3.075,-12.22C1.865,-12.496 0.233,-11.853 0,-10.474" style="fill:rgb(35,31,32);fill-rule:nonzero;"/>
                </g>
                <g transform="matrix(1,0,0,1,26.9219,18.5613)">
                    <path d="M0,-13.171C-2.782,-12.275 -5.67,-11.35 -8.098,-9.677C-10.513,-8.012 -12.454,-5.787 -13.348,-2.956C-13.742,-1.709 -12.885,-0.173 -11.602,0.119C-10.24,0.429 -8.948,-0.291 -8.527,-1.627C-8.482,-1.768 -8.436,-1.909 -8.385,-2.048C-8.361,-2.113 -8.225,-2.497 -8.346,-2.16C-8.476,-1.799 -8.287,-2.267 -8.248,-2.343C-8.195,-2.448 -8.139,-2.551 -8.081,-2.654C-7.937,-2.911 -7.779,-3.161 -7.611,-3.403C-7.561,-3.474 -7.418,-3.607 -7.402,-3.69C-7.441,-3.483 -7.666,-3.361 -7.403,-3.669C-7.054,-4.077 -6.674,-4.458 -6.271,-4.813C-6.159,-4.912 -6.043,-5.006 -5.929,-5.103C-5.643,-5.348 -5.927,-5.036 -6.011,-5.045C-5.892,-5.032 -5.392,-5.484 -5.277,-5.559C-4.772,-5.888 -4.246,-6.186 -3.707,-6.458C-3.43,-6.598 -3.148,-6.731 -2.865,-6.859C-2.764,-6.905 -2.312,-7.12 -2.795,-6.896C-2.67,-6.954 -2.538,-7.001 -2.41,-7.052C-1.184,-7.54 0.074,-7.945 1.329,-8.35C2.572,-8.75 3.503,-10.102 3.075,-11.425C2.673,-12.669 1.333,-13.6 0,-13.171" style="fill:rgb(35,31,32);fill-rule:nonzero;"/>
                </g>
                <g transform="matrix(1.06543,0,0,1.06543,-364.808,-5.43282)">
                    <path d="M384.857,-0.297C383.818,-0.239 382.879,-0.052 382.143,0.289C382.002,0.276 381.458,0.227 381.171,0.221C380.685,0.21 380.23,0.292 379.833,0.49C379.635,0.589 379.408,0.574 379.18,0.571C378.873,0.567 378.56,0.543 378.251,0.534C377.467,0.51 376.708,0.59 376.03,0.929C375.595,1.146 375.072,1.178 374.53,1.189C373.757,1.205 372.949,1.147 372.195,1.16C370.862,1.184 369.675,1.459 368.809,2.204L368.719,2.253L368.649,2.294C368.37,2.316 367.523,2.376 366.951,2.349C365.684,2.291 364.384,2.282 363.531,2.539C363.259,2.511 362.684,2.459 362.462,2.505C362.095,2.581 361.811,2.751 361.596,2.966C360.464,4.098 359.763,5.53 358.671,6.623C358.233,7.06 358.004,8.044 358.291,8.765C358.602,9.548 359.273,9.953 360.024,9.904C360.357,9.882 360.79,9.769 361.231,9.329C361.875,8.685 362.59,7.931 363.62,7.416C363.76,7.346 363.928,7.347 364.101,7.341C364.472,7.327 364.863,7.355 365.243,7.362C366.043,7.376 366.803,7.287 367.424,6.977C368.017,6.68 368.477,6.311 368.915,5.91C369.253,5.601 369.568,5.26 370.017,4.972C370.169,4.905 370.308,4.831 370.432,4.749C370.696,4.659 371.072,4.694 371.457,4.704C372.174,4.722 372.921,4.795 373.482,4.795C375.669,4.795 378.152,4.812 380.335,4.407C380.325,4.474 380.32,4.542 380.32,4.611C380.32,5.439 380.993,6.111 381.82,6.111C382.904,6.111 384.809,6.164 386.185,5.942C387.048,5.804 387.747,5.53 388.169,5.198C388.694,4.785 388.961,4.264 389,3.67C389.011,3.498 389.001,3.304 388.955,3.092C390.717,3.489 392.317,4.063 392.901,4.648C393.452,5.198 394.105,5.534 394.76,5.819C395.011,5.928 395.261,6.028 395.489,6.153C395.625,6.227 395.762,6.3 395.839,6.452C396.209,7.193 397.111,7.494 397.851,7.123C398.592,6.753 398.892,5.851 398.522,5.111C398.116,4.299 397.492,3.801 396.749,3.426C396.197,3.148 395.518,3.022 395.023,2.527C394.163,1.667 391.781,0.61 389.16,0.067C388.049,-0.163 386.903,-0.299 385.823,-0.315C385.529,-0.352 385.204,-0.348 384.857,-0.297ZM385.239,2.7C385.005,2.76 384.613,2.868 384.34,2.98L384.028,3.111C384.43,3.101 384.835,3.08 385.216,3.043C385.281,3.037 385.35,3.027 385.421,3.016C385.4,2.981 385.38,2.946 385.359,2.909L385.239,2.7Z" style="fill:rgb(35,31,32);"/>
                </g>
                <g transform="matrix(1.06543,0,0,1.06543,-364.808,-5.43282)">
                    <path d="M375.346,2.166C375.071,1.849 374.666,1.648 374.214,1.648C373.386,1.648 372.714,2.321 372.714,3.148C372.714,3.311 372.721,3.787 373.187,4.256C373.411,4.482 374.539,5.303 374.762,5.526C374.969,5.733 375.202,6.285 375.202,6.285C375.399,6.695 375.771,6.993 376.214,7.096C376.657,7.199 377.122,7.096 377.48,6.816C377.48,6.816 379.372,5.318 380.443,4.783C382.45,3.779 386.209,3.582 388.318,4.636C389.058,5.007 389.96,4.706 390.33,3.966C390.7,3.225 390.4,2.323 389.659,1.953C386.833,0.54 381.792,0.754 379.102,2.099C378.491,2.404 377.65,2.972 376.949,3.474C376.927,3.449 376.905,3.426 376.883,3.404C376.681,3.202 375.544,2.319 375.346,2.166Z" style="fill:rgb(35,31,32);"/>
                </g>
                <g transform="matrix(1,0,0,1,8.5755,41.3012)">
                    <path d="M0,-7.094C-0.01,-4.752 -0.019,-2.41 -0.029,-0.068C1.608,-0.289 3.245,-0.511 4.882,-0.732C4.203,-2.651 3.641,-4.607 3.198,-6.592C2.913,-7.87 1.364,-8.74 0.123,-8.339C-1.218,-7.905 -1.929,-6.632 -1.623,-5.263C-1.18,-3.277 -0.618,-1.321 0.06,0.597C0.479,1.78 1.518,2.56 2.803,2.388C4.023,2.224 4.966,1.186 4.971,-0.068C4.981,-2.41 4.99,-4.752 5,-7.094C5.005,-8.402 3.846,-9.654 2.5,-9.594C1.141,-9.533 0.006,-8.496 0,-7.094" style="fill:rgb(35,31,32);fill-rule:nonzero;"/>
                </g>
                <g transform="matrix(1.06543,0,0,1.06543,-364.808,-7.56367)">
                    <path d="M389.252,1.818C382.709,0.649 375.304,0.959 368.753,2.066C366.003,2.531 362.453,3.432 360.395,5.477C358.511,7.348 357.406,11.282 356.621,13.756C356.371,14.546 356.808,15.389 357.598,15.64C358.387,15.89 359.231,15.452 359.481,14.663C360.143,12.575 360.919,9.185 362.509,7.605C364.156,5.969 367.053,5.396 369.253,5.024C375.476,3.972 382.509,3.661 388.725,4.771C389.54,4.917 390.319,4.374 390.465,3.559C390.611,2.744 390.067,1.964 389.252,1.818Z" style="fill:rgb(35,31,32);"/>
                </g>
            </g>
        </g>
    </g>
</svg>
