<?xml version="1.0" encoding="UTF-8" standalone="no"?>
<!DOCTYPE svg PUBLIC "-//W3C//DTD SVG 1.1//EN" "http://www.w3.org/Graphics/SVG/1.1/DTD/svg11.dtd">
<svg width="100%" height="100%" viewBox="0 0 100 100" version="1.1" xmlns="http://www.w3.org/2000/svg" xmlns:xlink="http://www.w3.org/1999/xlink" xml:space="preserve" xmlns:serif="http://www.serif.com/" style="fill-rule:evenodd;clip-rule:evenodd;stroke-linejoin:round;stroke-miterlimit:2;">
    <g transform="matrix(1,0,0,1,-450,0)">
        <g id="Page-5" serif:id="Page 5" transform="matrix(1,0,0,1,450,0)">
            <rect x="0" y="0" width="100" height="100" style="fill:none;"/>
            <g id="Drawing">
                <g transform="matrix(1,0,0,1,35.63,50.6435)">
                    <path d="M0,4.292C2.762,4.292 2.766,0 0,0C-2.762,0 -2.766,4.292 0,4.292" style="fill:rgb(35,31,32);fill-rule:nonzero;"/>
                </g>
                <g transform="matrix(1,0,0,1,67.7079,50.0672)">
                    <path d="M0,4.292C2.762,4.292 2.766,0 0,0C-2.762,0 -2.766,4.292 0,4.292" style="fill:rgb(35,31,32);fill-rule:nonzero;"/>
                </g>
                <g transform="matrix(1,0,0,1,23.3598,74.3625)">
                    <path d="M0,-9.672C2.36,-1.456 11.138,1.258 18.641,2.613C23.04,3.407 27.493,3.791 31.933,3.115C36.153,2.473 40.081,0.737 43.953,-0.986C47.487,-2.56 51.332,-4.503 52.94,-8.261C53.396,-9.326 53.258,-10.561 52.17,-11.197C51.267,-11.726 49.693,-11.499 49.234,-10.427C47.715,-6.876 43.609,-5.481 40.317,-4.043C35.896,-2.111 31.471,-0.729 26.603,-0.809C21.92,-0.887 17.007,-1.763 12.573,-3.273C8.899,-4.524 5.264,-6.895 4.139,-10.813C3.378,-13.463 -0.765,-12.336 0,-9.672" style="fill:rgb(35,31,32);fill-rule:nonzero;"/>
                </g>
                <g transform="matrix(1,0,0,1,23,53.5321)">
                    <path d="M0,6.911C-0.225,6.96 -0.26,6.968 -0.105,6.935C0.05,6.909 0.015,6.902 -0.21,6.914C0.101,6.995 -0.148,6.928 -0.319,6.885C-0.392,6.867 -0.91,6.69 -0.73,6.763C-0.507,6.854 -0.987,6.633 -1.03,6.61C-1.652,6.282 -2.239,5.885 -2.811,5.478C-3.303,5.128 -2.504,5.751 -2.963,5.361C-3.08,5.261 -3.198,5.163 -3.312,5.06C-3.563,4.834 -3.79,4.59 -4.022,4.344C-4.293,4.056 -3.951,4.479 -4.084,4.278C-4.186,4.125 -4.293,3.978 -4.387,3.82C-4.466,3.688 -4.536,3.553 -4.608,3.417C-4.866,2.925 -4.516,3.783 -4.672,3.249C-4.759,2.953 -4.842,2.662 -4.894,2.357C-4.81,2.851 -4.884,2.314 -4.887,2.197C-4.891,2.012 -4.882,1.832 -4.872,1.648C-4.851,1.239 -4.942,1.819 -4.858,1.587C-4.808,1.449 -4.78,1.29 -4.743,1.146C-4.612,0.633 -4.924,1.424 -4.693,0.997C-4.614,0.851 -4.525,0.712 -4.444,0.567C-4.255,0.229 -4.6,0.705 -4.43,0.541C-4.331,0.445 -4.245,0.335 -4.145,0.24C-4.049,0.148 -3.668,-0.088 -4.07,0.153C-3.953,0.083 -3.842,0 -3.723,-0.069C-3.604,-0.138 -3.482,-0.199 -3.358,-0.259C-3.826,-0.034 -3.382,-0.233 -3.256,-0.268C-3.177,-0.29 -3.098,-0.309 -3.017,-0.325C-2.856,-0.356 -2.911,-0.352 -3.184,-0.311C-3.064,-0.37 -2.816,-0.328 -2.691,-0.326C-1.568,-0.309 -0.493,-1.325 -0.545,-2.472C-0.598,-3.65 -1.488,-4.6 -2.691,-4.618C-4.863,-4.651 -6.836,-3.495 -8.057,-1.735C-9.232,-0.042 -9.455,2.266 -8.867,4.215C-8.245,6.277 -6.817,7.813 -5.127,9.074C-3.304,10.434 -1.196,11.562 1.141,11.05C2.239,10.809 2.984,9.472 2.64,8.41C2.266,7.255 1.176,6.653 0,6.911" style="fill:rgb(35,31,32);fill-rule:nonzero;"/>
                </g>
                <g transform="matrix(1,0,0,1,74.7737,52.2775)">
                    <path d="M0,13.567C3.765,14.535 7.765,12.995 9.996,9.843C11.225,8.106 11.74,5.757 11.196,3.685C10.66,1.644 9.091,-0.019 7.076,-0.638C6.002,-0.968 4.688,-0.247 4.436,0.861C4.171,2.023 4.785,3.148 5.934,3.501C6.027,3.527 6.117,3.557 6.207,3.591C5.938,3.472 5.875,3.449 6.02,3.52C6.072,3.553 6.454,3.721 6.448,3.777C6.379,3.722 6.31,3.668 6.24,3.614C6.314,3.675 6.386,3.738 6.455,3.804C6.515,3.862 6.676,4.087 6.75,4.118C6.566,3.87 6.541,3.84 6.676,4.029C6.717,4.088 6.756,4.149 6.792,4.211C6.833,4.279 7.058,4.589 7.03,4.659C6.995,4.577 6.96,4.495 6.925,4.413C6.959,4.504 6.99,4.595 7.018,4.687C7.029,4.726 7.094,5.09 7.12,5.108C7.088,4.811 7.085,4.785 7.109,5.03L7.119,5.195C7.127,5.388 7.105,5.581 7.109,5.773C7.095,5.937 7.105,5.883 7.139,5.613C7.122,5.723 7.102,5.831 7.078,5.94C7.043,6.102 7,6.263 6.951,6.422C6.902,6.577 6.856,6.747 6.782,6.893C7.027,6.407 6.728,6.963 6.675,7.059C6.582,7.23 6.481,7.396 6.372,7.557C6.344,7.597 6.317,7.637 6.289,7.677C6.152,7.863 6.177,7.834 6.362,7.589C6.144,7.731 5.964,8.041 5.771,8.224C5.648,8.34 5.518,8.446 5.391,8.558C5.267,8.658 5.317,8.62 5.539,8.444C5.461,8.501 5.383,8.556 5.302,8.61C5.062,8.772 4.812,8.92 4.554,9.052C4.49,9.085 3.95,9.297 4.283,9.187C4.626,9.074 4.055,9.264 3.997,9.283C3.721,9.374 3.44,9.448 3.156,9.507C2.619,9.617 3.148,9.554 3.154,9.523C3.146,9.559 2.63,9.568 2.577,9.57C2.287,9.582 2,9.568 1.711,9.551C1.241,9.523 2.133,9.644 1.707,9.553C1.518,9.513 1.329,9.476 1.141,9.428C0.055,9.149 -1.239,9.784 -1.499,10.927C-1.754,12.045 -1.163,13.268 0,13.567" style="fill:rgb(35,31,32);fill-rule:nonzero;"/>
                </g>
                <g transform="matrix(1,0,0,1,81.9378,27.0007)">
                    <path d="M0,23.761C-2.112,16.67 -7.605,11.557 -13.143,6.992C-19.318,1.902 -26.236,-3.782 -34.766,-3.13C-37.503,-2.921 -37.526,1.373 -34.766,1.162C-27.294,0.591 -21.261,5.82 -15.871,10.281C-11.058,14.265 -5.984,18.708 -4.139,24.902C-3.352,27.543 0.792,26.418 0,23.761" style="fill:rgb(35,31,32);fill-rule:nonzero;"/>
                </g>
                <g transform="matrix(1,0,0,1,46.7405,59.0208)">
                    <path d="M0,-35.654C-7.42,-35.144 -13.128,-29.914 -17.392,-24.232C-21.934,-18.18 -25.089,-11.164 -28.491,-4.444C-29.736,-1.986 -26.034,0.19 -24.784,-2.278C-21.635,-8.498 -18.696,-14.938 -14.694,-20.673C-11.3,-25.537 -6.315,-30.928 0,-31.362C2.741,-31.55 2.762,-35.844 0,-35.654" style="fill:rgb(35,31,32);fill-rule:nonzero;"/>
                </g>
                <g transform="matrix(1,0,0,1,25.3191,89.9019)">
                    <path d="M0,-17.519C-0.04,-11.463 -0.329,-5.412 -0.866,0.62C-0.969,1.776 0.194,2.766 1.28,2.766C2.527,2.766 3.323,1.78 3.426,0.62C3.964,-5.412 4.253,-11.463 4.292,-17.519C4.311,-20.282 0.018,-20.285 0,-17.519" style="fill:rgb(35,31,32);fill-rule:nonzero;"/>
                </g>
                <g transform="matrix(1,0,0,1,26.6668,90.8797)">
                    <path d="M0,-2.064C-7.263,-2.108 -14.498,-2.773 -21.64,-4.098C-22.778,-4.309 -23.954,-3.784 -24.28,-2.599C-24.567,-1.555 -23.926,-0.172 -22.781,0.041C-15.266,1.435 -7.644,2.182 0,2.228C2.763,2.245 2.766,-2.047 0,-2.064" style="fill:rgb(35,31,32);fill-rule:nonzero;"/>
                </g>
                <g transform="matrix(1,0,0,1,6.2864,0.6933)">
                    <path d="M0,88.085C1.126,73.188 -1.74,57.935 1.519,43.214C4.366,30.351 12.644,19.421 23.715,12.413C29.571,8.706 38.207,5.239 44.453,10.185C45.361,10.904 46.602,11.071 47.488,10.185C48.235,9.438 48.402,7.873 47.488,7.15C34.982,-2.755 18.122,9.232 9.478,18.851C4.776,24.084 1.074,30.177 -1.176,36.854C-3.743,44.473 -4.316,52.616 -4.316,60.603C-4.316,69.765 -3.601,78.932 -4.292,88.085C-4.501,90.84 -0.207,90.827 0,88.085" style="fill:rgb(35,31,32);fill-rule:nonzero;"/>
                </g>
                <g transform="matrix(1,0,0,1,52.3833,93.0221)">
                    <path d="M0,-81.016C6.799,-81.599 13.992,-82.139 19.89,-78.068C25.138,-74.445 29.024,-68.621 31.836,-63C37.898,-50.878 39.628,-36.721 39.526,-23.32C39.493,-18.99 39.23,-14.662 38.741,-10.36C38.509,-8.319 38.218,-6.287 37.875,-4.262C37.688,-3.155 37.485,-2.051 37.267,-0.949C37.119,-0.196 36.975,1.362 36.697,1.808C36.953,1.551 37.21,1.295 37.467,1.038C37.393,1.078 37.32,1.118 37.246,1.158C37.607,1.06 37.968,0.963 38.329,0.865C37.555,0.935 36.722,0.68 35.955,0.56L33.297,0.146C31.525,-0.13 29.753,-0.405 27.981,-0.681C26.128,-0.97 24.276,-1.258 22.423,-1.547L20.007,-1.923C19.745,-1.964 17.402,-2.525 17.264,-2.357C17.387,-2.17 17.51,-1.984 17.632,-1.797C17.607,-2.039 17.583,-2.281 17.559,-2.523C17.511,-3.006 17.465,-3.49 17.42,-3.974C17.339,-4.862 17.263,-5.75 17.192,-6.638C17.052,-8.415 16.934,-10.193 16.839,-11.973C16.641,-15.695 16.548,-19.421 16.546,-23.148C16.545,-25.91 12.253,-25.915 12.254,-23.148C12.256,-17.315 12.491,-11.483 12.979,-5.669C13.192,-3.132 12.819,0.722 15.802,1.697C16.991,2.085 18.358,2.137 19.591,2.329C21.121,2.567 22.652,2.806 24.182,3.044C27.082,3.495 29.981,3.947 32.881,4.398C34.25,4.611 35.618,4.834 36.988,5.038C38.389,5.246 39.757,5.158 40.531,3.769C41.128,2.698 41.22,1.143 41.453,-0.044C41.745,-1.54 42.01,-3.04 42.247,-4.545C42.7,-7.427 43.064,-10.326 43.326,-13.232C44.313,-24.199 43.895,-35.392 41.801,-46.213C39.954,-55.754 36.546,-65.271 30.667,-73.099C27.272,-77.619 23.198,-81.868 17.855,-84.002C12.198,-86.262 5.934,-85.817 0,-85.308C-2.732,-85.074 -2.756,-80.78 0,-81.016" style="fill:rgb(35,31,32);fill-rule:nonzero;"/>
                </g>
                <g transform="matrix(1,0,0,1,27.6322,68.8856)">
                    <path d="M0,4.292C2.762,4.292 2.766,0 0,0C-2.762,0 -2.766,4.292 0,4.292" style="fill:rgb(35,31,32);fill-rule:nonzero;"/>
                </g>
                <g transform="matrix(1,0,0,1,49.3147,59.3496)">
                    <path d="M0,5.567C2.633,5.888 5.371,5.265 7.676,3.973C8.656,3.424 9.066,1.999 8.446,1.037C7.806,0.046 6.558,-0.321 5.509,0.267C5.144,0.472 4.77,0.655 4.385,0.819C4.556,0.747 4.727,0.674 4.898,0.602C4.017,0.966 3.1,1.212 2.156,1.342C2.346,1.317 2.536,1.291 2.726,1.266C1.819,1.381 0.908,1.385 0,1.275C-0.507,1.213 -1.173,1.559 -1.518,1.903C-1.89,2.275 -2.17,2.886 -2.146,3.421C-2.121,3.976 -1.939,4.552 -1.518,4.938C-1.07,5.349 -0.598,5.494 0,5.567" style="fill:rgb(35,31,32);fill-rule:nonzero;"/>
                </g>
            </g>
        </g>
    </g>
</svg>
