<?xml version="1.0" encoding="UTF-8" standalone="no"?>
<!DOCTYPE svg PUBLIC "-//W3C//DTD SVG 1.1//EN" "http://www.w3.org/Graphics/SVG/1.1/DTD/svg11.dtd">
<svg width="100%" height="100%" viewBox="0 0 100 100" version="1.1" xmlns="http://www.w3.org/2000/svg" xmlns:xlink="http://www.w3.org/1999/xlink" xml:space="preserve" xmlns:serif="http://www.serif.com/" style="fill-rule:evenodd;clip-rule:evenodd;stroke-linejoin:round;stroke-miterlimit:2;">
    <g transform="matrix(1,0,0,1,-562.5,0)">
        <g id="Page-6" serif:id="Page 6" transform="matrix(1,0,0,1,562.5,0)">
            <rect x="0" y="0" width="100" height="100" style="fill:none;"/>
            <g id="Drawing">
                <g transform="matrix(1,0,0,1,19.4124,65.7507)">
                    <path d="M0,-33.811C-1.119,-28.327 -1.119,-22.711 0.091,-17.241C0.664,-14.653 1.617,-12.221 2.534,-9.744C3.417,-7.358 4.292,-4.851 3.533,-2.323C2.606,0.766 7.43,2.086 8.354,-0.993C10.022,-6.553 6.776,-11.617 5.347,-16.817C3.947,-21.913 3.765,-27.304 4.821,-32.482C5.091,-33.803 4.439,-35.182 3.075,-35.557C1.84,-35.897 0.271,-35.14 0,-33.811" style="fill:rgb(35,31,32);fill-rule:nonzero;"/>
                </g>
                <g transform="matrix(1,0,0,1,20.7987,64.3903)">
                    <path d="M0,-11.546C-0.019,-4.217 0.16,3.931 4.345,10.267C8.869,17.117 16.67,19.371 24.389,20.396C32.013,21.407 41.153,22.74 47.732,17.747C54.152,12.875 57.588,4.329 59.385,-3.286C61.528,-12.368 61.651,-21.781 61.682,-31.064C61.692,-34.281 56.692,-34.286 56.682,-31.064C56.657,-23.612 56.631,-16.078 55.387,-8.71C54.218,-1.781 52.017,5.688 47.417,11.174C45.144,13.884 42.365,15.514 38.862,16.075C35.316,16.642 31.615,16.207 28.072,15.83C21.78,15.161 14.546,14.306 9.988,9.42C4.897,3.962 4.982,-4.569 5,-11.546C5.008,-14.764 0.008,-14.768 0,-11.546" style="fill:rgb(35,31,32);fill-rule:nonzero;"/>
                </g>
                <g transform="matrix(1,0,0,1,82.1731,32.6147)">
                    <path d="M0,-0.965C-0.26,-1.485 -0.52,-2.004 -0.78,-2.524C-0.937,-2.815 -1.151,-3.049 -1.424,-3.225C-1.665,-3.446 -1.948,-3.595 -2.274,-3.673C-2.606,-3.777 -2.938,-3.792 -3.271,-3.717C-3.603,-3.702 -3.913,-3.603 -4.2,-3.421C-4.369,-3.29 -4.537,-3.16 -4.706,-3.03C-5.016,-2.718 -5.23,-2.35 -5.349,-1.926L-5.438,-1.262C-5.437,-0.811 -5.323,-0.39 -5.097,0C-4.837,0.519 -4.577,1.039 -4.317,1.559C-4.16,1.85 -3.946,2.084 -3.673,2.26C-3.432,2.481 -3.149,2.63 -2.823,2.708C-2.491,2.812 -2.159,2.827 -1.826,2.752C-1.494,2.737 -1.184,2.638 -0.897,2.455C-0.728,2.325 -0.56,2.195 -0.391,2.065C-0.081,1.753 0.133,1.385 0.252,0.961C0.282,0.74 0.312,0.518 0.341,0.297C0.34,-0.154 0.226,-0.575 0,-0.965" style="fill:rgb(35,31,32);fill-rule:nonzero;"/>
                </g>
                <g transform="matrix(1,0,0,1,29.7125,19.9053)">
                    <path d="M0,5C3.217,5 3.223,0 0,0C-3.217,0 -3.223,5 0,5" style="fill:rgb(35,31,32);fill-rule:nonzero;"/>
                </g>
                <g transform="matrix(1,0,0,1,29.7125,19.5156)">
                    <path d="M0,5C3.217,5 3.223,0 0,0C-3.217,0 -3.223,5 0,5" style="fill:rgb(35,31,32);fill-rule:nonzero;"/>
                </g>
                <g transform="matrix(1,0,0,1,29.0651,20.895)">
                    <path d="M0,3.415C13.246,5.453 27.175,7.492 40.166,3.015C41.9,2.418 42.678,0.223 41.269,-1.163C41.047,-1.382 40.825,-1.6 40.603,-1.818C38.307,-4.077 34.769,-0.544 37.068,1.717C37.29,1.936 37.512,2.154 37.734,2.372L38.837,-1.806C26.709,2.373 13.707,0.498 1.329,-1.406C-0.004,-1.611 -1.359,-1.069 -1.746,0.34C-2.071,1.524 -1.342,3.208 0,3.415" style="fill:rgb(35,31,32);fill-rule:nonzero;"/>
                </g>
                <g transform="matrix(1,0,0,1,24.7652,25.5726)">
                    <path d="M0,-1.589C1.117,-0.841 2.408,-0.492 3.747,-0.498C3.526,-2.134 3.304,-3.771 3.083,-5.408C-0.944,-4.147 -3.395,-1.17 -4.699,2.731C-4.968,3.533 -5.196,4.199 -5.752,4.842C-6.422,5.618 -7.146,6.312 -7.622,7.235C-8.626,9.182 -8.634,11.413 -8.497,13.544C-6.944,13.124 -5.391,12.703 -3.838,12.283C-5.056,10.216 -3.919,7.508 -3.186,5.456C-2.131,2.505 -0.872,-0.362 0.469,-3.193C1.137,-4.602 1.824,-6.001 2.517,-7.397C3.17,-8.713 3.742,-10.197 4.602,-11.394C5.95,-13.268 8.692,-13.252 10.773,-13.326C13.981,-13.44 13.996,-18.44 10.773,-18.326C7.547,-18.211 4.052,-17.87 1.593,-15.534C0.27,-14.275 -0.478,-12.573 -1.279,-10.967C-2.149,-9.224 -3.014,-7.478 -3.848,-5.717C-5.472,-2.289 -7.001,1.2 -8.239,4.788C-9.365,8.051 -10,11.675 -8.156,14.806C-6.951,16.851 -3.334,16.092 -3.497,13.544C-3.58,12.244 -3.821,10.599 -3.122,9.418C-2.757,8.8 -2.141,8.32 -1.689,7.757C-1.065,6.981 -0.646,6.148 -0.284,5.223C0.22,3.936 0.483,2.593 1.358,1.484C2.14,0.492 3.216,-0.212 4.412,-0.587C7.054,-1.414 6.641,-5.51 3.747,-5.498C3.226,-5.495 2.949,-5.621 2.524,-5.906C-0.157,-7.703 -2.663,-3.373 0,-1.589" style="fill:rgb(35,31,32);fill-rule:nonzero;"/>
                </g>
                <g transform="matrix(1,0,0,1,35.558,7.435)">
                    <path d="M0,5C3.217,5 3.223,0 0,0C-3.217,0 -3.223,5 0,5" style="fill:rgb(35,31,32);fill-rule:nonzero;"/>
                </g>
                <g transform="matrix(1,0,0,1,36.3469,12.6823)">
                    <path d="M0,-1.212C6.415,-1.61 12.83,-2.082 19.249,-2.4C21.832,-2.528 24.673,-2.63 27.069,-1.485C28.864,-0.627 30.466,1.005 30.481,3.081C30.503,6.297 35.503,6.305 35.481,3.081C35.458,-0.175 33.706,-2.931 31.143,-4.832C28.499,-6.793 25.149,-7.403 21.921,-7.458C18.389,-7.517 14.828,-7.132 11.306,-6.914C7.537,-6.68 3.769,-6.446 0,-6.212C-3.196,-6.014 -3.219,-1.012 0,-1.212" style="fill:rgb(35,31,32);fill-rule:nonzero;"/>
                </g>
                <g transform="matrix(1,0,0,1,66.4469,18.6279)">
                    <path d="M0,-6.599C-0.392,-4.681 -0.923,-2.779 -1.682,-0.972C-1.817,-0.65 -1.958,-0.324 -2.117,-0.013C-2.218,0.194 -2.333,0.393 -2.461,0.585C-2.402,0.52 -2.343,0.455 -2.283,0.39C-1.765,0.299 -2.904,0.313 -3.051,0.301C-3.525,0.259 -3.997,0.2 -4.47,0.149C-8.646,-0.301 -12.823,-0.751 -16.999,-1.201C-20.86,-1.617 -24.787,-1.867 -28.583,-2.716C-32.57,-3.608 -36.524,-4.985 -40.611,-3.799L-37.536,-2.053C-37.567,-2.14 -37.598,-2.227 -37.63,-2.315L-37.63,-0.985C-37.604,-1.074 -37.578,-1.162 -37.553,-1.251C-37.767,-0.883 -37.981,-0.515 -38.196,-0.148C-37.772,-0.678 -36.636,-0.924 -35.995,-1.188C-35.007,-1.596 -34.015,-1.997 -33.015,-2.379C-30.954,-3.166 -28.861,-3.879 -26.72,-4.421C-22.502,-5.49 -18.154,-5.43 -13.939,-6.541C-10.422,-7.469 -6.885,-7.172 -3.76,-5.2C-3.617,-5.11 -3.082,-4.605 -2.88,-4.58C-3.16,-4.614 -2.666,-4.439 -2.696,-4.454C-2.673,-4.442 -2.706,-4.833 -2.694,-4.842C-2.621,-4.899 -2.787,-4.583 -2.896,-4.539C-3.217,-4.407 -3.497,-4.331 -3.84,-4.3C-6.008,-4.105 -8.381,-4.597 -10.544,-4.783C-15.921,-5.245 -21.298,-5.707 -26.676,-6.169C-26.454,-4.532 -26.233,-2.896 -26.011,-1.259C-21.507,-2.458 -16.737,-2.93 -12.142,-3.69C-11.006,-3.878 -9.869,-4.066 -8.733,-4.254C-7.807,-4.408 -6.669,-4.763 -5.715,-4.596C-4.846,-4.444 -4.001,-3.881 -3.216,-3.507C-2.016,-2.934 -0.816,-2.362 0.384,-1.79C0.216,-3.098 0.047,-4.407 -0.122,-5.716C-1.585,-4.443 -4.369,-4.875 -5.441,-6.598C-5.939,-5.374 -6.438,-4.15 -6.936,-2.926C-4.96,-3.28 -2.985,-3.634 -1.009,-3.988C0.057,-4.179 0.826,-5.375 0.826,-6.399C0.826,-7.558 0.034,-8.429 -1.009,-8.809C-4.519,-10.09 -8.308,-10.163 -11.993,-9.885C-15.565,-9.615 -19.134,-9.213 -22.695,-8.826C-29.324,-8.105 -35.898,-6.932 -41.234,-2.652C-42.28,-1.813 -42.119,0.02 -41.234,0.884C-40.973,1.138 -40.712,1.393 -40.451,1.648C-38.146,3.897 -34.607,0.365 -36.915,-1.887C-37.176,-2.142 -37.437,-2.397 -37.699,-2.652L-37.699,0.884C-33.321,-2.628 -27.281,-3.347 -21.89,-3.912C-18.595,-4.257 -15.297,-4.634 -11.993,-4.885C-8.707,-5.135 -5.469,-5.13 -2.339,-3.988L-2.339,-8.809C-4.314,-8.455 -6.289,-8.101 -8.265,-7.747C-9.847,-7.464 -10.553,-5.351 -9.759,-4.075C-6.942,0.452 -0.563,1.281 3.414,-2.18C4.565,-3.182 4.307,-5.44 2.908,-6.107C0.624,-7.197 -1.752,-8.685 -4.199,-9.357C-6.697,-10.044 -9.525,-9.165 -12.01,-8.753C-14.608,-8.324 -17.205,-7.894 -19.802,-7.464C-22.316,-7.048 -24.875,-6.736 -27.34,-6.08C-30.198,-5.319 -29.382,-1.402 -26.676,-1.169L-9.055,0.345C-6.337,0.578 -3.226,1.245 -0.676,-0.057C1.651,-1.245 3.057,-4.25 1.776,-6.683C0.628,-8.865 -2.132,-10.186 -4.336,-11.023C-6.579,-11.876 -9.097,-12.249 -11.489,-12.046C-14.064,-11.827 -16.456,-10.831 -19.007,-10.531C-21.823,-10.199 -24.613,-10.057 -27.387,-9.405C-30.354,-8.709 -33.227,-7.665 -36.051,-6.529C-38.394,-5.587 -43.639,-4.3 -42.357,-0.724C-41.906,0.534 -40.662,1.423 -39.282,1.022C-37.341,0.459 -35.426,0.77 -33.493,1.223C-31.389,1.716 -29.32,2.285 -27.18,2.614C-22.83,3.283 -18.425,3.645 -14.051,4.116C-11.84,4.355 -9.629,4.593 -7.418,4.832C-5.407,5.048 -3.064,5.65 -1.055,5.208C1.205,4.711 2.158,2.715 2.966,0.775C3.781,-1.182 4.397,-3.192 4.821,-5.27C5.091,-6.591 4.439,-7.97 3.075,-8.345C1.84,-8.685 0.271,-7.928 0,-6.599" style="fill:rgb(35,31,32);fill-rule:nonzero;"/>
                </g>
                <g transform="matrix(1,0,0,1,78.0349,29.258)">
                    <path d="M0,5C3.217,5 3.223,0 0,0C-3.217,0 -3.223,5 0,5" style="fill:rgb(35,31,32);fill-rule:nonzero;"/>
                </g>
                <g transform="matrix(1,0,0,1,82.1579,14.6486)">
                    <path d="M0,15.947C0.134,13.714 -0.834,11.632 -1.953,9.761C-2.866,8.233 -3.813,6.716 -4.855,5.272C-7.161,2.074 -9.865,-0.608 -13.583,-2.076C-14.803,-2.558 -16.381,-1.55 -16.659,-0.33C-16.987,1.109 -16.218,2.23 -14.913,2.745C-14.215,3.021 -15.135,2.631 -14.75,2.817C-14.574,2.901 -14.399,2.986 -14.226,3.077C-13.884,3.259 -13.55,3.457 -13.226,3.67C-13.096,3.755 -12.968,3.842 -12.842,3.931C-12.853,3.923 -12.331,4.321 -12.537,4.154C-12.757,3.976 -12.29,4.366 -12.248,4.402C-12.101,4.529 -11.956,4.659 -11.813,4.792C-11.264,5.3 -10.748,5.845 -10.261,6.412C-10.001,6.714 -9.747,7.022 -9.503,7.338C-9.714,7.065 -9.468,7.391 -9.386,7.503C-9.266,7.665 -9.148,7.828 -9.032,7.992C-8.147,9.234 -7.339,10.53 -6.545,11.831C-6.085,12.584 -5.595,13.351 -5.263,14.172C-5.361,13.931 -5.252,14.231 -5.227,14.312C-5.163,14.52 -5.098,14.725 -5.048,14.938C-5.016,15.074 -4.97,15.514 -4.995,15.166C-4.976,15.427 -4.984,15.686 -5,15.947C-5.078,17.255 -3.794,18.505 -2.5,18.447C-1.078,18.383 -0.084,17.348 0,15.947" style="fill:rgb(35,31,32);fill-rule:nonzero;"/>
                </g>
                <g transform="matrix(1,0,0,1,65.3932,18.7076)">
                    <path d="M0,3.605C2.385,4.779 4.42,3.818 6.636,2.765C8.794,1.741 10.951,0.716 13.108,-0.309C14.237,-0.845 14.764,-2.711 14.005,-3.729C10.949,-7.833 6.788,-10.822 1.837,-12.205L1.837,-7.384C5.835,-8.145 9.648,-5.135 11.42,-1.773C13.818,2.778 13.041,8.411 11.748,13.159L16.317,12.562C14.764,9.849 14.395,7.069 13.808,4.06C13.558,2.779 13.13,1.486 12.352,0.428C11.9,-0.187 11.387,-0.703 10.735,-1.11C10.39,-1.326 10.012,-1.484 9.629,-1.623C9.484,-1.685 9.335,-1.733 9.181,-1.769C8.521,-2.006 8.7,-1.772 9.719,-1.068L9.719,0.262C9.738,0.184 9.757,0.107 9.775,0.03L9.132,1.133L9.293,0.955C11.442,-1.429 7.917,-4.976 5.757,-2.58C4.041,-0.676 4.929,1.994 7.239,2.854C7.427,2.924 8.13,3.151 8.094,3.131C7.856,3.004 8.36,3.416 8.203,3.173C8.585,3.762 8.684,4.079 8.853,4.77C9.239,6.353 9.317,7.991 9.724,9.572C10.22,11.498 11.013,13.362 12,15.086C13.069,16.954 16.007,16.553 16.569,14.489C18.281,8.205 18.86,0.926 15.397,-4.903C12.34,-10.049 6.514,-13.349 0.508,-12.205C-1.998,-11.728 -1.745,-8.013 0.508,-7.384C4.122,-6.374 7.433,-4.234 9.688,-1.205C9.987,-2.346 10.286,-3.486 10.585,-4.626C8.984,-3.866 7.383,-3.106 5.783,-2.345C5.017,-1.982 4.249,-1.623 3.486,-1.255C3.227,-1.129 2.883,-1.029 2.641,-0.887C2.335,-0.707 2.074,-0.934 2.524,-0.712C1.313,-1.308 -0.181,-1.039 -0.897,0.185C-1.542,1.287 -1.216,3.006 0,3.605" style="fill:rgb(35,31,32);fill-rule:nonzero;"/>
                </g>
                <g transform="matrix(1,0,0,1,20.0757,9.0703)">
                    <path d="M0,21.731C0.635,17.595 2.204,13.742 3.997,9.988C5.487,6.869 6.829,2.929 10.842,2.929C14.059,2.929 14.064,-2.071 10.842,-2.071C8.335,-2.071 5.978,-1.188 4.069,0.428C2.206,2.006 1.21,4.302 0.169,6.448C-1.988,10.897 -4.066,15.477 -4.821,20.402C-5.026,21.735 -4.484,23.09 -3.075,23.477C-1.892,23.802 -0.206,23.074 0,21.731" style="fill:rgb(35,31,32);fill-rule:nonzero;"/>
                </g>
                <g transform="matrix(1,0,0,1,35.7705,35.8836)">
                    <path d="M0,10.426C0.444,9.549 0.888,8.671 1.386,7.822C1.633,7.399 1.893,6.984 2.172,6.581C2.177,6.573 2.633,5.96 2.363,6.302C2.514,6.11 2.674,5.924 2.837,5.742C3.139,5.407 3.464,5.098 3.804,4.801C4.326,4.343 3.422,5.034 4.002,4.652C4.187,4.529 4.37,4.407 4.562,4.295C4.753,4.184 4.954,4.094 5.146,3.986C4.71,4.232 5.259,3.945 5.36,3.911C5.568,3.842 5.777,3.793 5.988,3.736C6.618,3.564 5.528,3.728 6.182,3.695C6.4,3.684 6.62,3.697 6.837,3.684C7.336,3.653 6.419,3.543 6.941,3.69C7.127,3.743 7.317,3.795 7.504,3.843C7.984,3.966 7.167,3.614 7.624,3.894C7.789,3.996 7.96,4.093 8.127,4.19C8.548,4.437 7.877,3.887 8.227,4.277C8.354,4.419 8.495,4.549 8.622,4.692C8.351,4.387 8.511,4.598 8.663,4.807C8.94,5.188 8.597,4.403 8.716,4.897C8.752,5.049 8.971,5.59 8.785,4.977C8.879,5.288 8.815,5.72 8.829,6.041C8.886,7.319 9.196,8.475 10.111,9.411C11.026,10.348 12.74,10.398 13.646,9.411C14.571,8.404 14.623,6.876 13.646,5.876C13.829,6.16 13.852,6.186 13.716,5.954C13.851,6.279 13.88,6.308 13.805,6.039C13.941,6.661 13.831,6.104 13.825,5.944C13.801,5.327 13.784,4.733 13.671,4.121C13.453,2.948 12.829,1.887 12.032,1.013C10.536,-0.626 8.161,-1.498 5.965,-1.284C3.532,-1.047 1.328,0.135 -0.38,1.868C-2.084,3.597 -3.232,5.758 -4.317,7.902C-4.907,9.068 -4.663,10.666 -3.42,11.323C-2.282,11.924 -0.631,11.672 0,10.426" style="fill:rgb(35,31,32);fill-rule:nonzero;"/>
                </g>
                <g transform="matrix(1,0,0,1,63.7923,39.7697)">
                    <path d="M0,2.827C-0.171,3.203 -0.195,3.276 -0.071,3.047C0.073,2.831 0.025,2.891 -0.215,3.224C-0.154,3.156 -0.088,3.092 -0.019,3.032C-0.348,3.274 -0.405,3.322 -0.19,3.176C0.417,2.869 -0.569,3.244 -0.145,3.124C0.001,3.083 0.296,3.057 0.417,2.978C-0.007,3.027 -0.084,3.038 0.186,3.013C0.283,3.006 0.379,3.002 0.476,3.003C0.611,3.003 0.836,2.978 0.954,3.032C0.605,2.984 0.573,2.984 0.855,3.034C0.98,3.06 1.104,3.089 1.228,3.12C1.476,3.183 1.722,3.257 1.966,3.335C2.903,3.631 3.815,3.966 4.788,4.13C6.012,4.337 7.227,4.418 8.462,4.266C9.149,4.181 9.72,4.043 10.229,3.534C10.663,3.1 10.989,2.389 10.962,1.766C10.907,0.548 9.852,-0.905 8.462,-0.734C7.861,-0.66 7.258,-0.628 6.653,-0.656C6.519,-0.662 6.385,-0.67 6.251,-0.682C6.238,-0.683 5.605,-0.727 5.984,-0.707C6.315,-0.69 5.889,-0.731 5.82,-0.745C5.655,-0.777 5.491,-0.812 5.328,-0.852C4.204,-1.129 3.139,-1.618 1.997,-1.823C0.767,-2.045 -0.49,-2.075 -1.675,-1.619C-3.208,-1.03 -4.216,-0.024 -4.821,1.498C-5.306,2.716 -4.293,4.296 -3.075,4.573C-1.633,4.902 -0.518,4.132 0,2.827" style="fill:rgb(35,31,32);fill-rule:nonzero;"/>
                </g>
                <g transform="matrix(1,0,0,1,41.0137,48.3531)">
                    <path d="M0,5C3.217,5 3.223,0 0,0C-3.217,0 -3.223,5 0,5" style="fill:rgb(35,31,32);fill-rule:nonzero;"/>
                </g>
                <g transform="matrix(1,0,0,1,65.9543,48.7428)">
                    <path d="M0,5C3.217,5 3.223,0 0,0C-3.217,0 -3.223,5 0,5" style="fill:rgb(35,31,32);fill-rule:nonzero;"/>
                </g>
                <g transform="matrix(1,0,0,1,51.2487,59.8411)">
                    <path d="M0,-8.751C-0.562,-7.855 -1.061,-6.921 -1.485,-5.951C-1.76,-5.323 -2.026,-4.69 -2.258,-4.044C-2.485,-3.415 -2.713,-2.762 -2.677,-2.081C-2.602,-0.657 -1.723,0.422 -0.396,0.878C0.209,1.086 0.887,1.094 1.522,1.155C2.681,1.267 3.84,1.378 4.999,1.489C5.601,1.547 6.355,1.169 6.767,0.757C7.201,0.323 7.527,-0.388 7.499,-1.011C7.47,-1.657 7.258,-2.328 6.767,-2.779C6.253,-3.251 5.694,-3.444 4.999,-3.511C3.568,-3.648 2.128,-3.749 0.701,-3.927C0.923,-3.897 1.144,-3.867 1.366,-3.838C1.216,-3.86 1.075,-3.892 0.933,-3.944L1.53,-3.692C1.449,-3.728 1.383,-3.766 1.311,-3.818C1.48,-3.687 1.648,-3.557 1.817,-3.427C1.774,-3.462 1.735,-3.502 1.703,-3.547C1.833,-3.378 1.963,-3.209 2.094,-3.041C2.058,-3.09 2.03,-3.144 2.01,-3.202L2.262,-2.605C2.255,-2.636 2.247,-2.667 2.239,-2.698C2.269,-2.476 2.298,-2.255 2.328,-2.033C2.317,-2.135 2.317,-2.222 2.328,-2.324C2.298,-2.102 2.268,-1.881 2.238,-1.659C2.367,-2.393 2.704,-3.126 2.991,-3.809L2.739,-3.212C3.187,-4.257 3.713,-5.264 4.317,-6.227C5.013,-7.337 4.589,-9.031 3.42,-9.648C2.191,-10.298 0.743,-9.935 0,-8.751" style="fill:rgb(35,31,32);fill-rule:nonzero;"/>
                </g>
                <g transform="matrix(1,0,0,1,44.7999,62.0496)">
                    <path d="M0,5.257C4.749,3.886 10.023,4.119 14.486,6.048C15.724,6.584 17.167,6.415 17.907,5.151C18.524,4.096 18.256,2.269 17.01,1.731C11.204,-0.778 4.777,-1.327 -1.329,0.436C-2.626,0.81 -3.436,2.198 -3.075,3.511C-2.72,4.805 -1.302,5.633 0,5.257" style="fill:rgb(35,31,32);fill-rule:nonzero;"/>
                </g>
                <g transform="matrix(1,0,0,1,37.2681,69.3663)">
                    <path d="M0,1.04C4.907,3.98 10.53,5.068 16.165,5.518C18.752,5.725 21.45,5.975 24.044,5.833C26.68,5.688 29.19,4.704 30.058,2.004C31.046,-1.066 26.219,-2.381 25.237,0.675C25.326,0.396 25.537,0.562 25.171,0.626C25.148,0.63 24.558,0.793 24.327,0.822C23.662,0.906 22.642,0.83 21.859,0.806C19.538,0.734 17.215,0.635 14.903,0.406C10.578,-0.022 6.279,-1.027 2.524,-3.277C-0.243,-4.935 -2.76,-0.614 0,1.04" style="fill:rgb(35,31,32);fill-rule:nonzero;"/>
                </g>
                <g transform="matrix(1,0,0,1,49.9752,83.2202)">
                    <path d="M0,-7.617C-2.946,-7.44 -5.828,-6.576 -8.324,-4.985C-8.867,-4.639 -9.299,-4.121 -9.473,-3.491C-9.637,-2.892 -9.563,-2.096 -9.221,-1.564C-8.51,-0.462 -6.98,0.084 -5.8,-0.668C-5.107,-1.109 -4.382,-1.492 -3.627,-1.816C-3.826,-1.732 -4.025,-1.648 -4.224,-1.564C-3.01,-2.074 -1.742,-2.422 -0.438,-2.602C-0.659,-2.572 -0.881,-2.543 -1.102,-2.513C-0.736,-2.56 -0.369,-2.595 0,-2.617C0.664,-2.657 1.287,-2.869 1.768,-3.349C2.201,-3.783 2.528,-4.494 2.5,-5.117C2.442,-6.404 1.398,-7.701 0,-7.617" style="fill:rgb(35,31,32);fill-rule:nonzero;"/>
                </g>
                <g transform="matrix(1,0,0,1,49.3524,78.9416)">
                    <path d="M0,-0.186C2.282,2.135 5.313,3.805 8.52,4.401C9.192,4.525 9.839,4.504 10.447,4.149C10.965,3.845 11.46,3.251 11.595,2.655C11.875,1.427 11.224,-0.165 9.849,-0.421C8.862,-0.604 7.902,-0.891 6.975,-1.277L7.572,-1.025C6.463,-1.498 5.423,-2.103 4.465,-2.835C4.634,-2.705 4.802,-2.574 4.971,-2.444C4.464,-2.838 3.986,-3.264 3.536,-3.722C2.617,-4.655 0.908,-4.711 0,-3.722C-0.922,-2.717 -0.98,-1.183 0,-0.186" style="fill:rgb(35,31,32);fill-rule:nonzero;"/>
                </g>
                <g transform="matrix(1,0,0,1,52.0286,80.5245)">
                    <path d="M0,-5.632C-1.167,-5.362 -2.333,-5.092 -3.5,-4.822C-3.825,-4.744 -4.109,-4.595 -4.35,-4.374C-4.622,-4.198 -4.837,-3.964 -4.994,-3.673C-5.177,-3.386 -5.276,-3.076 -5.291,-2.743C-5.365,-2.411 -5.35,-2.079 -5.246,-1.746C-5.05,-1.142 -4.676,-0.558 -4.097,-0.252C-3.488,0.069 -2.849,0.157 -2.171,-0C-1.004,-0.27 0.162,-0.541 1.329,-0.811C1.655,-0.888 1.938,-1.037 2.179,-1.258C2.452,-1.434 2.666,-1.668 2.823,-1.96C3.006,-2.246 3.105,-2.556 3.12,-2.889C3.194,-3.221 3.179,-3.554 3.075,-3.886C2.88,-4.491 2.505,-5.074 1.926,-5.38C1.317,-5.702 0.678,-5.789 0,-5.632" style="fill:rgb(35,31,32);fill-rule:nonzero;"/>
                </g>
                <g transform="matrix(1,0,0,1,24.5468,55.2671)">
                    <path d="M0,-3.496C-0.42,-6.315 -2.278,-9.092 -4.917,-10.271C-7.841,-11.578 -11.599,-11.164 -13.736,-8.598C-15.747,-6.183 -16.083,-2.784 -14.911,0.092C-14.276,1.649 -13.37,2.998 -12.255,4.258C-11.274,5.365 -10.116,6.479 -8.775,7.131C-6.905,8.039 -4.971,8.082 -3.083,7.221C-1.455,6.478 -0.207,4.915 0.255,3.201C0.594,1.94 -0.17,0.427 -1.491,0.126C-2.806,-0.174 -4.203,0.521 -4.567,1.872C-4.578,1.915 -4.668,2.223 -4.671,2.221C-4.702,2.199 -4.442,1.803 -4.602,2.039C-4.667,2.136 -4.734,2.248 -4.785,2.352C-4.911,2.611 -4.697,2.188 -4.664,2.211C-4.649,2.222 -5.074,2.624 -5.113,2.663C-5.349,2.898 -4.745,2.459 -5.046,2.6C-5.087,2.619 -5.439,2.836 -5.442,2.826C-5.447,2.804 -4.986,2.676 -5.264,2.752C-5.38,2.784 -5.493,2.829 -5.611,2.859C-5.648,2.868 -5.858,2.89 -5.877,2.918C-5.831,2.852 -5.276,2.905 -5.753,2.882C-5.841,2.878 -5.939,2.872 -6.026,2.876C-6.349,2.891 -5.615,3.013 -5.949,2.879C-6.041,2.842 -6.16,2.82 -6.257,2.796C-6.692,2.687 -6.126,2.909 -6.346,2.766C-6.553,2.631 -6.78,2.511 -6.993,2.385C-7.073,2.338 -7.367,2.102 -7.01,2.389C-7.094,2.321 -7.178,2.25 -7.26,2.179C-7.671,1.825 -8.057,1.441 -8.426,1.044C-8.6,0.858 -8.769,0.669 -8.933,0.475C-9.032,0.359 -9.406,-0.159 -9.151,0.214C-9.477,-0.264 -9.802,-0.735 -10.067,-1.251C-10.116,-1.346 -10.157,-1.448 -10.209,-1.541C-10.392,-1.866 -10.095,-1.182 -10.21,-1.537C-10.287,-1.776 -10.379,-2.009 -10.446,-2.252C-10.507,-2.475 -10.547,-2.7 -10.596,-2.926C-10.66,-3.221 -10.555,-2.737 -10.569,-2.734C-10.574,-2.733 -10.595,-3.161 -10.596,-3.211C-10.601,-3.435 -10.588,-3.656 -10.577,-3.88C-10.557,-4.29 -10.542,-3.782 -10.595,-3.782C-10.591,-3.782 -10.543,-4.042 -10.538,-4.061C-10.49,-4.277 -10.423,-4.485 -10.358,-4.696C-10.24,-5.082 -10.377,-4.604 -10.398,-4.62C-10.409,-4.628 -10.241,-4.925 -10.226,-4.951C-10.164,-5.06 -10.094,-5.161 -10.03,-5.268C-9.827,-5.61 -10.069,-5.188 -10.081,-5.206C-10.103,-5.241 -9.719,-5.566 -9.684,-5.607C-9.948,-5.298 -9.897,-5.472 -9.733,-5.57C-9.624,-5.634 -9.513,-5.702 -9.406,-5.769C-9.362,-5.796 -9.082,-5.972 -9.36,-5.809C-9.663,-5.632 -9.208,-5.862 -9.122,-5.888C-9.025,-5.917 -8.351,-6.091 -8.703,-6.008C-9.016,-5.935 -8.728,-6.006 -8.652,-6.009C-8.522,-6.015 -8.394,-6.023 -8.264,-6.024C-8.134,-6.024 -8.006,-6.015 -7.876,-6.01C-7.809,-6.008 -7.499,-5.949 -7.822,-6.01C-8.156,-6.073 -7.825,-6.004 -7.77,-5.99C-7.613,-5.949 -7.456,-5.914 -7.3,-5.866C-7.222,-5.842 -6.826,-5.703 -7.143,-5.824C-7.478,-5.952 -6.939,-5.713 -6.917,-5.701C-6.773,-5.621 -6.176,-5.181 -6.624,-5.553C-6.426,-5.389 -6.235,-5.219 -6.057,-5.033C-5.918,-4.889 -5.546,-4.358 -5.833,-4.797C-5.691,-4.58 -5.546,-4.368 -5.42,-4.141C-5.357,-4.027 -5.302,-3.911 -5.241,-3.796C-5.106,-3.541 -5.198,-3.671 -5.26,-3.858C-5.074,-3.296 -4.909,-2.754 -4.821,-2.167C-4.628,-0.869 -2.923,-0.04 -1.746,-0.421C-0.33,-0.879 0.207,-2.105 0,-3.496" style="fill:rgb(35,31,32);fill-rule:nonzero;"/>
                </g>
                <g transform="matrix(1,0,0,1,83.2644,55.452)">
                    <path d="M0,-1.752C0.151,-2.278 0.303,-2.804 0.489,-3.318C0.536,-3.447 0.584,-3.574 0.635,-3.701C0.514,-3.418 0.512,-3.405 0.63,-3.662C0.76,-3.896 0.896,-4.13 1.024,-4.365C1.185,-4.595 1.173,-4.588 0.989,-4.346C1.075,-4.45 1.165,-4.551 1.259,-4.647C1.34,-4.729 1.425,-4.808 1.514,-4.881C1.236,-4.672 1.209,-4.643 1.434,-4.796C1.534,-4.857 1.637,-4.914 1.742,-4.966C1.411,-4.836 1.374,-4.818 1.631,-4.912C1.741,-4.948 1.853,-4.979 1.966,-5.004C2.244,-5.056 2.191,-5.05 1.81,-4.987C1.922,-4.994 2.035,-4.994 2.147,-4.988C1.76,-5.053 1.702,-5.058 1.975,-5.002C2.232,-4.92 2.188,-4.947 1.841,-5.082C1.941,-5.032 2.037,-4.975 2.128,-4.91C1.854,-5.126 1.815,-5.139 2.01,-4.951C1.803,-5.233 1.773,-5.261 1.919,-5.035C2.042,-4.791 2.03,-4.832 1.883,-5.158C1.923,-5.047 1.957,-4.934 1.986,-4.819C2.016,-4.703 2.041,-4.586 2.061,-4.467C2.017,-4.831 2.009,-4.871 2.037,-4.587C2.043,-4.34 2.06,-4.095 2.057,-3.848C2.051,-3.352 2.012,-2.855 1.966,-2.361C1.943,-2.117 1.918,-1.872 1.886,-1.628C1.97,-2.27 1.832,-1.367 1.81,-1.253C1.705,-0.706 1.571,-0.164 1.396,0.365C1.36,0.475 1.02,1.284 1.276,0.733C1.16,0.983 1.04,1.229 0.904,1.469C0.788,1.672 0.642,2.02 0.459,2.167C0.923,1.794 0.365,2.265 0.261,2.373C0.136,2.504 -0.093,2.808 -0.267,2.864C0.004,2.662 0.029,2.641 -0.193,2.802C-0.292,2.871 -0.392,2.937 -0.495,3C-0.628,3.082 -0.97,3.353 -1.128,3.343C-0.804,3.213 -0.77,3.198 -1.026,3.297C-1.137,3.338 -1.25,3.375 -1.363,3.409C-1.493,3.447 -1.925,3.623 -2.05,3.565C-1.673,3.518 -1.625,3.506 -1.905,3.53C-2.02,3.536 -2.136,3.538 -2.252,3.535C-2.367,3.532 -2.482,3.525 -2.597,3.514C-2.218,3.57 -2.167,3.572 -2.444,3.52C-2.587,3.474 -3.314,3.205 -2.674,3.488C-3.867,2.961 -5.416,3.101 -6.095,4.385C-6.669,5.471 -6.475,7.241 -5.198,7.806C-2.814,8.861 -0.208,8.701 2.029,7.317C4.256,5.94 5.67,3.685 6.369,1.197C6.713,-0.026 6.878,-1.307 6.985,-2.571C7.084,-3.74 7.097,-4.91 6.828,-6.061C6.15,-8.962 3.227,-10.613 0.385,-9.759C-2.708,-8.829 -4,-5.944 -4.821,-3.081C-5.182,-1.825 -4.382,-0.303 -3.075,-0.006C-1.742,0.298 -0.386,-0.407 0,-1.752" style="fill:rgb(35,31,32);fill-rule:nonzero;"/>
                </g>
            </g>
        </g>
    </g>
</svg>
