<?xml version="1.0" encoding="UTF-8" standalone="no"?>
<!DOCTYPE svg PUBLIC "-//W3C//DTD SVG 1.1//EN" "http://www.w3.org/Graphics/SVG/1.1/DTD/svg11.dtd">
<svg width="100%" height="100%" viewBox="0 0 100 100" version="1.1" xmlns="http://www.w3.org/2000/svg" xmlns:xlink="http://www.w3.org/1999/xlink" xml:space="preserve" xmlns:serif="http://www.serif.com/" style="fill-rule:evenodd;clip-rule:evenodd;stroke-linejoin:round;stroke-miterlimit:2;">
    <g transform="matrix(1,0,0,1,-675,0)">
        <g id="Page-7" serif:id="Page 7" transform="matrix(1,0,0,1,675,0)">
            <rect x="0" y="0" width="100" height="100" style="fill:none;"/>
            <g id="Drawing">
                <g transform="matrix(1,0,0,1,16.6827,76.9586)">
                    <path d="M0,-10.813C3.731,-1.421 13.432,2.543 22.932,3.121C31.948,3.67 41.446,2.347 49.719,-1.357C54.144,-3.338 58.205,-6.222 61.361,-9.917C62.238,-10.943 62.368,-12.445 61.361,-13.452C60.463,-14.35 58.706,-14.483 57.826,-13.452C52.821,-7.594 45.731,-4.457 38.303,-2.937C34.373,-2.133 30.359,-1.801 26.35,-1.787C22.059,-1.771 17.61,-2.166 13.62,-3.87C9.898,-5.459 6.35,-8.294 4.821,-12.142C4.323,-13.396 3.15,-14.274 1.746,-13.888C0.553,-13.56 -0.501,-12.075 0,-10.813" style="fill:rgb(35,31,32);fill-rule:nonzero;"/>
                </g>
                <g transform="matrix(1,0,0,1,32.1016,46.9462)">
                    <path d="M0,5C3.217,5 3.223,0 0,0C-3.217,0 -3.223,5 0,5" style="fill:rgb(35,31,32);fill-rule:nonzero;"/>
                </g>
                <g transform="matrix(1,0,0,1,59.7375,45.3206)">
                    <path d="M0,5C3.217,5 3.223,0 0,0C-3.217,0 -3.223,5 0,5" style="fill:rgb(35,31,32);fill-rule:nonzero;"/>
                </g>
                <g transform="matrix(1,0,0,1,44.8745,51.5909)">
                    <path d="M0,5C3.217,5 3.223,0 0,0C-3.217,0 -3.223,5 0,5" style="fill:rgb(35,31,32);fill-rule:nonzero;"/>
                </g>
                <g transform="matrix(1,0,0,1,37.8273,67.9764)">
                    <path d="M0,-4.59C-0.161,-1.169 2.219,2.128 5.519,3.039C8.847,3.957 12.68,2.463 14.268,-0.663C15.168,-2.435 15.441,-4.455 14.903,-6.384C14.552,-7.643 13.115,-8.547 11.827,-8.13C10.542,-7.714 9.705,-6.404 10.081,-5.055C10.125,-4.897 10.132,-4.628 10.211,-4.491C10.194,-4.617 10.178,-4.743 10.161,-4.87C10.171,-4.774 10.179,-4.678 10.183,-4.582C10.191,-4.413 10.191,-4.245 10.182,-4.076C10.179,-4.004 10.174,-3.932 10.167,-3.86C10.138,-3.59 10.149,-3.668 10.199,-4.095C10.157,-3.961 10.143,-3.807 10.107,-3.67C10.072,-3.534 9.915,-3.25 9.932,-3.119C9.979,-3.228 10.027,-3.338 10.074,-3.448C10.035,-3.36 9.994,-3.272 9.95,-3.186C9.885,-3.058 9.814,-2.931 9.738,-2.808C9.688,-2.726 9.635,-2.646 9.58,-2.567C9.426,-2.355 9.469,-2.409 9.708,-2.728C9.604,-2.638 9.514,-2.507 9.416,-2.408C9.35,-2.342 8.876,-1.977 9.232,-2.22C9.601,-2.472 9.065,-2.119 8.997,-2.079C8.87,-2.002 8.737,-1.94 8.607,-1.868C8.366,-1.758 8.429,-1.783 8.796,-1.945C8.704,-1.91 8.61,-1.877 8.516,-1.847C8.375,-1.803 8.232,-1.764 8.087,-1.731C7.99,-1.709 7.893,-1.69 7.796,-1.673C8.191,-1.721 8.29,-1.734 8.093,-1.714C7.769,-1.696 7.454,-1.687 7.13,-1.705C6.631,-1.732 7.748,-1.582 7.135,-1.713C6.967,-1.749 6.8,-1.793 6.635,-1.846C6.541,-1.877 6.448,-1.91 6.357,-1.946C6.465,-1.901 6.573,-1.856 6.681,-1.811C6.621,-1.909 6.277,-2.023 6.171,-2.09C6.13,-2.117 6.09,-2.143 6.049,-2.169C5.836,-2.32 5.889,-2.276 6.207,-2.035C6.122,-2.159 5.94,-2.265 5.831,-2.372C5.736,-2.466 5.602,-2.691 5.488,-2.744C5.712,-2.445 5.769,-2.371 5.657,-2.524C5.614,-2.582 5.573,-2.642 5.533,-2.702C5.426,-2.863 5.328,-3.03 5.239,-3.201C5.217,-3.244 5.196,-3.287 5.174,-3.33C5.063,-3.57 5.089,-3.504 5.252,-3.131C5.246,-3.257 5.149,-3.415 5.112,-3.541C5.064,-3.702 5.059,-3.961 4.978,-4.103C5.026,-3.7 5.039,-3.598 5.018,-3.796C5.009,-3.868 5.003,-3.94 4.999,-4.012C4.988,-4.205 4.991,-4.397 5,-4.59C5.061,-5.898 3.806,-7.149 2.5,-7.09C1.093,-7.027 0.066,-5.991 0,-4.59" style="fill:rgb(35,31,32);fill-rule:nonzero;"/>
                </g>
                <g transform="matrix(1,0,0,1,30.9369,84.4545)">
                    <path d="M0,-71.161C-3.552,-71.193 -5.337,-67.745 -5.814,-64.677C-6.298,-61.566 -5.904,-58.465 -4.661,-55.572C-4.036,-54.12 -3.22,-52.813 -2.208,-51.597C-1.808,-51.117 -1.373,-50.681 -0.922,-50.25C-0.733,-50.07 -0.317,-49.504 -0.089,-49.419C0.108,-48.879 0.213,-49.283 0.224,-50.63C-0.009,-50.464 -0.248,-50.307 -0.493,-50.159C-3.268,-48.477 -6.612,-47.994 -9.513,-46.554C-12.393,-45.124 -14.885,-42.655 -15.442,-39.382C-15.716,-37.774 -15.581,-36.126 -14.822,-34.657C-14.128,-33.313 -12.986,-32.436 -11.855,-31.487C-11.188,-30.927 -10.549,-30.568 -10.981,-29.71C-11.658,-28.366 -13.335,-27.57 -14.417,-26.611C-16.819,-24.482 -17.81,-21.303 -17.223,-18.169C-16.915,-16.522 -16.096,-14.972 -14.93,-13.772C-14.61,-13.442 -13.736,-12.927 -13.57,-12.502C-13.384,-12.028 -13.693,-11.511 -13.947,-11.084C-15.605,-8.289 -18.331,-6.218 -21.235,-4.859C-22.458,-4.287 -22.769,-2.528 -22.132,-1.439C-21.399,-0.186 -19.939,0.032 -18.712,-0.542C-15.924,-1.847 -13.365,-3.772 -11.396,-6.145C-9.3,-8.67 -7.252,-12.184 -9.458,-15.311C-10.196,-16.358 -11.441,-17.011 -12.005,-18.168C-12.415,-19.009 -12.512,-19.964 -12.314,-20.879C-12.05,-22.099 -11.181,-22.861 -10.237,-23.605C-8.88,-24.675 -7.539,-25.652 -6.663,-27.186C-5.848,-28.617 -5.533,-30.365 -6.063,-31.951C-6.562,-33.442 -7.657,-34.483 -8.844,-35.447C-9.596,-36.057 -10.448,-36.622 -10.586,-37.634C-10.73,-38.694 -10.162,-39.815 -9.448,-40.554C-7.329,-42.744 -4.013,-43.269 -1.277,-44.311C1.737,-45.46 6.573,-47.803 4.277,-51.823C3.513,-53.162 2.188,-54.009 1.262,-55.215C0.33,-56.431 -0.313,-57.838 -0.693,-59.316C-1.044,-60.678 -1.158,-62.133 -0.966,-63.532C-0.885,-64.12 -0.452,-66.165 0,-66.161C3.218,-66.132 3.221,-71.132 0,-71.161" style="fill:rgb(35,31,32);fill-rule:nonzero;"/>
                </g>
                <g transform="matrix(1,0,0,1,59.1077,82.0069)">
                    <path d="M0,-60.466C0.675,-60.471 0.192,-60.431 0.104,-60.482C-0.132,-60.621 0.331,-60.19 0.23,-60.378C0.383,-60.093 0.564,-59.756 0.587,-59.619C0.768,-58.56 0.001,-57.43 -0.646,-56.471C-2.434,-53.819 -4.455,-51.149 -3.875,-47.739C-3.27,-44.183 0.061,-42.699 3.046,-41.466C4.096,-41.032 5.186,-40.576 6.026,-39.793C6.905,-38.974 6.939,-38.197 6.65,-37.064C5.915,-34.179 5.165,-31.162 7.56,-28.787C9.452,-26.911 12.35,-26.513 14.896,-26.571C16.321,-26.604 19.531,-26.989 19.986,-25.433C20.248,-24.534 19.542,-23.395 19.14,-22.629C18.319,-21.064 17.445,-19.568 16.878,-17.882C15.822,-14.742 15.467,-10.614 17.242,-7.654C18.086,-6.248 19.385,-5.214 20.862,-4.537C22.237,-3.907 23.998,-3.636 25.22,-2.739C24.921,-3.038 24.622,-3.337 24.323,-3.636C24.046,-4.011 24.379,-4.325 24.087,-3.664C23.999,-3.466 23.951,-3.239 23.879,-3.033C23.727,-2.597 23.557,-2.197 23.332,-1.792C22.932,-1.073 22.592,-0.685 21.937,-0.531C18.807,0.209 20.132,5.031 23.266,4.291C26.536,3.518 28.147,0.326 29.003,-2.648C29.684,-5.011 28.701,-6.776 26.503,-7.7C25.132,-8.277 23.526,-8.577 22.292,-9.436C19.961,-11.058 21.133,-15.506 22.104,-17.577C23.649,-20.874 26.167,-24.129 24.36,-27.885C22.89,-30.941 19.262,-31.634 16.194,-31.61C14.899,-31.6 13.57,-31.467 12.358,-31.765C11.379,-32.006 10.805,-32.209 10.846,-33.225C10.91,-34.796 11.726,-36.311 11.83,-37.911C11.953,-39.802 11.161,-41.549 9.932,-42.941C8.74,-44.292 7.118,-45.136 5.487,-45.826C4.204,-46.369 2.025,-46.892 1.214,-48.129C0.421,-49.336 1.735,-51.18 2.399,-52.144C3.535,-53.794 4.798,-55.377 5.34,-57.347C6.337,-60.968 4.121,-65.497 0,-65.466C-3.216,-65.442 -3.223,-60.442 0,-60.466" style="fill:rgb(35,31,32);fill-rule:nonzero;"/>
                </g>
                <g transform="matrix(1,0,0,1,20.2464,85.7004)">
                    <path d="M0,-74.166C-3.192,-72.764 -4.965,-69.354 -5.245,-66.005C-5.387,-64.309 -5.135,-62.568 -4.703,-60.929C-4.504,-60.173 -4.314,-59.046 -3.871,-58.395C-3.831,-58.26 -3.791,-58.124 -3.751,-57.989C-3.421,-58.744 -3.444,-58.897 -3.82,-58.446C-4.209,-58.231 -4.571,-57.928 -4.949,-57.69C-7.798,-55.896 -10.948,-54.742 -14.271,-54.204C-15.894,-53.941 -17.441,-53.521 -18.384,-52.049C-19.273,-50.662 -19.587,-48.747 -19.825,-47.142C-20.325,-43.764 -19.877,-40.44 -17.411,-37.898C-16.541,-37.002 -15.441,-36.253 -14.5,-35.509C-14.103,-35.195 -13.712,-34.869 -13.353,-34.511C-12.964,-34.122 -12.737,-33.865 -12.615,-33.463C-12.5,-33.079 -12.53,-32.772 -12.644,-32.45C-12.77,-32.093 -13.055,-31.635 -13.383,-31.213C-14.107,-30.284 -15.049,-29.436 -15.832,-28.522C-17.951,-26.052 -19.068,-23.255 -18.425,-19.976C-17.754,-16.549 -15.289,-13.556 -12.395,-11.714C-12.293,-11.648 -11.536,-11.109 -11.449,-11.147C-11.325,-11.046 -11.315,-11.092 -11.421,-11.287C-11.384,-11.676 -11.416,-11.647 -11.517,-11.2C-11.999,-10.494 -12.537,-9.861 -13.094,-9.211C-14.577,-7.48 -16.06,-5.75 -17.544,-4.02C-18.422,-2.995 -18.55,-1.491 -17.544,-0.484C-16.644,0.415 -14.891,0.545 -14.008,-0.484C-12.737,-1.967 -11.465,-3.451 -10.194,-4.934C-8.973,-6.359 -7.545,-7.745 -6.845,-9.518C-6.139,-11.305 -6.421,-13.256 -7.827,-14.631C-8.876,-15.655 -10.286,-16.172 -11.335,-17.216C-12.858,-18.73 -14.277,-21.188 -13.376,-23.358C-12.39,-25.734 -9.842,-27.228 -8.557,-29.454C-6.985,-32.179 -7.371,-35.276 -9.417,-37.618C-10.941,-39.361 -13.696,-40.443 -14.651,-42.52C-15.17,-43.648 -15.118,-45.004 -14.943,-46.204C-14.849,-46.854 -14.691,-47.5 -14.529,-48.136C-14.447,-48.455 -14.395,-48.924 -14.231,-49.211C-14.269,-49.144 -14.804,-49.198 -14.076,-49.204C-12.627,-49.216 -10.994,-49.729 -9.614,-50.139C-7.776,-50.684 -5.975,-51.423 -4.275,-52.31C-2.729,-53.117 -0.942,-54.075 0.191,-55.432C1.921,-57.506 0.887,-59.582 0.239,-61.825C-0.599,-64.726 -0.674,-68.443 2.524,-69.849C3.76,-70.392 4.046,-72.199 3.42,-73.269C2.675,-74.544 1.241,-74.711 0,-74.166" style="fill:rgb(35,31,32);fill-rule:nonzero;"/>
                </g>
                <g transform="matrix(1,0,0,1,65.9594,78.0455)">
                    <path d="M0,-65.014C4.519,-63.011 4.295,-57.1 3.238,-52.998C2.404,-49.764 1.167,-46.634 0.658,-43.321C0.163,-40.091 0.196,-36.63 2.922,-34.371C4.862,-32.763 7.443,-32.347 9.404,-30.826C11.101,-29.51 11.34,-27.045 10.857,-25.087C10.524,-23.739 9.715,-22.546 9.597,-21.147C9.43,-19.158 10.45,-17.631 12.013,-16.516C14.345,-14.853 17.253,-14.222 19.762,-12.889C22.002,-11.699 23.498,-9.879 23.855,-7.464C24.217,-5.022 23.491,-2.571 21.66,-0.865C19.302,1.334 22.843,4.864 25.196,2.671C29.36,-1.211 30.105,-8.091 27.084,-12.885C25.318,-15.687 22.536,-17.207 19.557,-18.443C18.3,-18.965 17.021,-19.435 15.813,-20.069C15.495,-20.236 14.636,-20.548 14.482,-20.933C14.648,-20.517 14.57,-20.931 14.692,-21.12C14.934,-21.492 15.094,-22.02 15.256,-22.435C16.368,-25.297 16.355,-28.631 15.092,-31.436C13.833,-34.23 11.395,-35.589 8.724,-36.772C7.803,-37.18 6.65,-37.642 6.004,-38.308C5.102,-39.238 5.32,-40.929 5.513,-42.21C6.022,-45.593 7.356,-48.79 8.168,-52.101C9.642,-58.109 9.025,-66.449 2.524,-69.331C1.29,-69.878 -0.162,-69.691 -0.897,-68.434C-1.519,-67.37 -1.241,-65.564 0,-65.014" style="fill:rgb(35,31,32);fill-rule:nonzero;"/>
                </g>
                <g transform="matrix(1,0,0,1,33.9915,37.6526)">
                    <path d="M0,-20.514C-1.284,-16.412 0.24,-12.378 3.308,-9.556C4.55,-8.414 5.325,-7.477 5.512,-5.883C5.617,-4.986 5.615,-4.064 5.607,-3.162C5.603,-2.788 5.538,-2.559 5.541,-2.258C5.541,-2.25 5.471,-2.059 5.444,-2.063C5.454,-2.155 5.521,-2.205 5.643,-2.215C5.847,-2.382 6.085,-2.414 6.357,-2.313C5.03,-2.549 3.663,-1.953 3.282,-0.566C2.95,0.642 3.692,2.271 5.028,2.509C8.16,3.066 10.271,0.751 10.562,-2.211C10.775,-4.378 10.665,-6.964 9.864,-9.001C9.385,-10.219 8.709,-11.261 7.79,-12.197C7.08,-12.92 6.189,-13.575 5.581,-14.347C4.468,-15.761 4.313,-17.56 4.821,-19.185C5.785,-22.263 0.959,-23.58 0,-20.514" style="fill:rgb(35,31,32);fill-rule:nonzero;"/>
                </g>
                <g transform="matrix(1,0,0,1,47.3153,37.301)">
                    <path d="M0,-18.439C1.055,-17.266 1.323,-15.679 0.867,-14.26C0.568,-13.327 -0.009,-12.491 -0.442,-11.613C-1.009,-10.464 -1.421,-9.337 -1.55,-8.058C-2.072,-2.89 2.412,0.512 6.32,2.872C9.082,4.54 11.598,0.218 8.844,-1.445C7.226,-2.422 5.424,-3.415 4.305,-4.99C3.197,-6.549 3.246,-7.897 4.1,-9.526C5.136,-11.5 6.135,-13.428 6.076,-15.725C6.016,-18.08 5.102,-20.233 3.536,-21.975C2.632,-22.979 0.919,-22.894 0,-21.975C-0.998,-20.976 -0.906,-19.446 0,-18.439" style="fill:rgb(35,31,32);fill-rule:nonzero;"/>
                </g>
                <g transform="matrix(1,0,0,1,46.2343,11.3803)">
                    <path d="M0,-1.032C-0.615,-3.943 -3.202,-5.863 -5.962,-6.568C-8.495,-7.216 -11.547,-7.428 -14.067,-6.617C-16.901,-5.706 -18.637,-3.599 -19.854,-0.976C-20.16,-0.318 -20.329,0.707 -21.039,0.936C-22.007,1.249 -23.817,1.291 -24.742,0.814C-27.597,-0.659 -30.129,3.654 -27.265,5.132C-24.959,6.321 -21.866,6.396 -19.382,5.661C-16.445,4.791 -16.008,1.969 -14.564,-0.307C-13.444,-2.071 -11.415,-2.202 -9.501,-2.078C-7.789,-1.967 -5.24,-1.684 -4.821,0.297C-4.542,1.619 -2.991,2.386 -1.746,2.043C-0.377,1.667 0.28,0.293 0,-1.032" style="fill:rgb(35,31,32);fill-rule:nonzero;"/>
                </g>
                <g transform="matrix(1,0,0,1,44.3535,70.4819)">
                    <path d="M0,-58.178C1.776,-58.7 3.567,-59.043 5.419,-59.121C6.995,-59.186 8.706,-59.34 9.952,-58.238C11.3,-57.046 12.641,-56.026 14.416,-55.56C16.144,-55.106 17.934,-55.141 19.689,-55.378C23.089,-55.837 26.531,-57.348 29.912,-56.018C32.543,-54.983 34.613,-52.677 35.746,-50.132C37.157,-46.962 37.287,-43.312 36.876,-39.915C36.647,-38.02 36.094,-36.109 36.249,-34.186C36.4,-32.294 37.063,-30.643 38.256,-29.172C40.308,-26.642 43.378,-25.498 46.086,-23.863C47.178,-23.203 48.349,-22.416 48.991,-21.281C49.613,-20.181 49.413,-19.049 49.066,-17.888C48.558,-16.189 47.789,-14.578 47.516,-12.815C47.205,-10.801 47.529,-8.89 48.623,-7.15C49.426,-5.874 50.786,-4.678 50.336,-3.05C49.855,-1.306 48.404,0.102 47.159,1.337C44.872,3.607 48.407,7.142 50.695,4.873C53.442,2.146 56.351,-1.557 55.185,-5.689C54.677,-7.488 53.282,-8.661 52.568,-10.32C52.047,-11.528 52.627,-12.933 53.035,-14.097C54.243,-17.545 55.264,-21.118 52.929,-24.38C50.826,-27.32 47.589,-28.592 44.596,-30.378C43.39,-31.098 41.996,-32.004 41.453,-33.371C40.838,-34.92 41.45,-36.819 41.676,-38.386C42.262,-42.461 42.276,-46.729 40.886,-50.657C39.649,-54.153 37.465,-57.158 34.39,-59.257C31.049,-61.538 27.217,-61.903 23.323,-61.171C21.284,-60.789 19.285,-60.154 17.192,-60.198C15.208,-60.239 14.241,-61.208 12.774,-62.369C9.047,-65.32 2.888,-64.238 -1.329,-62.999C-4.41,-62.095 -3.099,-57.268 0,-58.178" style="fill:rgb(35,31,32);fill-rule:nonzero;"/>
                </g>
            </g>
        </g>
    </g>
</svg>
