<?xml version="1.0" encoding="UTF-8" standalone="no"?>
<!DOCTYPE svg PUBLIC "-//W3C//DTD SVG 1.1//EN" "http://www.w3.org/Graphics/SVG/1.1/DTD/svg11.dtd">
<svg width="100%" height="100%" viewBox="0 0 100 100" version="1.1" xmlns="http://www.w3.org/2000/svg" xmlns:xlink="http://www.w3.org/1999/xlink" xml:space="preserve" xmlns:serif="http://www.serif.com/" style="fill-rule:evenodd;clip-rule:evenodd;stroke-linejoin:round;stroke-miterlimit:2;">
    <g transform="matrix(1,0,0,1,-787.5,0)">
        <g id="Page-8" serif:id="Page 8" transform="matrix(1,0,0,1,787.5,0)">
            <rect x="0" y="0" width="100" height="100" style="fill:none;"/>
            <g id="Drawing">
                <g transform="matrix(1,0,0,1,27.6114,39.7594)">
                    <path d="M0,-20.334C-4.393,-22.836 -8.993,-24.942 -13.741,-26.676C-15.956,-27.485 -17.448,-24.787 -16.565,-23.004C-14.35,-18.532 -12.135,-14.061 -9.921,-9.589C-9.667,-9.076 -9.412,-8.563 -9.158,-8.05C-9.013,-7.756 -8.868,-7.463 -8.723,-7.17C-8.585,-6.717 -8.524,-6.861 -8.54,-7.603C-8.59,-7.645 -10.95,-5.437 -11.176,-5.234C-13.057,-3.549 -14.938,-1.864 -16.819,-0.179C-18.363,1.204 -17.204,4.279 -15.051,4.089C-10.252,3.664 -5.45,3.222 -0.692,2.451C1.566,2.086 3.812,1.641 6.028,1.074C7.208,0.773 8.38,0.437 9.538,0.062C10.613,-0.285 11.698,-0.834 12.809,-1.029L11.479,-1.029C11.3,-1.153 11.12,-1.276 10.941,-1.4C11.055,-1.179 11.169,-0.957 11.283,-0.735C11.434,-0.439 11.586,-0.144 11.738,0.152C12.079,0.817 12.421,1.482 12.762,2.147C13.375,3.341 13.906,4.753 14.852,5.733C15.879,6.798 17.353,7.151 18.745,6.68C20.123,6.214 21.124,4.903 22.15,3.935C23.166,2.975 24.208,2.044 25.275,1.141C25.808,0.69 26.347,0.245 26.893,-0.191C27.057,-0.322 27.264,-0.444 27.407,-0.597C27.752,-0.967 27.826,-0.62 27.474,-0.854C26.953,-1.201 27.508,-0.679 27.643,-0.594C27.969,-0.391 28.285,-0.173 28.605,0.039C29.214,0.442 29.824,0.845 30.433,1.248C31.72,2.099 33.006,2.95 34.293,3.8C35.673,4.712 37.531,3.78 37.965,2.306C38.284,1.225 38.603,0.143 38.922,-0.938L39.332,-2.329C39.423,-2.638 39.514,-2.947 39.606,-3.256C39.808,-3.799 39.802,-3.868 39.587,-3.461L38.484,-2.818C37.514,-3.235 37.219,-3.276 37.598,-2.941C37.755,-2.788 37.906,-2.629 38.051,-2.464C38.331,-2.166 38.607,-1.865 38.885,-1.566C39.496,-0.908 40.108,-0.249 40.72,0.409C42.915,2.771 46.444,-0.771 44.255,-3.127C42.495,-5.021 39.928,-9.009 36.856,-7.514C35.3,-6.756 34.962,-5.187 34.511,-3.658C34.055,-2.113 33.6,-0.568 33.144,0.977C34.368,0.479 35.592,-0.019 36.817,-0.517C34.988,-1.726 33.16,-2.935 31.332,-4.144C29.614,-5.28 27.884,-6.313 25.802,-5.416C23.975,-4.629 22.341,-2.932 20.856,-1.636C20.095,-0.973 19.348,-0.294 18.614,0.399C18.276,0.719 17.94,1.042 17.607,1.368C17.47,1.502 17.199,1.69 17.11,1.859C16.648,2.187 16.819,2.283 17.625,2.147C18.17,2.435 18.423,2.442 18.384,2.17C18.514,1.818 17.266,-0.015 17.08,-0.376C16.587,-1.337 16.093,-2.298 15.6,-3.259C14.459,-5.48 12.835,-6.416 10.369,-5.51C6.571,-4.116 2.644,-3.157 -1.343,-2.482C-5.88,-1.714 -10.47,-1.317 -15.051,-0.911C-14.462,0.511 -13.873,1.934 -13.283,3.357C-11.16,1.454 -9.036,-0.449 -6.912,-2.351C-5.886,-3.27 -4.624,-4.158 -4.031,-5.435C-3.306,-6.995 -3.807,-8.461 -4.514,-9.914C-7.056,-15.135 -9.67,-20.323 -12.247,-25.528C-13.188,-24.303 -14.13,-23.079 -15.071,-21.855C-10.724,-20.268 -6.545,-18.306 -2.524,-16.017C0.277,-14.422 2.799,-18.74 0,-20.334" style="fill:rgb(35,31,32);fill-rule:nonzero;"/>
                </g>
                <g transform="matrix(1,0,0,1,59.3564,31.4185)">
                    <path d="M0,-8.73C2.218,-9.367 4.463,-9.897 6.735,-10.297C7.793,-10.484 8.854,-10.644 9.922,-10.765C10.701,-10.854 12.268,-11.245 12.905,-11.017C12.407,-11.4 11.909,-11.783 11.411,-12.166C11.32,-12.724 11.282,-12.708 11.297,-12.116C11.284,-11.812 11.27,-11.507 11.257,-11.203C11.237,-10.747 11.217,-10.29 11.197,-9.834C11.151,-8.769 11.105,-7.704 11.058,-6.639C11.019,-5.75 10.943,-4.852 11.226,-3.991C11.593,-2.873 12.417,-2.212 13.334,-1.56C16.026,0.353 18.397,2.65 20.281,5.372C20.779,4.148 21.277,2.924 21.775,1.7C18.832,2.36 15.865,2.593 12.853,2.461C9.636,2.32 9.642,7.32 12.853,7.461C16.298,7.612 19.741,7.276 23.104,6.521C24.599,6.186 25.496,4.146 24.598,2.849C22.87,0.351 20.867,-1.943 18.517,-3.875C17.858,-4.416 17.18,-4.939 16.487,-5.437C16.523,-5.412 15.825,-5.915 15.813,-5.895C15.96,-5.292 16.027,-5.175 16.014,-5.543C16.018,-5.756 16.026,-5.969 16.038,-6.182C16.109,-7.932 16.191,-9.682 16.267,-11.431C16.351,-13.354 16.164,-15.366 13.933,-15.946C12.412,-16.342 10.385,-15.833 8.849,-15.634C5.403,-15.188 2.01,-14.511 -1.329,-13.551C-4.416,-12.665 -3.104,-7.839 0,-8.73" style="fill:rgb(35,31,32);fill-rule:nonzero;"/>
                </g>
                <g transform="matrix(1,0,0,1,40.9892,20.2509)">
                    <path d="M0,-7.454C-1.869,-7.907 -3.738,-8.361 -5.607,-8.814C-6.542,-9.041 -7.476,-9.267 -8.411,-9.494C-9.41,-9.736 -10.541,-10.171 -11.575,-10.146C-12.566,-10.122 -13.446,-9.595 -13.983,-8.772C-14.456,-8.048 -14.459,-7.16 -14.313,-6.344C-14.167,-5.531 -13.934,-4.726 -13.672,-3.943C-13.086,-2.192 -12.305,-0.494 -11.33,1.075C-10.64,2.185 -9.066,2.717 -7.909,1.972C-6.797,1.254 -6.274,-0.26 -7.013,-1.449C-7.341,-1.976 -7.649,-2.515 -7.93,-3.069C-8.063,-3.331 -8.191,-3.596 -8.313,-3.864C-8.342,-3.928 -8.577,-4.431 -8.422,-4.104C-8.267,-3.777 -8.512,-4.337 -8.518,-4.35C-8.731,-4.899 -8.92,-5.456 -9.085,-6.021C-9.177,-6.334 -9.261,-6.65 -9.338,-6.968C-9.369,-7.095 -9.394,-7.223 -9.427,-7.35C-9.477,-7.607 -9.482,-7.605 -9.441,-7.343C-9.333,-6.8 -9.508,-6.295 -9.965,-5.826C-10.333,-5.611 -10.701,-5.397 -11.068,-5.183C-11.963,-5.257 -12.167,-5.244 -11.681,-5.143C-11.609,-5.126 -11.537,-5.108 -11.465,-5.091C-11.214,-5.03 -10.962,-4.969 -10.71,-4.908C-10.279,-4.803 -9.848,-4.699 -9.416,-4.594C-8.518,-4.376 -7.619,-4.158 -6.721,-3.94C-4.924,-3.504 -3.126,-3.068 -1.329,-2.633C-0.061,-2.325 1.44,-3.035 1.746,-4.379C2.039,-5.666 1.359,-7.124 0,-7.454" style="fill:rgb(35,31,32);fill-rule:nonzero;"/>
                </g>
                <g transform="matrix(1,0,0,1,49.7249,6.9452)">
                    <path d="M0,10.868C0.813,9.905 1.695,9.006 2.652,8.186C2.897,7.975 3.149,7.772 3.401,7.569C3.216,7.718 3.226,7.7 3.409,7.566C3.554,7.46 3.699,7.353 3.846,7.249C4.374,6.875 4.918,6.522 5.475,6.192C6.001,5.881 6.539,5.59 7.088,5.32C7.379,5.177 7.676,5.049 7.968,4.91C8.312,4.746 7.612,5.047 7.967,4.909C8.135,4.844 8.301,4.775 8.469,4.711C9.651,4.261 10.908,3.842 12.163,3.657L10.834,3.657C10.727,3.607 10.621,3.558 10.514,3.509C10.215,3.21 9.916,2.911 9.618,2.612C9.603,1.186 9.531,0.772 9.401,1.367C9.35,1.54 9.298,1.712 9.247,1.884C9.144,2.228 9.042,2.573 8.939,2.917C8.747,3.563 8.554,4.209 8.362,4.855C7.964,6.189 7.566,7.524 7.168,8.859C6.795,10.112 7.617,11.639 8.914,11.934C10.259,12.24 11.59,11.53 11.99,10.188C12.375,8.896 12.759,7.605 13.144,6.313C13.515,5.07 13.972,3.819 14.258,2.554C14.451,1.7 14.377,0.849 13.935,0.088C13.244,-1.102 11.909,-1.372 10.656,-1.139C9.635,-0.948 8.624,-0.644 7.646,-0.296C3.34,1.232 -0.581,3.832 -3.536,7.332C-4.378,8.331 -4.588,9.902 -3.536,10.868C-2.607,11.721 -0.901,11.935 0,10.868" style="fill:rgb(35,31,32);fill-rule:nonzero;"/>
                </g>
                <g transform="matrix(1,0,0,1,23.1584,81.352)">
                    <path d="M0,-36.505C-0.831,-32.539 -1.417,-28.517 -1.737,-24.478C-2.03,-20.778 -2.291,-16.923 -1.724,-13.241C-1.149,-9.51 1.062,-7.112 3.906,-4.854C6.854,-2.514 9.775,-0.086 12.855,2.08C16.119,4.377 19.596,5.307 23.532,4.364C27.324,3.454 31.049,2.033 34.757,0.83C38.176,-0.28 41.862,-1.237 44.42,-3.935C46.618,-6.253 47.864,-9.309 48.628,-12.37C50.753,-20.89 50.621,-29.875 50.411,-38.588C50.334,-41.8 45.334,-41.812 45.411,-38.588C45.58,-31.586 45.716,-24.482 44.577,-17.547C44.131,-14.831 43.615,-11.962 42.3,-9.513C40.933,-6.966 38.877,-5.793 36.198,-4.897C32.775,-3.752 29.331,-2.669 25.893,-1.574C22.979,-0.645 20.173,0.518 17.276,-1.043C14.544,-2.516 12.132,-4.696 9.702,-6.605C7.528,-8.313 4.302,-10.123 3.455,-12.927C2.979,-14.502 2.984,-16.151 2.988,-17.782C2.993,-19.697 3.062,-21.612 3.192,-23.523C3.459,-27.446 4.016,-31.328 4.821,-35.176C5.098,-36.496 4.434,-37.878 3.075,-38.251C1.834,-38.592 0.278,-37.833 0,-36.505" style="fill:rgb(35,31,32);fill-rule:nonzero;"/>
                </g>
                <g transform="matrix(1,0,0,1,42.9349,68.3934)">
                    <path d="M0,-16.969C-0.674,-15.66 -1.31,-14.331 -1.898,-12.981C-2.488,-11.628 -3.167,-10.23 -3.582,-8.81C-4.105,-7.019 -3.202,-5.571 -2.389,-4.056C-1.666,-2.709 -0.943,-1.362 -0.22,-0.016C0.595,1.502 2.533,1.485 3.707,0.49C4.799,-0.435 5.891,-1.361 6.984,-2.287C8.068,-3.205 9.608,-4.132 10.008,-5.583C10.393,-6.979 9.625,-8.578 9.351,-9.944C9.071,-11.342 8.98,-12.149 8.903,-13.658C8.837,-14.962 7.801,-16.221 6.403,-16.158C5.106,-16.1 3.832,-15.057 3.903,-13.658C3.975,-12.241 4.139,-10.827 4.379,-9.429C4.487,-8.794 4.617,-8.163 4.767,-7.537C4.832,-7.268 4.9,-7.001 4.972,-6.735C5.02,-6.557 5.07,-6.38 5.121,-6.203C5.203,-5.914 5.195,-5.929 5.097,-6.247C5.211,-6.668 5.325,-7.089 5.439,-7.509C5.643,-7.693 5.635,-7.686 5.414,-7.488C5.305,-7.396 5.196,-7.303 5.087,-7.211C4.868,-7.026 4.65,-6.84 4.431,-6.655C3.958,-6.254 3.485,-5.853 3.011,-5.452C2.065,-4.65 1.118,-3.847 0.171,-3.045C1.48,-2.877 2.789,-2.708 4.098,-2.539L2.2,-6.074C1.929,-6.579 1.657,-7.084 1.386,-7.589C1.305,-7.74 1.224,-7.891 1.145,-8.043C1.218,-7.918 1.247,-7.784 1.234,-7.639C1.236,-7.586 1.238,-7.534 1.24,-7.481C1.298,-7.65 1.36,-7.818 1.424,-7.985C2.253,-10.198 3.157,-12.192 4.317,-14.445C4.916,-15.607 4.657,-17.212 3.42,-17.866C2.275,-18.471 0.639,-18.21 0,-16.969" style="fill:rgb(35,31,32);fill-rule:nonzero;"/>
                </g>
                <g transform="matrix(1,0,0,1,32.6081,50.1494)">
                    <path d="M0,-2.463C-0.011,-1.648 -0.022,-0.832 -0.033,-0.017C1.604,-0.238 3.241,-0.46 4.878,-0.681C4.846,-0.833 4.819,-0.985 4.798,-1.138C4.828,-0.916 4.858,-0.695 4.887,-0.473C4.819,-0.995 4.819,-1.522 4.886,-2.044C4.856,-1.823 4.827,-1.601 4.797,-1.38C4.816,-1.517 4.839,-1.654 4.867,-1.791L0.045,-1.791C0.128,-1.57 0.185,-1.343 0.217,-1.11C0.187,-1.331 0.157,-1.553 0.128,-1.774C0.16,-1.511 0.159,-1.248 0.124,-0.985C0.154,-1.206 0.183,-1.428 0.213,-1.649C0.209,-1.62 0.205,-1.591 0.2,-1.562C1.836,-1.341 3.473,-1.119 5.11,-0.898C5.114,-0.941 5.117,-0.984 5.121,-1.027C5.134,-1.371 5.062,-1.692 4.905,-1.99C4.805,-2.3 4.632,-2.568 4.389,-2.795C4.162,-3.039 3.894,-3.211 3.584,-3.312C3.286,-3.468 2.965,-3.54 2.621,-3.527C2.399,-3.497 2.178,-3.468 1.956,-3.438C1.533,-3.319 1.165,-3.105 0.853,-2.795C0.723,-2.626 0.592,-2.458 0.462,-2.289C0.236,-1.899 0.122,-1.478 0.121,-1.027C0.117,-0.984 0.114,-0.941 0.11,-0.898C0.097,-0.553 0.169,-0.232 0.326,0.066C0.426,0.376 0.599,0.644 0.843,0.87C1.011,1 1.18,1.131 1.348,1.261C1.635,1.444 1.945,1.543 2.278,1.558C2.5,1.617 2.721,1.617 2.943,1.558C3.275,1.543 3.585,1.444 3.872,1.261C4.041,1.131 4.209,1 4.378,0.87C4.688,0.558 4.902,0.191 5.021,-0.233C5.099,-0.708 5.186,-1.202 5.138,-1.687C5.09,-2.166 5.038,-2.664 4.867,-3.12L4.615,-3.717C4.458,-4.008 4.243,-4.242 3.971,-4.418C3.815,-4.573 3.631,-4.681 3.419,-4.74C3.121,-4.896 2.8,-4.968 2.456,-4.955C2.234,-4.925 2.013,-4.896 1.791,-4.866L1.194,-4.614C0.903,-4.457 0.669,-4.242 0.493,-3.97C0.272,-3.729 0.123,-3.445 0.045,-3.12C-0.079,-2.504 -0.168,-1.866 -0.165,-1.235C-0.162,-0.605 -0.074,0.033 0.056,0.648C0.134,0.973 0.283,1.256 0.504,1.498C0.68,1.77 0.914,1.985 1.205,2.142L1.803,2.394C2.135,2.498 2.467,2.513 2.799,2.438C3.025,2.438 3.235,2.381 3.43,2.268C3.74,2.167 4.008,1.995 4.235,1.751C4.365,1.582 4.495,1.414 4.626,1.245C4.852,0.855 4.966,0.434 4.967,-0.017C4.978,-0.832 4.989,-1.648 5,-2.463C5.013,-2.807 4.941,-3.128 4.785,-3.426C4.684,-3.736 4.512,-4.004 4.268,-4.231C4.041,-4.475 3.773,-4.647 3.463,-4.748C3.165,-4.904 2.844,-4.976 2.5,-4.963C2.278,-4.933 2.057,-4.903 1.835,-4.874C1.412,-4.755 1.044,-4.541 0.732,-4.231C0.602,-4.062 0.472,-3.893 0.341,-3.725C0.115,-3.335 0.001,-2.914 0,-2.463" style="fill:rgb(35,31,32);fill-rule:nonzero;"/>
                </g>
                <g transform="matrix(1,0,0,1,57.144,50.3973)">
                    <path d="M0,-0.492C-0.009,0.002 -0.019,0.495 -0.028,0.989C1.609,0.768 3.246,0.546 4.882,0.325C4.752,-0.089 4.656,-0.512 4.596,-0.942C4.626,-0.72 4.656,-0.499 4.686,-0.277C4.632,-0.677 4.61,-1.079 4.619,-1.481C2.982,-1.26 1.345,-1.038 -0.292,-0.817C-0.248,-0.707 -0.205,-0.598 -0.162,-0.488C-0.084,-0.163 0.065,0.121 0.286,0.362C0.462,0.634 0.696,0.849 0.987,1.006C1.274,1.189 1.584,1.288 1.917,1.303C2.249,1.377 2.581,1.362 2.914,1.258C3.113,1.174 3.312,1.09 3.511,1.006C3.886,0.784 4.185,0.485 4.408,0.109L4.66,-0.488C4.779,-0.931 4.779,-1.374 4.66,-1.817C4.616,-1.927 4.573,-2.036 4.53,-2.146C4.453,-2.471 4.303,-2.755 4.082,-2.996C3.906,-3.268 3.672,-3.483 3.381,-3.64L2.784,-3.892C2.451,-3.996 2.119,-4.011 1.787,-3.937C1.561,-3.936 1.351,-3.879 1.156,-3.766C0.846,-3.665 0.578,-3.493 0.351,-3.249C0.221,-3.081 0.091,-2.912 -0.039,-2.743C-0.266,-2.353 -0.379,-1.933 -0.381,-1.481C-0.395,-0.843 -0.312,-0.222 -0.222,0.41C-0.162,0.832 -0.067,1.247 0.061,1.654C0.138,1.979 0.288,2.263 0.509,2.504C0.685,2.776 0.919,2.991 1.21,3.148C1.409,3.232 1.608,3.316 1.807,3.4C2.139,3.504 2.472,3.519 2.804,3.445C3.03,3.444 3.24,3.387 3.435,3.274C3.745,3.173 4.013,3.001 4.24,2.757C4.37,2.588 4.5,2.42 4.63,2.251C4.857,1.861 4.97,1.44 4.972,0.989C4.981,0.495 4.991,0.002 5,-0.492C5.013,-0.836 4.941,-1.157 4.785,-1.455C4.684,-1.765 4.512,-2.033 4.268,-2.26C4.041,-2.504 3.773,-2.676 3.463,-2.777C3.165,-2.933 2.844,-3.005 2.5,-2.992C2.278,-2.962 2.057,-2.932 1.835,-2.903C1.412,-2.784 1.044,-2.57 0.732,-2.26C0.602,-2.091 0.472,-1.922 0.341,-1.754C0.115,-1.364 0.001,-0.943 0,-0.492" style="fill:rgb(35,31,32);fill-rule:nonzero;"/>
                </g>
                <g transform="matrix(1,0,0,1,36.5563,72.4295)">
                    <path d="M0,0.987C2.503,2.932 5.119,4.649 8.443,4.078C9.864,3.833 11.259,3.305 12.639,2.892C14.123,2.448 15.607,2.004 17.091,1.561C18.343,1.186 19.259,-0.21 18.837,-1.515C18.428,-2.781 17.104,-3.662 15.762,-3.261C13.224,-2.502 10.693,-1.71 8.145,-0.985C7.85,-0.901 7.549,-0.806 7.244,-0.764C7.645,-0.82 6.92,-0.776 6.906,-0.776C6.603,-0.799 6.59,-0.795 6.867,-0.763C6.712,-0.792 6.559,-0.827 6.407,-0.869C6.316,-0.894 5.676,-1.115 6.11,-0.941C5.586,-1.152 5.087,-1.464 4.618,-1.775C4.412,-1.911 4.209,-2.053 4.008,-2.198C3.94,-2.248 3.203,-2.807 3.536,-2.549C2.505,-3.349 0.991,-3.628 0,-2.549C-0.822,-1.653 -1.103,0.13 0,0.987" style="fill:rgb(35,31,32);fill-rule:nonzero;"/>
                </g>
                <g transform="matrix(1,0,0,1,30.4052,26.5656)">
                    <path d="M0,7.528C0.198,7.441 0.41,7.315 0.619,7.259C0.001,7.424 0.484,7.316 0.643,7.25C1.007,7.1 1.372,6.954 1.739,6.812C2.446,6.537 3.159,6.278 3.877,6.032C5.34,5.533 6.824,5.097 8.322,4.719C7.68,3.196 7.038,1.672 6.396,0.149C6.259,0.25 6.12,0.344 5.97,0.425C5.435,0.713 6.425,0.275 5.965,0.42C4.72,0.813 3.792,2.177 4.219,3.495C4.623,4.745 5.959,5.663 7.294,5.241C7.863,5.062 8.436,4.823 8.92,4.467C9.436,4.086 9.918,3.633 10.068,2.973C10.196,2.414 10.166,1.876 9.942,1.345C9.457,0.193 8.214,-0.411 6.993,-0.103C3.724,0.722 0.561,1.854 -2.524,3.211C-3.059,3.446 -3.524,4.167 -3.672,4.705C-3.837,5.303 -3.763,6.1 -3.42,6.631C-3.076,7.165 -2.564,7.635 -1.926,7.78C-1.229,7.939 -0.649,7.813 0,7.528" style="fill:rgb(35,31,32);fill-rule:nonzero;"/>
                </g>
                <g transform="matrix(1,0,0,1,44.7156,23.9088)">
                    <path d="M0,5.216C0.001,6.793 0.002,8.369 0.002,9.946L5.002,9.946C4.983,9.305 4.974,8.664 4.992,8.023C5,7.702 5.014,7.382 5.033,7.062C5.128,6.332 5.048,6.416 4.794,7.315C4.426,7.529 4.058,7.743 3.691,7.958C3.819,7.932 3.947,7.907 4.075,7.882L2.746,7.882C6.467,8.444 9.708,10.484 13.587,10.297C15.858,10.188 17.254,6.758 14.849,5.639C12.936,4.748 11.08,3.758 9.275,2.665L8.678,7.234C11.989,6.473 15.326,6.119 18.724,6.137L18.724,1.137C16.92,1.173 15.112,1.111 13.321,0.885C12.531,0.786 11.745,0.647 10.965,0.488C10.504,0.394 10.045,0.291 9.587,0.18C9.435,0.142 9.283,0.103 9.131,0.065C8.535,-0.131 8.524,-0.094 9.096,0.174L9.739,1.277C9.722,1.163 9.706,1.049 9.689,0.935L9.689,2.264C9.844,1.821 10.292,1.367 10.527,0.94C10.867,0.321 11.153,-0.322 11.42,-0.974C11.9,-2.146 12.237,-3.342 12.439,-4.592C12.637,-5.82 12.227,-7.044 10.991,-7.541C9.95,-7.96 8.374,-7.674 7.869,-6.518C7.309,-5.234 6.749,-3.95 6.189,-2.666C6.05,-2.349 5.354,-1.252 5.424,-0.952C5.527,-0.511 6.086,-1.457 6.132,-1.305C6.137,-1.288 5.337,-1.66 5.686,-1.495C3.087,-2.722 0.548,-4.1 -2.016,-5.4C-3.123,-5.962 -4.471,-5.787 -5.241,-4.756C-5.934,-3.828 -6.009,-2.292 -5.046,-1.474C-3.602,-0.246 -2.302,1.107 -1.134,2.598C-0.766,1.205 -0.398,-0.187 -0.03,-1.58C-5.314,-0.3 -10.676,0.38 -16.112,0.468C-15.691,0.581 -15.27,0.695 -14.85,0.809C-15.945,0.149 -17.039,-0.511 -18.134,-1.17C-18.975,0.269 -19.816,1.708 -20.658,3.147C-17.34,4.86 -13.67,6.178 -9.878,5.901C-6.559,5.659 -3.011,4.059 0.299,4.966L0.299,0.144C-1.589,0.921 -3.515,1.564 -5.49,2.077C-6.797,2.417 -7.59,3.864 -7.236,5.153C-6.848,6.564 -5.497,7.125 -4.161,6.899C-2.669,6.646 -1.177,6.394 0.315,6.141C1.647,5.916 2.393,4.273 2.061,3.066C1.674,1.655 0.322,1.094 -1.014,1.32C-2.506,1.572 -3.998,1.825 -5.49,2.077L-4.161,6.899C-2.186,6.385 -0.259,5.742 1.628,4.966C2.665,4.539 3.463,3.752 3.463,2.555C3.463,1.459 2.687,0.435 1.628,0.144C-1.922,-0.828 -5.305,0.235 -8.819,0.778C-12.129,1.288 -15.211,0.339 -18.134,-1.17C-20.983,-2.642 -23.43,1.476 -20.658,3.147C-18.998,4.147 -17.39,5.5 -15.387,5.454C-13.534,5.412 -11.683,5.3 -9.839,5.12C-6.087,4.754 -2.365,4.129 1.299,3.241C3.307,2.755 3.491,0.453 2.402,-0.937C1.233,-2.429 -0.066,-3.782 -1.51,-5.009C-2.52,-3.7 -3.53,-2.392 -4.54,-1.083C-2.828,-0.215 -1.117,0.653 0.595,1.521C2.213,2.341 3.955,3.527 5.802,3.674C7.685,3.825 9.164,2.818 9.946,1.142C10.735,-0.549 11.441,-2.284 12.187,-3.995C10.664,-4.637 9.14,-5.279 7.617,-5.921C7.337,-4.179 6.812,-2.553 5.897,-1.039C5.309,-0.067 4.737,0.73 4.823,1.932C4.901,3.027 5.518,3.924 6.482,4.43C8.253,5.359 10.667,5.539 12.62,5.796C14.649,6.062 16.678,6.178 18.724,6.137C21.937,6.072 21.949,1.154 18.724,1.137C14.897,1.116 11.078,1.555 7.349,2.413C5.196,2.908 4.979,5.908 6.752,6.982C8.557,8.075 10.413,9.065 12.326,9.956C12.746,8.403 13.167,6.85 13.587,5.297C10.532,5.444 7.811,3.917 4.905,3.223C3.187,2.813 1.416,3.003 0.517,4.723C-0.253,6.196 -0.046,8.338 0.002,9.946C0.099,13.154 5.004,13.176 5.002,9.946C5.002,8.369 5.001,6.793 5,5.216C4.998,1.999 -0.002,1.993 0,5.216" style="fill:rgb(35,31,32);fill-rule:nonzero;"/>
                </g>
                <g transform="matrix(1,0,0,1,61.6691,23.0263)">
                    <path d="M0,7.971C0.046,7.964 0.091,7.957 0.137,7.95C-0.084,7.98 -0.306,8.009 -0.527,8.039C-0.155,7.995 0.208,7.997 0.58,8.043C0.358,8.013 0.137,7.984 -0.085,7.954C0.192,7.998 0.457,8.064 0.722,8.156L0.722,3.335C0.682,3.341 0.643,3.347 0.603,3.353C0.825,3.323 1.046,3.294 1.268,3.264C0.787,3.327 0.311,3.324 -0.169,3.259C0.053,3.289 0.274,3.319 0.496,3.349C0.057,3.28 -0.364,3.163 -0.776,2.997L-0.179,3.249C-0.587,3.073 -0.965,2.857 -1.322,2.592L-0.816,2.983C-1.006,2.834 -1.185,2.676 -1.355,2.506C-1.723,3.898 -2.091,5.291 -2.459,6.684C-1.43,6.304 -0.402,5.924 0.626,5.544C1.629,5.173 2.638,4.715 3.702,4.554C2.891,3.162 2.08,1.769 1.269,0.376C0.994,0.692 0.719,1.009 0.444,1.325C-0.23,2.099 -0.485,3.079 -0.073,4.056C0.1,4.467 0.344,4.783 0.697,5.056C1.171,5.422 1.614,5.52 2.212,5.593C2.998,5.688 3.784,5.784 4.57,5.88C5.161,5.952 5.937,5.549 6.338,5.148C6.772,4.714 7.098,4.003 7.07,3.38C7.041,2.733 6.829,2.063 6.338,1.612C5.817,1.134 5.267,0.965 4.57,0.88C3.784,0.784 2.998,0.688 2.212,0.593C2.801,2.015 3.39,3.438 3.979,4.86C4.255,4.544 4.53,4.228 4.805,3.911C5.512,3.098 5.822,1.853 5.196,0.882C4.963,0.52 4.66,0.218 4.299,-0.015C3.705,-0.398 3.032,-0.367 2.372,-0.267C1.309,-0.106 0.3,0.351 -0.703,0.722C-1.731,1.102 -2.76,1.482 -3.788,1.863C-4.626,2.173 -5.287,2.713 -5.534,3.609C-5.771,4.469 -5.521,5.41 -4.891,6.041C-3.998,6.935 -2.909,7.573 -1.71,7.964C-0.471,8.369 0.783,8.354 2.051,8.156C2.25,8.072 2.449,7.988 2.648,7.904C2.94,7.747 3.174,7.532 3.35,7.26C3.676,6.838 3.911,6.293 3.887,5.745C3.835,4.592 3.135,3.709 2.051,3.335C0.937,2.949 -0.184,2.973 -1.329,3.15C-1.907,3.239 -2.541,3.817 -2.823,4.298C-3.137,4.834 -3.27,5.624 -3.075,6.225C-2.88,6.83 -2.505,7.413 -1.926,7.719C-1.294,8.053 -0.702,8.079 0,7.971" style="fill:rgb(35,31,32);fill-rule:nonzero;"/>
                </g>
                <g transform="matrix(1,0,0,1,33.983,29.0552)">
                    <path d="M0,7.833C4.492,7.006 8.954,6.032 13.382,4.911C14.65,4.59 15.538,3.102 15.128,1.836C14.704,0.525 13.412,-0.254 12.053,0.09C7.625,1.21 3.163,2.185 -1.329,3.012C-2.618,3.249 -3.466,4.879 -3.075,6.087C-2.628,7.468 -1.381,8.087 0,7.833" style="fill:rgb(35,31,32);fill-rule:nonzero;"/>
                </g>
                <g transform="matrix(1,0,0,1,41.4184,20.6746)">
                    <path d="M0,1.216C0.238,1.233 0.475,1.258 0.712,1.289C0.491,1.26 0.269,1.23 0.048,1.2C1.038,1.348 1.991,1.638 2.915,2.019C2.716,1.935 2.517,1.851 2.318,1.767C3.967,2.466 5.484,3.421 6.987,4.386C8.089,5.094 9.794,4.648 10.407,3.489C11.062,2.249 10.687,0.824 9.51,0.068C8.19,-0.78 6.859,-1.625 5.433,-2.288C3.681,-3.103 1.935,-3.645 0,-3.784C-1.307,-3.878 -2.557,-2.567 -2.5,-1.284C-2.436,0.151 -1.4,1.115 0,1.216" style="fill:rgb(35,31,32);fill-rule:nonzero;"/>
                </g>
                <g transform="matrix(1,0,0,1,60.6917,20.4338)">
                    <path d="M0,6.594C0.416,6.249 0.832,5.905 1.256,5.569C1.388,5.464 1.721,5.304 1.221,5.594C1.316,5.539 1.404,5.455 1.493,5.389C1.722,5.221 1.953,5.056 2.188,4.897C2.595,4.623 3.011,4.377 3.445,4.151C3.908,3.91 3.072,4.262 3.357,4.188C3.483,4.155 3.604,4.104 3.731,4.071C3.829,4.046 3.94,4.04 4.035,4.007C3.652,4.051 3.559,4.068 3.757,4.057C3.835,4.052 3.913,4.052 3.991,4.056C3.272,2.802 2.552,1.548 1.833,0.294C1.789,0.379 1.741,0.461 1.69,0.542C1.543,0.757 1.59,0.704 1.831,0.382C1.691,0.472 1.566,0.679 1.439,0.796C1.369,0.86 1.296,0.922 1.222,0.982C1.54,0.741 1.593,0.695 1.379,0.845C1.254,0.916 1.135,0.998 1.008,1.068C0.924,1.114 0.838,1.157 0.752,1.199C0.519,1.305 0.579,1.281 0.932,1.126C0.931,1.125 0.35,1.322 0.299,1.337C-0.104,1.451 -0.514,1.533 -0.927,1.599C-1.582,1.703 -0.489,1.555 -1.01,1.613C-1.245,1.639 -1.479,1.668 -1.714,1.692C-2.164,1.736 -2.614,1.768 -3.066,1.775C-3.276,1.777 -3.486,1.775 -3.696,1.766C-3.816,1.76 -3.936,1.752 -4.056,1.742C-4.351,1.711 -4.295,1.721 -3.887,1.772C-3.98,1.757 -4.071,1.737 -4.162,1.712C-3.787,1.895 -3.713,1.924 -3.94,1.798C-2.5,2.756 -2.876,4.638 -4.542,5.28C-3.916,5.039 -3.397,4.729 -3.047,4.131C-2.734,3.595 -2.601,2.805 -2.795,2.205C-3.179,1.02 -4.564,-0.045 -5.871,0.459C-6.585,0.734 -7.184,1.092 -7.593,1.765C-7.868,2.218 -8.042,2.815 -8.034,3.349C-8.016,4.543 -7.391,5.598 -6.346,6.183C-4.979,6.949 -3.134,6.837 -1.625,6.682C-0.011,6.517 1.522,6.291 3.013,5.634C4.309,5.062 5.466,4.067 6.15,2.818C7.064,1.149 5.918,-0.916 3.991,-0.944C1.045,-0.987 -1.412,1.299 -3.536,3.058C-4.547,3.896 -4.467,5.739 -3.536,6.594C-2.461,7.581 -1.079,7.488 0,6.594" style="fill:rgb(35,31,32);fill-rule:nonzero;"/>
                </g>
                <g transform="matrix(1,0,0,1,55.591,16.0653)">
                    <path d="M0,1.676C0.141,1.582 0.282,1.487 0.423,1.393C-0.717,1.094 -1.858,0.795 -2.998,0.496C-2.762,0.909 -2.551,1.334 -2.366,1.772C-2.45,1.573 -2.534,1.374 -2.618,1.175C-2.388,1.733 -2.187,2.311 -2.059,2.901C-2.089,2.68 -2.119,2.458 -2.148,2.237C-2.137,2.293 -2.136,2.349 -2.145,2.405C-2.115,2.184 -2.085,1.962 -2.056,1.741C-2.065,1.766 -2.075,1.792 -2.085,1.817C-1.871,1.45 -1.656,1.082 -1.442,0.714C-1.457,0.732 -1.472,0.75 -1.487,0.768C-1.318,0.638 -1.149,0.508 -0.981,0.378C-1.017,0.409 -1.058,0.434 -1.102,0.452L-0.505,0.2C-0.685,0.268 -0.87,0.311 -1.06,0.342C-0.838,0.312 -0.617,0.282 -0.395,0.253C-0.697,0.291 -0.995,0.287 -1.297,0.248C-1.075,0.278 -0.853,0.307 -0.632,0.337C-0.966,0.284 -1.286,0.193 -1.599,0.066L-1.002,0.318C-1.538,0.088 -2.022,-0.227 -2.483,-0.58C-2.315,-0.45 -2.146,-0.319 -1.977,-0.189C-2.387,-0.509 -2.79,-0.841 -3.116,-1.249C-2.986,-1.08 -2.855,-0.912 -2.725,-0.743C-2.849,-0.908 -2.953,-1.076 -3.037,-1.264L-2.785,-0.667C-2.838,-0.802 -2.876,-0.935 -2.9,-1.078C-2.87,-0.856 -2.84,-0.635 -2.81,-0.413C-2.818,-0.47 -2.823,-0.528 -2.824,-0.586C-2.858,-1.248 -3.08,-1.878 -3.556,-2.354C-3.99,-2.788 -4.702,-3.114 -5.324,-3.086C-5.971,-3.057 -6.641,-2.845 -7.092,-2.354C-7.528,-1.88 -7.858,-1.25 -7.824,-0.586C-7.78,0.264 -7.551,1.087 -7.042,1.78C-6.633,2.339 -6.203,2.797 -5.665,3.227C-4.594,4.081 -3.441,4.889 -2.061,5.143C-1.158,5.308 -0.231,5.349 0.661,5.077C1.22,4.907 1.685,4.673 2.093,4.25C2.83,3.486 2.972,2.481 2.744,1.488C2.463,0.264 1.941,-0.941 1.32,-2.028C0.679,-3.148 -0.984,-3.673 -2.101,-2.925C-2.242,-2.83 -2.383,-2.736 -2.524,-2.641C-3.067,-2.278 -3.495,-1.791 -3.673,-1.147C-3.837,-0.549 -3.763,0.248 -3.42,0.779C-3.076,1.313 -2.564,1.783 -1.926,1.928C-1.293,2.072 -0.558,2.05 0,1.676" style="fill:rgb(35,31,32);fill-rule:nonzero;"/>
                </g>
                <g transform="matrix(1,0,0,1,51.5763,12.1185)">
                    <path d="M0,5.463C0.322,5.285 0.651,5.124 0.989,4.979L0.392,5.231C1.164,4.906 1.97,4.673 2.797,4.536C3.123,4.459 3.406,4.31 3.647,4.089C3.92,3.913 4.134,3.679 4.291,3.388C4.474,3.101 4.573,2.791 4.588,2.458C4.662,2.126 4.648,1.793 4.543,1.461C4.348,0.856 3.973,0.273 3.394,-0.033L2.797,-0.285C2.354,-0.404 1.911,-0.404 1.468,-0.285C0.073,-0.055 -1.289,0.463 -2.524,1.146C-3.065,1.445 -3.51,2.048 -3.672,2.64C-3.777,2.972 -3.792,3.304 -3.717,3.637C-3.702,3.969 -3.603,4.279 -3.42,4.566C-3.076,5.1 -2.564,5.57 -1.926,5.715C-1.261,5.867 -0.605,5.798 0,5.463" style="fill:rgb(35,31,32);fill-rule:nonzero;"/>
                </g>
                <g transform="matrix(1,0,0,1,55.785,32.5404)">
                    <path d="M0,-16.538C1.242,-18.034 2.603,-19.4 4.095,-20.648C2.916,-21.827 1.737,-23.005 0.559,-24.184C-1.154,-22.252 -2.378,-20.027 -3.658,-17.803C-4.754,-15.897 -5.914,-13.987 -7.858,-12.848C-6.633,-12.35 -5.409,-11.852 -4.185,-11.354C-4.516,-13.011 -4.847,-14.668 -5.177,-16.325C-5.503,-17.959 -7.527,-18.548 -8.85,-17.819C-10.173,-17.091 -11.546,-15.836 -13.07,-15.578C-13.339,-15.532 -13.934,-15.566 -14.045,-15.577C-14.068,-15.579 -14.246,-15.969 -14.176,-15.744C-14.141,-15.634 -14.479,-15.231 -14.071,-15.788L-16.229,-14.55C-13.732,-14.49 -11.343,-14.013 -8.991,-13.174L-8.991,-17.995C-11.424,-17.104 -13.977,-16.113 -16.604,-16.124C-19.183,-16.134 -21.243,-17.539 -23.304,-18.935L-25.827,-14.617C-22.837,-12.931 -19.938,-11.098 -17.132,-9.12L-16.535,-13.689C-18.421,-13.178 -20.354,-13.365 -22.278,-13.535C-24.401,-13.723 -26.42,-13.796 -28.536,-13.488C-31.068,-13.119 -30.76,-9.253 -28.536,-8.667C-26.373,-8.097 -24.211,-7.527 -22.048,-6.957L-22.048,-11.779C-24.671,-11.384 -27.325,-11.163 -29.977,-11.105C-31.189,-11.078 -31.443,-11.208 -32.323,-11.996C-33.308,-12.878 -34.292,-13.759 -35.277,-14.641C-37.688,-16.8 -40.922,-13.532 -38.812,-11.106C-35.875,-7.727 -33.094,-3.924 -29.28,-1.476C-26.558,0.27 -24.082,-4.031 -26.756,-5.794C-28.443,-6.906 -30.13,-8.017 -31.817,-9.129C-33.734,-10.393 -35.95,-8.313 -35.489,-6.306C-35.055,-4.411 -34.62,-2.517 -34.186,-0.623C-33.983,0.261 -33.638,1.222 -33.57,2.128C-33.558,2.287 -33.612,2.556 -33.578,2.681C-33.475,3.07 -33.587,2.552 -33.478,2.53C-33.035,4.137 -32.592,5.745 -32.149,7.352C-29.184,6.28 -26.27,5.072 -23.412,3.739C-22.021,3.091 -21.744,0.793 -22.906,-0.187C-24.652,-1.659 -26.618,-2.707 -28.887,-3.09L-28.887,1.732C-24.34,1.111 -19.761,0.701 -15.178,0.471C-13.888,0.406 -11.528,-0.138 -10.666,0.892C-10.426,1.179 -10.295,1.655 -10.308,1.966C-10.309,1.982 -10.378,2.421 -10.404,2.37C-10.428,2.405 -10.457,2.436 -10.491,2.462C-10.311,2.515 -10.196,2.479 -10.145,2.354C-9.533,3.158 -8.921,3.961 -8.309,4.765C-8.359,4.05 -8.408,3.335 -8.457,2.62C-10.01,3.041 -11.563,3.462 -13.116,3.882C-12.567,4.975 -12.114,6.085 -11.731,7.246C-11.143,9.031 -8.951,9.701 -7.552,8.35C-6.384,7.22 -5.216,6.091 -4.048,4.962C-3.464,4.397 -2.88,3.833 -2.295,3.268C-1.945,2.929 -1.594,2.591 -1.244,2.252C-1.12,2.132 -0.563,1.735 -0.543,1.574C-1.827,1.463 -2.171,1.539 -1.575,1.802C-1.359,1.915 -1.143,2.029 -0.927,2.142L-0.062,2.596C0.659,2.975 1.38,3.353 2.101,3.732C3.565,4.5 5.267,5.768 6.993,5.257C8.999,4.663 9.152,2.787 9.202,1.022C9.22,0.365 9.169,-0.334 9.265,-0.984C9.282,-1.099 9.019,-0.794 9.142,-0.909C9.299,-1.056 9.512,-1.089 9.709,-1.14C10.905,-1.448 12.312,-0.838 13.415,-0.431C14.917,0.122 16.406,0.714 17.9,1.288L17.303,-3.282C16.159,-2.575 14.331,-1.38 12.932,-1.496C13.353,-1.383 13.773,-1.269 14.194,-1.155C13.309,-1.614 12.641,-3.25 11.808,-3.958C10.887,-4.74 12.07,-3.564 11.767,-3.498C11.779,-3.501 11.979,-4.006 12.009,-4.067C12.247,-4.55 12.553,-5.012 12.872,-5.445C14.183,-7.228 15.806,-8.745 16.838,-10.731C18.326,-13.595 14.289,-15.946 12.52,-13.254C10.862,-10.73 9.528,-6.474 11.503,-3.78C12.426,-2.522 14.022,-1.793 15.264,-0.89C16.572,0.062 17.794,1.125 18.968,2.237C21.304,4.449 24.846,0.919 22.504,-1.298C20.596,-3.104 18.534,-4.757 16.345,-6.21C16.18,-6.319 15.438,-6.87 15.517,-6.717C15.621,-6.515 15.574,-7.442 15.598,-7.631C15.741,-8.767 16.216,-9.785 16.838,-10.731C15.399,-11.572 13.96,-12.413 12.52,-13.254C11.6,-11.482 10.175,-10.086 8.967,-8.514C7.596,-6.729 5.954,-4.078 7.199,-1.825C7.779,-0.774 8.748,0.148 9.515,1.065C10.287,1.991 11.036,3.076 12.268,3.414C14.659,4.071 17.853,2.254 19.826,1.036C21.777,-0.169 21.194,-2.778 19.229,-3.534C15.916,-4.807 12.239,-6.796 8.587,-6.012C6.824,-5.634 5.17,-4.461 4.568,-2.713C4,-1.063 4.312,0.792 4.134,2.5C4.248,2.08 4.361,1.659 4.475,1.238C4.422,1.335 4.369,1.431 4.316,1.528C4.814,1.145 5.312,0.762 5.81,0.379C5.712,0.417 5.615,0.455 5.518,0.493L6.847,0.493C6.168,0.383 5.306,-0.228 4.625,-0.586C3.832,-1.002 3.039,-1.418 2.246,-1.834C0.579,-2.709 -1.135,-3.815 -3.017,-2.79C-4.464,-2.003 -5.708,-0.386 -6.882,0.749C-8.284,2.104 -9.686,3.459 -11.088,4.814C-9.695,5.182 -8.302,5.549 -6.91,5.917C-7.425,4.353 -8.06,2.83 -8.799,1.359C-9.893,-0.821 -13.627,0.171 -13.457,2.62C-13.408,3.335 -13.359,4.05 -13.309,4.765C-13.229,5.927 -12.579,6.805 -11.474,7.176C-8.241,8.26 -5.406,5.182 -5.31,2.12C-5.221,-0.696 -7.06,-3.444 -9.758,-4.312C-11.257,-4.794 -12.899,-4.635 -14.445,-4.564C-16.157,-4.486 -17.867,-4.381 -19.575,-4.249C-23.135,-3.976 -26.679,-3.572 -30.216,-3.09C-32.636,-2.759 -32.57,1.335 -30.216,1.732C-28.821,1.967 -27.536,2.426 -26.442,3.348C-26.273,2.039 -26.104,0.731 -25.936,-0.578C-28.404,0.573 -30.917,1.605 -33.478,2.53C-36.499,3.622 -35.325,7.992 -32.149,7.352C-29.082,6.734 -28.275,3.472 -28.749,0.799C-29.251,-2.03 -30.026,-4.835 -30.668,-7.635C-31.892,-6.694 -33.116,-5.753 -34.34,-4.812C-32.654,-3.7 -30.967,-2.588 -29.28,-1.476C-28.439,-2.916 -27.598,-4.355 -26.756,-5.794C-30.144,-7.967 -32.668,-11.64 -35.277,-14.641C-36.455,-13.463 -37.634,-12.284 -38.812,-11.106C-36.459,-8.998 -34.262,-6.242 -30.892,-6.101C-27.522,-5.96 -24.041,-6.457 -20.719,-6.957C-18.191,-7.338 -18.489,-11.191 -20.719,-11.779C-22.881,-12.348 -25.044,-12.918 -27.206,-13.488L-27.206,-8.667C-25.296,-8.945 -23.286,-8.61 -21.379,-8.458C-19.3,-8.293 -17.232,-8.319 -15.206,-8.868C-12.994,-9.468 -12.916,-12.244 -14.609,-13.437C-17.415,-15.415 -20.314,-17.248 -23.304,-18.935C-26.136,-20.533 -28.471,-16.408 -25.827,-14.617C-23.127,-12.789 -20.376,-11.281 -17.044,-11.133C-13.814,-10.99 -10.65,-12.079 -7.662,-13.174C-5.312,-14.035 -5.277,-17.144 -7.662,-17.995C-10.128,-18.875 -12.717,-19.383 -15.333,-19.52C-16.969,-19.605 -18.162,-19.094 -18.819,-17.516C-19.261,-16.455 -19.274,-15.255 -18.899,-14.169C-18.089,-11.823 -15.764,-10.422 -13.313,-10.548C-10.612,-10.687 -8.601,-12.249 -6.326,-13.502C-7.55,-14 -8.775,-14.498 -9.999,-14.996C-9.668,-13.339 -9.337,-11.682 -9.006,-10.025C-8.687,-8.423 -6.645,-7.762 -5.334,-8.531C-2.963,-9.92 -1.275,-12.05 0.127,-14.372C1.402,-16.483 2.447,-18.791 4.095,-20.648C6.252,-23.081 3.015,-26.239 0.559,-24.184C-0.932,-22.936 -2.294,-21.569 -3.536,-20.074C-4.397,-19.035 -4.552,-17.555 -3.536,-16.538C-2.648,-15.651 -0.867,-15.494 0,-16.538" style="fill:rgb(35,31,32);fill-rule:nonzero;"/>
                </g>
            </g>
        </g>
    </g>
</svg>
