<?xml version="1.0" encoding="UTF-8" standalone="no"?>
<!DOCTYPE svg PUBLIC "-//W3C//DTD SVG 1.1//EN" "http://www.w3.org/Graphics/SVG/1.1/DTD/svg11.dtd">
<svg width="100%" height="100%" viewBox="0 0 100 100" version="1.1" xmlns="http://www.w3.org/2000/svg" xmlns:xlink="http://www.w3.org/1999/xlink" xml:space="preserve" xmlns:serif="http://www.serif.com/" style="fill-rule:evenodd;clip-rule:evenodd;stroke-linejoin:round;stroke-miterlimit:2;">
    <g transform="matrix(1,0,0,1,0,-112.5)">
        <g id="Page-9" serif:id="Page 9" transform="matrix(1,0,0,1,0,112.5)">
            <rect x="0" y="0" width="100" height="100" style="fill:none;"/>
            <g id="Drawing">
                <g transform="matrix(1,0,0,1,59.1797,79.0532)">
                    <path d="M0,-62.71C-7.6,-64.037 -15.37,-65.009 -23.093,-65.147C-26.752,-65.212 -30.134,-64.49 -32.98,-62.09C-35.352,-60.09 -36.969,-57.291 -38.379,-54.572C-44.474,-42.817 -48.756,-27.599 -40.346,-15.82C-36.416,-10.313 -30.722,-5.97 -24.819,-2.753C-18.963,0.438 -12.265,2.502 -5.54,1.873C1.375,1.227 7.388,-1.899 11.602,-7.452C15.772,-12.948 18.153,-19.744 18.887,-26.565C20.427,-40.877 13.005,-55.502 0.025,-62.015C-2.844,-63.455 -5.379,-59.143 -2.499,-57.698C7.316,-52.773 13.704,-42.575 14.074,-31.619C14.438,-20.827 9.45,-7.041 -1.929,-3.828C-7.49,-2.258 -13.342,-3.116 -18.62,-5.289C-23.996,-7.503 -29.156,-11.01 -33.253,-15.131C-37.435,-19.337 -39.933,-24.572 -40.08,-30.546C-40.227,-36.486 -38.491,-42.412 -36.104,-47.801C-34.816,-50.711 -33.424,-53.736 -31.538,-56.315C-29.738,-58.777 -27.485,-60.048 -24.424,-60.143C-20.667,-60.26 -16.834,-59.858 -13.098,-59.495C-9.154,-59.112 -5.232,-58.57 -1.329,-57.889C-0.001,-57.657 1.364,-58.245 1.746,-59.635C2.077,-60.84 1.337,-62.477 0,-62.71" style="fill:rgb(35,31,32);fill-rule:nonzero;"/>
                </g>
                <g transform="matrix(1,0,0,1,32.3326,38.674)">
                    <path d="M0,4.89C0.04,4.76 0.146,4.554 0.16,4.421C0.138,4.64 -0.036,4.848 0.147,4.495C0.279,4.241 0.525,3.989 0.626,3.729C0.563,3.811 0.5,3.893 0.438,3.975C0.508,3.89 0.58,3.808 0.654,3.727C0.748,3.626 0.845,3.528 0.944,3.434C0.975,3.405 1.209,3.144 1.252,3.159C0.983,3.36 0.923,3.406 1.073,3.297C1.139,3.248 1.207,3.2 1.276,3.154C1.506,3 1.749,2.876 1.99,2.741C2.471,2.472 1.474,2.902 1.999,2.733C2.129,2.691 2.258,2.644 2.39,2.605C2.521,2.567 2.654,2.533 2.788,2.504C2.868,2.486 2.949,2.471 3.03,2.458C3.224,2.425 3.138,2.437 2.773,2.492C2.777,2.501 3.627,2.482 3.677,2.481C3.992,2.479 3.12,2.369 3.574,2.462C3.732,2.495 3.889,2.527 4.045,2.569C4.175,2.604 4.303,2.645 4.429,2.689C4.818,2.825 4.503,2.784 4.355,2.648C4.548,2.826 4.905,2.93 5.131,3.077C5.162,3.098 5.469,3.269 5.463,3.308C5.194,3.097 5.13,3.051 5.273,3.17C5.335,3.222 5.396,3.275 5.455,3.331C5.655,3.514 5.832,3.715 6.015,3.915C6.367,4.299 5.757,3.516 6.013,3.924C6.099,4.061 6.188,4.194 6.268,4.335C6.334,4.452 6.389,4.575 6.454,4.693C6.602,4.959 6.279,4.184 6.42,4.615C6.521,4.924 6.607,5.23 6.666,5.551C6.904,6.84 8.534,7.687 9.742,7.297C11.122,6.85 11.743,5.602 11.488,4.221C10.801,0.499 7.368,-2.25 3.677,-2.519C-0.139,-2.797 -3.727,-0.006 -4.821,3.561C-5.205,4.811 -4.366,6.342 -3.075,6.636C-1.722,6.944 -0.411,6.229 0,4.89" style="fill:rgb(35,31,32);fill-rule:nonzero;"/>
                </g>
                <g transform="matrix(1,0,0,1,53.4854,37.204)">
                    <path d="M0,7.908C0.254,7.322 0.508,6.734 0.805,6.168C0.966,5.861 1.139,5.56 1.33,5.27C1.374,5.203 1.644,4.778 1.436,5.101C1.232,5.419 1.51,5.017 1.569,4.952C1.771,4.726 2.038,4.549 2.231,4.321C2.097,4.48 1.832,4.612 2.157,4.395C2.263,4.325 2.371,4.257 2.482,4.193C2.615,4.117 2.752,4.052 2.888,3.981C3.351,3.74 2.353,4.141 2.855,4.003C3.125,3.929 3.387,3.856 3.661,3.795C3.967,3.727 3.068,3.834 3.519,3.821C3.671,3.817 3.819,3.809 3.97,3.814C4.07,3.817 4.524,3.867 4.088,3.809C3.636,3.749 4.179,3.84 4.272,3.864C4.357,3.887 4.529,3.986 4.616,3.972C4.266,3.816 4.178,3.779 4.352,3.861C4.417,3.891 4.482,3.923 4.545,3.958C4.673,4.027 4.792,4.109 4.916,4.184C5.283,4.407 4.603,3.896 4.81,4.104C4.895,4.189 4.989,4.265 5.073,4.352C5.124,4.404 5.173,4.457 5.22,4.512C5.344,4.655 5.289,4.58 5.056,4.286C5.129,4.502 5.347,4.751 5.461,4.96C5.603,5.223 5.28,4.41 5.393,4.825C5.427,4.95 5.452,5.116 5.499,5.236C5.31,4.757 5.463,4.806 5.471,5.135C5.475,5.278 5.465,5.421 5.452,5.564C5.337,6.87 6.685,8.12 7.952,8.064C9.405,7.999 10.329,6.963 10.452,5.564C10.785,1.794 7.096,-1.467 3.444,-1.173C1.54,-1.019 -0.188,-0.265 -1.593,1.036C-2.873,2.222 -3.635,3.811 -4.317,5.384C-4.595,6.025 -4.763,6.608 -4.569,7.311C-4.41,7.891 -3.961,8.519 -3.42,8.805C-2.342,9.375 -0.555,9.189 0,7.908" style="fill:rgb(35,31,32);fill-rule:nonzero;"/>
                </g>
                <g transform="matrix(1,0,0,1,46.6549,51.4253)">
                    <path d="M0,5C3.217,5 3.223,0 0,0C-3.217,0 -3.223,5 0,5" style="fill:rgb(35,31,32);fill-rule:nonzero;"/>
                </g>
                <g transform="matrix(1,0,0,1,38.9833,62.0155)">
                    <path d="M0,4.914C3.211,5.603 6.506,5.986 9.792,5.978C12.785,5.97 15.79,5.506 18.071,3.413C19.037,2.526 19.037,0.764 18.071,-0.123C17.038,-1.072 15.566,-1.069 14.536,-0.123C14.313,0.068 14.302,0.088 14.502,-0.063C14.377,0.028 14.248,0.114 14.115,0.194C13.917,0.313 13.71,0.422 13.499,0.517C13.95,0.315 13.086,0.633 12.993,0.658C12.764,0.721 12.531,0.774 12.297,0.819C12.14,0.85 11.982,0.877 11.824,0.9C12.09,0.864 12.072,0.863 11.77,0.897C11.528,0.912 11.288,0.936 11.047,0.949C10.431,0.98 9.815,0.982 9.199,0.975C6.384,0.941 4.004,0.666 1.329,0.093C0.054,-0.181 -1.434,0.47 -1.746,1.839C-2.033,3.097 -1.367,4.621 0,4.914" style="fill:rgb(35,31,32);fill-rule:nonzero;"/>
                </g>
                <g transform="matrix(1,0,0,1,28.4643,25.7582)">
                    <path d="M0,-10.236C-0.801,-10.86 -1.509,-11.286 -2.466,-11.646C-3.193,-11.921 -3.994,-12.034 -4.764,-12.082C-6.278,-12.176 -7.92,-11.775 -9.214,-10.983C-10.674,-10.089 -11.725,-8.74 -12.254,-7.116C-12.698,-5.752 -12.684,-4.144 -12.274,-2.774C-11.765,-1.079 -10.659,0.46 -9.086,1.315C-7.938,1.94 -6.31,1.637 -5.666,0.418C-5.049,-0.749 -5.336,-2.335 -6.563,-3.002C-6.756,-3.107 -6.937,-3.224 -7.113,-3.356C-6.944,-3.226 -6.775,-3.096 -6.607,-2.966C-6.874,-3.177 -7.109,-3.415 -7.321,-3.682C-7.191,-3.514 -7.061,-3.345 -6.93,-3.176C-7.175,-3.499 -7.373,-3.845 -7.532,-4.216L-7.28,-3.619C-7.445,-4.028 -7.558,-4.448 -7.622,-4.884C-7.592,-4.663 -7.562,-4.441 -7.532,-4.22C-7.592,-4.69 -7.593,-5.159 -7.532,-5.629C-7.562,-5.408 -7.592,-5.186 -7.621,-4.965C-7.561,-5.369 -7.457,-5.759 -7.303,-6.137L-7.555,-5.54C-7.405,-5.887 -7.218,-6.209 -6.988,-6.509C-7.118,-6.34 -7.249,-6.171 -7.379,-6.003C-7.147,-6.291 -6.887,-6.545 -6.596,-6.774C-6.765,-6.643 -6.934,-6.513 -7.102,-6.383C-6.781,-6.625 -6.438,-6.824 -6.07,-6.987C-6.269,-6.903 -6.468,-6.819 -6.667,-6.735C-6.199,-6.932 -5.716,-7.062 -5.214,-7.133C-5.435,-7.103 -5.657,-7.073 -5.879,-7.044C-5.371,-7.106 -4.867,-7.106 -4.359,-7.043C-4.581,-7.072 -4.802,-7.102 -5.024,-7.132C-4.518,-7.06 -4.032,-6.929 -3.561,-6.731C-3.76,-6.815 -3.959,-6.899 -4.158,-6.983C-3.785,-6.817 -3.437,-6.616 -3.11,-6.372C-3.278,-6.502 -3.447,-6.633 -3.616,-6.763C-3.589,-6.742 -3.562,-6.721 -3.536,-6.7C-2.989,-6.275 -2.492,-5.968 -1.768,-5.968C-1.155,-5.968 -0.422,-6.241 0,-6.7C0.437,-7.177 0.762,-7.802 0.732,-8.468C0.705,-9.083 0.509,-9.839 0,-10.236" style="fill:rgb(35,31,32);fill-rule:nonzero;"/>
                </g>
                <g transform="matrix(1,0,0,1,63.2169,20.9243)">
                    <path d="M0,-1.199C0.162,-1.367 0.333,-1.52 0.517,-1.663L0.011,-1.272C0.305,-1.49 0.616,-1.669 0.95,-1.818C0.751,-1.734 0.552,-1.65 0.353,-1.566C0.784,-1.747 1.228,-1.866 1.691,-1.93C1.47,-1.901 1.248,-1.871 1.027,-1.841C1.458,-1.892 1.887,-1.893 2.318,-1.842C2.096,-1.872 1.875,-1.902 1.653,-1.932C2.082,-1.873 2.494,-1.765 2.895,-1.601L2.298,-1.853C2.634,-1.708 2.946,-1.529 3.24,-1.31C3.071,-1.44 2.902,-1.571 2.734,-1.701C3.019,-1.478 3.271,-1.226 3.497,-0.943L3.106,-1.449C3.365,-1.11 3.574,-0.746 3.74,-0.354L3.488,-0.951C3.647,-0.554 3.757,-0.146 3.82,0.277C3.791,0.056 3.761,-0.166 3.731,-0.387C3.79,0.07 3.793,0.524 3.736,0.982C3.766,0.76 3.795,0.539 3.825,0.317C3.769,0.706 3.671,1.081 3.526,1.446L3.778,0.849C3.663,1.121 3.526,1.378 3.362,1.624C2.638,2.717 3.112,4.438 4.259,5.045C5.514,5.708 6.907,5.314 7.68,4.148C9.161,1.913 9.101,-1.21 7.753,-3.49C7.078,-4.63 6.043,-5.637 4.821,-6.171C4.09,-6.49 3.437,-6.692 2.65,-6.798C1.837,-6.907 1.129,-6.866 0.313,-6.745C-1.125,-6.532 -2.529,-5.777 -3.536,-4.735C-4.445,-3.793 -4.542,-2.123 -3.536,-1.199C-2.552,-0.296 -0.97,-0.194 0,-1.199" style="fill:rgb(35,31,32);fill-rule:nonzero;"/>
                </g>
                <g transform="matrix(1,0,0,1,32.5228,59.5154)">
                    <path d="M0,-46.68C-2.725,-51.071 -7.82,-53.968 -13.046,-53.633C-18.208,-53.302 -23.127,-50.076 -25.256,-45.312C-27.559,-40.155 -26.467,-34.657 -25.653,-29.298C-25.284,-26.872 -24.952,-24.295 -25.359,-21.852C-25.835,-18.991 -27.396,-16.482 -28.414,-13.803C-29.469,-11.027 -29.827,-7.82 -28.634,-5.03C-28.31,-4.273 -27.901,-3.62 -27.376,-2.985C-26.988,-2.516 -26.437,-2.117 -26.104,-1.614C-25.41,-0.566 -26.295,0.913 -26.783,1.885C-28.223,4.753 -23.912,7.288 -22.466,4.408C-21.203,1.893 -20.075,-1.108 -21.573,-3.795C-22.122,-4.779 -23.011,-5.427 -23.668,-6.309C-24.257,-7.099 -24.405,-8.056 -24.385,-9.018C-24.337,-11.365 -23.141,-13.504 -22.213,-15.599C-21.1,-18.112 -20.34,-20.584 -20.22,-23.349C-19.876,-31.23 -25.757,-43.638 -15.812,-47.945C-11.65,-49.748 -6.669,-47.946 -4.317,-44.156C-2.624,-41.428 1.703,-43.935 0,-46.68" style="fill:rgb(35,31,32);fill-rule:nonzero;"/>
                </g>
                <g transform="matrix(1,0,0,1,57.9733,46.844)">
                    <path d="M0,-28.768C2.335,-32.523 6.045,-35.513 10.476,-36.278C14.254,-36.931 18.542,-35.477 20.941,-32.434C24.245,-28.246 22.671,-22.665 22.151,-17.883C21.867,-15.267 22.398,-12.743 24.361,-10.879C25.114,-10.163 25.967,-9.601 26.511,-8.697C27.035,-7.826 27.255,-6.779 27.159,-5.766C27.04,-4.51 26.271,-3.432 25.937,-2.237C25.475,-0.582 25.681,1.099 26.517,2.597C27.16,3.748 28.15,4.65 29.01,5.629C29.271,5.926 29.539,6.228 29.702,6.593C29.779,6.766 29.772,7.352 29.935,7.18C27.731,9.523 31.26,13.065 33.47,10.715C35.78,8.258 34.877,4.847 32.899,2.495C32.288,1.769 30.869,0.756 30.673,-0.237C30.48,-1.211 31.492,-2.61 31.769,-3.496C32.627,-6.24 32.103,-9.493 30.429,-11.829C29.624,-12.954 28.516,-13.658 27.626,-14.678C26.872,-15.54 27.013,-16.813 27.151,-17.883C27.921,-23.815 28.961,-30.06 25.067,-35.214C21.872,-39.445 16.374,-41.833 11.088,-41.365C4.603,-40.792 -0.936,-36.729 -4.317,-31.292C-6.021,-28.551 -1.697,-26.038 0,-28.768" style="fill:rgb(35,31,32);fill-rule:nonzero;"/>
                </g>
                <g transform="matrix(1,0,0,1,4.9691,95.2603)">
                    <path d="M0,-31.77C-1.132,-28.545 -1.455,-24.589 1.781,-22.461C2.672,-21.875 3.933,-21.619 3.331,-20.463C2.72,-19.291 1.618,-18.422 0.975,-17.256C0.079,-15.631 -0.052,-13.742 0.776,-12.059C1.616,-10.353 3.175,-9.424 4.886,-8.768C5.365,-8.585 6,-8.398 6.375,-8.213C6.508,-8.148 6.876,-7.806 6.824,-7.96C6.818,-7.977 6.809,-7.732 6.802,-7.654C6.668,-6.198 5.216,-4.629 4.23,-3.664C1.926,-1.41 5.463,2.125 7.765,-0.128C10.318,-2.626 13.367,-7.238 10.958,-10.749C9.969,-12.19 8.408,-12.797 6.828,-13.368C6.367,-13.534 5.615,-13.708 5.325,-14.147C5.13,-14.441 5.182,-14.487 5.292,-14.732C5.873,-16.019 7.139,-16.941 7.797,-18.215C8.691,-19.943 8.78,-22.007 7.843,-23.745C7.34,-24.676 6.598,-25.429 5.704,-25.991C5.268,-26.265 4.548,-26.491 4.274,-26.856C3.746,-27.558 4.516,-29.57 4.821,-30.441C5.268,-31.715 4.313,-33.176 3.075,-33.516C1.696,-33.895 0.449,-33.049 0,-31.77" style="fill:rgb(35,31,32);fill-rule:nonzero;"/>
                </g>
                <g transform="matrix(1,0,0,1,87.5577,88.9024)">
                    <path d="M0,-33.375C-2.024,-30.126 -3.247,-26.624 -1.152,-23.084C-0.761,-22.422 0.336,-21.069 0.139,-20.594C-0.222,-19.727 -1.876,-18.964 -2.584,-18.279C-4.865,-16.069 -5.69,-12.498 -4.708,-9.489C-4.173,-7.848 -3.07,-6.883 -2.129,-5.51C-1.323,-4.334 -2.634,-2.787 -3.352,-1.875C-4.185,-0.814 -4.386,0.626 -3.352,1.661C-2.485,2.527 -0.655,2.728 0.184,1.661C2.693,-1.53 4.45,-5.277 1.56,-8.861C0.746,-9.871 -0.087,-10.64 -0.112,-12.01C-0.134,-13.192 0.305,-14.183 1.193,-14.961C2.269,-15.903 3.471,-16.603 4.288,-17.814C5.282,-19.288 5.395,-21.131 4.752,-22.762C4.249,-24.038 3.134,-25.132 2.754,-26.422C2.307,-27.945 3.56,-29.636 4.317,-30.851C6.024,-33.59 1.7,-36.103 0,-33.375" style="fill:rgb(35,31,32);fill-rule:nonzero;"/>
                </g>
                <g transform="matrix(1,0,0,1,29.0743,41.2162)">
                    <path d="M0,2.5C1.609,2.5 1.611,0 0,0C-1.609,0 -1.611,2.5 0,2.5" style="fill:rgb(35,31,32);fill-rule:nonzero;"/>
                </g>
                <g transform="matrix(1,0,0,1,29.4391,41.5811)">
                    <path d="M0,2.5C1.609,2.5 1.611,0 0,0C-1.609,0 -1.611,2.5 0,2.5" style="fill:rgb(35,31,32);fill-rule:nonzero;"/>
                </g>
                <g transform="matrix(1,0,0,1,29.804,40.973)">
                    <path d="M0,2.5C1.609,2.5 1.611,0 0,0C-1.609,0 -1.611,2.5 0,2.5" style="fill:rgb(35,31,32);fill-rule:nonzero;"/>
                </g>
            </g>
        </g>
    </g>
</svg>
