<?xml version="1.0" encoding="UTF-8" standalone="no"?>
<!DOCTYPE svg PUBLIC "-//W3C//DTD SVG 1.1//EN" "http://www.w3.org/Graphics/SVG/1.1/DTD/svg11.dtd">
<svg width="100%" height="100%" viewBox="0 0 300 300" version="1.1" xmlns="http://www.w3.org/2000/svg" xmlns:xlink="http://www.w3.org/1999/xlink" xml:space="preserve" xmlns:serif="http://www.serif.com/" style="fill-rule:evenodd;clip-rule:evenodd;stroke-linejoin:round;stroke-miterlimit:2;">
    <rect x="0" y="0" width="300" height="300" style="fill:white;"/>
    <g transform="matrix(0.856164,0,0,0.856164,28.7689,47.9575)">
        <path d="M23.686,104.878C24.829,105.215 26.773,105.967 28.254,107.777C29.243,108.985 30.719,110.981 31.987,113.168C32.623,114.265 33.272,115.522 33.776,116.832C34.253,118.07 34.758,119.754 34.758,121.594C34.758,125.072 31.939,127.892 28.461,127.892C25.048,127.892 22.27,125.178 22.166,121.791C22.15,121.727 22.11,121.585 22.022,121.356C21.831,120.861 21.519,120.223 21.091,119.484C20.549,118.549 19.926,117.632 19.374,116.878C18.969,116.863 18.534,116.879 18.145,116.918C17.944,116.939 17.784,116.962 17.672,116.983C17.63,116.99 17.602,116.996 17.586,117C15.964,117.511 14.841,118.596 13.992,120.542C13.062,122.672 12.642,125.517 12.642,128.535C12.642,134.295 15.295,139.88 19.807,144.999C24.318,150.115 30.341,154.346 36.059,157.206C39.17,158.761 40.431,162.544 38.875,165.655C37.32,168.765 33.537,170.026 30.426,168.471C23.584,165.05 16.158,159.905 10.36,153.328C4.563,146.752 0.047,138.326 0.047,128.535C0.047,124.612 0.556,119.839 2.449,115.503C4.415,110.999 7.995,106.773 13.923,104.949C15.668,104.412 18.022,104.204 20.054,104.301C21.125,104.352 22.41,104.501 23.686,104.878Z" style="fill:rgb(35,31,32);"/>
    </g>
    <g transform="matrix(0.856164,0,0,0.856164,28.7689,47.9575)">
        <path d="M55.487,101.408C53.734,101.018 52.102,100.993 49.382,100.993C45.904,100.993 43.084,98.174 43.084,94.696C43.084,91.218 45.904,88.398 49.382,88.398L49.566,88.398C52.094,88.397 55,88.397 58.219,89.113C59.759,89.455 61.227,90.075 61.968,90.388C62.098,90.443 62.206,90.489 62.288,90.522C62.983,90.801 63.108,90.791 63.127,90.789C63.128,90.789 63.129,90.789 63.13,90.789C66.608,90.789 69.427,93.609 69.427,97.087C69.427,100.565 66.608,103.384 63.13,103.384C60.704,103.384 58.818,102.701 57.591,102.208C57.171,102.039 56.857,101.909 56.611,101.807C56.034,101.568 55.829,101.484 55.487,101.408Z" style="fill:rgb(35,31,32);"/>
    </g>
    <g transform="matrix(0.856164,0,0,0.856164,28.7689,47.9575)">
        <path d="M67.906,79.432C71.384,79.432 74.203,82.252 74.203,85.73C74.203,85.985 74.206,86.263 74.21,86.559C74.236,88.923 74.276,92.511 72.874,96.094C72.446,97.187 71.853,98.52 71.339,99.677C71.071,100.28 70.824,100.835 70.633,101.283C69.944,102.901 69.526,104.102 69.353,105.054C69.304,105.323 69.249,105.582 69.192,105.83C75.611,106.115 82.087,107.079 88.549,109.341C93.388,111.034 98.21,111.451 103.956,111.948C105.442,112.076 106.989,112.21 108.614,112.372C109.897,112.501 111.092,112.74 112.05,112.945C112.341,113.007 112.603,113.064 112.846,113.117C113.484,113.256 113.99,113.366 114.53,113.461C114.544,113.462 114.625,113.469 114.804,113.469C115.026,113.469 115.229,113.461 115.554,113.448C115.666,113.444 115.792,113.439 115.939,113.433L115.991,113.431C116.889,113.397 118.72,113.328 120.635,113.895C120.942,113.986 121.335,114.041 122.411,114.192C122.5,114.205 122.595,114.218 122.695,114.232L122.728,114.236C123.621,114.362 125.206,114.584 126.767,115.178C126.764,115.082 126.762,114.984 126.762,114.886C126.762,109.962 126.914,104.896 127.063,99.985L127.066,99.9C127.215,94.982 127.359,90.227 127.359,85.73C127.359,82.252 130.179,79.432 133.657,79.432C137.135,79.432 139.954,82.252 139.954,85.73C139.954,90.42 139.805,95.336 139.658,100.181L139.653,100.367C139.504,105.253 139.36,110.071 139.357,114.721C139.361,114.727 139.382,114.939 139.458,115.51C139.477,115.648 139.497,115.799 139.519,115.96C139.596,116.527 139.691,117.221 139.771,117.891C139.871,118.728 139.979,119.76 140.002,120.693C140.013,121.138 140.012,121.794 139.916,122.492C139.869,122.839 139.773,123.387 139.553,124.006C139.362,124.545 138.881,125.71 137.737,126.74C136.723,127.652 135.669,128.029 135.175,128.182C134.599,128.361 134.082,128.444 133.726,128.487C133.012,128.575 132.317,128.577 131.782,128.562C130.677,128.531 129.442,128.401 128.35,128.254C127.229,128.103 126.101,127.913 125.157,127.726C124.495,127.595 123.198,127.334 122.247,126.933C122.25,126.934 122.249,126.934 122.241,126.932C122.191,126.918 121.89,126.837 120.944,126.705C120.853,126.692 120.749,126.678 120.634,126.662C119.819,126.553 118.453,126.369 117.192,126.011C117.122,126.009 116.897,126.001 116.412,126.019C116.351,126.022 116.28,126.024 116.202,126.028C115.839,126.043 115.308,126.064 114.807,126.064C114.156,126.065 113.313,126.033 112.388,125.872C111.552,125.727 110.674,125.535 109.967,125.381C109.77,125.338 109.586,125.298 109.42,125.262C108.554,125.077 107.92,124.961 107.361,124.905C106.148,124.783 104.875,124.677 103.558,124.566C97.671,124.071 90.879,123.5 84.388,121.228C78.186,119.058 71.703,118.328 64.651,118.328C64.377,118.328 64.132,118.334 63.875,118.341C63.847,118.342 63.817,118.343 63.785,118.344C63.57,118.351 63.252,118.36 62.97,118.36L62.942,118.36C62.63,118.369 60.134,118.441 58.068,116.656C55.825,114.717 55.684,112.067 55.658,111.563C55.657,111.543 55.656,111.526 55.655,111.513C55.622,110.985 55.626,110.258 55.629,109.719C55.63,109.577 55.631,109.449 55.631,109.34C55.631,107.462 56.089,105.826 56.38,104.842C56.496,104.452 56.588,104.151 56.662,103.908C56.825,103.374 56.903,103.12 56.961,102.801C57.395,100.412 58.276,98.154 59.046,96.345C59.426,95.454 59.751,94.73 60.044,94.075C60.448,93.172 60.794,92.401 61.145,91.504C61.612,90.308 61.611,89.222 61.609,86.444C61.608,86.218 61.608,85.98 61.608,85.73C61.608,82.252 64.428,79.432 67.906,79.432ZM127.411,121.085L127.411,121.068L127.411,121.085ZM62.999,105.765C62.973,105.765 62.981,105.764 63.016,105.765L62.999,105.765Z" style="fill:rgb(35,31,32);"/>
    </g>
    <g transform="matrix(0.856164,0,0,0.856164,28.7689,47.9575)">
        <path d="M98.708,89.934C88.08,90.083 77.411,90.232 66.719,90.232C63.241,90.232 60.422,87.413 60.422,83.935C60.422,80.457 63.241,77.637 66.719,77.637C77.323,77.637 87.918,77.489 98.575,77.339L98.581,77.339C109.226,77.19 119.93,77.04 130.677,77.04C134.155,77.04 136.975,79.859 136.975,83.337C136.975,86.815 134.155,89.635 130.677,89.635C120.033,89.635 109.417,89.783 98.758,89.933L98.708,89.934Z" style="fill:rgb(35,31,32);"/>
    </g>
    <g transform="matrix(0.856164,0,0,0.856164,28.7689,47.9575)">
        <path d="M153.081,111.4C148.427,112.13 143.209,112.948 137.842,112.948C134.364,112.948 131.545,110.128 131.545,106.65C131.545,103.172 134.364,100.352 137.842,100.352C142.125,100.352 146.434,99.693 151.279,98.934C151.368,98.92 151.458,98.906 151.548,98.892C156.157,98.169 161.295,97.364 166.534,97.364C170.012,97.364 172.831,100.183 172.831,103.661C172.831,107.139 170.012,109.959 166.534,109.959C162.343,109.959 158.087,110.616 153.229,111.377L153.081,111.4Z" style="fill:rgb(35,31,32);"/>
    </g>
    <g transform="matrix(0.856164,0,0,0.856164,28.7689,47.9575)">
        <path d="M173.714,75.247C177.192,75.247 180.011,78.067 180.011,81.545C180.011,89.712 180.166,97.861 180.576,105.852C180.59,105.898 180.608,105.951 180.628,106.012C180.673,106.144 180.724,106.289 180.781,106.442C182.364,106.457 183.947,106.425 185.621,106.392C187.134,106.361 188.722,106.329 190.45,106.329C197.434,106.329 203.861,106.053 210.557,105.216C211.497,105.098 212.458,105.073 213.184,105.06C213.474,105.055 213.732,105.052 213.971,105.049C214.431,105.043 214.824,105.038 215.26,105.022C215.881,104.999 216.291,104.96 216.559,104.913C216.583,104.909 216.604,104.905 216.622,104.901C217.872,104.254 219.074,103.992 220.001,103.875C220.896,103.761 221.747,103.761 222.211,103.761L222.266,103.761C222.563,103.762 222.746,103.76 222.864,103.758C225.855,102.607 229.289,103.896 230.752,106.822C232.307,109.933 231.046,113.716 227.935,115.271C226.613,115.932 225.349,116.172 224.411,116.272C223.597,116.359 222.801,116.357 222.366,116.357L222.264,116.357C222.098,116.357 221.975,116.357 221.874,116.358C219.556,117.439 217.045,117.56 215.726,117.609C214.713,117.646 214.046,117.65 213.54,117.652C212.941,117.655 212.569,117.657 212.119,117.714C204.754,118.634 197.778,118.925 190.45,118.925C189.254,118.925 187.933,118.95 186.545,118.976C183.477,119.034 180.075,119.099 176.93,118.914C174.538,118.773 173.021,117.41 172.569,116.985C171.935,116.39 171.475,115.761 171.184,115.329C170.582,114.432 170.079,113.429 169.705,112.602C169.314,111.735 168.96,110.83 168.688,110.022C168.507,109.483 168.087,108.216 168.022,106.981C167.579,98.564 167.416,90.027 167.416,81.545C167.416,78.067 170.236,75.247 173.714,75.247ZM216.72,104.879C216.72,104.879 216.716,104.88 216.709,104.882C216.716,104.879 216.72,104.878 216.72,104.879ZM223.071,103.748C223.075,103.748 223.076,103.748 223.074,103.748L223.071,103.748Z" style="fill:rgb(35,31,32);"/>
    </g>
    <g transform="matrix(0.856164,0,0,0.856164,28.7689,47.9575)">
        <path d="M215.075,82.347C214.471,82.395 213.612,82.463 212.857,82.463L203.592,82.463C199.063,82.463 194.489,82.609 189.783,82.759L189.771,82.759C185.103,82.908 180.307,83.061 175.499,83.061C172.021,83.061 169.201,80.241 169.201,76.763C169.201,73.285 172.021,70.466 175.499,70.466C180.078,70.466 184.678,70.32 189.382,70.17L189.467,70.167C194.11,70.019 198.857,69.868 203.592,69.868L212.857,69.868C213.046,69.868 213.398,69.845 214.183,69.783L214.252,69.777C214.912,69.725 215.8,69.654 216.695,69.629C217.598,69.603 218.779,69.613 219.982,69.811C221.003,69.979 222.806,70.397 224.418,71.729L224.448,71.744C224.569,71.806 224.84,71.945 225.135,72.124C225.809,72.531 226.731,73.207 227.527,74.325C228.293,75.399 228.686,76.521 228.901,77.489C229.014,77.999 229.138,78.676 229.228,79.165C229.261,79.349 229.29,79.506 229.312,79.617C229.43,80.231 229.507,80.508 229.547,80.623C230.426,83.084 230.373,85.665 230.346,86.984C230.343,87.105 230.341,87.215 230.34,87.314C230.319,88.857 230.407,89.157 230.405,89.158C230.405,89.158 230.403,89.155 230.401,89.149C231.679,92.024 232.488,95.425 233.019,97.812C233.192,98.594 233.227,99.301 233.234,99.764C233.242,100.259 233.219,100.729 233.196,101.101C233.176,101.421 233.15,101.755 233.128,102.027C233.124,102.07 233.121,102.111 233.118,102.151C233.106,102.295 233.096,102.425 233.088,102.545C233.986,104.274 234.073,106.395 233.135,108.271C231.579,111.382 227.796,112.643 224.686,111.087C221.715,109.602 220.904,106.809 220.666,105.619C220.404,104.308 220.446,103.036 220.484,102.302C220.503,101.926 220.579,100.929 220.611,100.507C220.62,100.398 220.625,100.328 220.626,100.316C220.63,100.252 220.633,100.196 220.635,100.149C220.123,97.888 219.562,95.772 218.891,94.264C217.682,91.543 217.723,88.746 217.744,87.303C217.744,87.249 217.745,87.196 217.746,87.146C217.747,87.079 217.748,87.015 217.749,86.953C217.759,86.192 217.765,85.743 217.739,85.318C217.718,84.995 217.686,84.864 217.682,84.847C217.341,83.89 217.129,82.935 216.987,82.221C216.453,82.238 215.876,82.283 215.179,82.338C215.145,82.341 215.111,82.344 215.075,82.347ZM233.054,103.4C233.053,103.4 233.053,103.397 233.053,103.391L233.054,103.4Z" style="fill:rgb(35,31,32);"/>
    </g>
    <g transform="matrix(0.856164,0,0,0.856164,28.7689,47.9575)">
        <path d="M223.604,94.098C223.604,90.62 226.423,87.801 229.901,87.801L241.856,87.801C245.334,87.801 248.153,90.62 248.153,94.098C248.153,97.576 245.334,100.396 241.856,100.396L229.901,100.396C226.423,100.396 223.604,97.576 223.604,94.098Z" style="fill:rgb(35,31,32);"/>
    </g>
    <g transform="matrix(0.856164,0,0,0.856164,28.7689,47.9575)">
        <path d="M200.494,101.495C200.614,101.501 200.743,101.508 200.879,101.517C200.938,101.52 201.037,101.527 201.144,101.534C201.292,101.543 201.454,101.554 201.546,101.56C201.733,101.571 202.068,101.591 202.4,101.591C205.878,101.591 208.698,98.771 208.698,95.293C208.698,91.815 205.878,88.996 202.4,88.996C202.426,88.996 202.381,88.991 201.667,88.946C201.157,88.914 200.411,88.873 199.638,88.881C198.97,88.888 197.784,88.93 196.575,89.272C195.881,89.469 191.922,90.692 191.37,95.11C190.938,98.561 193.386,101.709 196.837,102.14C198.143,102.303 199.406,102.054 200.494,101.495ZM199.557,101.484C199.557,101.484 199.564,101.483 199.578,101.482C199.565,101.484 199.557,101.484 199.557,101.484Z" style="fill:rgb(35,31,32);"/>
    </g>
    <g transform="matrix(0.856164,0,0,0.856164,28.7689,47.9575)">
        <path d="M102.409,95.04C105.52,96.596 106.781,100.378 105.226,103.489C103.493,106.954 100.04,107.721 98.892,107.928C97.534,108.174 96.147,108.169 95.544,108.166L95.409,108.166C91.931,108.166 89.111,105.346 89.111,101.868C89.111,98.39 91.931,95.571 95.409,95.571L95.5,95.571C95.652,95.571 95.782,95.571 95.9,95.57C97.74,94.241 100.238,93.955 102.409,95.04Z" style="fill:rgb(35,31,32);"/>
    </g>
    <g transform="matrix(0.856164,0,0,0.856164,28.7689,47.9575)">
        <path d="M156.523,141.229C156.549,141.249 156.574,141.268 156.6,141.288C158.079,142.42 159.695,142.819 160.894,142.926C162.085,143.033 163.565,142.917 165.016,142.279C166.316,141.708 169.248,139.835 169.248,135.94C169.248,131.251 165.185,129.678 164.322,129.403C163.087,129.009 161.883,128.961 161.274,128.95C160.54,128.936 159.837,128.973 159.371,129.002C158.676,129.044 158.708,129.045 158.766,129.045C155.288,129.045 152.469,131.864 152.469,135.342C152.469,138.03 154.153,140.325 156.523,141.229ZM161.125,141.545C161.162,141.547 161.179,141.549 161.178,141.55C161.177,141.55 161.159,141.549 161.125,141.545Z" style="fill:rgb(35,31,32);"/>
    </g>
    <g transform="matrix(0.856164,0,0,0.856164,28.7689,47.9575)">
        <path d="M163.561,13.233C156.58,13.233 148.474,14.432 142.23,16.723C140.295,17.433 138.361,17.579 137.297,17.659C137.228,17.664 137.162,17.669 137.101,17.673C135.808,17.774 135.476,17.839 135.266,17.916C134.801,18.086 134.298,18.275 133.772,18.472C132.626,18.902 131.372,19.373 130.173,19.783C125.808,21.278 121.379,22.805 117.09,24.33C115.962,24.731 114.381,25.618 112.684,26.64C111.032,27.635 109.276,28.241 108.178,28.62C108.113,28.642 108.05,28.664 107.99,28.685C106.671,29.141 106.155,29.351 105.805,29.57C105.062,30.033 104.36,30.647 103.195,31.666C102.99,31.846 102.771,32.038 102.534,32.244C101.206,33.4 99.221,35.096 96.769,36.198C93.613,37.617 90.567,39.353 87.307,41.277C86.824,41.562 86.335,41.853 85.839,42.147C83.072,43.788 80.11,45.544 77.045,47.119C71.938,49.743 65.786,55.444 62.711,60.36C61.292,62.627 59.54,64.104 58.508,64.975C58.463,65.013 58.419,65.049 58.377,65.085C57.226,66.058 57.143,66.212 57.11,66.273C56.126,68.093 54.677,69.719 53.804,70.699C53.699,70.816 53.602,70.925 53.516,71.023C52.425,72.262 52.114,72.743 52.009,72.998C50.1,77.635 47.334,82.369 44.854,86.615C43.78,88.452 42.76,90.198 41.887,91.805C38.735,97.599 36.687,102.762 36.687,108.296C36.687,111.774 33.867,114.594 30.389,114.594C26.911,114.594 24.092,111.774 24.092,108.296C24.092,99.57 27.364,92.146 30.822,85.787C32.113,83.414 33.366,81.277 34.553,79.253C36.784,75.448 38.783,72.04 40.362,68.203C41.368,65.761 43.057,63.842 44.044,62.722L44.062,62.701C45.329,61.261 45.779,60.749 46.03,60.285C47.291,57.951 49.104,56.426 50.094,55.594C50.147,55.549 50.198,55.506 50.247,55.465C51.351,54.532 51.728,54.167 52.033,53.68C56.283,46.887 64.117,39.601 71.29,35.916C73.985,34.531 76.571,32.998 79.345,31.354C79.858,31.05 80.378,30.742 80.905,30.43C84.204,28.483 87.764,26.437 91.605,24.71C92.174,24.454 92.913,23.92 94.264,22.745C94.413,22.614 94.577,22.47 94.752,22.316C95.86,21.338 97.445,19.94 99.138,18.884C100.815,17.837 102.61,17.218 103.72,16.834C103.771,16.817 103.82,16.799 103.868,16.783C105.204,16.32 105.767,16.103 106.185,15.851C107.761,14.902 110.374,13.351 112.869,12.463C117.231,10.912 121.718,9.366 126.092,7.868C127.125,7.514 128.073,7.158 129.113,6.768C129.681,6.554 130.276,6.331 130.927,6.092C132.919,5.361 134.871,5.212 135.97,5.128C136.024,5.124 136.076,5.12 136.126,5.116C137.472,5.012 137.745,4.953 137.891,4.899C145.797,1.998 155.421,0.638 163.561,0.638L170.814,0.638C173.386,0.638 175.651,1.547 176.996,2.137C177.564,2.386 178.148,2.663 178.61,2.883C178.727,2.939 178.837,2.991 178.936,3.038C179.506,3.306 179.847,3.456 180.091,3.547C182.5,4.438 184.941,5.169 187.575,5.937C187.845,6.016 188.117,6.095 188.392,6.175C190.743,6.859 193.264,7.593 195.808,8.464C204.348,11.389 213.064,14.767 221.398,19.287C228.122,22.933 233.162,27.984 237.706,32.654C238.319,33.283 238.884,33.703 239.894,34.437L239.926,34.46C240.933,35.192 242.31,36.192 243.799,37.722C245.69,39.665 247.049,41.82 248.096,43.597C248.461,44.217 248.778,44.769 249.069,45.277C249.708,46.392 250.225,47.294 250.865,48.228C252.537,50.669 256.446,54.275 258.98,55.763C262.013,57.544 263.569,60.428 264.323,61.827L264.383,61.936C264.474,62.105 264.557,62.259 264.632,62.399C264.954,62.997 265.152,63.365 265.38,63.723C265.54,63.973 265.631,64.078 265.653,64.102C268.071,66.108 268.466,68.815 268.458,70.362C268.45,71.859 268.086,73.231 267.853,74.034C267.735,74.444 267.446,75.344 267.282,75.856C267.221,76.045 267.178,76.182 267.166,76.221C267.096,76.451 267.059,76.594 267.041,76.666C266.986,77.881 266.816,79.044 266.697,79.853C266.681,79.963 266.666,80.065 266.653,80.161C266.511,81.149 266.458,81.69 266.471,82.152C266.497,83.098 266.74,84.37 267.211,86.119C267.344,86.613 267.532,87.265 267.737,87.975C268.005,88.904 268.301,89.933 268.54,90.836C268.608,90.914 268.684,91.003 268.762,91.098C269.082,91.485 269.51,92.047 269.906,92.78C270.771,94.38 271.161,95.849 271.395,96.987C273.71,98.374 274.266,100.822 274.358,101.281C274.554,102.257 274.49,103.085 274.461,103.405C274.423,103.831 274.357,104.213 274.302,104.494C274.19,105.062 274.044,105.599 273.933,105.977C273.874,106.175 273.814,106.367 273.757,106.539C273.728,106.623 273.694,106.725 273.654,106.831L273.652,106.837C273.634,106.888 273.533,107.164 273.382,107.474C271.86,110.602 268.091,111.903 264.964,110.382C263.541,109.689 262.496,108.532 261.923,107.182C261.922,107.181 261.924,107.182 261.923,107.182C260.776,105.997 260.31,104.654 260.169,104.247L260.166,104.238C260.026,103.833 259.876,103.298 259.819,103.092C259.809,103.058 259.802,103.033 259.798,103.019C259.578,102.253 259.434,101.563 259.328,100.999C259.28,100.748 259.237,100.502 259.201,100.299L259.191,100.242C259.151,100.015 259.119,99.838 259.087,99.672C259.015,99.299 258.959,99.092 258.911,98.958C258.845,98.884 258.731,98.756 258.626,98.633C258.037,97.947 256.999,96.636 256.507,94.614C256.28,93.682 256.053,92.906 255.788,92.003C255.573,91.269 255.334,90.45 255.05,89.394C254.523,87.441 253.95,84.992 253.88,82.502C253.835,80.869 254.039,79.394 254.185,78.373C254.2,78.271 254.214,78.173 254.227,78.079C254.367,77.109 254.444,76.574 254.462,76.028C254.487,75.241 254.611,74.54 254.727,74.016C254.845,73.477 254.989,72.971 255.116,72.556C255.223,72.204 255.341,71.841 255.438,71.542L255.451,71.5C255.193,71.153 254.966,70.817 254.766,70.504C254.255,69.704 253.788,68.832 253.463,68.225C253.405,68.116 253.352,68.016 253.303,67.926C252.787,66.972 252.532,66.631 252.472,66.547C248.41,64.125 243.195,59.319 240.473,55.344C239.529,53.966 238.629,52.397 237.899,51.123C237.661,50.709 237.442,50.326 237.244,49.991C236.32,48.421 235.578,47.333 234.773,46.506C234.083,45.797 233.462,45.332 232.491,44.627L232.378,44.544C231.415,43.846 230.081,42.877 228.68,41.438C224.098,36.73 220.243,32.989 215.394,30.359C207.948,26.321 199.98,23.207 191.727,20.38C189.479,19.61 187.247,18.96 184.86,18.265C184.591,18.187 184.321,18.108 184.048,18.029C181.406,17.258 178.587,16.419 175.722,15.36C174.921,15.063 174.15,14.706 173.565,14.43C173.4,14.352 173.247,14.28 173.103,14.211C172.67,14.006 172.316,13.838 171.938,13.672C171.077,13.294 170.75,13.24 170.751,13.233C170.751,13.233 170.751,13.233 170.751,13.233L163.561,13.233ZM261.944,102.061C261.944,102.062 261.944,102.06 261.944,102.061Z" style="fill:rgb(35,31,32);"/>
    </g>
    <g transform="matrix(0.856164,0,0,0.856164,28.7689,47.9575)">
        <path d="M62.295,76.917C62.001,77.849 61.554,78.91 60.938,79.879C57.289,85.613 53.871,91.846 51.902,97.75C50.962,100.571 49.361,103.169 48.283,104.918C48.041,105.311 47.825,105.66 47.649,105.96C46.515,107.895 46.115,109.014 46.115,110.237C46.115,113.715 43.296,116.535 39.818,116.535C39.121,116.535 38.451,116.421 37.825,116.213C36.273,118.457 33.373,119.509 30.654,118.602C27.354,117.502 25.571,113.936 26.671,110.637C26.837,110.138 27.003,109.604 27.179,109.038C27.971,106.488 28.959,103.305 31.02,99.999C32.888,97.001 34.479,93.797 36.233,90.265L36.325,90.078C38.067,86.57 39.978,82.736 42.317,79.081C44.485,75.694 47.473,72.157 50.175,69.455C50.687,68.943 51.316,68.379 52.05,67.9C52.672,67.493 54.011,66.716 55.829,66.644C58.185,66.551 60.367,67.684 61.65,69.608C62.642,71.095 62.791,72.586 62.825,73.26C62.898,74.728 62.56,76.077 62.295,76.917ZM59.17,78.276C59.175,78.271 59.177,78.269 59.177,78.269C59.177,78.27 59.175,78.272 59.17,78.276ZM50.302,73.057C50.303,73.056 50.299,73.076 50.287,73.116C50.295,73.077 50.301,73.057 50.302,73.057Z" style="fill:rgb(35,31,32);"/>
    </g>
    <g transform="matrix(0.856164,0,0,0.856164,28.7689,47.9575)">
        <path d="M181.516,12.607C184.927,13.29 187.139,16.607 186.457,20.018C186.281,20.894 185.928,22.633 185.353,24.351C185.065,25.211 184.665,26.242 184.109,27.239C183.602,28.147 182.67,29.574 181.085,30.631C181.088,30.629 181.09,30.627 181.09,30.627C181.092,30.63 180.781,30.899 179.959,32.464C179.884,32.606 179.798,32.772 179.704,32.954C179.383,33.574 178.965,34.384 178.551,35.094C177.984,36.068 177.187,37.292 176.067,38.412C175.576,38.903 175.023,39.562 174.289,40.49C174.129,40.692 173.955,40.914 173.772,41.148C173.197,41.882 172.522,42.743 171.851,43.539C170.109,45.605 167.454,48.419 163.638,49.806C163.658,49.799 163.524,49.847 163.189,50.067C162.853,50.289 162.461,50.585 161.915,51.017C161.81,51.101 161.692,51.196 161.563,51.299C160.627,52.051 159.11,53.268 157.512,54.109C154.718,55.58 151.927,57.036 149.027,58.486C141.955,62.022 134.273,64.527 127.349,66.753C119.459,69.289 110.265,71.704 101.048,71.704C99.202,71.704 97.006,71.568 95.025,71.445C94.065,71.386 93.156,71.33 92.361,71.293C89.552,71.166 87.373,71.218 85.711,71.587C76.115,73.719 66.179,75.888 55.354,75.888C51.876,75.888 49.057,73.068 49.057,69.59C49.057,66.112 51.876,63.293 55.354,63.293C64.607,63.293 73.266,61.45 82.978,59.292C86.362,58.54 89.947,58.575 92.934,58.711C94.231,58.77 95.371,58.843 96.423,58.91C98.101,59.016 99.552,59.109 101.048,59.109C108.251,59.109 115.928,57.194 123.495,54.762C130.518,52.505 137.309,50.264 143.394,47.221C146.174,45.831 148.871,44.424 151.646,42.964C152.104,42.723 152.595,42.333 153.736,41.428C153.85,41.338 153.969,41.244 154.096,41.143L154.111,41.131C155.18,40.285 157.06,38.796 159.334,37.969C159.888,37.768 160.761,37.153 162.222,35.42C162.735,34.812 163.202,34.215 163.736,33.535C163.948,33.263 164.171,32.979 164.411,32.675C165.182,31.702 166.117,30.55 167.161,29.506C167.161,29.506 167.173,29.494 167.198,29.464C167.223,29.434 167.258,29.389 167.304,29.326C167.398,29.196 167.517,29.013 167.668,28.754C167.91,28.338 168.114,27.945 168.387,27.416C168.511,27.178 168.648,26.913 168.809,26.605L168.81,26.604C169.544,25.206 170.874,22.676 173.261,20.765C173.304,20.656 173.354,20.52 173.409,20.354C173.71,19.456 173.935,18.402 174.106,17.548C174.788,14.137 178.106,11.925 181.516,12.607ZM173.11,21.103C173.108,21.106 173.107,21.107 173.107,21.107L173.11,21.103Z" style="fill:rgb(35,31,32);"/>
    </g>
    <g transform="matrix(0.856164,0,0,0.856164,28.7689,47.9575)">
        <path d="M181.481,13.681C184.959,13.681 187.779,16.501 187.779,19.979C187.779,22.4 188.182,23.556 188.954,25.77C189.339,26.874 189.815,28.24 190.379,30.157C190.717,31.308 191.569,32.598 193.317,34.464C193.703,34.875 194.209,35.386 194.778,35.96C196.209,37.404 198.037,39.248 199.337,40.919C201.204,43.319 203.153,44.96 205.816,46.292C206.898,46.833 207.957,47.383 208.997,47.937C207.926,46.745 206.876,45.453 205.833,44.038C203.887,41.397 201.37,39.734 197.369,37.334C194.386,35.544 193.419,31.676 195.209,28.693C196.998,25.711 200.866,24.744 203.849,26.533C207.758,28.879 212.357,31.659 215.973,36.566C219.627,41.525 223.221,44.366 229.094,47.661C229.389,47.826 229.676,47.993 229.914,48.132L229.953,48.154C230.214,48.306 230.419,48.425 230.613,48.533C230.69,48.576 230.759,48.614 230.821,48.647C231.498,48.472 232.351,48.359 233.322,48.476C234.98,48.676 236.407,49.478 237.42,50.598C238.636,51.942 239.004,53.458 239.123,54.267C239.152,54.287 239.183,54.308 239.215,54.33L239.225,54.337C239.413,54.466 239.658,54.635 239.898,54.807C240.141,54.982 240.453,55.214 240.773,55.485C243.777,58.027 243.751,61.418 243.501,63.1C243.428,63.592 243.323,64.051 243.229,64.417C243.249,64.386 243.27,64.355 243.291,64.324C244.42,62.687 246.052,61.878 247.488,61.616C249.617,61.228 251.329,62.014 251.701,62.185C251.712,62.19 251.722,62.195 251.731,62.199C252.887,62.725 253.956,63.53 254.574,64.015C255.317,64.597 256.044,65.232 256.621,65.765C257.066,66.176 257.794,66.863 258.274,67.468C259.485,68.993 261.645,72.121 260.712,75.929C260.281,77.691 259.374,78.949 258.361,79.845C258.812,81.373 259.183,82.962 259.389,84.559C259.483,85.289 259.531,85.943 259.565,86.456C259.573,86.589 259.581,86.707 259.588,86.815C259.611,87.168 259.626,87.404 259.65,87.656C259.7,88.166 259.758,88.358 259.843,88.552C260.428,89.89 260.956,91.24 261.44,92.479L261.487,92.599C261.966,93.827 262.406,94.955 262.883,96.067C263.077,96.52 263.237,96.899 263.349,97.184C263.393,97.296 263.488,97.537 263.572,97.804L263.575,97.811C263.599,97.885 263.746,98.343 263.823,98.919C263.847,99.102 263.882,99.423 263.878,99.825C263.874,100.15 263.846,100.973 263.487,101.945C263.106,102.975 262.063,104.85 259.692,105.694C257.503,106.474 255.685,105.818 254.977,105.498C253.726,104.931 252.981,104.075 252.897,103.979C252.894,103.975 252.892,103.973 252.891,103.971C252.668,103.724 252.512,103.512 252.443,103.415C252.294,103.208 252.185,103.03 252.142,102.959C252.04,102.792 251.951,102.631 251.898,102.534C251.781,102.321 251.641,102.056 251.516,101.816C251.479,101.746 251.442,101.675 251.405,101.605C251.162,101.142 250.914,100.667 250.685,100.251C250.593,100.085 250.521,99.956 250.465,99.862C249.537,98.723 248.918,97.486 248.56,96.755C248.345,96.315 248.185,95.976 248.048,95.685C247.837,95.236 247.679,94.9 247.451,94.482C247.392,94.373 247.339,94.28 247.292,94.201C246.372,93.99 245.586,93.676 245.018,93.422C244.222,93.067 243.473,92.655 242.904,92.335C242.66,92.197 242.455,92.08 242.271,91.975C241.954,91.794 241.7,91.649 241.413,91.494C241.051,91.299 240.887,91.23 240.858,91.218C240.853,91.215 240.852,91.215 240.855,91.216C240.734,91.174 240.605,91.13 240.469,91.084C239.819,90.863 239.018,90.59 238.217,90.242C236.064,91.233 233.241,91.564 230.507,89.613C226.746,86.928 226.965,82.509 227.853,80.025C227.961,79.722 228.061,79.414 228.155,79.1C228.115,79.026 228.075,78.953 228.036,78.882C227.804,78.456 227.598,78.077 227.419,77.763C226.07,75.402 223.599,72.68 220.471,70.015C217.402,67.4 214.044,65.132 211.298,63.606C210.399,63.107 209.53,62.62 208.68,62.143C205.79,60.523 203.112,59.022 200.183,57.557C195.726,55.328 192.336,52.433 189.395,48.651C188.543,47.557 187.694,46.708 186.605,45.619C185.901,44.915 185.096,44.111 184.125,43.075C182.048,40.857 179.495,37.79 178.295,33.71C178.082,32.986 177.808,32.2 177.512,31.349C176.484,28.401 175.184,24.668 175.184,19.979C175.184,16.501 178.003,13.681 181.481,13.681ZM251.644,101.835C251.644,101.835 251.641,101.828 251.637,101.816C251.642,101.829 251.644,101.835 251.644,101.835ZM242.229,70.283C242.226,70.284 242.224,70.285 242.221,70.285C242.223,70.271 242.224,70.256 242.226,70.242C242.227,70.256 242.228,70.269 242.229,70.283ZM226.615,55.491C226.615,55.491 226.615,55.495 226.615,55.504L226.615,55.491ZM247.022,93.8C247.022,93.799 247.032,93.809 247.051,93.834C247.031,93.813 247.022,93.801 247.022,93.8ZM250.354,99.679C250.354,99.678 250.365,99.695 250.39,99.735C250.366,99.7 250.354,99.68 250.354,99.679ZM238.244,53.622C238.244,53.622 238.245,53.624 238.249,53.627L238.244,53.622ZM239.177,56.484C239.176,56.513 239.176,56.53 239.176,56.531C239.175,56.532 239.176,56.518 239.177,56.484Z" style="fill:rgb(35,31,32);"/>
    </g>
    <g transform="matrix(0.856164,0,0,0.856164,28.7689,47.9575)">
        <path d="M203.187,49.03C202.038,49.371 201.074,49.297 200.689,49.254C199.917,49.169 199.339,48.958 199.102,48.866C198.586,48.667 198.211,48.441 198.101,48.375C197.936,48.276 197.805,48.187 197.725,48.132C197.452,47.943 197.201,47.74 197.075,47.638C196.483,47.156 195.484,46.281 194.426,45.334C192.296,43.428 189.353,40.718 187.858,39.185C187.306,38.619 186.418,37.467 185.643,36.384C184.779,35.174 183.694,33.543 182.795,31.846C182.053,30.444 180.828,27.915 180.813,25.251C180.804,23.72 181.202,21.377 183.154,19.489C185.061,17.645 187.39,17.267 188.98,17.267C199.725,17.267 208.328,22.421 215.407,27.758C217.861,29.608 220.327,31.638 222.65,33.55C223.636,34.362 224.596,35.152 225.518,35.899C228.747,38.511 231.725,40.766 234.702,42.486C238.352,44.595 241.02,47.409 243.047,49.548C243.523,50.05 243.964,50.514 244.373,50.924C244.947,51.498 245.387,52.16 245.538,52.389C245.788,52.765 246.067,53.224 246.319,53.707C246.48,54.016 246.971,54.957 247.191,56.101C247.193,56.108 247.194,56.116 247.196,56.125C247.269,56.498 247.662,58.506 246.475,60.597C245.715,61.935 244.478,62.989 242.949,63.503C241.587,63.961 240.402,63.855 239.723,63.732C236.416,63.13 233.202,61.403 231.052,60.247C230.768,60.094 230.502,59.952 230.258,59.823C227.56,58.403 226.259,57.955 225.375,57.955C225.088,57.955 224.745,57.96 224.362,57.965C223.099,57.982 221.406,58.004 219.874,57.888C217.725,57.726 215.07,57.269 212.487,55.835C210.736,54.862 209.189,53.453 208.154,52.472C207.591,51.938 207.16,51.515 206.791,51.153C206.331,50.701 205.967,50.344 205.563,49.984C205.501,49.951 205.326,49.857 204.981,49.711C204.51,49.512 204.05,49.344 203.445,49.124C203.362,49.094 203.276,49.063 203.187,49.03ZM201.607,34.084C202.097,34.163 202.576,34.3 203.033,34.491C202.356,34.069 201.682,33.671 201.009,33.3C201.177,33.537 201.375,33.798 201.607,34.084ZM193.357,24.666C193.357,24.666 193.359,24.674 193.363,24.69C193.358,24.674 193.356,24.666 193.357,24.666ZM204.958,35.75C205.181,35.963 205.389,36.195 205.581,36.443C205.787,36.539 206.071,36.66 206.469,36.813C205.962,36.447 205.459,36.092 204.958,35.75ZM235.153,59.535C235.192,59.609 235.179,59.596 235.14,59.511C235.146,59.521 235.15,59.529 235.153,59.535ZM205.233,36.256C205.234,36.255 205.254,36.267 205.288,36.292C205.248,36.268 205.231,36.256 205.233,36.256Z" style="fill:rgb(35,31,32);"/>
    </g>
    <g transform="matrix(0.856164,0,0,0.856164,28.7689,47.9575)">
        <path d="M160.011,11.01C164.889,11.179 170.308,11.822 175.332,14.054C176.723,14.672 178.134,15.8 178.977,17.57C179.774,19.24 179.757,20.841 179.588,21.926C179.285,23.882 178.294,25.449 177.745,26.246C176.502,28.053 174.801,29.715 173.779,30.545C173.582,30.705 173.259,31.029 172.647,31.726C172.559,31.827 172.459,31.942 172.349,32.068C171.859,32.631 171.181,33.413 170.519,34.074C169.57,35.023 168.513,35.921 167.698,36.614C167.526,36.76 167.365,36.897 167.218,37.024C166.256,37.85 165.628,38.438 165.156,39.009C159.782,45.515 154.196,47.798 148.163,50.263C148.015,50.324 147.866,50.384 147.718,50.445C146.374,50.995 144.951,51.605 143.469,52.24C138.891,54.204 133.751,56.408 128.657,57.811C120.846,59.963 112.93,60.562 105.624,61.043C105.136,61.076 104.65,61.107 104.167,61.139C98.139,61.532 92.55,61.897 87.137,62.888C86.134,63.713 85.102,64.138 84.539,64.335C83.226,64.794 81.912,64.926 81.07,64.981C80.148,65.04 79.264,65.031 78.67,65.022C78.095,65.013 77.923,65.012 77.923,65.008C77.923,65.008 77.923,65.008 77.923,65.008C77.765,65.023 77.609,65.039 77.453,65.057C75.627,65.499 73.811,65.958 72.007,66.438C71.736,66.547 71.463,66.662 71.186,66.785C71.112,66.818 70.452,67.111 69.854,67.391C69.731,67.449 69.625,67.5 69.536,67.543C68.189,68.455 66.491,68.847 64.771,68.503C64.702,68.489 64.576,68.463 64.407,68.417C64.314,68.436 64.221,68.454 64.128,68.471C63.32,68.625 62.234,68.803 61.19,68.842C60.705,68.86 59.868,68.867 58.943,68.671C58.4,68.557 55.67,67.962 54.247,65.117C53.738,63.691 53.709,61.044 54.04,59.944C54.347,59.293 54.997,58.324 55.291,57.987C55.818,57.426 56.329,57.097 56.459,57.013L56.463,57.01C56.806,56.788 57.098,56.649 57.166,56.617L57.171,56.615C57.357,56.526 57.51,56.465 57.547,56.45C57.652,56.408 57.743,56.375 57.771,56.364C57.85,56.336 57.932,56.307 57.996,56.285C58.132,56.238 58.313,56.176 58.511,56.11C58.912,55.975 59.444,55.797 59.976,55.62L62.169,54.89C62.195,54.881 62.211,54.876 62.219,54.873C62.226,54.871 62.227,54.871 62.224,54.871C63.633,54.391 65.358,53.803 67.196,53.372C67.249,53.326 67.317,53.266 67.405,53.185C67.493,53.104 67.58,53.023 67.69,52.922C67.718,52.896 67.747,52.868 67.778,52.839C67.922,52.706 68.093,52.548 68.279,52.381C69.437,51.339 70.771,50.853 71.301,50.667C71.517,50.591 71.737,50.52 71.959,50.454C71.48,49.683 71.129,48.728 71.025,47.547C70.878,45.866 71.404,44.564 71.746,43.889C72.109,43.172 72.534,42.634 72.825,42.298C73.835,41.133 75.241,40.168 76.036,39.639C77.015,38.987 78.054,38.368 78.818,37.92C79.08,37.767 79.238,37.675 79.376,37.594C79.502,37.522 79.612,37.458 79.77,37.365C79.828,37.331 79.873,37.304 79.908,37.283C82.29,35.555 84.845,34.424 86.768,33.573C86.816,33.552 86.863,33.531 86.911,33.51C89.101,32.54 90.562,31.875 91.81,30.974C97.53,26.843 104.355,23.124 111.782,21.29C115.552,20.359 119.095,18.895 123.118,17.234C124.45,16.684 125.835,16.112 127.299,15.53C132.845,13.326 139.25,11.128 146.331,11.128C147.638,11.128 149.183,11.092 150.841,11.053C153.783,10.985 157.078,10.908 160.011,11.01ZM69.245,67.687C69.247,67.686 69.249,67.685 69.251,67.684C69.214,67.705 69.208,67.707 69.245,67.687ZM145.07,23.758C140.923,23.989 136.74,25.331 131.951,27.234C130.863,27.667 129.72,28.14 128.534,28.631C127.961,28.868 127.379,29.109 126.787,29.352C129.495,28.73 132.067,28.078 134.537,27.284C135.665,26.922 137.037,26.447 138.497,25.942C140.666,25.191 143.029,24.373 145.07,23.758Z" style="fill:rgb(35,31,32);"/>
    </g>
    <g transform="matrix(0.856164,0,0,0.856164,28.7689,47.9575)">
        <path d="M237.992,93.334C239.547,90.223 243.33,88.962 246.441,90.517C247.945,91.269 248.742,92.445 248.843,92.594C248.848,92.6 248.85,92.605 248.852,92.607C249.103,92.964 249.28,93.287 249.376,93.47C249.58,93.859 249.751,94.254 249.874,94.552C250.133,95.182 250.399,95.922 250.631,96.618C250.866,97.322 251.1,98.084 251.284,98.771C251.375,99.112 251.469,99.49 251.544,99.864C251.595,100.117 251.733,100.803 251.733,101.581C251.733,104.634 252.235,107.716 252.853,111.402L252.888,111.608C253.469,115.076 254.147,119.115 254.147,123.307C254.147,137.317 253.464,151.801 250.894,165.94C249.775,172.093 247.497,178.632 244.441,184.156C243.92,185.1 243.544,186.106 242.998,187.566C242.799,188.099 242.577,188.693 242.317,189.366C241.497,191.492 240.264,194.457 238.046,196.921C237.655,197.356 237.206,198.112 236.551,199.612C236.436,199.875 236.302,200.195 236.152,200.552C235.639,201.778 234.939,203.447 234.177,204.819C232.314,208.171 230.557,209.897 228.698,211.723C228.421,211.995 228.143,212.269 227.861,212.55C223.337,217.074 218.053,221.835 212.271,225.514C206.041,229.479 199.596,231.929 193.573,234.218C192.798,234.513 192.029,234.805 191.27,235.097C183.824,237.961 175.699,237.804 169.119,237.678C167.84,237.653 166.619,237.629 165.473,237.629C160.278,237.629 155.046,237.318 150.03,237.02L149.934,237.015C144.822,236.711 139.929,236.422 135.131,236.422C117.967,236.422 102.768,232.808 87.169,226.278C86.649,226.06 86.098,225.832 85.523,225.595C83.059,224.576 80.164,223.379 77.401,222.024C73.993,220.353 70.299,218.218 67.306,215.391L67.171,215.263L67.049,215.134L67.048,215.133L67.048,215.133L67.046,215.131L67.045,215.13L67.043,215.128L66.943,215.024C66.856,214.934 66.716,214.791 66.524,214.598C66.139,214.213 65.545,213.632 64.751,212.889C63.203,211.44 60.896,209.382 57.891,206.972C52.878,203.661 50.006,198.78 47.902,195.205C47.557,194.618 47.232,194.066 46.922,193.561C41.157,184.194 36.296,173.887 33.276,163.012C30.933,154.58 30.933,146.915 30.934,139.252L30.934,139.031C30.934,132.583 31.018,125.743 32.276,118.828C32.538,117.387 33.067,115.852 33.39,114.916C33.448,114.749 33.499,114.602 33.54,114.477C33.866,113.504 33.934,113.133 33.947,113.056C33.951,113.038 33.951,113.036 33.951,113.048C33.951,110.223 35.191,107.906 35.724,106.911C35.75,106.863 35.774,106.818 35.797,106.776C36.256,105.912 36.394,105.6 36.424,105.551C36.886,102.179 39.956,99.772 43.358,100.15C46.815,100.534 49.306,103.648 48.922,107.105C48.763,108.533 48.336,109.73 47.953,110.613C47.632,111.352 47.248,112.069 47.006,112.522C46.975,112.581 46.946,112.636 46.919,112.685C46.711,113.076 46.597,113.319 46.539,113.448C46.465,115.518 45.844,117.397 45.485,118.472C45.37,118.816 45.27,119.11 45.184,119.366C44.886,120.244 44.744,120.663 44.668,121.081C43.635,126.761 43.529,132.577 43.529,139.031C43.529,146.941 43.571,153.015 45.411,159.641C48.056,169.161 52.372,178.386 57.648,186.96C58.143,187.764 58.59,188.506 59.005,189.193C61.219,192.866 62.49,194.974 64.962,196.547L65.246,196.728L65.51,196.938C68.916,199.656 71.553,202.004 73.356,203.692C74.258,204.536 74.953,205.216 75.432,205.695C75.672,205.935 75.858,206.125 75.989,206.26L76.058,206.332C77.697,207.848 80.043,209.292 82.946,210.716C85.311,211.875 87.735,212.879 90.173,213.887C90.792,214.144 91.412,214.4 92.032,214.66C106.358,220.657 119.904,223.827 135.131,223.827C140.337,223.827 145.576,224.138 150.596,224.437L150.681,224.442C155.793,224.746 160.682,225.034 165.473,225.034C167.102,225.034 168.649,225.056 170.127,225.077C176.639,225.169 181.807,225.242 186.748,223.342C187.544,223.036 188.323,222.738 189.088,222.447C195.228,220.105 200.43,218.12 205.51,214.888C210.168,211.923 214.705,207.894 218.955,203.644C219.32,203.279 219.644,202.958 219.935,202.67C221.675,200.947 222.218,200.409 223.167,198.702C223.567,197.982 223.859,197.285 224.275,196.292C224.481,195.802 224.716,195.241 225.009,194.57C225.751,192.871 226.858,190.525 228.684,188.496C229.231,187.888 229.791,186.843 230.567,184.832C230.688,184.518 230.822,184.157 230.968,183.762C231.576,182.124 232.398,179.908 233.42,178.06C235.785,173.786 237.617,168.553 238.502,163.687C240.881,150.601 241.552,136.96 241.552,123.307C241.552,120.254 241.049,117.171 240.431,113.485L240.397,113.279C239.84,109.96 239.196,106.118 239.141,102.12C239.134,102.09 239.125,102.058 239.116,102.023C239.013,101.64 238.859,101.128 238.683,100.602C238.533,100.151 238.392,99.762 238.284,99.489C237.162,97.69 236.975,95.368 237.992,93.334Z" style="fill:rgb(35,31,32);"/>
    </g>
    <g transform="matrix(0.856164,0,0,0.856164,28.7689,47.9575)">
        <path d="M199.564,143.563C203.042,143.563 205.862,146.382 205.862,149.861C205.862,153.682 204.362,157.193 203.186,159.644C202.58,160.906 202.073,161.882 201.638,162.719C201.021,163.907 200.549,164.816 200.145,165.867C199.295,168.078 197.584,170.12 196.506,171.339C195.38,172.612 194.17,173.819 193.389,174.598C193.306,174.681 193.227,174.759 193.154,174.832C192.468,175.519 191.82,176.329 190.917,177.476L190.824,177.594C190.014,178.625 188.957,179.968 187.723,181.202C183.825,185.101 177.161,188.739 172.523,190.345C172.057,190.506 171.588,190.67 171.114,190.836C165.745,192.714 159.836,194.781 152.626,194.781C152.085,194.781 151.738,194.805 151.271,194.837C150.829,194.867 150.28,194.904 149.359,194.936C148.034,194.982 145.975,194.994 143.93,194.388C143.934,194.389 143.936,194.389 143.936,194.389C143.936,194.389 143.846,194.367 143.602,194.352C143.292,194.333 142.939,194.336 142.307,194.346C142.248,194.347 142.184,194.348 142.117,194.35C141.052,194.37 138.986,194.409 136.894,193.765C135.69,193.395 134.415,193.133 132.757,192.792L132.755,192.792C131.202,192.473 129.292,192.08 127.368,191.463C122.837,190.01 118.725,187.913 115.043,186.035C114.298,185.655 113.572,185.285 112.863,184.93C105.509,181.253 98.197,175.952 92.384,170.138C89.893,167.648 87.807,165.183 85.828,162.844C85.527,162.488 85.228,162.134 84.931,161.784C83.986,160.674 83.223,159.25 82.757,158.347C82.362,157.582 81.951,156.726 81.615,156.027C81.613,156.023 81.612,156.02 81.61,156.017C80.147,154.863 79.207,153.075 79.207,151.068C79.207,150.725 79.221,150.105 79.369,149.398C79.371,149.391 79.373,149.383 79.374,149.373C79.453,148.991 79.911,146.761 82.11,145.287C85.291,143.154 88.335,144.692 89.237,145.292C90.17,145.912 90.737,146.642 90.923,146.884C91.628,147.804 92.268,149.126 92.595,149.801C92.613,149.837 92.629,149.871 92.645,149.903C92.782,150.186 92.913,150.458 93.04,150.723C93.353,151.374 93.643,151.977 93.948,152.567C94.258,153.167 94.447,153.479 94.519,153.597C94.559,153.663 94.562,153.668 94.527,153.627C94.85,154.007 95.165,154.378 95.473,154.742C97.468,157.099 99.196,159.139 101.29,161.232C106.164,166.106 112.375,170.605 118.495,173.665C119.382,174.108 120.227,174.538 121.043,174.952C124.69,176.806 127.738,178.355 131.215,179.47C132.399,179.85 133.669,180.121 135.292,180.455C135.368,180.47 135.444,180.486 135.522,180.502C136.999,180.805 138.802,181.175 140.597,181.727C140.597,181.727 140.777,181.774 142.105,181.753C142.163,181.752 142.226,181.751 142.292,181.749C143.367,181.729 145.414,181.691 147.509,182.312C147.507,182.311 147.508,182.312 147.513,182.312C147.557,182.32 147.926,182.383 148.925,182.348C149.335,182.334 149.738,182.31 150.219,182.282C150.333,182.275 150.45,182.268 150.574,182.261C151.164,182.226 151.896,182.186 152.626,182.186C157.622,182.186 161.609,180.801 167.307,178.823C167.665,178.698 168.03,178.571 168.403,178.442C171.765,177.278 176.611,174.502 178.817,172.296C179.477,171.636 180.108,170.845 181.019,169.687L181.086,169.602C181.908,168.557 182.981,167.193 184.248,165.926C184.325,165.849 184.403,165.771 184.483,165.692C185.288,164.888 186.222,163.955 187.072,162.994C187.533,162.473 187.901,162.02 188.164,161.652C188.329,161.42 188.403,161.291 188.424,161.256C189.054,159.642 190.086,157.629 190.916,156.01C191.275,155.309 191.596,154.682 191.831,154.193C192.908,151.95 193.267,150.643 193.267,149.861C193.267,146.382 196.086,143.563 199.564,143.563ZM91.802,151.102C91.802,151.085 91.802,151.074 91.802,151.069L91.802,151.068C91.802,151.079 91.802,151.09 91.802,151.102Z" style="fill:rgb(35,31,32);"/>
    </g>
    <g transform="matrix(0.856164,0,0,0.856164,28.7689,47.9575)">
        <path d="M255.279,123.796C255.363,123.695 255.497,123.546 255.703,123.351C256.443,122.65 257.621,121.818 259.121,120.998C260.589,120.194 262.152,119.518 263.512,119.057C264.908,118.584 265.641,118.49 265.734,118.478C265.742,118.477 265.745,118.477 265.744,118.477C266.357,118.477 267.414,118.808 268.614,120.595C269.823,122.395 270.527,124.83 270.527,126.822C270.527,127.407 270.529,127.96 270.531,128.484C270.547,132.106 270.556,134.363 269.759,136.434C269.527,137.038 269.274,137.413 268.798,137.955C268.583,138.2 268.392,138.403 268.13,138.682C267.995,138.826 267.84,138.99 267.654,139.191C267.167,139.715 266.577,140.368 265.961,141.16C264.874,142.558 263.279,144.203 260.683,146.022C257.143,148.504 253.369,150.133 250.611,151.053C247.311,152.153 245.528,155.719 246.628,159.019C247.727,162.318 251.294,164.101 254.593,163.002C258.196,161.801 263.137,159.683 267.912,156.336C271.502,153.82 274.02,151.314 275.903,148.893C276.355,148.312 276.612,148.044 276.98,147.661C277.28,147.349 277.653,146.96 278.265,146.262C279.404,144.964 280.6,143.333 281.515,140.955C283.241,136.469 283.178,131.559 283.134,128.182C283.128,127.695 283.122,127.24 283.122,126.822C283.122,122.37 281.696,117.484 279.07,113.573C276.436,109.651 271.952,105.882 265.744,105.882C263.671,105.882 261.368,106.485 259.468,107.129C257.413,107.826 255.18,108.797 253.075,109.949C251.001,111.083 248.829,112.515 247.043,114.206C245.419,115.743 243.249,118.306 242.863,121.773C242.479,125.23 244.97,128.344 248.427,128.728C251.669,129.088 254.61,126.919 255.279,123.796ZM255.16,123.956C255.16,123.955 255.163,123.949 255.171,123.937C255.165,123.949 255.161,123.956 255.16,123.956Z" style="fill:rgb(35,31,32);"/>
    </g>
    <g transform="matrix(0.856164,0,0,0.856164,28.7689,47.9575)">
        <path d="M260.227,111.653C259.607,112.194 258.901,112.602 258.452,112.827C257.951,113.077 257.496,113.248 257.155,113.364C256.868,113.462 256.582,113.547 256.431,113.592C256.414,113.597 256.398,113.602 256.385,113.606C256.321,113.625 256.272,113.64 256.236,113.651C253.195,115.118 249.516,113.922 247.931,110.91C246.311,107.833 247.493,104.024 250.571,102.404C251.344,101.997 252.089,101.748 252.524,101.615C252.672,101.525 252.825,101.44 252.983,101.361C253.121,101.292 253.297,101.207 253.492,101.123C253.495,101.121 253.498,101.12 253.502,101.118C253.614,101.069 254.088,100.864 254.692,100.726C254.694,100.725 254.698,100.724 254.704,100.723C254.853,100.686 256.108,100.378 257.618,100.749C258.563,100.982 260.37,101.683 261.541,103.666C262.709,105.646 262.451,107.562 262.202,108.494C261.804,109.99 260.937,110.937 260.831,111.053C260.826,111.058 260.823,111.061 260.822,111.063C260.567,111.351 260.338,111.556 260.227,111.653ZM258.616,112.626C258.756,112.556 258.721,112.582 258.57,112.649C258.586,112.641 258.601,112.634 258.616,112.626Z" style="fill:rgb(35,31,32);"/>
    </g>
</svg>
